<?xml version="1.0" encoding="iso-8859-1"?>
<!-- Generator: Adobe Illustrator 21.1.0, SVG Export Plug-In . SVG Version: 6.00 Build 0)  -->
<svg version="1.1" id="_x35_" xmlns="http://www.w3.org/2000/svg" xmlns:xlink="http://www.w3.org/1999/xlink" x="0px" y="0px"
	 viewBox="0 0 512 512" style="enable-background:new 0 0 512 512;" xml:space="preserve">
<g>
	<path style="fill:#888888;" d="M91.482,429.643c0,10.623,0.817,44.125,10.623,53.113c9.806,8.988,35.137,12.257,44.125,13.891
		c8.988,1.634,78.445,14.708,92.336,13.074c13.891-1.634,93.97-70.273,103.776-75.176c9.806-4.903,19.611-25.331,6.537-44.125
		C334.17,377.346,91.482,429.643,91.482,429.643z"/>
	<path style="fill:#6D91BC;" d="M156.036,110.145c-3.221,0.805-116.033,40.039-130.741,47.394
		c-14.708,7.354-13.891,26.965-11.44,39.222c2.451,12.257,43.308,199.38,56.382,220.625s41.674,33.502,61.285,38.405
		c19.611,4.903,102.141,13.891,110.313,10.623c8.171-3.269,96.422-62.102,105.41-67.005s24.514-31.051,19.611-44.125
		c-4.903-13.074-3.268-17.16-13.891-17.16c-10.623,0-93.153-14.708-93.153-14.708s-58.833-197.746-67.005-205.917
		C184.635,109.327,172.378,106.059,156.036,110.145z"/>
	<path style="fill:#5880A8;" d="M11.403,177.149c2.451-10.623,19.611-19.611,31.051-15.525c11.44,4.086,24.514,25.331,26.148,32.685
		c1.634,7.354,31.051,138.095,31.051,138.095s118.484,31.868,130.741,34.319c12.257,2.451,18.794-0.817,21.245-7.354
		c3.469-1.844,2.451,0.817,4.086,4.903c1.634,4.086-0.817,15.526-0.817,15.526s-8.729,11.334-33.502,2.451
		c-24.773-8.883-111.947-24.514-111.947-24.514s2.451,22.88,9.806,31.051c7.354,8.171,11.44,13.074,23.697,16.343
		c12.257,3.269,49.028,5.72,61.285,8.171c12.257,2.451,26.965,6.537,35.137,10.623c8.171,4.086,10.623,38.405,2.451,42.491
		c-8.171,4.086-85.799-4.086-98.056-7.354s-53.113-17.977-66.188-30.234c-13.074-12.257-24.514-53.114-24.514-55.565
		c0-2.451-39.222-176.5-39.222-176.5L11.403,177.149z"/>
	<path style="fill:#B4B4B5;" d="M115.996,320.964l-16.343,11.44c0,0,102.958,26.148,116.85,30.234
		c13.891,4.086,26.765,6.747,32.685,0.817c5.921-5.93,7.354-7.354-5.72-12.257S115.996,320.964,115.996,320.964z"/>
	<path style="fill:#65D69D;" d="M111.91,311.976c-6.537-8.988-26.148-85.799-4.903-135.644
		c19.611-42.491,34.319-59.651,41.674-62.919c5.72-8.989,8.988-17.16,17.16-18.794c8.171-1.634,13.891,8.988,20.428,10.623
		c6.537,1.634,15.525,0,16.343-5.72c0.817-5.72,8.271-15.164,14.708-15.526c6.437-0.362,13.074,15.526,13.891,20.428
		c0.817,4.903,5.72,7.354,17.16,9.806c11.44,2.451,17.977,4.086,17.16,10.623c-0.817,6.537-5.72,9.806-14.708,12.257
		c-8.988,2.451-15.525,6.537-15.525,6.537s-11.44,27.783-5.72,33.502c5.72,5.72,16.343,10.623,16.343,10.623
		s14.708,19.611,25.331,20.428c10.623,0.817,21.245-18.794,26.965-24.514c5.72-5.72,24.007-6.472,29.417-0.817
		c5.41,5.655,4.903,8.989,4.903,8.989s5.72,5.72,0.817,10.623c-4.903,4.903-8.988,8.988-8.988,8.988l20.428,115.215
		c0,0,13.074,21.245,4.903,42.491s-25.331,52.296-24.514,59.651c0.817,7.354-2.451,13.074,9.805,16.343
		c12.257,3.268,21.245,4.086,24.514,6.537c3.268,2.451-13.074,0.817-16.343,0.817c-3.268,0,8.989,6.537,18.794,7.354
		c9.806,0.817-7.354,7.354-28.6,1.634c9.805,1.634,21.313,10.849-3.269,5.72c-13.074-4.903-11.44-1.634-11.44-1.634
		s16.343,7.354,26.148,8.171c9.806,0.817-15.795,4.868-27.782,0.817c11.44,4.086,20.428,5.72,26.965,6.537
		c6.537,0.817-19.611,4.903-38.405-0.817c20.046,7.326,24.514,10.623,17.977,11.44c-6.537,0.817-29.417-4.086-46.577-13.074
		c-17.16-8.988-25.331-37.588-23.697-53.931c1.634-16.343-3.268-35.954-7.354-38.405c3.484-2.212,8.171,0.817,8.988-6.537
		c0.817-7.354,0-21.245-2.451-24.514c-2.451-3.268-22.88-11.44-27.782-11.44c-4.903,0-90.702-21.245-90.702-21.245l-17.977-1.634
		L111.91,311.976z"/>
	<path style="fill:#FFFFFF;" d="M170.744,162.441c11.44,4.086,18.908-1.873,24.514-5.72s22.034-9.249,28.6-12.257
		c6.566-3.008,17.16-2.451,17.16-2.451s-9.806,17.977-4.903,26.965c4.903,8.988,21.245,40.039,22.062,60.468
		c0.817,2.451-4.903,4.903-4.903,4.903s-41.269,23.823-43.308,28.599c-2.039,4.776-4.903,5.72-4.903,8.171
		c0,2.451,0,17.977,0,17.977s-13.891-3.269-22.88-8.988c-8.988-5.72-13.074-41.674-4.903-58.016
		c8.171-16.343,8.171-33.502,1.634-36.771C172.378,182.052,170.744,162.441,170.744,162.441z"/>
	<path style="fill:#D61E3D;" d="M403.081,233.531c3.657,1.391,0.545,4.903,1.362,8.988c0.817,4.086,1.634,37.588,1.634,37.588
		s-49.845,36.771-55.565,40.039s-28.262,17.008-35.137,17.16c-6.875,0.152-44.125-9.806-44.125-9.806s4.903-0.545,6.265-3.541
		c1.362-2.996-3.541-2.451-8.171-2.451c2.996-0.817,15.798-5.447,11.44-7.082s-7.626-1.634-10.895-2.724
		c-3.268-1.09,12.529,1.089,11.44-1.634c-1.09-2.724-5.992-6.537-11.985-9.533c-5.992-2.996-14.436-8.988-13.074-14.436
		c1.362-5.447,3.541-5.992,3.541-7.627c0-1.634-1.362-3.813-5.72-1.634c-4.358,2.179-9.533,4.63-9.533,4.63
		s-6.265,7.899-10.35,10.35c-4.086,2.451-26.42-1.634-27.782-2.179c-1.362-0.545-1.362-1.907-1.362-1.907l-0.545-17.432
		c0,0,1.907-4.086,5.448-7.354c3.541-3.268,65.37-40.856,71.09-44.942c5.72-4.086,24.514-10.078,30.506-10.078
		c5.992,0,30.506,5.175,34.592,5.992c4.086,0.817,39.222,11.44,44.397,11.985c5.175,0.545,10.078,4.63,10.623,5.447
		C401.72,232.169,403.081,233.531,403.081,233.531z"/>
	<path style="fill:#FF8352;" d="M209.149,268.668c0.817,0.272,35.409,12.802,35.409,12.802s-5.448,9.533-13.891,10.895
		c-8.444,1.362-21.79-2.179-24.242-2.724c-2.451-0.545-1.362-5.992-1.362-6.809c0-0.817-0.817-9.261-1.09-11.44
		C203.701,269.213,204.519,266.489,209.149,268.668z"/>
	<path style="fill:#FF8352;" d="M257.36,285.555c3.268,0.817,44.397,11.168,53.113,11.44c8.716,0.272,12.257-1.362,12.257-1.362
		s51.479-33.23,56.11-37.86c4.63-4.63,22.063-21.518,23.697-22.88c1.634-1.362,1.362,5.992,1.907,7.627
		c0.545,1.634,1.634,37.588,1.634,37.588s-12.257,10.895-15.798,14.164c-3.541,3.268-53.658,35.409-56.927,37.043
		c-3.269,1.634-14.164,5.992-21.245,5.175c-7.082-0.817-38.405-8.988-38.405-8.988s4.903-3.541,4.358-4.903
		c-0.545-1.362-4.903-1.634-4.903-1.634s9.806-3.813,7.626-6.537c-2.179-2.724-10.623-2.451-9.806-2.451
		c0.817,0,11.167,0.817,10.35-1.907c-0.817-2.724-6.537-7.627-8.444-8.444c-1.907-0.817-14.436-8.988-16.07-10.895
		C255.181,288.824,257.36,285.555,257.36,285.555z"/>
	<path style="fill:#F44D69;" d="M231.212,276.567c1.634-1.634,59.923-42.218,64.281-45.215c4.358-2.996,16.07-8.171,28.055-5.72
		c11.985,2.451,64.009,16.07,67.549,16.343s2.724,2.724,2.724,2.724s-49.028,36.498-54.748,40.856
		c-5.72,4.358-16.887,10.35-20.428,11.168s-16.343,0.545-17.977,0c-1.634-0.545-43.308-11.168-43.308-11.168
		s2.179-5.447,2.451-7.082c0.272-1.634-4.63-2.451-5.72-1.634c-1.089,0.817-8.171,2.724-9.533,4.63
		C240.745,280.108,231.212,276.567,231.212,276.567z"/>
	<path style="fill:#FFFFFF;" d="M309.656,260.769c1.362-3.541,4.903-7.354,7.899-7.899c2.996-0.545,5.72-2.724,5.72-2.724
		s0.272-3.813,2.996-5.72c2.724-1.907,5.992-2.179,4.63-3.813c-1.362-1.634-4.358-4.358-3.268-6.265
		c1.09-1.907,5.175-6.537,7.354-5.992c2.179,0.545,54.203,13.074,56.11,13.619c1.907,0.545,2.724,2.451,1.362,3.269
		c-1.362,0.817-29.962,27.782-32.685,28.055c-2.724,0.272-6.265-1.907-6.265-1.907s-31.868-6.809-34.864-7.627
		C315.648,262.948,309.656,260.769,309.656,260.769z"/>
	<path style="fill:#34AD37;" d="M302.847,293.454c-5.72-2.179-10.895-7.899-10.623-11.712c0.272-3.813,2.996-3.813,8.171-3.269
		c5.175,0.545,7.082-4.358,9.806-7.082c2.724-2.724,7.082-3.269,8.444-1.362c1.362,1.907,2.179,1.362,2.179,1.362
		s4.358-5.448,6.537-4.903c2.179,0.545,4.358,5.448,6.537,4.086c2.179-1.362,8.444-5.992,10.895-6.809
		c2.451-0.817,5.992,7.354,1.362,14.164c-4.63,6.809-22.063,17.704-24.786,18.249c-2.724,0.545-14.164,0.272-16.07-0.272
		C303.391,295.361,302.847,293.454,302.847,293.454z"/>
	<path style="fill:#E0AD96;" d="M273.158,280.653c-4.516,1.129-5.175,2.451-8.444,0.272c-3.269-2.179-1.362-7.082,5.448-9.261
		c6.809-2.179,12.529-8.171,17.16-10.895c4.63-2.724,10.895,0.545,8.988,4.903C294.403,270.03,278.605,279.291,273.158,280.653z"/>
	<path style="fill:#E8DACF;" d="M293.314,155.087c-10.623-2.451-10.623-5.72-13.074-27.783c-2.451-22.063,0.817-93.97,0.817-102.141
		c0-8.171,0.817-19.611,13.891-21.245s103.776,9.806,111.947,9.806c8.171,0,62.102,13.074,74.359,13.891
		c12.257,0.817,20.428,4.903,22.88,13.074c2.451,8.171-0.817,56.382-0.817,83.347s-1.634,40.039-0.817,49.845
		c0.817,9.805-4.387,19.483-20.428,17.977C466.03,190.352,293.314,155.087,293.314,155.087z"/>
	<path style="fill:#AAC7E2;" d="M310.473,145.281c-13.074-1.634-14.708-4.086-13.074-16.343
		c1.634-12.257-0.817-106.227,0.817-114.398c1.634-8.171,0.817-10.623,8.989-10.623c8.171,0,138.095,18.794,149.535,19.611
		c11.44,0.817,35.137,6.537,41.674,8.171c6.537,1.634,5.72,20.428,5.72,25.331c0,4.903-0.817,120.935-0.817,120.935l-11.44-1.634
		L310.473,145.281z"/>
	<g>
		<g>
			<path style="fill:#231815;" d="M150.376,105.511c2.492-4.334,4.476-8.368,8.974-10.965c3.375-1.949,7.359-3.258,11.212-1.993
				c3.653,1.201,6.109,4.264,8.225,7.311c0.576,0.829,6.703,9.442,6.684,9.462c-0.658,0.691-5.4-2.695-6.067-3.265
				c-2.561-2.19-4.182-5.221-6.666-7.465c-4.459-4.028-9.237-1.606-13.534,1.467c-3.849,2.753-4.897,8.033-7.722,11.663
				c-0.962,1.236-4.055,4.901-3.636,1.57C148.159,110.81,149.837,108.079,150.376,105.511z"/>
			<path style="fill:#231815;" d="M202.893,90.937c2.027-3.407,3.989-7.366,7.799-9.086c3.752-1.694,8.316-0.782,11.431,1.783
				c3.051,2.513,4.886,6.417,5.906,10.158c0.133,0.488,1.617,9.009,0.452,8.884c-0.379-0.041-2.049-4.14-2.414-4.869
				c-1.197-2.391-2.103-4.965-3.468-7.265c-2.378-4.008-6.442-6.488-10.955-4.033c-3.782,2.057-4.838,6.912-7.329,10.158
				c-1.006,1.311-3.456,4.229-3.396,1.33C200.962,95.932,202.439,93.019,202.893,90.937z"/>
			<path style="fill:#231815;" d="M250.255,112.482c-1.614-0.369-9.344-1.795-9.992,1.125c-0.632,2.848,8.027,4.439,9.776,4.938
				c3.031,0.865,10.105,2.096,11.227,5.794c0.879,2.899-2.64,6.441-4.77,8.019c-7.698,5.704-18.586,7.228-27.708,9.097
				c-5.029,1.03-9.961,2.034-14.687,4.105c-5.061,2.218-9.914,4.882-14.872,7.314c-9.161,4.493-18.136,8.159-28.469,8.106
				c-2.317-0.012-7.13,0.101-3.815,3.077c2.882,2.587,8.077,2.466,11.613,1.91c10.201-1.606,19.293-8.458,28.336-13.086
				c4.088-2.092,8.221-4.288,12.596-5.719c4.459-1.459,9.155-2.21,13.726-3.227c9.354-2.081,22.015-3.602,29.094-10.756
				c3.777-3.817,6.08-9.406,2.102-13.989C260.979,115.235,255.155,113.645,250.255,112.482z"/>
			<path style="fill:#231815;" d="M127.712,135.685c-11.564,16.071-19.415,34.186-24.626,53.206
				c-2.662,9.714-4.819,19.589-6.359,29.544c-0.531,3.433-0.986,6.88-1.316,10.339c-0.191,1.998,0.498,7.047-0.769,8.508
				c0.55-0.635-0.75-5.387-0.857-6.426c-0.273-2.662-0.435-5.32-0.418-7.997c0.042-6.65,0.982-13.245,2.295-19.753
				c2.446-12.131,5.544-24.182,9.645-35.865c3.519-10.027,9.481-19.354,15.162-28.294c3.6-5.666,7.481-11.198,12.209-15.991
				c0.467-0.474,8.438-6.913,8.508-6.109c0.095,1.102-2.579,3.107-3.21,3.813c-1.598,1.788-3.061,3.695-4.448,5.65
				C131.402,129.307,129.459,132.453,127.712,135.685z"/>
			<path style="fill:#231815;" d="M238.582,149.619c-3.113,7.666-3.152,15.988-0.735,23.84c1.123,3.648,2.715,7.129,4.182,10.646
				c0.263,0.63,2.204,6.868,2.324,6.918c-1.524-0.631-3.524-3.77-4.542-5.128c-2.095-2.794-3.543-5.98-4.811-9.218
				c-2.195-5.603-4.17-12.142-2.941-18.164c1.107-5.42,2.422-11.319,5.551-15.967c0.992-1.474,2.38-3.746,2.585-1.04
				C240.376,143.905,238.785,147.085,238.582,149.619z"/>
			<path style="fill:#231815;" d="M213.821,256.267c-2.602,1.841-5.247,3.873-7.259,6.372c-0.971,1.206-3.242,6.745-0.269,5.085
				c0.457-0.255,1.982-2.359,2.773-2.961c2.582-1.967,5.3-3.772,7.988-5.589c12.735-8.61,25.677-16.955,38.719-25.09
				c12.376-7.718,25.24-16.683,38.961-21.821c14.63-5.479,30.791-0.527,45.461,2.598c14.745,3.142,29.313,6.755,43.77,11.035
				c1.094,0.324,12.088,4.1,12.834,2.29c0.767-1.861-9.849-5.244-10.835-5.582c-12.45-4.267-25.461-6.41-38.354-8.856
				c-6.941-1.317-13.854-2.778-20.799-4.074c-7.068-1.319-14.396-2.971-21.621-2.355c-8.618,0.734-16.356,4.688-23.793,8.822
				c-7.896,4.388-15.76,8.837-23.603,13.319C242.916,237.962,227.868,246.424,213.821,256.267z"/>
			<path style="fill:#231815;" d="M267.841,287.341c2.414,0.779,4.856,1.472,7.313,2.105c2.086,0.537,4.855,0.649,6.688,1.833
				c-0.208,0.369-0.629,0.908-0.61,1.348c-0.026-2.781,5.716-0.267,7.484,0.103c3.305,0.693,6.617,1.359,9.943,1.942
				c0.957,0.168,14.828,2.528,14.969,1.719c-0.187,1.069-5.197,1.445-6.005,1.516c-3.247,0.285-6.465-0.067-9.673-0.554
				c-5.723-0.869-11.418-1.922-17.124-2.893c0.135,0.016,0.27,0.032,0.404,0.048c-2.236-0.104-4.88-1.56-7.049-2.197
				c-4.613-1.354-9.394-2.44-13.789-4.43c-1.272-0.576-3.349-1.133-2.032-1.948c0.793-0.491,3.833,0.643,4.805,0.786
				C264.721,286.948,266.28,287.154,267.841,287.341z"/>
			<path style="fill:#231815;" d="M212.807,268.802c5.55,2.495,11.461,4.114,17.153,6.244c1.15,0.431,10.517,3.539,10.257,5.226
				c-0.118,0.762-19.444-4.813-21.752-5.778c-1.717-0.718-3.386-1.543-5.121-2.233c-1.563-0.622-5.556-1.631-6.459-3.287
				c-0.577-1.058-0.834-0.69,0.189-1.081C208.207,267.46,211.464,268.651,212.807,268.802z"/>
			<path style="fill:#231815;" d="M331.444,286.713c14.883-8.401,28.7-18.905,42.163-29.384
				c6.531-5.083,13.096-10.228,19.175-15.851c2.145-1.984,5.372-4.505,6.33-7.372c0.555-1.66,0.23-2.406-0.983-3.557
				c-0.172-0.163-3.1-2.165-3.191-2.093c1.211-0.958,5.645,2.209,6.183,3.456c1.175,2.719-1.079,6.012-2.593,8.104
				c-3.584,4.949-8.431,8.922-13.055,12.851c-8.727,7.415-17.686,14.681-26.826,21.583c-6.156,4.649-13.124,8.475-19.641,12.588
				c-5.014,3.164-10.131,6.279-15.655,8.482c-1.62,0.646-8.208,3.445-9.644,1.217c0.447,0.693,8.46-3.651,9.345-4.192
				C325.956,290.766,328.742,288.782,331.444,286.713z"/>
			<path style="fill:#231815;" d="M117.132,276.74c11.397,24.684,40.557,31.807,64.438,37.759
				c12.775,3.184,25.753,6.006,38.897,7.087c4.658,0.383,9.356,0.566,14.027,0.295c3.726-0.216,7.984-1.881,11.609-1.6
				c-1.517-0.118-5.005,1.874-6.519,2.312c-2.748,0.796-5.559,1.377-8.402,1.724c-5.748,0.701-11.533,0.626-17.295,0.16
				c-12.952-1.048-25.78-4.129-38.368-7.238c-11.671-2.883-24.421-5.144-34.929-11.253c-9.246-5.375-18.633-13.156-24.436-22.208
				c-3.907-6.095-6.187-13.152-8.526-19.953c-1.019-2.962-2.002-5.949-3.204-8.844c-0.218-0.524-2.346-5.335-2.454-5.325
				c3.303-0.343,7.567,11.499,8.498,13.543C112.549,267.765,114.57,272.415,117.132,276.74z"/>
			<path style="fill:#231815;" d="M151.948,241.879c5.929,17.507,19.038,33.971,36.533,40.613c9.15,3.474,18.7,6.357,28.373,7.93
				c3.939,0.641,8.052,1.125,12.042,0.694c1.739-0.188,3.59-0.534,5.167-1.33c0.372-0.188,4.338-2.921,3.945-3.569
				c0.863,1.424-3.54,4.931-4.466,5.481c-2.246,1.335-4.891,1.933-7.459,2.25c-6.293,0.778-12.739-0.23-18.868-1.623
				c-12.76-2.901-26.359-6.66-36.664-15.03c-8.186-6.649-14.162-15.848-18.826-25.231c-2.893-5.82-5.309-12.013-6.136-18.499
				c-0.384-3.009-0.461-6.13,0.099-9.122c0.104-0.556,1.992-5.946,2.382-5.358c0.612,0.834-0.3,3.427-0.369,4.436
				c-0.166,2.419,0.037,4.802,0.486,7.182C148.923,234.602,150.316,238.278,151.948,241.879z"/>
			<path style="fill:#231815;" d="M239.852,281.521c3.455-2.632,12.844-8.869,17.24-4.984c0.092,0.082-4.164,1.785-4.647,1.933
				c-2.603,0.799-4.588,1.977-6.933,3.23c-1.693,0.905-3.709,2.874-5.429,3.42C237.136,286.057,238.916,283.374,239.852,281.521z"/>
			<path style="fill:#231815;" d="M257.069,284.124c-2.658,4.863,2.586,9.799,6.215,12.26c2.069,1.404,4.33,2.529,6.639,3.477
				c1.205,0.495,5.272,1.194,6.032,2.173c-0.062-0.08-3.803,0.693-4.276,0.69c-2.256-0.013-4.345-0.715-6.382-1.635
				c-3.44-1.554-6.958-3.758-9.504-6.59c-1.937-2.154-2.821-5.213-2.655-8.107c0.123-2.14,3.179-9.704,6.715-8.194
				C259.785,278.168,257.209,283.081,257.069,284.124z"/>
			<path style="fill:#231815;" d="M256.119,305.798c2.69,2.543,6.767,3.57,10.263,4.379c1.801,0.417,3.619,0.744,5.433,1.097
				c0.747,0.146,3.233,1.074,3.543,1.016c-0.958,0.097-2.04,1.121-3.057,1.363c-1.909,0.453-3.88,0.08-5.784-0.219
				c-3.09-0.484-6.102-0.838-8.754-2.532c-1.699-1.084-6.709-3.597-6.052-6.246C252.146,302.907,254.594,305.405,256.119,305.798z"
				/>
			<path style="fill:#231815;" d="M253.883,314.909c3.519,2.224,7.68,3.412,11.782,3.911c1.978,0.241,3.961,0.287,5.952,0.32
				c0.919,0.015,3.444-0.408,4.135,0.262c-0.018-0.018-2.517,1.7-2.714,1.793c-1.639,0.774-3.369,0.904-5.157,0.908
				c-3.183,0.007-7.069-0.116-10.035-1.357c-2.617-1.095-6.12-2.702-8.071-4.733C246.513,312.616,252.001,314.67,253.883,314.909z"
				/>
			<path style="fill:#231815;" d="M247.237,320.647c4.515,2.432,9.03,4.958,14.157,5.809c2.25,0.374,4.527,0.377,6.795,0.177
				c1.073-0.095,4.462-1.128,5.396-0.555c0.008,0.005-3.572,2.378-3.96,2.538c-2.435,1.003-5.163,1.036-7.752,0.814
				c-3.032-0.26-6.442-0.87-9.203-2.214c-3.077-1.498-5.862-3.546-9.029-4.938c-0.562-0.247-3.184-0.949-2.937-1.654
				C241.145,319.363,246.443,320.492,247.237,320.647z"/>
			<path style="fill:#231815;" d="M250.95,201.395c1.903,5.977,4.633,11.639,5.737,17.86c0.162,0.913,1.033,13.806-0.984,13.352
				c-0.271-0.061-1.275-3.799-1.367-4.111c-0.83-2.812-0.959-5.747-1.627-8.593c-0.812-3.455-2.601-6.498-3.433-9.89
				c-0.508-2.072-1.146-4.031-1.874-6.042c-0.545-1.505-2.444-5.275-1.598-6.967C247.025,194.56,249.786,200.058,250.95,201.395z"/>
			<path style="fill:#231815;" d="M303.454,213.539c1.888-7.888,3.679-15.791,6.007-23.564c1.844-6.155,4.228-12.091,6.195-18.191
				c0.434-1.345,3.75-12.486-0.232-10.915c-3.218,1.269-4.245,10.402-4.758,13.274c-2.353,13.161-5.72,26.477-9.108,39.413
				c-0.893,3.409-11.326,36.875-8.401,37.524C295.28,251.55,302.615,216.943,303.454,213.539z"/>
			<path style="fill:#231815;" d="M311.197,216.85c4.681-11.646,9.144-23.679,15.173-34.714c0.909-1.664,8.181-16.096,3.582-14.68
				c-2.508,0.772-4.351,6.11-5.225,8.26c-0.947,2.329-1.594,4.761-2.431,7.13c-4.708,13.315-9.902,26.477-15.436,39.468
				c-1.02,2.396-13.367,28.948-10.503,29.665c2.471,0.618,6.189-13.236,6.902-15.15C305.762,230.113,308.509,223.492,311.197,216.85
				z"/>
			<path style="fill:#231815;" d="M406.277,243.487c-0.185,2.985,0.237,35.387-2.051,34.82c-0.189-0.047-0.949-3.351-1.029-3.663
				c-0.887-3.457-0.697-6.981-0.818-10.515c-0.14-4.081-1.1-8.253-0.723-12.307c0.222-2.385,0.325-4.728,0.371-7.128
				c0.035-1.835-0.351-6.387,1.116-7.875c0.989-1.003,0.714-0.772,1.433,0.238C405.602,238.497,405.726,241.723,406.277,243.487z"/>
			<path style="fill:#231815;" d="M393.313,292.896c-14.161,11.073-28.987,21.425-44.36,30.744
				c-6.649,4.03-13.447,7.904-20.538,11.111c-0.989,0.447-3.146,1.938-4.077,1.235c-2.47-1.863,1.703-1.813,1.724-1.874
				c0.122-0.357-2.634,1.279-1.352,1.201c0.61-0.037,1.194-0.696,1.751-1.134c2.884-2.271,5.812-4.466,8.852-6.526
				c9.711-6.579,19.849-12.44,29.324-19.385c5.887-4.315,12.051-8.16,17.95-12.448c1.248-0.907,21.684-17.103,21.398-17.47
				C405.671,280.749,395.005,291.107,393.313,292.896z"/>
			<path style="fill:#231815;" d="M288.888,329.325c6.388,1.968,13.031,3.156,19.623,4.201c3.266,0.518,6.545,1.02,9.838,1.333
				c0.493,0.047,6.321,0.061,6.379,0.228c0.385,1.106-5.225,2.828-6.001,2.963c-3.854,0.67-8.018-0.153-11.86-0.591
				c-3.636-0.415-7.307-0.485-10.772-1.674c-2.525-0.867-5.096-1.512-7.673-2.208c-1.82-0.491-6.087-1.168-7.247-2.9
				c-0.803-1.198-0.698-0.95,0.586-1.335C283.7,328.76,286.818,329.402,288.888,329.325z"/>
			<path style="fill:#231815;" d="M12.62,161.154c8.344-7.372,17.908-11.533,28.447-14.912c13.56-4.348,26.978-8.97,40.446-13.602
				c12.253-4.214,24.585-8.271,37.141-11.496c3.229-0.829,6.474-1.624,9.75-2.247c0.44-0.084,3.322-0.934,3.751-0.5
				c-0.658-0.667-10.226,3.966-11.094,4.313c-11.204,4.479-22.656,8.226-34.029,12.238c-11.881,4.192-23.582,8.901-35.514,12.939
				c-9.486,3.21-20.45,4.619-28.682,10.664c-4.602,3.38-9.79,6.705-11.949,12.234c-1.29,3.303-1.565,6.975-1.709,10.484
				c-0.036,0.889,0.352,6.675-0.509,6.917c-1.237,0.348-1.792-12.672-1.706-13.794C7.351,169.351,9.098,164.826,12.62,161.154z"/>
			<path style="fill:#231815;" d="M54.83,167.467c7.712,6.249,10.869,17.369,12.928,26.647c1.106,4.984,1.872,10.042,2.339,15.125
				c0.168,1.83,0.294,3.663,0.388,5.499c0.047,0.915-0.381,3.68,0.026,4.229c-1.863-2.513-2.404-7.799-2.99-10.72
				c-1.361-6.786-2.316-13.575-4.543-20.161c-1.427-4.219-3.026-8.873-5.294-12.711c-1.716-2.903-4.069-5.494-7.118-7.012
				c-0.663-0.33-7.606-2.211-7.646-2.061c0.361-1.328,5.801-0.832,6.552-0.72C51.39,165.868,53.129,166.548,54.83,167.467z"/>
			<path style="fill:#231815;" d="M17.038,203.448c-0.5-2.086-2.812-12.935-6.043-13.051c-2.229-0.08-1.324,4.703-1.181,5.983
				c1.596,14.297,6.398,28.503,10.149,42.344c7.926,29.241,14.791,58.849,20.463,88.604c2.839,14.892,5.642,29.799,8.579,44.67
				c1.07,5.42,1.844,12.734,5.769,16.986c1.936,2.097,3.135,1.796,2.89-0.83c-0.237-2.544-0.981-5.139-1.474-7.641
				c-2.531-12.83-5.831-25.403-9.017-38.076c-3.456-13.748-5.389-27.835-8.507-41.66c-3.702-16.412-7.956-32.641-11.166-49.166
				C24.368,235.49,20.885,219.414,17.038,203.448z"/>
			<path style="fill:#231815;" d="M78.852,246.146c2.933,16.065,6.652,31.98,10.006,47.959c1.623,7.734,3.202,15.481,4.51,23.275
				c0.105,0.625,1.925,8.61,1.173,9.002c0.122-0.064-5.406-17.966-5.622-18.874c-2.752-11.582-5.178-23.233-8.044-34.789
				c-1.109-4.472-1.698-9.04-2.543-13.566c-1.207-6.462-2.632-12.882-3.698-19.37c-0.366-2.226-2.074-7.539-1.078-9.775
				c0.755-1.697,1.287,2.208,1.484,2.941C76.229,237.37,77.523,241.764,78.852,246.146z"/>
			<path style="fill:#231815;" d="M301.879,195.073c1.5,1.411,3.657,2.127,5.612,2.622c1.166,0.295,3.197,0.134,4.169,0.692
				c-1.047-0.601-4.939-7.642-3.908-9.093c0.376-0.53,8.195,10.828,8.835,12.516c-5.65-0.333-10.892-0.327-15.723-3.732
				c-0.806-0.568-5.519-5.221-3.313-6.527C297.5,191.582,301.214,194.831,301.879,195.073z"/>
			<path style="fill:#231815;" d="M331.408,188.524c1.233,5.624-0.101,11.463-5.044,14.84c-2.229,1.523-4.958,2.303-7.639,2.363
				c-1.332,0.03-5.553-0.014-6.211-1.441c0.23,0.5,8.506-1.567,9.008-1.732c3.69-1.215,5.913-4.069,6.958-7.71
				c0.408-1.423,0.486-2.681,0.29-4.154c-0.223-1.674-1.675-4.144-1.488-5.803c0.2-1.771,0.142-1.46,1.407-0.281
				C329.779,185.622,330.736,187.201,331.408,188.524z"/>
			<path style="fill:#231815;" d="M335.476,198.859c-1.495,5.159-5.842,9.292-10.408,11.85c-2.342,1.312-4.935,2.354-7.621,2.667
				c-1.086,0.126-5.576,0.429-6.095-1.096c0.253,0.744,9.036-2.474,9.511-2.681c3.248-1.419,5.454-3.564,7.933-5.973
				c2.81-2.731,3.838-4.991,4.077-8.955C333.167,189.79,335.446,196.944,335.476,198.859z"/>
			<path style="fill:#231815;" d="M300.392,185.589c1.11-0.795,4.923-3.414,4.242-5.247c-0.753-2.03-3.974-0.889-5.368-0.283
				c-5.84,2.537-9.515,8.422-12.855,13.523c-3.182,4.86-6.992,10.456-12.707,12.557c-5.924,2.178-11.759-1.695-15.889-5.626
				c-4.724-4.496-7.747-10.023-11.672-15.121c-0.695-0.903-2.891-3.837-4.444-2.903c-1.633,0.982-0.011,4.362,0.524,5.511
				c2.526,5.432,7.184,9.527,11.674,13.316c4.041,3.41,8.573,7.204,13.974,8.009C281.674,211.384,290.856,192.464,300.392,185.589z"
				/>
			<path style="fill:#231815;" d="M221.58,365.826c10.414,2.958,22.222,4.931,29.77-4.605c8.022-10.135-14.226-13.365-20.227-15.129
				c-21.437-6.302-43.426-10.674-65.019-16.412c-9.839-2.614-19.63-5.38-29.508-7.851c-5.306-1.328-10.621-2.637-15.969-3.784
				c-1.085-0.232-8.369-2.45-9.147-0.728c-2.103,4.655,48.241,15.348,54.25,16.596c24.102,5.005,48.246,10.011,71.954,16.663
				c3.176,0.891,13.814,2.352,13.157,6.927c-0.524,3.651-6.132,7.155-9.407,8.084c-10.605,3.009-22.753-3.36-32.837-6.035
				c-24.586-6.523-49.255-12.748-73.876-19.137c-8.794-2.282-17.568-4.825-26.499-6.531c-1.213-0.232-10.87-2.642-11.662-1.106
				c-0.726,1.406,9.025,3.875,9.833,4.103c10.897,3.063,22.012,5.357,33.026,7.958c21.742,5.135,43.397,10.621,65.055,16.094
				C210.238,362.389,215.868,364.195,221.58,365.826z"/>
			<path style="fill:#231815;" d="M136.63,360.467c19.409,4.499,39.013,8.168,58.368,12.899c11.299,2.762,22.265,6.826,33.703,9.033
				c4.691,0.905,9.649,1.634,14.424,1.002c2.374-0.314,4.691-0.957,6.754-2.197c1.55-0.932,2.592-2.602,4.077-3.487
				c-0.604,0.361-1.413,2.371-2.026,3.074c-1.187,1.361-2.574,2.474-4.162,3.332c-4.031,2.179-8.858,2.598-13.358,2.441
				c-9.369-0.327-18.54-3.208-27.504-5.717c-12.526-3.506-25.297-5.432-37.91-8.456c-8.725-2.092-17.394-4.338-26.167-6.247
				c-8.116-1.767-16.256-3.474-24.256-5.725c-0.63-0.177-8.14-1.87-8.146-2.914C110.424,356.932,133.655,360.105,136.63,360.467z"/>
			<path style="fill:#231815;" d="M255.748,360.733c-0.128,1.628,0.844,17.46-1.269,17.112c-1.8-0.296-2.018-11.235-1.983-12.959
				c0.032-1.587-0.437-6.404,0.979-7.361C254.907,356.557,255.195,359.56,255.748,360.733z"/>
			<path style="fill:#231815;" d="M68.265,412.329c-0.949-2.223-5.071-14.264-8.01-13.922c-3.709,0.431-0.058,12.28,0.688,14.238
				c4.887,12.821,15.201,22.298,26.912,28.961c10.517,5.983,22.181,10.003,33.726,13.473c14.811,4.45,29.939,7.73,45.201,10.2
				c14.938,2.417,29.987,4.024,45.056,5.363c-0.112-1.676-0.224-3.352-0.337-5.028c-2.138,0.442-2.788,3.244-1.004,4.595
				c1.368,1.036,4.059,0.747,5.533,0.841c4.509,0.289,9.074,0.62,13.584,0.207c1.884-0.173,3.958-0.374,5.713-1.137
				c0.624-0.271,1.865-0.71,2.052-1.45c0.073-0.289,0.151-0.852-0.352-0.467c-1.227-2.278-6.713-2.227-8.953-2.497
				c-5.118-0.616-10.265-0.733-15.396-1.167c-0.167,1.335-0.436,2.756-0.584,4.019c0.032-0.885,0.54-3.02,0.134-3.709
				c-0.587-0.996-4.611-0.627-6.055-0.676c-6.271-0.216-12.547-0.226-18.814-0.531c-9.64-0.469-19.177-1.72-28.68-3.378
				c-22.415-3.912-45.273-9.124-64.841-21.228C83.275,432.501,73.825,423.566,68.265,412.329z"/>
			<path style="fill:#231815;" d="M124.612,393.088c10.487,10.082,25.682,12.385,39.527,14.118
				c15.069,1.886,30.216,3.612,45.211,6.034c12.089,1.952,29.554,3.649,32.422,18.168c1.221,6.181,1.628,12.582,2.035,18.857
				c0.08,1.233,0.338,13.234,0.416,13.248c-0.465-0.084-1.63-11.245-1.751-12.015c-1.06-6.723-1.753-13.679-3.496-20.265
				c-1.886-7.127-7.946-10.043-14.602-11.765c-7.271-1.881-14.716-3.038-22.156-4.008c-13.098-1.707-26.314-2.774-39.378-4.69
				c-12.447-1.826-25.584-4.284-36.074-11.636c-6.116-4.286-10.863-10.336-13.8-17.19c-0.373-0.87-5.661-17.622-3.799-17.805
				c0.11-0.011,4.649,14.245,5.259,15.528C116.842,384.756,120.237,389.498,124.612,393.088z"/>
			<path style="fill:#231815;" d="M90.769,449.496c0.299,7.701,1.348,15.691,4.01,22.957c1.165,3.179,2.732,6.302,5.107,8.755
				c0.411,0.424,5.663,4.327,5.684,4.283c-0.562,1.207-6.82-1.219-7.552-1.673c-2.709-1.682-4.49-4.515-5.874-7.307
				c-2.532-5.109-4.732-11.24-4.934-16.961c-0.191-5.427-1.432-11.124-0.638-16.528c0.441-3.003,1.267-2.578,2.125,0.119
				C89.372,445.263,90.046,447.386,90.769,449.496z"/>
			<path style="fill:#231815;" d="M304.392,352.403c5.289,12.154,3.707,26.601,0.753,39.14c-2.398,10.183-6.952,19.667-8.706,30.006
				c-1.81,10.674-3.826,28.741,6.348,35.888c5.074,3.565,11.296,5.509,17.134,7.42c2.584,0.846,5.183,1.646,7.768,2.49
				c1.181,0.386,3.433,0.67,4.327,1.581c-0.298-0.304-2.596-0.424-3.059-0.506c-2.428-0.428-4.874-0.752-7.302-1.182
				c-6.05-1.072-12.228-2.447-17.787-5.139c-5.933-2.874-9.312-6.847-10.983-13.247c-1.713-6.559-1.9-13.571-1.437-20.303
				c1.569-22.8,16.227-44.511,11.18-67.837c-1.434-6.627-4.728-12.704-10.149-16.886c-2.589-1.997-5.499-3.476-8.524-4.689
				c-0.557-0.224-5.79-2.36-5.644-2.477c1.231-0.989,5.362,0.5,6.78,0.878c3.169,0.846,6.209,2.06,8.997,3.797
				C298.502,344.088,301.85,347.902,304.392,352.403z"/>
			<path style="fill:#231815;" d="M353.48,354.334c-0.745,10.541-3.727,20.878-7.49,30.707c-3.89,10.161-9.368,19.079-14.463,28.617
				c-4.097,7.669-8.576,19.126-1.638,26.594c6.282,6.762,17.099,6.999,25.371,9.683c-0.215,0.046-0.43,0.093-0.644,0.139
				c-0.026,0.003,0.376-0.011,0.345,0.003c-0.259-0.181-1.061-1.233-1.333-1.277c0.659,0.108,2.448,1.057,1.402,1.848
				c-8.531-1.882-18.237-0.376-25.987-6.219c-9.82-7.403-6.899-20.906-2.347-30.408c2.258-4.714,5.011-9.159,7.478-13.762
				c2.417-4.51,4.2-9.271,6.248-13.949c3.654-8.345,6.744-16.778,8.134-25.825c0.915-5.953,1.195-12.088,0.25-18.057
				c-0.454-2.871-1.213-5.692-2.246-8.409c-0.23-0.606-2.22-5.454-1.966-5.454c2.907,0.11,5.96,9.427,6.602,11.395
				C352.697,344.566,353.403,349.495,353.48,354.334z"/>
			<path style="fill:#231815;" d="M277.004,127.458c0.436-20.519-0.211-41.049-0.11-61.57c0.011-2.314,0.992-40.233,2.15-40.07
				c0.151,0.021,0.592,6.261,0.639,6.695c0.699,6.377,1.053,12.775,1.128,19.189c0.169,14.477,0.258,28.926,0.89,43.393
				c0.257,5.891-0.28,11.795-0.374,17.687c-0.128,8.011,0.03,16.026-0.318,24.032c-0.119,2.733,0.534,9.225-1.204,11.633
				c-1.36,1.884-1.129-2.712-1.196-3.654C278.198,139.005,277.625,133.227,277.004,127.458z"/>
			<path style="fill:#231815;" d="M291.363,0.777c-3.783,0.73-7.898,2.388-10.025,5.806c-1.054,1.694-2.045,7.929,1.116,5.963
				c0.925-0.576,1.594-2.544,2.634-3.34c1.462-1.119,3.322-1.726,5.084-2.167c4.655-1.165,9.588-1.145,14.347-0.878
				c16.947,0.951,33.932,2.349,50.808,4.16c37.601,4.035,74.911,10.991,112.17,17.359c6.438,1.1,12.877,2.36,19.353,3.218
				c3.067,0.406,6.859,1.103,9.939,0.366c5.934-1.42-5.911-4.665-7.166-4.974c-13.325-3.278-27.084-3.97-40.653-5.672
				c-11.099-1.392-22.118-3.34-33.155-5.139c-20.076-3.272-40.231-5.99-60.376-8.792c-10.833-1.507-21.659-3.055-32.513-4.404
				C312.678,1.01,301.642-1.173,291.363,0.777z"/>
			<path style="fill:#231815;" d="M354.91,165.653c20.32,3.918,40.657,7.746,61.009,11.489c11.48,2.111,22.965,4.194,34.455,6.246
				c10.634,1.899,21.38,4.26,32.13,5.362c3.922,0.402,8.627,0.652,12.026-1.75c3.953-2.794,4.496-8.374,4.695-12.794
				c0.483-10.749,0.119-21.594,0.237-32.355c0.222-20.327,0.568-40.65,1.366-60.964c0.292-7.429,0.636-14.856,1.094-22.277
				c0.268-4.351,0.573-8.7,0.965-13.042c0.059-0.648,1.144-5.873,0.775-6.303c0.695,0.809-0.145,5.586-0.161,6.749
				c-0.048,3.315-0.029,6.632-0.01,9.947c0.064,11.255,0.168,22.509,0.172,33.765c0.005,18.121-0.251,36.239-0.321,54.359
				c-0.036,9.33,0.079,18.663,0.01,27.993c-0.066,9.007-2.044,18.669-12.217,20.731c-8.541,1.731-18.279-1.088-26.738-2.458
				c-6.593-1.068-13.19-2.112-19.777-3.218c-4.442-0.746-8.876-1.536-13.295-2.409c-17.217-3.402-34.418-6.858-51.664-10.116
				c-18.83-3.558-37.674-7.041-56.47-10.779c-2.029-0.404-31.038-5.361-30.955-6.887C292.24,156.829,348.565,164.713,354.91,165.653
				z"/>
			<path style="fill:#231815;" d="M297.74,35.52c-0.438,19.9,0.216,39.811,0.108,59.713c-0.05,9.279-0.217,18.569-0.869,27.827
				c-0.041,0.59-0.467,10.488-1.276,10.533c-1.463,0.081-2.369-60.495-2.649-66.615c-0.258-5.644,0.257-11.29,0.356-16.935
				c0.133-7.643-0.022-15.29,0.297-22.93c0.103-2.471,0.235-4.946,0.497-7.405c0.106-0.993,0.034-3.523,0.71-4.367
				c1.37-1.708,1.094,1.756,1.189,3.018C296.534,24.09,297.102,29.809,297.74,35.52z"/>
			<path style="fill:#231815;" d="M327.365,145.815c27.675,5.21,55.413,10.031,83.16,14.85c24.374,4.233,48.87,7.957,73.081,13.07
				c0.669,0.141,11.941,3.154,12.07,2.951c-0.243,0.38-5.123-0.58-5.593-0.626c-4.555-0.446-9.116-0.83-13.667-1.321
				c-18.399-1.984-36.655-5.095-54.916-8.054c-25.74-4.171-51.351-8.518-76.965-13.372c-10.521-1.994-21.052-3.928-31.602-5.763
				c-4.439-0.772-9.284-1.091-13.28-3.345c-1.756-0.99-3.436-2.34-4.322-4.198c-0.285-0.598-0.459-4.153-0.264-3.963
				c0.454,0.292,0.61,1.739,0.841,2.204c0.778,1.562,1.978,2.685,3.464,3.546c3.278,1.9,7.195,1.979,10.864,2.31
				C315.952,144.619,321.663,145.167,327.365,145.815z"/>
			<path style="fill:#231815;" d="M161.248,155.251c5.894,4.541,9.878,11.851,8.162,19.409c-0.807,3.555-2.842,6.799-5.574,9.194
				c-0.447,0.391-7.296,5.026-7.665,3.749c-0.077-0.266,3.246-3.858,3.48-4.15c1.541-1.923,3.287-3.773,4.44-5.966
				c2.353-4.479,1.244-8.522-0.51-12.926c-1.848-4.64-5.995-6.046-9.608-8.912C149.767,152.314,159.622,154.635,161.248,155.251z"/>
			<path style="fill:#231815;" d="M205.198,272.533c-0.516,3.592,1.935,11.548-1.221,14.278c-2.488,2.152-2.606-5.046-2.799-6.448
				c-0.42-3.049-0.836-5.276-0.155-8.418C202.021,267.342,203.651,270.416,205.198,272.533z"/>
			<path style="fill:#231815;" d="M97.276,256.324c0.993,12.598,4.492,25.027,8.467,36.972c1.758,5.283,3.625,10.535,5.792,15.665
				c0.346,0.82,2.854,4.869,2.468,5.814c0.074-0.182-4.792-5.141-5.303-5.875c-2.78-3.995-4.561-8.468-6.236-13.01
				c-2.833-7.684-6.382-16.02-7.425-24.191c-0.943-7.388-2.543-14.862-2.307-22.333c0.039-1.236,0.22-6.985,1.72-5.255
				c1.088,1.256,1.022,5.374,1.434,7.072C96.306,252.911,96.758,254.622,97.276,256.324z"/>
			<path style="fill:#231815;" d="M254.049,410.35c1.865,18.157-0.601,39.006,9.677,55.043c4.973,7.76,12.35,13.655,20.488,17.843
				c3.426,1.763,7.045,3.216,10.698,4.437c2.062,0.689,4.162,1.267,6.255,1.853c0.784,0.219,2.894,0.419,3.406,1.112
				c-0.49-0.662-5.396-0.348-6.415-0.451c-2.934-0.296-5.855-0.772-8.706-1.535c-6.585-1.761-12.661-4.92-18.027-9.098
				c-10.292-8.015-16.859-19.486-19.169-32.277c-1.889-10.455-0.992-21.409-1.951-31.986c-0.533-5.879-1.307-11.729-2.441-17.523
				c-0.139-0.712-1.822-9.701-1.523-9.635c2.181,0.484,4.212,9.451,4.807,11.308C252.296,403.022,253.26,406.673,254.049,410.35z"/>
			<path style="fill:#231815;" d="M300.313,477.693c5.541,3.11,11.868,4.926,18.028,6.334c1.084,0.248,15.821,2.753,15.853,2.183
				c-0.105,1.861-9.222,1.53-10.212,1.421c-4.364-0.481-8.717-1.484-12.979-2.516c-2.981-0.722-5.644-2.064-8.421-3.341
				c-2.041-0.938-9.446-3.626-9.508-6.677C293.079,475.327,299.287,477.417,300.313,477.693z"/>
			<path style="fill:#231815;" d="M310.47,471.805c5.598,2.51,11.725,3.96,17.724,5.125c0.606,0.118,14.042,2.403,14.038,2.417
				c-0.222,0.812-6.302,1.018-6.869,1.015c-4.584-0.027-9.256-1.116-13.753-1.937c-2.869-0.523-5.378-1.518-8.091-2.549
				c-2.09-0.794-9.535-2.575-10.131-5.341C303.384,470.516,309.594,471.654,310.47,471.805z"/>
			<path style="fill:#231815;" d="M334.298,461.086c5.329,2.143,10.997,3.389,16.65,4.314c2.76,0.452,5.536,0.793,8.299,1.221
				c1.069,0.166,5.086,0.337,5.838,1.264c-0.205-0.253-3.906,0.708-4.271,0.745c-3.058,0.31-6.136-0.126-9.168-0.498
				c-3.643-0.447-7.469-0.704-10.96-1.889c-2.084-0.708-4.17-1.467-6.24-2.215c-1.467-0.53-5.748-1.585-6.568-3.178
				c-0.607-1.181-0.475-0.473,0.536-0.786C329.695,459.668,332.84,460.903,334.298,461.086z"/>
			<path style="fill:#231815;" d="M342.578,454.31c4.796,0.991,9.294,3.062,14.012,4.335c2.229,0.601,4.475,0.998,6.782,1.139
				c1.026,0.063,4.221-0.52,5.071,0.12c0.174,0.13-6.11,2.14-6.999,2.122c-3.622-0.073-7.369-1.198-10.836-2.175
				c-1.857-0.523-14.064-4.392-14.071-4.351C336.684,454.527,341.822,454.375,342.578,454.31z"/>
			<path style="fill:#231815;" d="M243.295,263.805c9.682-7.321,19.049-15.066,29.228-21.707c5.278-3.444,10.764-6.595,16.556-9.097
				c2.53-1.093,5.122-2.076,7.777-2.826c0.819-0.231,4.826-1.642,5.351-1.04c-0.672-0.77-12.326,5.905-13.076,6.3
				c-8.344,4.385-16.24,9.313-23.704,15.076c-4.716,3.642-9.593,7.037-14.324,10.659c-3.82,2.924-7.539,5.979-11.471,8.755
				c-1.065,0.751-5.498,4.529-7.008,3.999c0.19,0.067,5.68-5.383,6.274-5.934C240.38,266.613,241.846,265.218,243.295,263.805z"/>
			<path style="fill:#231815;" d="M323.882,225.491c12.58,1.994,24.907,5.308,37.196,8.597c5.896,1.578,11.791,3.157,17.711,4.639
				c1.345,0.337,11.055,1.742,11.465,2.969c-0.102-0.307-4.269-0.207-4.642-0.226c-3.516-0.18-7.004-0.644-10.459-1.321
				c-9.117-1.788-18.045-4.506-27.113-6.526c-5.687-1.267-11.275-2.947-16.986-4.105c-4.48-0.908-9.006-1.565-13.538-2.151
				c-1.354-0.175-7.467-0.081-8.382-1.403c-0.043-0.062,6.529-0.565,7.197-0.574C318.852,225.354,321.363,225.42,323.882,225.491z"
				/>
			<path style="fill:#231815;" d="M285.323,254.452c12.708,3.562,25.112,7.051,38.101,9.506c6.212,1.174,12.426,2.414,18.48,4.26
				c1.303,0.397,10.559,2.819,10.692,4.335c-0.112-1.273-22.021-4.637-23.674-4.952c-8.259-1.573-16.779-2.397-24.922-4.512
				c-3.864-1.004-7.622-2.485-11.435-3.664c-4.633-1.432-9.288-2.772-14.004-3.908c-1.404-0.339-7.457-0.81-8.274-2.134
				c-0.042-0.068,7.267,0.045,8.004,0.121C280.643,253.746,282.989,254.068,285.323,254.452z"/>
			<path style="fill:#231815;" d="M276.572,281.595c5.758-2.847,10.156-8.12,14.765-12.437c2.338-2.189,4.756-4.356,7.537-5.973
				c0.32-0.186,5.593-2.596,5.6-2.041c0.009,0.698-5.916,4.943-6.477,5.434c-3.514,3.074-6.721,6.369-9.911,9.772
				c-2.058,2.195-4.475,3.897-6.965,5.578c-1.804,1.217-8.357,5.739-10.784,3.504C270.627,285.7,275.812,282.19,276.572,281.595z"/>
			<path style="fill:#231815;" d="M312.357,253.694c1.765-2.088,4.491-3.415,7.239-3.418c0.779-0.001,4.551,0.372,4.405,1.713
				c-0.062,0.568-6.828,1.519-7.896,2.19C313.844,255.598,311.632,258.493,312.357,253.694z"/>
			<path style="fill:#231815;" d="M322.038,245.725c1.619-3.036,4.95-5.869,8.567-5.853c4.43,0.02,0.836,1.797-0.99,2.653
				c-1.733,0.813-3.434,2.143-4.662,3.599C323.185,248.222,322.242,249.959,322.038,245.725z"/>
			<path style="fill:#231815;" d="M323.394,238.585c0.34-3.161,1.374-8.046,5.589-7.826c3.865,0.201-0.472,2.023-1.342,3.069
				c-0.937,1.126-1.144,3.026-1.52,4.407C325.36,241.031,324.967,241.057,323.394,238.585z"/>
			<path style="fill:#231815;" d="M289.292,281.431c0.177-1.801,1.047-4.19,2.721-5.066c2.872-1.502,5.701,1.643,8.578,0.498
				c5.38-2.142,9.825-14.352,17.088-7.389c1.255,1.203,1.924,2.898,2.108,4.613c0.113,1.052-0.726,3.364-0.431,4.165
				c0.249,0.676,2.127,1.265,2.736,1.993c2.673,3.189-0.343,6.645-2.875,8.738c-1.643,1.358-5.421,4.514-7.681,4.492
				c1.726,0.017,5.88-5.098,6.962-6.33c0.885-1.007,2.648-2.808,2.334-4.332c-0.395-1.91-3.451-2.318-4.895-2.753
				c1.407-3.325,1.993-11.801-4.265-9.424c-4.277,1.624-5.805,7.482-10.378,8.958c-3.652,1.179-8.269-3.592-9.249,1.694
				c-0.414,2.236,0.44,4.277,1.905,5.949c0.287,0.327,4.702,3.991,4.861,3.815c-1.167,1.148-5.456-1.975-6.251-2.67
				C290.531,286.607,289.156,284.194,289.292,281.431z"/>
			<path style="fill:#231815;" d="M325.4,264.499c3.172-0.132,5.547,2.514,7.046,5.004c2.849-2.013,5.342-5.153,8.592-6.517
				c4.703-1.974,6.707,2.572,7.233,6.487c0.636,4.737-1.529,9.26-4.468,12.86c-1.158,1.419-2.482,2.791-3.989,3.841
				c-0.554,0.386-4.439,1.661-4.408,1.598c0.2-0.416,2.589-1.505,3.071-1.986c1.244-1.244,2.29-2.713,3.268-4.169
				c2.258-3.362,4.436-7.187,3.99-11.363c-0.146-1.366-0.533-4.461-2.076-4.979c-1.35-0.453-3.104,1.447-3.992,2.191
				c-2.633,2.205-5.192,4.111-8.172,5.825c-1.518-2.623-3.462-7.136-7.232-5.711c-0.866,0.327-6.281,6.001-6.037,6.275
				c-0.827-0.926,1.953-5.302,2.392-5.921C320.779,267.707,325.291,263.413,325.4,264.499z"/>
			<path style="fill:#231815;" d="M276.781,263.849c3.973-2.464,12.674-9.212,17.31-4.972c4.984,4.559-0.569,11.39-4.298,14.401
				c-5.367,4.334-12.242,7.543-19.024,8.826c-1.708,0.323-8.234,1.438-9.338-0.716c-0.397-0.774,1.003-6.103,1.792-6.442
				c-0.552,0.237-0.423,2.992-0.433,3.639c-0.028,1.849,0.018,2.139,1.92,2.204c3.956,0.134,8.321-1.537,11.923-2.986
				c5.189-2.086,15.411-6.744,16.255-13.232c0.81-6.224-6.145-3.403-9.275-1.718c-3.565,1.919-6.848,4.324-10.278,6.467
				c-1.465,0.916-2.945,1.875-4.521,2.588c-0.328,0.148-3.228,1.188-3.112,0.788c0.22-1.029,4.782-3.602,5.649-4.314
				C273.175,266.889,274.972,265.361,276.781,263.849z"/>
			<path style="fill:#231815;" d="M244.189,462.276c3.319-1.317,6.848-5.696,10.275-6.12c3.943-0.488-0.656,4.773-1.869,5.946
				c-2.18,2.107-3.177,2.564-5.894,3.637c-0.947,0.374-3.286,1.495-3.888-0.07C242.517,464.905,243.881,463.031,244.189,462.276z"/>
			<path style="fill:#231815;" d="M342.583,397.19c6.56-3.751,12.936-9.083,16.487-15.868c1.772-3.387,2.889-7.066,4.101-10.676
				c0.189-0.564,2.788-6.569,2.81-6.529c0.826,1.499,0.295,5.927,0.131,7.662c-0.35,3.698-1.588,7.323-3.11,10.693
				c-2.514,5.566-6.21,10.249-11.215,13.677c-2.633,1.803-5.255,3.644-8.019,5.242c-1.429,0.827-4.886,3.239-6.767,2.918
				c-1.208-0.206-0.922-0.04-0.694-1.026c0.198-0.859,2.641-2.415,3.299-3.054C340.623,399.24,341.615,398.226,342.583,397.19z"/>
			<path style="fill:#231815;" d="M357.302,336.683c3.995,2.738,6.929,6.411,8.592,10.973c0.712,1.954,3.174,10.2,0.676,11.835
				c-0.51,0.333-3.044-5.831-3.169-6.262c-1.046-3.598-2.482-6.031-4.61-9.002c-0.876-1.223-1.449-2.259-2.666-3.248
				c-1.156-0.94-3.54-1.701-4.243-3.082C350.572,335.321,355.624,336.369,357.302,336.683z"/>
			<path style="fill:#231815;" d="M137.6,492.096c24.36,6.785,49.017,10.548,73.991,14.237c12.141,1.794,23.514,2.929,34.708-3.008
				c4.954-2.627,9.519-5.917,14.066-9.179c1.865-1.338,3.724-2.689,5.635-3.96c0.285-0.19,2.814-1.436,2.941-1.716
				c-0.641,1.407-3.436,3.121-4.557,4.204c-2.882,2.786-5.761,5.575-8.854,8.128c-6.007,4.961-12.974,9.371-20.788,10.653
				c-8.525,1.399-17.746-0.198-26.204-1.408c-8.467-1.211-16.891-2.505-25.405-3.35c-10.677-1.059-21.092-3.965-31.472-6.589
				c-13.253-3.351-26.662-6.626-39.571-11.173c-1.49-0.525-6.287-1.968-2.409-2.018c3.773-0.049,8.095,1.454,11.796,2.15
				C126.852,490.077,132.226,491.086,137.6,492.096z"/>
			<path style="fill:#231815;" d="M336.917,435.109c-0.942,0.482-3.432,1.997-2.564,3.428c0.772,1.275,3.87-0.208,4.695-0.604
				c4.159-1.992,6.591-5.772,8.96-9.536c5.47-8.692,7.887-17.294,6.335-27.65c-0.461-3.078-2.579-4.841-3.051-0.882
				c-0.528,4.437,1.676,8.724,1.304,13.186C351.83,422.239,344.985,431.026,336.917,435.109z"/>
			<path style="fill:#231815;" d="M139.464,214.867c-7.528-0.793-20.911,4.122-20.81,13.543c0.044,4.056,4.907,5.404,6.646,8.794
				c2.172,4.234,2.496,8.403,7.738,9.792c4.437,1.175,10.395,2.877,15.001,2.173c4.256-0.651,2.555-3.729,1.784-6.749
				c-2.066-8.099-3.951-18.355-2.203-26.659c0.258-1.226,1.689-2.697,1.835-3.606c0.165-1.025,0.136-0.634-1.218-0.463
				C145.311,212.061,142.188,213.753,139.464,214.867z"/>
			<path style="fill:#231815;" d="M155.126,254.626c-6.469,0-12.114,8.221-9.291,14.245c1.39,2.966,5.275,7.183,8.008,9.017
				c3.429,2.302,6.851-1.133,10.475-1.587c2.556-0.32,5.967,0.007,5.173-3.611c-0.558-2.539-2.802-4.994-4.363-6.967
				C162.04,261.823,158.63,258.156,155.126,254.626z"/>
			<path style="fill:#231815;" d="M255.127,334.947c-2.964,3.294-6.23,6.352-9.699,9.109c-2.634,2.094-5.987,4.94-9.412,5.606
				c-8.034,1.561-0.658-12.754,0.954-15.165c2.267-3.39,5.283-7.212,9.127-8.89c2.713-1.185,3.554-0.316,5.817,0.506
				c3.927,1.427,8.735,1.638,12.851,2.41C261.553,330.663,258.34,332.805,255.127,334.947z"/>
			<path style="fill:#231815;" d="M270.388,336.553c-4.141,1.882-12.942,7.839-11.309,13.556c0.703,2.461,4.072,3.351,6.289,3.826
				c2.811,0.603,4.647-0.525,6.903-2.142c3.346-2.398,6.832-4.461,10.247-6.739c2.257-1.505,3.416-2.5,1.978-4.965
				C281.177,334.399,276.081,332.93,270.388,336.553z"/>
			<path style="fill:#231815;" d="M213.36,140.568c-5.623-1.607-6.426-8.835-1.607-7.229
				C216.572,134.946,213.36,140.568,213.36,140.568z"/>
			<path style="fill:#231815;" d="M228.621,135.749c-5.623,0-2.41-8.835,0.803-8.032
				C232.637,128.52,228.621,135.749,228.621,135.749z"/>
			<path style="fill:#231815;" d="M104.32,182.22c1.756-1.171,3.596-3.01,4.213-0.442c0.282,1.173-0.141,2.926-0.144,4.121
				c-0.006,2.222,0.268,4.338,0.622,6.527c1.168,7.238-0.179,17.309-6.14,22.488c-5.05,4.387-5.642-4.932-5.662-8.058
				C97.153,198.366,99.416,189.225,104.32,182.22z"/>
			<path style="fill:#231815;" d="M121.184,146.082c4.012-0.501,8.444,0.006,6.805,5.014c-0.837,2.558-2.555,4.854-4.017,7.076
				c-1.296,1.97-2.787,5.3-4.893,6.563c-4.555,2.732-4.44-7.29-3.648-9.655C116.555,151.721,118.735,148.617,121.184,146.082z"/>
		</g>
		<path style="fill:#231815;" d="M168.02,126.215c-2.724-9.261,0.545-13.074,4.903-13.074c4.358,0,4.903,10.35,4.903,10.35
			S172.923,118.588,168.02,126.215z"/>
		<path style="fill:#231815;" d="M213.779,113.141c0-7.627,0.545-12.529,4.903-10.35c4.358,2.179,2.179,8.716,2.179,8.716
			C218.682,108.783,215.414,108.783,213.779,113.141z"/>
	</g>
</g>
</svg>
