<!--?xml version="1.0" encoding="utf-8"?-->
<!-- Generator: Adobe Illustrator 19.1.1, SVG Export Plug-In . SVG Version: 6.00 Build 0)  -->
<svg version="1.1" id="_x31_0" xmlns="http://www.w3.org/2000/svg" xmlns:xlink="http://www.w3.org/1999/xlink" x="0px" y="0px" viewBox="0 0 512 512" style="width: 256px; height: 256px; opacity: 1;" xml:space="preserve">
<style type="text/css">
	.st0{fill:#374149;}
</style>
<g>
	<path class="st0" d="M498.27,71.836H13.652C6.129,71.836,0,77.965,0,85.488v340.946c0,7.523,6.129,13.73,13.652,13.73H498.27
		c7.602,0,13.73-6.207,13.73-13.73V85.488C512,77.965,505.871,71.836,498.27,71.836z M39.641,355.606V156.004
		c23.43-2.637,42.125-21.102,45.07-44.45h340.871c3.023,23.817,22.496,42.665,46.699,44.606v199.293
		c-24.282,1.938-43.91,20.946-46.699,44.993H84.789C81.996,376.942,63.222,358.246,39.641,355.606z" style="fill: rgb(58, 171, 210);"></path>
	<rect x="269.809" y="193.473" class="st0" width="131.102" height="15.828" style="fill: rgb(58, 171, 210);"></rect>
	<rect x="269.809" y="229.934" class="st0" width="131.102" height="15.75" style="fill: rgb(58, 171, 210);"></rect>
	<rect x="269.809" y="266.317" class="st0" width="131.102" height="15.75" style="fill: rgb(58, 171, 210);"></rect>
	<rect x="269.809" y="302.699" class="st0" width="72.687" height="15.75" style="fill: rgb(58, 171, 210);"></rect>
	<path class="st0" d="M197.508,288.645v-0.062h-0.078v-0.078c-8.379,5.043-17.918,8.301-28.16,9.309v40.262l28.16,13.266v-41.578
		l0.074-20.469l0.008-0.652L197.508,288.645z" style="fill: rgb(58, 171, 210);"></path>
	<path class="st0" d="M124.164,288.703l-0.191-0.199v0.09c-0.055-0.031-0.11-0.058-0.164-0.09v62.836l27.93-13.11v-40.496
		c-8.922-0.851-17.222-3.41-24.746-7.446C126.027,289.805,125.117,289.254,124.164,288.703z" style="fill: rgb(58, 171, 210);"></path>
	<path class="st0" d="M160.582,285.711c34.519,0,62.527-28.082,62.527-62.527c0-34.52-28.008-62.524-62.527-62.524
		c-34.446,0-62.45,28.004-62.45,62.524C98.133,257.629,126.137,285.711,160.582,285.711z M160.582,267.172
		c-24.282,0-43.985-19.707-43.985-43.988c0-24.36,19.703-44.063,43.985-44.063c24.359,0,44.062,19.703,44.062,44.063
		C204.645,247.465,184.942,267.172,160.582,267.172z" style="fill: rgb(58, 171, 210);"></path>
	<path class="st0" d="M189.442,215.426H169.27c-0.543,0-1.086-0.308-1.242-0.851l-6.203-19.238c-0.39-1.164-2.019-1.164-2.406,0
		l-6.206,19.238c-0.153,0.543-0.699,0.851-1.238,0.851h-20.172c-1.242,0-1.707,1.555-0.778,2.25l16.371,11.871
		c0.465,0.308,0.622,0.93,0.465,1.394l-6.285,19.242c-0.309,1.16,1.008,2.094,1.942,1.394l16.367-11.871
		c0.465-0.309,1.007-0.309,1.472,0l16.371,11.871c0.93,0.699,2.25-0.234,1.938-1.394l-6.281-19.242
		c-0.157-0.465,0-1.086,0.465-1.394l16.367-11.871C191.145,216.981,190.68,215.426,189.442,215.426z" style="fill: rgb(58, 171, 210);"></path>
</g>
</svg>
