<?xml version="1.0" encoding="iso-8859-1"?>
<!-- Generator: Adobe Illustrator 22.1.0, SVG Export Plug-In . SVG Version: 6.00 Build 0)  -->
<svg version="1.1" id="_x37_" xmlns="http://www.w3.org/2000/svg" xmlns:xlink="http://www.w3.org/1999/xlink" x="0px" y="0px"
	 viewBox="0 0 512 512" style="enable-background:new 0 0 512 512;" xml:space="preserve">
<g>
	<path style="fill:#65D69D;" d="M252.179,92.022c-1.958-1.468-24.959-11.256-32.79-17.129c-7.83-5.872-7.341-13.702,0-14.192
		c7.341-0.489,38.662-0.489,41.109-2.447c2.447-1.957,1.468-5.383,1.958-6.851c0.489-1.468-2.937-19.576,7.83-21.533
		c5.383-0.979,12.908,3.548,16.639,7.83c3.732,4.283,3.671,8.32,4.894,8.32c1.351,0,13.993-1.292,26.427-0.49l5.383,0.979
		c10.08,0.65,15.171,2.447,15.171,2.447s-0.489-15.66,7.83-17.618c8.32-1.957,15.661,8.809,21.044,16.639
		c5.383,7.83,7.83,11.256,7.83,11.256s11.256,6.852,20.555,16.15c9.298,9.298,14.192,20.555,18.597,27.896
		c4.405,7.34,7.341,17.618,8.809,18.107c1.469,0.489,19.576,11.255,27.896,36.215c8.32,24.959,2.936,85.644,2.936,85.644
		s-1.957,25.938-4.404,33.279c-2.447,7.34-0.979,6.851,4.404,11.745c5.384,4.894,21.044,26.917,24.96,46.003
		c3.915,19.086-6.851,51.386-11.256,65.579c-4.404,14.192-7.83,30.832-1.957,42.577c5.872,11.745,12.724,13.213,25.448,14.682
		c12.724,1.468,13.214,3.915,7.831,6.362c-5.384,2.446-14.682,0.978-11.256,1.468c3.425,0.489,16.15,1.957,20.065,2.447
		c3.915,0.489-10.277,5.383-20.555,5.383c-10.277,0,13.214,0.979,9.788,3.915c-3.426,2.936-15.66,1.468-23.002,1.468
		c-7.341,0-26.917-4.894-32.3-10.766c-5.383-5.873-12.724-21.044-14.192-33.769c-1.468-12.724-3.426-47.96-4.894-60.195
		c-1.468-12.234-4.894-25.449-15.171-32.3c-10.277-6.851-28.874-17.618-38.662-17.618c-9.788,0-20.555-1.468-29.853,7.83
		c-9.299,9.299-26.428,22.513-21.534,49.429c4.894,26.917,5.383,43.556,4.894,59.707c-0.49,16.15-7.341,25.938-11.745,27.895
		c-4.405,1.958-31.811,9.788-40.62,13.703s-16.15,1.958-11.745-0.489c4.404-2.447,10.277-10.277,10.277-10.277
		s-14.192,2.936-21.534,3.915c-7.341,0.979-1.958-7.341,8.809-10.767c-5.873-0.489-16.639,0.49-11.745-2.936
		c4.893-3.426,2.936-4.404,12.234-5.873c9.298-1.468,29.853-7.34,29.853-7.34s8.32-9.788,4.894-23.492
		c-3.425-13.702-7.83-20.555-14.192-26.917c-6.362-6.362-15.171-35.725-17.618-53.343c-2.446-17.618,9.788-48.45,11.256-53.344
		c1.468-4.894-0.979-6.362-0.979-6.362s-7.34-10.277-18.597-30.832c-11.256-20.555-7.341-58.238-6.851-60.196
		c0.489-1.957-14.682,12.235-29.854,18.597c-15.171,6.362-23.98,3.425-25.938,3.425c-1.957,0-46.492-4.404-65.09-17.128
		c-13.702,1.958-28.874,1.958-33.768-10.277c-16.15-6.362-14.192-12.724-14.192-12.724s-8.809-8.809-4.405-17.618
		c-5.383-3.915-6.851-10.766,1.469-11.255c8.319-0.49,13.702-0.49,13.702-0.49s-8.809-4.404,1.468-3.915
		c10.277,0.489,21.534,3.426,25.449,7.83c3.915,4.405,2.937,11.745,7.83,14.192c4.894,2.447,35.237,8.809,46.982,10.767
		c11.745,1.957,21.534,2.936,25.938,0.978c4.405-1.957,23.002-15.661,28.385-21.533c5.384-5.873,26.428-21.534,30.832-23.981
		c4.405-2.447,13.214-9.298,13.214-9.298S262.945,101.32,252.179,92.022z"/>
	<path style="fill:#FFFFFF;" d="M354.862,115.761c-9.077,9.555-7.166,23.409,0,32.963c7.165,9.555,29.141,55.416,24.363,83.602
		c-7.165,5.733-10.987,8.121-9.555,19.587c1.433,11.465,1.433,19.587,1.433,27.23c0,7.644-11.943,26.753-42.04,25.798
		c-30.096-0.955-55.416-17.676-72.614-43.473c-17.198-25.798-8.121-77.869-2.866-91.246c5.255-13.376,14.332-31.052,15.765-37.263
		c1.433-6.21-6.211-27.23-10.51-34.396c-4.3-7.165-5.255-7.643-0.478-5.255c4.777,2.389,33.918,15.288,50.639,16.721
		C325.721,111.462,354.862,115.761,354.862,115.761z"/>
	<path style="fill:#E95513;" d="M311.866,168.788c5.255-1.91,62.582-3.344,77.869,10.988c10.033-5.733,41.084,32.485,41.084,32.485
		s-35.352,21.498-36.785,26.753c-1.433,5.255-1.433,5.255-1.433,5.255s-1.433-12.421-7.166-10.033
		c-5.732,2.389-4.299,12.421-4.299,12.421s-4.3-12.898-8.121-9.555c-3.822,3.345-4.3,11.466-3.345,14.81
		c0.956,3.344-4.777,1.433-4.777,1.433s-14.332-6.688-21.975-7.643c-7.643-0.956-20.065,1.433-21.498,0
		c-1.433-1.433-3.344-12.421-3.344-12.421S309.478,170.221,311.866,168.788z"/>
	<path style="fill:#FF7139;" d="M394.035,239.014c0,0-5.733-57.805-4.3-59.238c1.433-1.433,6.211-4.778,10.033-6.688
		c3.822-1.911,41.562-18.631,52.072-21.498c10.51-2.867,11.943-2.867,13.376,0.955c1.433,3.823,1.433,82.647,0,85.035
		c-1.433,2.388-11.465,1.91-14.332,1.91c-2.866,0-32.963,11.466-42.518,20.543c-2.866,0.478-5.255-10.51-5.255-10.51
		s-2.389-3.344-2.867-8.6C399.768,235.669,394.035,239.014,394.035,239.014z"/>
	<path style="fill:#231815;" d="M265.163,41.26c-0.326,1.904-0.428,3.605-0.509,5.102c-0.083,1.494-0.145,2.783-0.268,3.859
		c-0.233,2.155-0.706,3.446-1.304,3.958c-1.167,1.021-2.812-0.94-2.793-4.712c0.059-3.756,0.076-7.662,1.282-11.424
		c0.592-1.854,1.454-3.599,2.584-5.132c1.129-1.528,2.556-2.833,4.172-3.694c1.595-0.886,3.445-1.384,5.256-1.488
		c1.82-0.119,3.592,0.198,5.227,0.733c3.254,1.094,6.026,3.219,7.961,5.769c0.982,1.257,1.96,2.962,2.691,4.687
		c0.744,1.724,1.273,3.463,1.593,4.827c0.621,2.734,0.484,3.986-1.366,0.901c-1.865-3.061-3.488-4.954-5.313-6.664
		c-0.914-0.852-1.897-1.647-3.019-2.395c-1.14-0.742-2.489-1.484-4.148-2.016c-1.66-0.533-3.486-0.667-5.097-0.194
		c-1.619,0.453-3.084,1.533-4.159,2.769c-1.078,1.24-1.785,2.565-2.2,3.532C265.333,40.65,265.163,41.26,265.163,41.26z"/>
	<path style="fill:#231815;" d="M303.539,47.513c-7.296,0.803-10.712,0.104-11.656-1.119c-0.934-1.178,0.781-2.777,3.965-2.778
		c6.313,0.001,12.584-1.141,17.669-0.931c5.055,0.206,10.141,0.639,15.069,1.982c2.471,0.627,6.062,2.078,8.163,3.307
		c2.105,1.251,2.779,2.127-0.249,1.617c-3.041-0.479-5.223-0.491-7.53-0.534c-2.307-0.056-4.746-0.113-8.373-0.476
		c-3.632-0.352-7.888-0.69-11.248-0.854C305.992,47.564,303.539,47.513,303.539,47.513z"/>
	<path style="fill:#231815;" d="M341.909,39.229c-0.605,1.988-0.746,3.916-0.773,5.623c-0.031,1.707,0.025,3.191,0.021,4.43
		c0.003,2.482-0.24,4.003-0.757,4.662c-0.506,0.663-1.23,0.467-1.923-0.453c-0.678-0.92-1.334-2.578-1.489-4.81
		c-0.147-2.226-0.235-4.489-0.007-6.794c0.25-2.294,0.871-4.675,2.161-6.771c0.329-0.511,0.699-1.005,1.077-1.48
		c0.424-0.434,0.802-0.906,1.279-1.292c0.471-0.391,0.936-0.788,1.464-1.087c0.258-0.156,0.509-0.328,0.775-0.463l0.808-0.376
		c2.176-0.965,4.456-1.166,6.46-0.954c4.025,0.45,7.704,2.225,10.55,5.022c0.379,0.359,0.656,0.68,0.957,1.011
		c0.301,0.328,0.583,0.664,0.869,0.999c0.571,0.67,1.116,1.35,1.645,2.043c1.061,1.381,2.051,2.808,2.968,4.283
		c1.861,2.923,4.131,7.699,4.762,10.96c0.344,1.618,0.306,2.783,0.089,3.024c-0.111,0.124-0.28,0.029-0.511-0.323
		c-0.216-0.354-0.531-0.959-0.982-1.862c-0.939-1.801-1.949-3.24-2.943-4.524c-0.998-1.284-1.972-2.423-3.007-3.576
		c-1.036-1.145-2.106-2.326-3.33-3.679c-0.612-0.667-1.263-1.375-1.967-2.142c-0.69-0.74-1.493-1.618-2.265-2.36
		c-1.456-1.446-3.525-2.632-5.652-3.256c-2.135-0.599-4.314-0.6-5.927,0.024c-1.64,0.55-2.763,1.697-3.43,2.573
		c-0.157,0.231-0.299,0.438-0.422,0.62c-0.119,0.186-0.194,0.366-0.27,0.502C341.989,39.079,341.909,39.229,341.909,39.229z"/>
	<path style="fill:#231815;" d="M237.442,63.096c15.648-0.917,21.048-6.483-1.978-5.405c-2.93,0.138-5.806,0.319-8.664,0.538
		c-2.742,0.249-5.972,0.284-9.33,1.761c-0.84,0.389-1.692,0.876-2.488,1.556c-0.791,0.683-1.499,1.559-1.991,2.542
		c-0.506,0.977-0.746,2.055-0.832,3.168c-0.024,1.111,0.16,2.207,0.527,3.161c0.735,1.918,1.934,3.319,3.171,4.521
		c1.263,1.178,2.628,2.151,4.062,3.014c0.74,0.438,1.426,0.788,2.127,1.155c0.701,0.368,1.407,0.738,2.118,1.111
		c1.422,0.747,2.867,1.508,4.34,2.283c2.988,1.459,6.089,2.973,9.336,4.557c1.64,0.749,3.318,1.515,5.037,2.299
		c0.857,0.396,1.724,0.796,2.601,1.202c0.889,0.38,1.788,0.765,2.699,1.155c1.817,0.785,3.679,1.59,5.59,2.417
		c1.931,0.779,3.911,1.579,5.944,2.4l3.05,1.237l3.087,1.14c2.061,0.75,4.103,1.55,6.169,2.262
		c4.149,1.379,8.255,2.825,12.392,4.003c4.101,1.299,8.223,2.335,12.25,3.418c2.013,0.542,4.036,0.956,6.021,1.435
		c1.989,0.452,3.946,0.953,5.903,1.308c15.589,3.23,29.709,4.758,40.18,5.304c1.278,0.074,2.473,0.116,3.578,0.127
		c1.105-0.018,2.123-0.077,3.045-0.151c1.844-0.15,3.311-0.39,4.362-0.684c2.103-0.587,2.547-1.392,1.096-2.145
		c-0.726-0.376-1.925-0.74-3.626-1.056c-0.852-0.159-1.828-0.305-2.935-0.436c-0.554-0.058-1.139-0.12-1.758-0.185
		c-0.619-0.071-1.271-0.146-1.956-0.226c-1.371-0.143-2.878-0.27-4.523-0.378c-0.824-0.048-1.682-0.098-2.576-0.149
		c-0.892-0.068-1.82-0.139-2.785-0.212c-1.929-0.133-4.004-0.246-6.233-0.34c-2.222-0.169-4.596-0.321-7.131-0.453
		c-0.679-0.037-1.347-0.075-2.004-0.112c-0.656-0.062-1.301-0.124-1.938-0.184c-1.273-0.132-2.512-0.261-3.724-0.386
		c-1.212-0.138-2.401-0.262-3.569-0.421c-1.162-0.189-2.309-0.374-3.447-0.559c-1.137-0.195-2.267-0.391-3.399-0.585
		c-1.132-0.193-2.262-0.403-3.393-0.668c-2.264-0.511-4.57-1.033-6.988-1.579c-2.403-0.611-4.905-1.304-7.594-2.017
		c-1.349-0.34-2.724-0.766-4.154-1.201c-1.43-0.43-2.915-0.876-4.462-1.341c-1.555-0.439-3.142-0.993-4.807-1.544
		c-1.667-0.549-3.403-1.123-5.219-1.721c-1.798-0.65-3.675-1.328-5.639-2.037c-0.983-0.353-1.988-0.714-3.015-1.083
		c-1.016-0.4-2.054-0.808-3.116-1.225c-1.695-0.673-3.393-1.347-5.093-2.022c-1.689-0.703-3.352-1.467-5.028-2.202
		c-3.366-1.436-6.631-3.077-9.883-4.683c-1.637-0.78-3.226-1.637-4.803-2.5c-1.579-0.858-3.15-1.71-4.71-2.557
		c-1.55-0.863-3.052-1.791-4.559-2.674c-0.751-0.446-1.499-0.89-2.244-1.333c-0.729-0.44-1.526-0.888-2.162-1.314
		c-1.314-0.881-2.549-1.864-3.504-2.939c-0.969-1.058-1.648-2.235-1.767-3.196c-0.083-0.487-0.034-0.912,0.129-1.348
		c0.14-0.444,0.379-0.819,0.703-1.144c0.656-0.652,1.773-1.145,3.031-1.447c1.274-0.299,2.641-0.435,4.065-0.512
		c1.481-0.086,2.931-0.169,4.347-0.25C232.207,63.4,234.903,63.243,237.442,63.096z"/>
	<path style="fill:#231815;" d="M386.056,69.021c-0.527-0.968-1.246-1.768-1.998-2.515c-0.75-0.751-1.581-1.397-2.407-1.994
		c-0.824-0.6-1.612-1.189-2.332-1.764c-0.726-0.572-1.356-1.168-1.823-1.847c-0.932-1.357-0.071-2.168,1.248-2.459
		c1.316-0.294,3.102-0.058,3.899,0.586c0.774,0.667,1.858,1.601,3.019,2.601c1.149,1.016,2.333,2.143,3.389,3.109
		c0.516,0.495,1.772,1.731,3.384,3.343c0.785,0.827,1.657,1.748,2.574,2.714c0.886,0.994,1.815,2.035,2.742,3.074
		c3.662,4.197,6.891,8.678,7.603,9.674c0.729,0.985,3.64,5.562,6.363,10.519c2.763,4.939,5.274,10.275,6.611,12.14
		c2.659,3.798-0.674,6.848-1.872,5.178c-0.605-0.825-1.64-3.073-2.715-5.19c-0.509-1.072-1.033-2.108-1.468-2.941
		c-0.424-0.838-0.746-1.477-0.88-1.742c-0.122-0.271-0.504-1.213-1.023-2.523c-0.501-1.321-1.205-2.975-1.968-4.665
		c-0.741-1.701-1.64-3.379-2.393-4.811c-0.812-1.395-1.532-2.511-2.02-3.023c-0.477-0.521-1.149-1.3-1.859-2.256
		c-0.353-0.48-0.73-0.994-1.121-1.527c-0.397-0.527-0.809-1.073-1.222-1.621c-0.408-0.554-0.817-1.109-1.217-1.651
		c-0.414-0.532-0.819-1.049-1.201-1.539c-0.769-0.976-1.436-1.854-1.978-2.441c-0.531-0.599-1.327-1.23-2.228-1.859
		c-0.902-0.627-1.953-1.21-2.928-1.781C388.284,70.662,386.438,69.755,386.056,69.021z"/>
	<path style="fill:#231815;" d="M375.389,118.248c-0.832,1.677-2.107,2.748-3.311,3.4c-1.219,0.649-2.436,0.833-3.4,0.743
		c-0.243-0.031-0.47-0.065-0.679-0.104c-0.21-0.066-0.402-0.136-0.579-0.205c-0.357-0.117-0.623-0.339-0.841-0.502
		c-0.436-0.336-0.584-0.729-0.629-0.958c-0.069-0.491,0.41-0.686,0.959-0.694c0.587-0.048,1.259,0.017,2.24-0.065
		c0.994-0.064,2.017-0.605,2.788-1.34c0.78-0.735,1.328-1.682,1.541-2.611c0.024-0.235,0.077-0.465,0.088-0.69
		c-0.017-0.232,0.016-0.435-0.024-0.677c-0.056-0.477-0.151-0.937-0.31-1.371c-0.301-0.87-0.77-1.644-1.292-2.33
		c-1.051-1.372-2.558-2.488-4.217-3.204c-1.631-0.714-3.537-1.058-5.481-1.22c-1.944-0.195-5.03-0.151-7.019-0.172
		c-1.984-0.035-2.839-0.284-0.316-0.954c2.532-0.653,4.336-1.171,6.372-1.466c1.016-0.143,2.094-0.231,3.346-0.166
		c1.237,0.078,2.692,0.272,4.342,0.946c0.817,0.331,1.624,0.773,2.406,1.279c0.769,0.528,1.505,1.134,2.165,1.815
		c0.648,0.695,1.225,1.454,1.685,2.259c0.437,0.818,0.796,1.654,0.981,2.491c0.115,0.408,0.147,0.826,0.212,1.213
		c0.013,0.399,0.051,0.763,0.029,1.136c-0.031,0.76-0.189,1.398-0.342,1.917c-0.2,0.497-0.34,0.903-0.495,1.144
		C375.466,118.112,375.389,118.248,375.389,118.248z"/>
	<path style="fill:#231815;" d="M257.186,102.114c-3.388-4.323-4.746-6.475-4.563-7.504c0.079-0.49,0.505-0.628,1.114-0.397
		c0.6,0.234,1.417,0.809,2.127,1.8c1.456,1.942,2.953,3.834,4.279,5.724c0.691,0.926,1.28,1.883,1.875,2.788
		c0.536,0.937,1.084,1.822,1.473,2.718c1.648,3.527,2.928,7.266,3.389,11.138c0.284,1.928,0.241,4.866-0.053,6.667
		c-0.302,1.809-0.674,2.496-0.986,0.188c-0.333-2.308-0.829-3.876-1.356-5.527c-0.537-1.636-1.107-3.377-1.961-5.984
		c-0.854-2.599-2.084-5.556-3.223-7.803c-0.592-1.11-1.089-2.081-1.496-2.739C257.417,102.512,257.186,102.114,257.186,102.114z"/>
	<path style="fill:#231815;" d="M242.917,190.89c2.559-12.821,6.773-21.566,10.151-27.18c0.821-1.425,1.67-2.624,2.434-3.666
		c0.773-1.037,1.415-1.946,2.083-2.646c1.297-1.424,2.268-2.266,2.936-2.622c1.336-0.71,1.467,0.517,0.565,2.952
		c-0.226,0.609-0.517,1.295-0.872,2.047c-0.322,0.772-0.701,1.615-1.14,2.516c-0.921,1.781-1.9,3.896-3.15,6.172
		c-2.362,4.621-4.299,9.464-5.826,14.364c-1.503,4.912-2.522,9.889-3.237,14.763c-0.699,4.881-0.936,9.676-1.016,14.259
		c0.057,2.293,0.008,4.537,0.177,6.716c0.067,1.09,0.099,2.168,0.182,3.227c0.097,1.058,0.192,2.1,0.287,3.127
		c1.578,16.43,7.238,32.324,15.638,46.634c2.126,3.564,4.875,8.003,8.008,12.117c3.098,4.133,6.389,8.095,9.113,10.989
		c1.314,1.5,2.502,2.708,3.353,3.647c0.848,0.942,1.366,1.603,1.443,1.882c0.077,0.28-0.287,0.179-1.203-0.404
		c-0.458-0.292-1.055-0.704-1.803-1.249c-0.371-0.276-0.783-0.582-1.237-0.919c-0.441-0.352-0.908-0.756-1.421-1.19
		c-8.2-6.956-13.344-12.598-18.328-19.039c-4.887-6.493-9.725-13.937-14.175-26.29c-2.186-6.183-3.919-13.112-4.884-20.018
		c-0.984-6.904-1.201-13.75-0.942-19.738c0.287-5.993,1.048-11.116,1.676-14.73c0.324-1.806,0.667-3.228,0.864-4.21
		C242.803,191.421,242.917,190.89,242.917,190.89z"/>
	<path style="fill:#231815;" d="M241.118,138.097c9.836-7.402,15.214-9.502,16.826-9.322c1.638,0.211-0.357,2.76-4.713,5.364
		c-8.74,5.217-16.477,11.898-22.985,16.762c-6.519,4.866-12.957,9.852-19.65,14.532c-6.692,4.684-20.624,13.367-12.873,6.723
		c7.755-6.637,10.396-9.885,20.097-17.382c4.857-3.746,10.646-7.968,15.261-11.195C237.698,140.352,241.118,138.097,241.118,138.097
		z"/>
	<path style="fill:#231815;" d="M136.226,172.187c-1.415-0.226-2.725-0.515-3.941-0.799c-1.216-0.281-2.336-0.557-3.357-0.887
		c-1.022-0.316-1.954-0.626-2.796-0.929c-0.839-0.33-1.587-0.666-2.253-0.979c-0.665-0.321-1.251-0.606-1.748-0.919
		c-0.498-0.318-0.916-0.616-1.262-0.894c-0.691-0.556-1.091-1.031-1.251-1.416c-0.318-0.77,0.322-1.188,1.53-1.19
		c0.604,0,1.354,0.104,2.21,0.326c0.873,0.194,1.872,0.474,2.947,0.896c4.345,1.611,8.939,2.584,13.323,3.298
		c4.397,0.69,8.586,1.183,12.294,1.746c7.413,1.154,14.869,2.067,22.308,3.311c3.719,0.621,9.294,1.724,12.784,2.591
		c3.488,0.858,4.881,1.583,0.135,1.538c-4.743-0.076-8.083,0.039-11.657,0.014c-3.574-0.015-7.384-0.151-13.045-0.846
		c-5.663-0.697-12.24-1.782-17.378-2.848c-2.569-0.523-4.781-1.026-6.35-1.393C137.154,172.418,136.226,172.187,136.226,172.187z"/>
	<path style="fill:#231815;" d="M139.508,208.68c-6.279-1.954-10.657-3.947-13.554-5.587c-2.895-1.651-4.312-2.973-4.682-3.788
		c-0.365-0.826,0.331-1.194,1.708-1.055c1.381,0.135,3.428,0.806,5.859,1.944c4.852,2.316,9.931,4.119,14.829,5.526
		c2.435,0.752,4.853,1.314,7.144,1.937c2.316,0.526,4.506,1.134,6.587,1.603c8.297,2.025,16.689,3.526,25.157,4.444
		c4.231,0.598,10.631,1.008,14.721,1.227c4.074,0.165,5.853,0.597,0.427,1.488c-1.353,0.253-2.615,0.375-3.806,0.522
		c-1.19,0.131-2.31,0.328-3.391,0.404c-2.161,0.155-4.167,0.425-6.237,0.447c-1.038,0.027-2.095,0.054-3.198,0.082
		c-1.102-0.004-2.248-0.063-3.475-0.115c-0.613-0.032-1.246-0.066-1.901-0.1c-0.654-0.051-1.327-0.132-2.029-0.206
		c-1.398-0.173-2.918-0.296-4.545-0.596c-6.55-1.015-14.027-2.931-19.782-4.748c-2.866-0.949-5.343-1.751-7.07-2.413
		C140.536,209.058,139.508,208.68,139.508,208.68z"/>
	<path style="fill:#231815;" d="M217.499,212.259c-3.126,1.573-5.635,2.251-7.4,2.486c-1.773,0.224-2.815,0.008-3.231-0.285
		c-0.422-0.31-0.248-0.762,0.352-1.19c0.601-0.435,1.635-0.793,2.973-1.129c2.693-0.615,5.269-1.714,7.577-2.995
		c2.321-1.261,4.413-2.638,6.293-3.829c3.777-2.364,7.37-5.032,11.054-7.64c3.708-2.55,11.3-7.744,7.311-3.672
		c-2.009,2.025-3.361,3.52-4.88,5.055c-1.518,1.533-3.205,3.112-5.985,5.173c-2.785,2.057-6.227,4.217-9.066,5.685
		c-1.429,0.717-2.655,1.346-3.567,1.719C218.032,212.027,217.499,212.259,217.499,212.259z"/>
	<path style="fill:#231815;" d="M329.695,168.805c-12.781,0.841-18.659,1.062-20.18,0.132c-0.748-0.427-0.367-1.024,0.894-1.582
		c1.26-0.552,3.399-1.111,6.13-1.253c5.454-0.342,10.889-0.758,16.079-0.915c0.649-0.026,1.293-0.053,1.933-0.08
		c0.64-0.007,1.275-0.014,1.905-0.021c1.261-0.009,2.501-0.019,3.716-0.027c2.426,0.083,4.758,0.093,6.939,0.33
		c8.72,0.781,17.458,2.194,25.773,5.083c4.195,1.314,10.169,4.191,13.634,6.378c3.455,2.24,4.617,3.399-0.307,1.323
		c-1.219-0.546-2.399-0.933-3.503-1.31c-1.109-0.363-2.129-0.752-3.15-1.018c-2.042-0.532-3.884-1.102-5.852-1.494
		c-0.973-0.223-1.962-0.449-2.996-0.686c-1.038-0.211-2.122-0.431-3.277-0.667c-1.151-0.251-2.376-0.512-3.715-0.742
		c-1.337-0.231-2.757-0.569-4.334-0.811c-6.272-1.145-13.691-1.986-19.55-2.327c-2.931-0.125-5.465-0.273-7.267-0.267
		C330.763,168.823,329.695,168.805,329.695,168.805z"/>
	<path style="fill:#231815;" d="M410.036,170.031c-10.567,6.125-15.67,8.501-17.365,8.262c-0.827-0.099-0.742-0.79,0.119-1.783
		c0.864-0.984,2.484-2.309,4.774-3.524c4.549-2.479,9.021-5.073,13.342-7.431c2.144-1.212,4.281-2.298,6.32-3.371
		c2.068-1.007,4.037-2.007,5.956-2.799c7.625-3.271,15.447-6.139,23.519-8.075c4.022-1.023,10.175-2.029,14.058-2.341
		c3.89-0.301,5.484-0.091,0.545,1.239c-2.472,0.653-4.537,1.353-6.452,1.972c-1.899,0.68-3.654,1.275-5.443,1.961
		c-3.592,1.335-7.406,2.755-13.144,4.812c-5.738,2.064-12.347,4.713-17.463,6.987c-2.546,1.162-4.755,2.149-6.295,2.911
		C410.955,169.592,410.036,170.031,410.036,170.031z"/>
	<path style="fill:#231815;" d="M114.903,151.772c2.473,2.81,3.356,5.622,3.492,7.517c0.142,1.928-0.357,2.985-0.797,3.349
		c-0.453,0.369-0.954,0.1-1.331-0.518c-0.094-0.156-0.18-0.335-0.256-0.534c-0.097-0.198-0.185-0.417-0.261-0.656
		c-0.128-0.482-0.318-1.027-0.414-1.666c-0.551-2.544-2.091-4.85-3.918-6.584c-1.827-1.763-3.893-3.013-5.734-4.031
		c-3.72-2.034-8.017-3.091-12.391-4.073c-4.362-1.019-13.534-2.971-7.753-3.079c2.886-0.029,4.934-0.167,7.148-0.157
		c2.208,0.026,4.61,0.132,8.112,1.092c1.747,0.492,3.61,1.181,5.364,2.058c1.772,0.883,3.386,1.962,4.699,3.04
		c1.307,1.088,2.327,2.147,3.004,2.941c0.351,0.385,0.586,0.734,0.767,0.953C114.808,151.65,114.903,151.772,114.903,151.772z"/>
	<path style="fill:#231815;" d="M90.508,154.566c-1.771-2.736-3.243-4.346-4.309-5.504c-1.062-1.156-1.746-1.921-1.9-2.58
		c-0.159-0.649,0.227-1.11,1.134-1.191c0.877-0.065,2.274,0.353,3.507,1.502c4.834,4.545,7.337,10.509,8.777,14.884
		c0.706,2.214,1.413,4.337,2.284,6.3c0.871,1.986,1.88,3.695,3.254,5.286c0.674,0.788,1.589,1.725,2.642,2.501
		c1.045,0.785,2.241,1.385,3.266,1.719c1.021,0.342,1.844,0.469,2.022,0.706c0.088,0.113,0.012,0.236-0.291,0.372
		c-0.151,0.067-0.359,0.141-0.63,0.209c-0.272,0.044-0.609,0.092-1.014,0.119c-1.622,0.039-3.007-0.24-4.238-0.627
		c-1.23-0.397-2.331-0.901-3.373-1.564c-1.043-0.662-2.052-1.467-3.041-2.552c-0.991-1.086-1.944-2.493-2.741-4.196
		c-1.651-3.456-2.59-7.531-3.508-10.49c-0.455-1.495-0.891-2.708-1.247-3.558c-0.175-0.425-0.324-0.759-0.431-0.984
		C90.565,154.689,90.508,154.566,90.508,154.566z"/>
	<path style="fill:#231815;" d="M112.747,197.693c5.131-0.287,7.329,0.166,8.164,1.166c0.391,0.489,0.342,1.073-0.152,1.569
		c-0.245,0.247-0.601,0.473-1.049,0.645c-0.438,0.141-0.966,0.227-1.558,0.229c-2.347-0.046-4.613,0.055-6.797,0.11
		c-2.175,0.038-4.256,0.056-6.073-0.23c-3.62-0.557-7.271-1.39-10.616-3.176c-0.419-0.203-0.87-0.526-1.34-0.833
		c-0.47-0.307-0.951-0.654-1.396-1.067c-0.92-0.743-1.685-1.697-2.176-2.437c-0.866-1.679-0.712-2.345,0.836-1.13
		c0.87,0.545,1.65,0.931,2.454,1.169c0.758,0.29,1.535,0.427,2.294,0.615c0.756,0.19,1.588,0.304,2.472,0.543
		c0.929,0.165,1.924,0.457,3.166,0.734c2.456,0.614,5.391,1.23,7.726,1.576C111.037,197.534,112.747,197.693,112.747,197.693z"/>
	<path style="fill:#231815;" d="M64.577,152.676c-0.506-2.006,0.018-4.191,1.37-5.51c0.702-0.695,1.495-1.05,2.204-1.218
		c0.715-0.167,1.37-0.152,1.938-0.046c1.144,0.23,1.925,0.856,2.267,1.454c0.354,0.6,0.296,1.103,0.143,1.38
		c-0.322,0.561-1,0.461-1.457,0.547c-0.48,0.092-0.783,0.14-1.481,0.099c-0.726,0.009-1.156,0.337-1.393,1.115
		c-0.205,0.738-0.02,1.7,0.415,2.441c0.863,1.48,2.703,2.445,4.409,3.415c3.507,1.996,7.191,3.635,10.911,5.328
		c1.852,0.866,4.677,2.199,6.489,3.131c1.803,0.932,2.523,1.647-0.142,1.394c-2.653-0.297-4.557-0.444-6.579-0.758
		c-2.013-0.331-4.166-0.808-7.158-2.122c-1.494-0.659-3.073-1.461-4.576-2.327c-1.477-0.853-3.001-1.785-4.272-2.935
		c-1.276-1.134-2.188-2.483-2.614-3.601c-0.218-0.541-0.32-0.994-0.391-1.303C64.606,152.846,64.577,152.676,64.577,152.676z"/>
	<path style="fill:#231815;" d="M66.687,168.084c-0.569-1.328-0.757-2.636-0.704-3.753c0.055-0.565,0.115-1.076,0.277-1.533
		c0.126-0.459,0.313-0.853,0.521-1.188c0.822-1.354,1.814-1.645,2.378-1.532c0.584,0.115,0.913,0.644,1.03,1.19
		c0.029,0.137,0.041,0.277,0.037,0.417c0.015,0.15,0.015,0.301-0.006,0.451c-0.064,0.29-0.104,0.622-0.279,0.963
		c-0.576,1.447-0.182,3.277,0.667,4.648c0.823,1.417,2.001,2.434,2.982,3.235c0.246,0.209,0.51,0.368,0.772,0.559
		c0.302,0.166,0.581,0.366,0.897,0.515c0.606,0.334,1.257,0.607,1.921,0.874c1.334,0.521,2.774,0.923,4.273,1.347
		c2.952,0.875,9.594,2.659,5.467,3.107c-2.06,0.197-3.536,0.48-5.166,0.608c-1.622,0.107-3.432,0.143-6.062-0.72
		c-1.31-0.446-2.692-1.107-3.944-1.977c-1.313-0.912-2.37-2.031-3.122-3.118c-0.75-1.091-1.258-2.11-1.535-2.87
		c-0.16-0.369-0.241-0.685-0.307-0.896C66.721,168.198,66.687,168.084,66.687,168.084z"/>
	<path style="fill:#231815;" d="M75.376,183.594c-0.596-0.509-1.103-1.116-1.47-1.767c-0.092-0.161-0.17-0.331-0.248-0.493
		c-0.076-0.179-0.145-0.371-0.208-0.553c-0.109-0.367-0.174-0.722-0.205-1.062c-0.097-1.359,0.305-2.448,0.863-3.192
		c0.561-0.75,1.274-1.127,1.826-1.202c0.556-0.084,0.938,0.09,1.15,0.31c0.418,0.443,0.284,1.072,0.283,1.52
		c-0.014,0.475,0.028,0.704-0.261,1.173c-0.135,0.24-0.208,0.549-0.204,0.845c0.01,0.317,0.063,0.53,0.221,0.823
		c0.312,0.586,0.885,1.079,1.571,1.482c1.372,0.791,3.168,1.318,4.559,1.896c2.861,1.144,5.845,1.855,8.905,2.587
		c1.526,0.383,3.893,0.968,5.473,1.397c1.566,0.424,2.319,0.921,0.224,1.382c-2.095,0.402-3.605,0.733-5.253,0.927
		c-1.644,0.178-3.446,0.219-6.029-0.38c-2.587-0.589-5.465-1.787-7.568-2.984c-1.062-0.58-2.006-1.225-2.643-1.764
		C75.721,183.999,75.376,183.594,75.376,183.594z"/>
	<path style="fill:#231815;" d="M0.728,83.613c3.021,0.534,10.257,4.507,19.159,10.361c8.912,5.842,19.517,13.525,29.517,21.214
		c9.997,7.693,19.396,15.386,25.955,21.191c6.561,5.804,10.276,9.723,8.984,9.773c-2.563,0.087-21.189-12.74-40.092-25.868
		c-9.421-6.592-18.926-13.243-26.447-18.506c-7.499-5.281-13.013-9.157-14.388-10.352C-2.108,86.7,0.728,83.613,0.728,83.613z"/>
	<path style="fill:#231815;" d="M311.233,188.339c-4.021-23.409,0.588-22.043,1.539-12.193c0.953,9.854,3.088,19.544,4.166,27.383
		c1.077,7.84,2.154,15.679,2.837,23.572c0.684,7.893,1.258,23.784-0.482,14.042c-1.741-9.743-3.069-13.559-4.684-25.313
		C312.991,204.072,311.233,188.339,311.233,188.339z"/>
	<path style="fill:#231815;" d="M335.246,246.908c-7.332,0.239-10.698,0.318-11.625-0.413c-0.451-0.334-0.252-0.771,0.472-1.162
		c0.723-0.38,1.967-0.773,3.569-0.808c3.192-0.142,6.37-0.279,9.403-0.23c1.519-0.019,2.991,0.092,4.41,0.157
		c1.409,0.142,2.77,0.237,4.025,0.481c5.036,0.855,10.005,2.192,14.65,4.281c2.344,0.997,5.661,2.908,7.59,4.311
		c1.93,1.415,2.559,2.187-0.295,0.965c-2.864-1.204-4.963-1.81-7.192-2.447c-2.224-0.62-4.589-1.28-8.138-2.27
		c-3.542-0.978-7.742-1.849-11.08-2.3c-1.671-0.192-3.115-0.382-4.148-0.436C335.856,246.956,335.246,246.908,335.246,246.908z"/>
	<path style="fill:#231815;" d="M422.07,252.605c-7.988,5.213-11.604,7.688-12.954,7.662c-0.646,0.014-0.634-0.514-0.04-1.359
		c0.599-0.834,1.745-2.036,3.462-3.159c3.383-2.31,6.777-4.588,10.13-6.569c1.651-1.036,3.338-1.905,4.931-2.79
		c1.639-0.792,3.186-1.612,4.72-2.203c6.067-2.514,12.408-4.453,18.918-5.322c3.243-0.514,8.174-0.666,11.228-0.439
		c3.062,0.24,4.253,0.588,0.266,0.982c-0.999,0.083-1.916,0.22-2.779,0.363c-0.862,0.14-1.672,0.262-2.446,0.411
		c-1.541,0.347-2.964,0.61-4.413,0.998c-1.45,0.374-2.95,0.725-4.647,1.211c-1.708,0.431-3.609,1.002-5.894,1.657
		c-4.567,1.341-9.771,3.316-13.741,5.15c-1.966,0.951-3.679,1.753-4.851,2.41C422.773,252.233,422.07,252.605,422.07,252.605z"/>
	<path style="fill:#231815;" d="M468.557,147.723c-0.253,0.029-0.497,0.059-0.656,0.18c-0.166,0.109-0.218,0.367-0.323,0.598
		c-0.096,0.245-0.222,0.453-0.342,0.701c-0.116,0.257-0.27,0.462-0.43,0.647c-0.652,0.729-1.4,1.248-2.031,1.829
		c-1.277,1.139-2.174,2.376-1.968,4.378c0.45,3.991,0.929,13.516,1.072,17.653c0.083,2.068,0.601,7.547,1.01,13.615
		c0.416,6.066,0.723,12.715,0.576,17.077c-0.144,4.36-0.002,10.253-0.02,15.827c-0.011,5.57-0.212,10.834-0.871,13.824
		c-0.453,2.095-0.562,3.608-0.462,4.456c0.026,0.204,0.066,0.381,0.129,0.485l0.114,0.131l0.017,0.014l0.104,0.052l0.229,0.12
		c0.143,0.08,0.283,0.178,0.394,0.255c0.413,0.261,0.564,0.469,0.616,0.549l0.05,0.105c-0.006-0.017-0.006-0.06-0.092-0.162
		l-0.098-0.119l-0.065-0.055l0.035,0.025l0.183,0.025c0.289-0.05,0.628-0.391,0.89-0.88c0.538-0.992,0.844-2.614,0.715-4.735
		c-0.197-3.527-0.043-10.042,0.135-16.126c0.191-6.079,0.456-11.709,0.724-13.376c0.272-1.667,0.453-9.068,0.511-16.37
		c0.073-7.301,0.015-14.504,0.251-15.768c0.502-2.535-0.304-11.682,0.387-15.572c0.362-1.956,0.414-4.097,0.228-5.931
		c-0.049-0.465-0.113-0.912-0.211-1.373c-0.049-0.231-0.11-0.472-0.19-0.73c-0.051-0.151-0.082-0.256-0.151-0.428
		c-0.066-0.161-0.148-0.35-0.196-0.438C468.15,147.069,468.605,147.826,468.557,147.723z"/>
	<path style="fill:#231815;" d="M383.916,255.693c1.325,3.625,1.364,5.478,0.761,6.177c-0.571,0.682-1.736,0.054-2.142-1.613
		c-0.803-3.289-2.201-6.436-2.607-9.156c-0.412-2.695-0.628-5.443-0.281-8.16c0.149-1.36,0.678-3.367,1.211-4.566
		c0.537-1.204,0.996-1.627,0.999,0.011c0.014,1.64,0.218,2.788,0.407,3.998c0.192,1.212,0.374,2.486,0.507,4.4
		c0.135,1.914,0.366,4.145,0.628,5.894C383.665,254.426,383.916,255.693,383.916,255.693z"/>
	<path style="fill:#231815;" d="M396.746,257.868c1.814,3.632,2.297,5.481,1.836,6.319c-0.414,0.803-1.731,0.343-2.47-1.368
		c-0.727-1.691-1.535-3.324-2.222-4.934c-0.705-1.599-1.296-3.171-1.59-4.622c-0.599-2.891-0.868-5.888-0.407-8.815
		c0.188-1.468,0.875-3.6,1.534-4.831c0.667-1.238,1.167-1.629,0.996,0.097c-0.154,1.732-0.024,2.959,0.108,4.242
		c0.137,1.285,0.284,2.63,0.433,4.64c0.155,2.012,0.509,4.349,0.931,6.164c0.23,0.9,0.414,1.686,0.593,2.231
		C396.65,257.541,396.746,257.868,396.746,257.868z"/>
	<path style="fill:#231815;" d="M406.231,256.618c1.541,2.958,1.79,4.548,1.286,5.308c-0.467,0.732-1.673,0.409-2.249-1.031
		c-0.565-1.422-1.243-2.771-1.836-4.099c-0.607-1.319-1.134-2.613-1.392-3.817c-0.522-2.396-0.79-4.881-0.416-7.319
		c0.154-1.222,0.738-3.001,1.315-4.026c0.584-1.033,1.055-1.354,0.997,0.076c-0.047,1.435,0.136,2.443,0.31,3.495
		c0.178,1.054,0.356,2.152,0.51,3.798c0.158,1.648,0.457,3.563,0.797,5.055c0.186,0.74,0.334,1.387,0.475,1.837
		C406.156,256.349,406.231,256.618,406.231,256.618z"/>
	<path style="fill:#231815;" d="M404.882,272.801c2.83-1.307,5.081-2.804,6.871-4.254c1.8-1.443,3.155-2.822,4.241-3.986
		c2.176-2.333,3.316-3.822,4.123-4.215c0.789-0.406,1.1,0.228,0.835,1.694c-0.297,1.43-1.282,3.678-3.306,5.861
		c-2.01,2.178-4.264,4.095-6.697,5.69c-2.44,1.581-5.061,2.83-7.758,3.681c-2.699,0.863-5.471,1.269-8.103,1.332
		c-2.648,0.065-5.22-0.243-7.553-0.885c-4.673-1.263-9.008-3.837-12.33-7.335c-3.339-3.486-5.677-7.841-6.817-12.425
		c-0.584-2.29-0.925-5.236-0.776-8.1c0.121-2.868,0.75-5.622,1.469-7.626c0.733-2.007,1.494-3.286,1.778-3.441
		c0.149-0.076,0.2,0.132,0.129,0.684c-0.036,0.277-0.102,0.638-0.202,1.094c-0.085,0.458-0.189,1.016-0.313,1.681
		c-0.472,2.66-0.494,4.965-0.307,7.054c0.195,2.092,0.599,3.978,1.175,5.856c0.582,1.876,1.339,3.752,2.427,5.759
		c1.096,1.996,2.506,4.156,4.639,6.33c2.11,2.196,4.859,4.099,7.844,5.343c2.99,1.235,6.181,1.808,9.022,1.834
		c2.862,0.059,5.274-0.335,6.958-0.789C403.917,273.197,404.882,272.801,404.882,272.801z"/>
	<path style="fill:#231815;" d="M429.578,128.868c-5.515-3.579-7.695-5.759-7.772-7.076c-0.105-1.259,1.951-1.404,4.272,0.328
		c2.303,1.722,4.69,3.292,6.922,4.873c2.241,1.561,4.332,3.123,5.991,4.729c3.321,3.196,6.41,6.68,8.773,10.65
		c1.22,1.96,2.633,5.145,3.232,7.245c0.596,2.111,0.523,3.079-1.07,0.801c-1.61-2.271-2.973-3.689-4.397-5.201
		c-1.43-1.509-2.93-3.105-5.074-5.577c-2.15-2.47-4.795-5.236-6.99-7.3c-1.111-1.016-2.062-1.908-2.773-2.501
		C429.991,129.229,429.578,128.868,429.578,128.868z"/>
	<path style="fill:#231815;" d="M437.475,247.813c2.606-3.423,4.27-4.644,5.21-4.541c0.905,0.082,0.944,1.487-0.345,2.871
		c-2.546,2.742-4.652,5.918-6.95,7.945c-2.281,2.004-4.777,3.828-7.581,5.056c-1.402,0.618-3.62,1.257-5.071,1.369
		c-1.448,0.134-2.071-0.063-0.461-0.888c1.612-0.828,2.617-1.634,3.691-2.443c1.062-0.836,2.193-1.684,3.906-2.93
		c1.723-1.235,3.662-2.791,5.122-4.105C436.465,248.841,437.475,247.813,437.475,247.813z"/>
	<path style="fill:#231815;" d="M256.212,341.765c0.821-6.356,1.326-12.804,2.335-18.856c1.111-6.005,2.459-11.644,4.717-15.869
		c2.181-4.25,3.117-3.136,3.308-0.431c0.099,1.356-0.008,3.103-0.225,4.838c-0.128,1.77-0.402,3.518-0.817,4.858
		c-0.104,0.336-0.213,0.688-0.327,1.055c-0.09,0.374-0.183,0.764-0.28,1.168c-0.192,0.807-0.397,1.67-0.612,2.575
		c-0.2,0.909-0.478,1.845-0.641,2.838c-0.168,0.992-0.342,2.013-0.52,3.053c-0.157,1.042-0.402,2.089-0.496,3.161
		c-0.112,1.071-0.226,2.146-0.338,3.211c-0.284,2.128-0.311,4.24-0.402,6.205c-0.021,0.492-0.049,1.164-0.084,1.993
		c-0.009,0.83,0.032,1.816,0.049,2.939c0.032,1.121,0.03,2.378,0.097,3.744c0.114,1.364,0.237,2.839,0.367,4.403
		c0.63,6.241,2.062,13.849,4.47,21.13c2.371,7.29,5.632,14.241,8.847,19.459c0.393,0.657,0.73,1.322,1.134,1.914
		c0.399,0.596,0.783,1.17,1.15,1.72c0.734,1.1,1.404,2.104,1.998,2.992c1.281,1.766,2.23,3.072,2.736,3.77
		c0.514,0.703,1.456,2.012,2.719,3.825c1.252,1.828,2.831,4.156,4.441,7.013c1.58,2.862,3.268,6.26,4.189,10.278
		c0.104,0.504,0.209,1.011,0.315,1.522c0.11,0.509,0.139,1.044,0.211,1.571c0.163,1.051,0.139,2.141,0.166,3.231
		c0.002,0.546-0.073,1.093-0.109,1.642c-0.044,0.549-0.085,1.113-0.171,1.597c-0.159,1.01-0.273,2.014-0.473,3.043
		c-0.34,2.039-0.797,4.126-1.525,6.251c-0.383,1.06-0.853,2.146-1.544,3.192c-0.353,0.522-0.711,1.039-1.192,1.496
		c-0.43,0.494-0.953,0.881-1.477,1.262c-0.519,0.385-1.081,0.63-1.623,0.926c-0.537,0.206-1.089,0.453-1.61,0.608
		c-1.054,0.331-2.055,0.557-3.019,0.758c-1.932,0.386-3.693,0.672-5.404,1.001c-6.865,1.307-12.525,2.474-15.602,3.298
		c-12.304,3.293-17.731-0.379-12.135-1.924c5.583-1.535,28.381-5.74,31.757-6.324c0.416-0.08,1.345-0.214,2.558-0.49
		c1.226-0.279,2.669-0.697,3.826-1.812c0.611-0.532,1.105-1.336,1.592-2.236c0.201-0.487,0.437-0.968,0.632-1.496
		c0.177-0.54,0.376-1.083,0.545-1.656c0.667-2.288,1.172-4.905,1.563-7.481c0.37-2.54,0.21-5.202-0.35-7.713
		c-0.568-2.512-1.505-4.861-2.507-6.945c-2.024-4.175-4.289-7.296-5.531-8.883c-1.272-1.577-3.085-3.915-5.135-6.702
		c-1.977-2.844-4.226-6.117-6.111-9.644c-3.908-6.985-6.705-14.648-8.102-19.067c-1.334-4.425-3.924-10.973-5.343-17.337
		c-0.447-1.573-0.727-3.137-1.004-4.623c-0.263-1.488-0.57-2.898-0.712-4.19C256.246,345.04,256.108,342.952,256.212,341.765z"/>
	<path style="fill:#231815;" d="M348.374,328.252c-2.923,1.495-5.258,3.299-7.304,5.195c-2.078,1.835-3.828,3.827-5.58,5.73
		c-1.68,1.998-3.381,3.922-5.042,6.032c-1.72,2.06-3.416,4.269-5.215,6.71c-0.534,0.795-1.193,1.623-1.685,2.58
		c-0.268,0.473-0.544,0.96-0.827,1.459c-0.262,0.507-0.468,1.043-0.716,1.585c-0.548,1.08-0.814,2.256-1.224,3.474
		c-0.289,1.325-0.619,2.717-0.82,4.173c-0.958,5.813-0.944,12.563-0.248,19.536c0.674,6.982,1.966,14.19,3.114,21.182
		c1.158,7.012,1.947,13.831,2.281,19.921c0.33,6.086,0.238,13.457-0.92,21.096c-0.592,3.777-1.256,7.795-2.97,11.509
		c-0.836,1.851-1.877,3.621-3.127,5.22c-1.264,1.586-2.72,2.989-4.269,4.199c-1.544,1.222-3.192,2.233-4.849,3.097
		c-1.651,0.884-3.321,1.605-4.952,2.251c-3.268,1.277-6.393,2.224-9.21,3.021c-5.64,1.571-10.057,2.599-12.404,3.187
		c-9.415,2.263-16.976,5.398-19.111,4.459c-2.157-0.953,4.595-3.872,10.783-5.395c1.536-0.396,6.2-1.602,12.468-3.222
		c3.118-0.825,6.622-1.77,10.247-2.919c1.813-0.575,3.654-1.205,5.466-1.928c1.82-0.71,3.614-1.516,5.309-2.45
		c1.698-0.928,3.302-1.978,4.73-3.172c1.429-1.193,2.657-2.546,3.681-3.997c2.064-2.898,3.236-6.223,3.919-9.345
		c1.359-6.444,1.784-11.691,2.081-13.882c0.306-2.205,0.46-6.389,0.118-11.481c-0.186-2.546-0.475-5.315-0.879-8.175
		c-0.416-2.859-0.936-5.807-1.522-8.717c-1.198-5.816-2.564-11.581-3.479-16.27c-0.942-4.687-1.421-8.316-1.458-9.709
		c-0.091-2.784-0.494-7.65-0.383-12.813c0.09-5.168,0.682-10.538,2.018-14.398c1.219-3.756,3.672-8.522,6.898-12.853
		c3.193-4.36,7.092-8.308,10.45-11.15c0.8-0.709,1.814-1.39,2.888-2.141c1.109-0.708,2.351-1.398,3.657-2.059
		c2.661-1.26,5.669-2.304,8.645-2.786c1.587-0.226,2.596-0.119,3.08,0.04c0.494,0.176,0.504,0.47,0.222,0.818
		c-0.284,0.347-0.859,0.748-1.557,1.139c-0.346,0.208-0.739,0.361-1.118,0.599C349.175,327.833,348.776,328.052,348.374,328.252z"/>
	<path style="fill:#231815;" d="M474.103,327.406c-0.933-3.918-2.135-7.455-3.334-10.703c-0.682-1.59-1.247-3.162-1.969-4.592
		c-0.34-0.725-0.673-1.436-0.999-2.132c-0.362-0.679-0.716-1.344-1.062-1.996c-2.793-5.208-5.692-9.24-8.16-12.482
		c-2.46-3.256-4.553-5.688-6.047-7.576c-1.499-1.887-2.483-3.159-2.88-3.996c-0.822-1.651,0.499-1.35,3.317,0.604
		c2.765,1.992,7.044,5.706,11.248,11.391c2.134,2.809,4.01,5.814,5.782,8.854c0.815,1.562,1.709,3.08,2.42,4.685
		c0.369,0.796,0.761,1.58,1.113,2.381l0.998,2.422c2.644,6.463,4.25,13.177,5.381,19.725c0.304,1.639,0.516,3.273,0.732,4.896
		c0.256,1.605,0.351,3.275,0.487,4.913c0.18,1.642,0.131,3.265,0.156,4.876c0.056,1.617-0.087,3.197-0.163,4.769
		c-0.41,6.277-1.49,12.173-2.766,17.603c-2.571,10.87-6.088,21.308-8.903,31.807c-1.401,5.226-2.619,10.546-3.403,15.752
		c-0.687,5.218-0.754,10.573,0.009,15.738c0.393,2.577,1.04,5.446,2.207,8.244c0.616,1.445,1.255,2.628,2.217,3.814
		c0.997,1.143,2.14,2.242,3.428,3.198c2.542,1.958,5.504,3.423,8.368,4.558c2.878,1.128,5.708,1.897,8.211,2.374
		c5.01,1.038,8.672,1.003,9.289,1.322c0.312,0.138-0.133,0.285-1.536,0.445c-0.352,0.034-0.762,0.075-1.235,0.121
		c-0.475,0.011-1.011,0.023-1.614,0.036c-1.207,0.043-2.673-0.045-4.424-0.182c-3.496-0.33-6.706-0.99-9.658-1.901
		c-2.951-0.912-5.655-2.062-8.12-3.496c-2.456-1.443-4.704-3.156-6.523-5.426c-0.418-0.585-0.873-1.22-1.213-1.82
		c-0.32-0.604-0.674-1.197-0.962-1.815c-0.593-1.231-1.106-2.494-1.554-3.787c-1.75-5.188-2.479-10.788-2.36-17.127
		c0.038-1.586,0.131-3.221,0.313-4.914c0.081-0.845,0.202-1.712,0.326-2.582c0.147-0.852,0.295-1.72,0.447-2.604
		c0.593-3.546,1.477-7.283,2.501-11.329c2.107-8.067,4.853-16.586,7.17-24.944c1.181-4.178,2.187-8.325,3.041-12.342
		c0.779-4.02,1.437-7.912,1.697-11.562c0.071-0.912,0.142-1.809,0.211-2.689c0.015-0.878,0.031-1.74,0.046-2.582
		c0.081-1.69-0.05-3.288-0.124-4.803c-0.04-1.505-0.244-2.971-0.379-4.318c-0.127-1.354-0.306-2.591-0.473-3.716
		c-0.29-2.257-0.657-4.022-0.875-5.242C474.273,328.053,474.103,327.406,474.103,327.406z"/>
	<path style="fill:#231815;" d="M364.582,321.988c1.787,0.263,3.891,0.598,6.118,0.748c1.115,0.155,2.264,0.284,3.425,0.394
		c1.161,0.121,2.326,0.348,3.489,0.493c4.632,0.736,9.078,1.886,11.792,3.101c0.692,0.262,1.387,0.606,2.111,0.936
		c0.724,0.322,1.469,0.651,2.224,0.986c0.735,0.372,1.48,0.749,2.224,1.126c0.744,0.375,1.495,0.731,2.189,1.169
		c1.41,0.835,2.793,1.613,3.939,2.497c0.586,0.422,1.137,0.829,1.642,1.217c0.503,0.392,0.92,0.819,1.306,1.188
		c0.379,0.375,1.003,0.922,1.809,1.598c0.765,0.723,1.693,1.601,2.731,2.583c0.508,0.502,1.004,1.07,1.541,1.635
		c0.52,0.583,1.117,1.134,1.623,1.794c1.027,1.302,2.177,2.609,3.112,4.086c4.072,5.701,6.428,12.385,7.103,14.633
		c0.716,2.26,1.79,6.325,2.546,10.182c0.402,1.926,0.689,3.8,0.97,5.348c0.233,1.552,0.458,2.781,0.606,3.425
		c0.562,2.584,0.543,1.024,0.734,6.239c0.113,5.209-0.362,6.232-0.362,7.786c-0.002,1.553,0.302,6.724,0.302,6.724
		s0.281,2.537,0.49,5.277c0.208,2.739,0.375,5.673,0.095,6.527c-1.307,4.056,0.403,3.567,0.424,6.091
		c0.055,2.517-0.802,4.582,0.002,9.582c0.761,4.985,1.866,11.372,3.506,15.513c0.821,2.061,1.353,3.676,1.887,5.168
		c0.245,0.754,0.488,1.48,0.784,2.208c0.29,0.725,0.558,1.494,0.939,2.255c1.54,3.038-1.561-3.018,1.563,3.02
		c0.425,0.728,0.762,1.376,1.031,1.953c0.307,0.543,0.535,1.021,0.699,1.439c0.334,0.83,0.384,1.443,0.321,1.798
		c-0.144,0.732-1.075,0.669-1.818-0.072c-0.379-0.359-0.808-0.884-1.265-1.496c-0.442-0.623-0.848-1.375-1.293-2.118
		c-0.459-0.737-0.836-1.535-1.23-2.263c-0.389-0.73-0.802-1.387-1.14-1.942c-0.353-0.547-0.773-1.245-1.223-2.046
		c-0.43-0.81-0.851-1.743-1.283-2.724c-0.426-0.983-0.757-2.054-1.092-3.11c-0.319-1.062-0.519-2.149-0.691-3.168
		c-0.264-2.059-0.504-3.577-0.708-4.846c-0.224-1.263-0.513-2.255-0.848-3.25c-0.779-1.962-2.079-7.07-2.191-9.67
		c-0.143-2.586-0.268-4.577-0.199-6.209c0.369-7.228,0.927-9.764,0.53-11.84c-0.374-2.068,0.028-1.029-0.277-5.665
		c-0.313-4.634-0.701-6.683-0.709-9.744c-0.011-3.064-0.473-4.588-0.554-6.614c-0.03-1.016-0.188-2.026-0.362-3.03
		c-0.162-1.006-0.334-2.007-0.43-3.011c-0.116-2.023-1.13-6.472-2.005-8.831c-0.228-0.588-0.466-1.523-0.757-2.604
		c-0.327-1.069-0.587-2.328-0.956-3.529c-0.34-1.212-0.651-2.416-0.962-3.417c-0.286-1.01-0.48-1.854-0.581-2.34
		c-0.335-1.955-0.273-3.148-2.874-6.232c-1.286-1.538-2.065-2.027-2.623-2.522c-0.284-0.243-0.527-0.473-0.796-0.792
		c-0.256-0.329-0.575-0.72-1.02-1.277c-1.69-2.281-1.766-3.494-3.064-4.954c-0.667-0.706-1.686-1.756-2.742-2.776
		c-1.139-0.924-2.342-1.789-3.37-2.038c-1.055-0.213-2.023-0.499-3.019-0.938c-1.016-0.407-2.106-0.891-3.323-1.63
		c-1.266-0.651-2.18-1.214-2.934-1.718c-0.766-0.475-1.402-0.82-2.063-1.105c-0.666-0.283-1.669-0.364-2.74-0.351
		c-0.531-0.008-1.071-0.02-1.588-0.066c-0.258-0.023-0.511-0.055-0.755-0.101c-0.248-0.026-0.487-0.065-0.714-0.122
		c-1.844-0.491-5.238,0.01-7.901-0.606c-0.674-0.154-1.405-0.454-2.168-0.657c-0.763-0.228-1.556-0.511-2.352-0.849
		c-0.798-0.369-1.589-0.624-2.36-1.027c-0.767-0.375-1.51-0.835-2.181-1.297c-1.32-0.887-3.162-2.667-4.116-4.083
		C361.793,322.61,361.902,321.515,364.582,321.988z"/>
	<path style="fill:#231815;" d="M443.718,469.664c0.624,0.487,1.165,0.919,1.755,1.2c0.587,0.284,1.153,0.515,1.735,0.74
		c0.591,0.207,1.154,0.481,1.845,0.667c0.679,0.204,1.414,0.445,2.243,0.769c3.339,1.157,4.109,3.294,8.599,4.757
		c2.259,0.606,4.105,0.743,5.363,0.729c1.273-0.08,1.966-0.272,1.966-0.272c-0.776-0.453-1.56-0.842-2.306-1.345l-2.22-1.452
		c0,0-0.697-0.29-1.705-0.604c-0.987-0.375-2.264-0.815-3.513-1.005c-0.312-0.049-0.607-0.122-0.886-0.226
		c-0.272-0.121-0.532-0.263-0.787-0.419c-0.511-0.312-1.002-0.681-1.533-1.052c-1.102-0.694-2.203-1.617-4.116-2.134
		c-0.936-0.295-1.751-0.634-2.543-0.91c-0.39-0.147-0.775-0.276-1.128-0.43c-0.339-0.176-0.664-0.344-0.979-0.508
		c-0.627-0.339-1.2-0.684-1.716-1.06c-0.487-0.408-0.895-0.874-1.256-1.374c-0.357-0.504-0.736-0.767-1.049-0.824
		c-0.306-0.062-0.537,0.076-0.617,0.443c-0.064,0.352,0.059,0.901,0.48,1.647c0.211,0.373,0.497,0.794,0.87,1.26
		C442.586,468.734,443.121,469.161,443.718,469.664z"/>
	<path style="fill:#231815;" d="M468.727,475.946c2.286,1.307,1.434,3.345,4.496,3.754c3.052,0.493,7.165,0.794,9.246,0.56
		c1.04-0.088,3.107-0.256,4.905-0.313c1.797-0.057,3.337-0.105,3.337-0.105s0.587-2.1-3.987-1.894
		c-4.59,0.217-3.57,0.216-6.644,0.39c-1.538,0.065-3.182-0.139-4.407-0.503c-1.233-0.329-2.074-0.66-2.074-0.66l-2.458-0.551
		L468.727,475.946z"/>
	<path style="fill:#231815;" d="M470.074,470.845c-5.485-1.141-7.641-2.81-7.913-3.713c-0.267-0.937,1.29-1.241,3.382-0.387
		c4.216,1.724,8.799,2.143,12.332,2.791c3.549,0.661,7.119,1.141,10.701,1.737c3.544,0.677,10.9,1.953,6.304,2.268
		c-2.318,0.162-3.948,0.276-5.691,0.397c-1.751,0.088-3.627,0.093-6.401-0.259c-2.775-0.355-5.976-1.01-8.458-1.64
		C471.847,471.405,470.074,470.845,470.074,470.845z"/>
	<path style="fill:#231815;" d="M479.753,464.966c-6.727-1.509-9.332-3.61-9.677-4.546c-0.333-1.002,1.51-1.092,4.035-0.001
		c2.54,1.099,5.227,1.818,7.806,2.303c2.576,0.508,5.043,0.796,7.219,1.104c4.358,0.627,8.747,0.907,13.168,1.1
		c2.231,0.116,5.581,0.292,7.692,0.402c2.13,0.129,3.054,0.421,0.267,0.969c-2.788,0.527-4.757,0.913-6.889,1.21
		c-2.13,0.291-4.431,0.483-7.868,0.304c-3.44-0.184-7.418-0.791-10.492-1.475c-1.534-0.364-2.855-0.675-3.781-0.953
		C480.303,465.121,479.753,464.966,479.753,464.966z"/>
	<path style="fill:#231815;" d="M452.667,251.344c-0.42-5.727-0.184-8.389,0.559-9.119c0.69-0.72,1.744,0.637,1.806,3.142
		c0.06,2.491,0.234,4.963,0.318,7.33c0.101,2.365,0.12,4.622-0.093,6.61c-0.414,3.971-1.136,7.935-2.518,11.688
		c-0.654,1.888-1.996,4.585-3.04,6.152c-1.051,1.57-1.691,2.074-0.975-0.239c0.701-2.32,0.971-4.008,1.269-5.792
		c0.293-1.787,0.604-3.676,1.146-6.484c0.538-2.811,1.007-6.124,1.241-8.745c0.098-1.312,0.197-2.446,0.222-3.254
		C452.642,251.823,452.667,251.344,452.667,251.344z"/>
	<path style="fill:#231815;" d="M268.006,459.967c11.447-2.31,10.979,1.464,6.137,1.801c-4.854,0.318-9.498,1.692-13.195,2.529
		c-3.711,0.838-7.335,1.913-11.018,2.948c-3.671,0.974-11.238,3.175-6.991,0.802c2.138-1.182,3.626-2.064,5.266-2.931
		c1.64-0.863,3.445-1.702,6.285-2.56c2.841-0.862,6.235-1.564,8.903-1.975C266.064,460.16,268.006,459.967,268.006,459.967z"/>
	<path style="fill:#231815;" d="M271.729,468.237c12.344-2.976,11.992,0.763,6.728,1.443c-5.268,0.649-10.334,2.231-14.392,3.184
		c-4.071,0.943-8.049,2.072-12.032,3.277c-2.018,0.586-5.05,1.466-6.963,2.022c-1.941,0.534-2.864,0.543-0.569-0.827
		c2.298-1.364,3.921-2.333,5.71-3.291c1.798-0.932,3.772-1.853,6.87-2.784c3.1-0.931,6.778-1.701,9.663-2.211
		C269.63,468.536,271.729,468.237,271.729,468.237z"/>
	<path style="fill:#231815;" d="M232.196,147.509c-2.21,9.948,5.527,7.737,10.501,7.184c4.973-0.553,6.078,3.868,11.052,0
		c4.974-3.868,3.316-18.789,0-19.895C250.434,133.693,232.196,147.509,232.196,147.509z"/>
	<path style="fill:#231815;" d="M221.697,156.904c2.21,6.631,2.821,21.253-2.21,20.447c0,0-2.211-2.21-7.308-0.271
		c-3.553,1.352-7.852-1.942-9.271-5.255C201.249,167.956,221.697,156.904,221.697,156.904z"/>
	<path style="fill:#231815;" d="M428.933,137.562c-5.603,11.206-3.316,14.368-3.316,14.368s2.763,7.737,8.29,3.868
		c5.526-3.868,9.947-1.105,12.71-2.763c2.764-1.658,2.764-2.764-1.105-11.052C441.644,133.693,431.143,133.141,428.933,137.562z"/>
	<path style="fill:#231815;" d="M271.235,310.04c6.059,0,13.477-0.93,17.659,4.647c4.182,5.577,13.477,6.971,13.477,10.688
		c0,3.718-0.465,6.507-5.111,6.507c-4.648,0-6.85-0.689-10.224-0.93c0,0-13.1,0.377-16.73-3.253
		C260.082,317.475,263.799,310.04,271.235,310.04z"/>
	<path style="fill:#231815;" d="M268.447,343.499c9.759,0,20.448,2.788,21.842,6.971c1.394,4.183-1.394,11.153-6.041,10.688
		c-4.648-0.464-2.324-1.859-9.295,0c-6.971,1.86-6.041,3.718-12.082-0.929c-6.041-4.648-5.577-13.477-2.788-15.801
		C262.87,342.105,268.447,343.499,268.447,343.499z"/>
	<path style="fill:#231815;" d="M429.241,326.305c-8.83-2.324-5.577-9.759-0.465-12.548c5.112-2.788,13.478-8.364,13.478-8.364
		s7.435,4.182,13.941,1.859c6.507-2.324,11.618-4.183,11.618,3.253s-2.323,10.689-6.506,12.548
		c-4.183,1.859-8.365,1.394-11.618,3.253c-3.254,1.859-3.718,3.253-8.365,4.183C436.676,331.417,429.241,326.305,429.241,326.305z"
		/>
	<path style="fill:#231815;" d="M443.647,363.947c-6.507-2.788-4.183-12.082-0.465-14.871c3.718-2.788,6.971-4.183,11.618-4.647
		c4.648-0.465,6.971-5.112,10.224-1.394c3.254,3.717,6.042-2.324,7.901,2.323c1.859,4.648,1.394,13.012-3.253,13.012
		c-4.648,0-9.295-0.464-11.618,2.788c-2.324,3.254,0.929,3.718-4.183,4.648C448.758,366.735,443.647,363.947,443.647,363.947z"/>
	<path style="fill:#231815;" d="M449.049,250.883c-5.876,8.325-9.948,12.158-6.079,12.158s5.527,11.052,8.842,5.527
		C455.128,263.041,455.68,241.489,449.049,250.883z"/>
	<path style="fill:#231815;" d="M392.354,187.541c2.074,5.092,3.832,50.371,2.554,48.602c-1.277-1.766-4.163-41.993-4.092-45.395
		C390.888,187.347,392.354,187.541,392.354,187.541z"/>
	<path style="fill:#231815;" d="M273.844,59.965c-0.389-0.241-0.901-1.004-0.935-2.179c-0.049-1.162,0.436-2.604,1.497-3.81
		c0.53-0.603,1.212-1.145,2.035-1.549c0.413-0.199,0.862-0.359,1.337-0.473c0.453-0.1,0.909-0.157,1.373-0.176
		c1.868-0.058,3.661,0.605,5.072,1.565c1.427,0.953,2.522,2.262,3.243,3.493c0.739,1.243,1.184,2.436,1.485,3.434
		c0.573,2.003,0.637,3.272,0.198,3.218c-0.459-0.046-1.269-1.264-2.36-2.879c-1.095-1.607-2.573-3.542-4.534-4.485
		c-0.965-0.488-1.987-0.733-2.869-0.689c-0.92,0.048-1.529,0.314-2.093,0.777c-0.546,0.439-0.879,0.969-1.066,1.352
		c-0.189,0.394-0.219,0.659-0.289,0.774c-0.228,0.43-0.688,0.813-1.161,1.145C274.31,59.813,273.844,59.965,273.844,59.965z"/>
	<path style="fill:#231815;" d="M360.401,64.662c-0.724-0.59-1.248-2.678-2.231-4.757c-0.258-0.514-0.547-1.019-0.887-1.465
		c-0.349-0.45-0.754-0.886-1.211-1.227c-0.924-0.703-1.915-1.024-2.936-0.819c-1.044,0.189-2.132,0.942-2.915,1.837
		c-0.79,0.892-1.358,2.003-1.803,2.957c-0.866,1.951-1.441,3.276-1.798,2.937c-0.311-0.324-0.452-1.899,0.02-4.25
		c0.259-1.164,0.721-2.555,1.693-3.876c0.955-1.28,2.383-2.513,4.31-2.975c0.949-0.24,1.992-0.218,2.939-0.003
		c0.946,0.23,1.803,0.642,2.528,1.145c1.447,1.007,2.451,2.364,3.052,3.617c0.604,1.241,0.895,2.35,1.072,3.178
		c0.173,0.832,0.231,1.399,0.228,1.646c-0.029,0.981-0.555,1.48-1.06,1.752C360.894,64.628,360.401,64.662,360.401,64.662z"/>
	<path style="fill:#231815;" d="M290.653,96.888c-3.782-0.63-3.504-6.618-0.779-6.229c1.212,0.173,1.961,1.502,2.215,2.889
		C292.406,95.281,291.949,97.105,290.653,96.888z"/>
	<path style="fill:#231815;" d="M310.895,101.17c-2.123-0.531-1.49-2.336-0.07-3.89c1.461-1.598,3.755-2.931,4.741-2.338
		C317.513,96.11,314.009,101.949,310.895,101.17z"/>
</g>
</svg>
