<?xml version="1.0" encoding="iso-8859-1"?>
<!-- Generator: Adobe Illustrator 22.1.0, SVG Export Plug-In . SVG Version: 6.00 Build 0)  -->
<svg version="1.1" id="_x37_" xmlns="http://www.w3.org/2000/svg" xmlns:xlink="http://www.w3.org/1999/xlink" x="0px" y="0px"
	 viewBox="0 0 512 512" style="enable-background:new 0 0 512 512;" xml:space="preserve">
<g>
	<path style="fill:#65D69D;" d="M36.381,222.696c-6.647-4.273-22.789-12.344-30.385-22.314c-7.596-9.971-1.424-17.092,4.747-18.516
		c6.172-1.424,28.486,1.899,35.133,2.848c6.647,0.95,3.798,1.9,8.071-5.697c4.273-7.596,7.122-15.193,14.718-13.768
		c7.596,1.424,8.071,6.172,10.445,12.344c2.374,6.172,10.919,6.646,19.465,9.495c8.546,2.848,17.091,5.697,18.991,5.697
		c1.899,0,2.374-9.021,12.344-9.021c9.97,0,10.445,3.798,14.243,8.071c3.798,4.273,18.516,9.496,20.415,10.445
		c1.899,0.949,12.344-0.475,12.344-0.475s33.708-8.071,61.245,2.374c27.537,10.445,37.032,19.94,43.679,26.587
		c6.647,6.647,12.344,12.344,15.193,12.818c2.848,0.475,64.094,14.718,70.74,14.243c0.949-3.323,0.475-6.172-0.475-9.97
		c-0.949-3.798-4.747-28.012,12.344-32.284c17.092-4.273,28.486-0.475,34.183,1.424c5.697,1.899,16.617,2.374,23.739-1.424
		c7.121-3.798,10.919-6.172,10.919-6.172s1.899,4.747-5.223,9.021c-7.122,4.273,0.95,3.323,4.273,1.424
		c3.323-1.899-2.374,7.122-5.697,9.02c-3.323,1.9-1.899,2.849-5.697,5.697c-3.798,2.849-2.374,2.374-10.445,4.273
		c-8.071,1.899-16.142-1.424-22.789,5.697c-6.647,7.121-3.798,6.646-1.899,13.768c1.899,7.122-1.424,8.546,7.122,12.344
		c8.546,3.798,14.243,7.596,23.738,5.223c9.495-2.374,19.466-8.071,22.789-8.071c3.323,0,15.667,4.747,27.062,4.273
		c11.394-0.475,18.516-3.323,18.516-3.323s-8.546,6.172-2.848,5.222c5.697-0.949,11.869-4.747,14.243-5.697
		c2.374-0.95-9.97,10.445-9.97,10.445s12.819-7.596,9.496-1.424c-3.324,6.172-10.445,10.445-21.365,13.768
		c-10.92,3.323-54.124,15.667-69.791,18.516c-15.667,2.849-25.637,0.475-25.637,0.475s-16.617,11.395-39.406,17.567
		c-22.789,6.172-37.032,4.747-40.356,5.697c-3.323,0.95-6.647,5.223-13.294,6.172c-6.647,0.949-62.194,4.273-82.135,5.697
		c-19.94,1.424-26.587-6.647-26.587-6.647s-11.395,6.647-29.91,7.122c-18.516,0.475-37.032-16.142-37.982-19.94
		c-8.071,0.95-36.557-17.566-44.628-32.284c-3.324,7.122-22.314,24.688-31.335,29.436c-9.021,4.748-13.293,10.445-24.688,4.748
		c-11.394-5.697-9.495-15.667-9.021-26.113c0.475-10.445,8.071-32.284,12.819-36.557c4.747-4.273,14.718-18.991,21.365-20.89
		C51.099,236.939,36.381,222.696,36.381,222.696z"/>
	<path style="fill:#FFFFFF;" d="M45.402,226.494c8.071,3.324,34.658,16.617,57.447,20.89c22.789,4.273,28.011,3.323,31.335,6.172
		c3.323,2.848-6.647,11.869,3.323,25.163c9.971,13.294-2.374,2.374-2.374,2.374s-12.819-16.142-25.637-21.364
		c-12.819-5.223-36.557-10.445-41.78-8.072c-5.223,2.374-13.294,6.647-13.294,6.647s0.95-11.394-5.222-19.465
		C43.028,230.767,35.432,221.746,45.402,226.494z"/>
	<path style="fill:#FFFFFF;" d="M90.505,287.739c6.172,1.899,18.516,12.819,24.688,24.214c6.172,11.394,9.021,12.344,3.798,11.869
		c-5.223-0.475-28.011-18.516-34.184-24.213c-6.172-5.697-4.747-6.172-4.747-6.172s0.949-5.223,2.374-5.697
		C83.858,287.264,90.505,287.739,90.505,287.739z"/>
	<path style="fill:#FFFFFF;" d="M192.58,338.539c6.172-3.798,19.94-23.264,26.112-24.213c6.172-0.949,35.608,5.697,54.599,7.596
		c18.99,1.899,20.889,14.718,12.344,18.516c-8.546,3.798-56.497,2.849-72.164,2.849C197.802,343.287,192.58,338.539,192.58,338.539z
		"/>
	<path style="fill:#231815;" d="M34.142,186.6c16.594,1.511,23.125-3.062-1.251-5.549c-3.102-0.316-6.154-0.581-9.192-0.808
		c-1.519-0.104-3.035-0.209-4.551-0.313c-1.529-0.09-2.998-0.196-4.629-0.251c-1.62-0.043-3.341-0.029-5.165,0.324
		c-1.807,0.349-3.752,1.065-5.352,2.412c-1.638,1.304-2.725,3.139-3.357,4.995c-0.591,1.879-0.768,3.826-0.56,5.727
		c0.096,0.953,0.298,1.895,0.573,2.822c0.291,0.912,0.666,1.856,1.129,2.678c0.893,1.682,2.075,3.187,3.376,4.544
		c1.308,1.357,2.752,2.56,4.253,3.695c1.507,1.13,3.058,2.198,4.665,3.243c1.597,1.063,3.23,2.151,4.901,3.265
		c1.675,1.107,3.446,2.153,5.224,3.283c0.891,0.561,1.794,1.128,2.708,1.703c0.933,0.544,1.876,1.096,2.833,1.655
		c0.954,0.561,1.921,1.129,2.901,1.704c0.978,0.578,1.963,1.174,2.995,1.718l6.14,3.362c2.083,1.052,4.163,2.103,6.238,3.151
		l1.556,0.785c0.521,0.258,1.053,0.489,1.577,0.734c1.053,0.485,2.104,0.97,3.153,1.453c1.049,0.484,2.096,0.966,3.139,1.449
		c1.059,0.446,2.116,0.892,3.169,1.336c1.054,0.442,2.105,0.883,3.153,1.323c1.046,0.444,2.089,0.885,3.15,1.269
		c2.11,0.8,4.203,1.593,6.276,2.38c2.086,0.749,4.175,1.427,6.227,2.134c1.031,0.339,2.043,0.717,3.071,1.021
		c1.027,0.309,2.047,0.615,3.061,0.919c1.013,0.305,2.02,0.608,3.019,0.908c0.5,0.15,0.997,0.3,1.493,0.449
		c0.498,0.142,0.998,0.264,1.495,0.396c1.987,0.521,3.942,1.033,5.861,1.535c0.956,0.266,1.915,0.477,2.865,0.687
		c0.95,0.212,1.889,0.422,2.819,0.63c1.863,0.399,3.672,0.866,5.467,1.166c3.58,0.647,6.97,1.353,10.191,1.768
		c1.607,0.236,3.161,0.464,4.658,0.683c1.498,0.22,2.95,0.335,4.335,0.497c5.416,0.655,9.447,0.379,11.704-0.07
		c2.262-0.469,2.769-1.236,1.264-2.048c-0.753-0.406-2.008-0.824-3.797-1.22c-0.895-0.199-1.924-0.391-3.092-0.575
		c-1.168-0.177-2.468-0.44-3.915-0.646c-1.447-0.218-3.036-0.428-4.776-0.626c-1.736-0.233-3.615-0.515-5.653-0.758
		c-1.02-0.118-2.078-0.241-3.174-0.368c-1.093-0.154-2.225-0.313-3.396-0.478c-2.342-0.333-4.863-0.576-7.518-1.019
		c-5.715-0.794-10.635-1.861-15.392-3.038c-2.366-0.641-4.695-1.297-7.065-1.978c-2.345-0.761-4.724-1.565-7.22-2.405
		c-9.903-3.563-21.559-8.185-38.61-17.428c-6.752-3.785-13.442-7.859-19.675-12.384c-3.156-2.217-6.291-4.426-8.751-6.953
		c-1.234-1.262-2.285-2.621-3.058-4.067c-0.202-0.356-0.369-0.736-0.528-1.094l-0.211-0.538c-0.065-0.181-0.114-0.37-0.174-0.554
		c-0.212-0.743-0.366-1.51-0.405-2.28c-0.052-0.766-0.033-1.534,0.093-2.266c0.11-0.735,0.303-1.442,0.591-2.075
		c0.122-0.331,0.311-0.613,0.468-0.912c0.195-0.268,0.367-0.553,0.593-0.782c0.196-0.26,0.454-0.447,0.678-0.668
		c0.264-0.173,0.495-0.377,0.785-0.524c1.11-0.629,2.481-0.913,3.966-0.98c1.486-0.07,3.057,0.06,4.677,0.209
		C22.705,185.551,28.758,186.106,34.142,186.6z"/>
	<path style="fill:#231815;" d="M61.425,171.049c-1.013,1.296-1.776,2.612-2.431,3.754c-0.658,1.149-1.222,2.156-1.758,2.971
		c-1.062,1.642-2.014,2.499-2.772,2.665c-0.754,0.17-1.299-0.318-1.484-1.232c-0.181-0.912-0.011-2.272,0.77-3.818
		c0.779-1.54,1.574-3.112,2.518-4.628c0.923-1.509,2.072-2.988,3.402-4.22c1.339-1.223,2.867-2.256,4.581-2.899
		c1.697-0.655,3.594-0.89,5.326-0.598c1.736,0.279,3.373,0.99,4.741,1.955c1.365,0.975,2.478,2.184,3.36,3.497
		c0.879,1.317,1.54,2.744,1.951,4.239c0.201,0.741,0.364,1.526,0.438,2.265c0.093,0.742,0.114,1.483,0.105,2.213
		c-0.014,1.465-0.308,3.237-0.778,4.88c-0.47,1.648-1.096,3.181-1.671,4.325c-1.16,2.284-2.032,3.079-1.66-0.156
		c0.348-3.225,0.196-5.48-0.184-7.691c-0.194-1.098-0.465-2.208-0.854-3.339c-0.384-1.107-0.94-2.334-1.82-3.599
		c-0.872-1.271-2.084-2.382-3.402-2.921c-1.304-0.556-2.752-0.578-4.076-0.2c-1.321,0.366-2.437,1.047-3.174,1.587
		c-0.368,0.277-0.65,0.514-0.841,0.683C61.522,170.95,61.425,171.049,61.425,171.049z"/>
	<path style="fill:#231815;" d="M93.056,187.38c-9.285-2.353-7.05-6.36-3.43-4.669c3.621,1.692,7.647,2.22,10.652,3.263
		c3.005,1.043,6.01,2.086,8.88,3.517c2.87,1.431,8.339,5.07,4.449,4.155c-3.89-0.915-5.664-0.661-10.169-2.226
		C98.93,189.856,93.056,187.38,93.056,187.38z"/>
	<path style="fill:#231815;" d="M126.441,187.3c-1.359,0.86-2.379,1.783-3.183,2.627c-0.804,0.848-1.383,1.626-1.876,2.289
		c-0.979,1.326-1.609,2.267-2.304,2.639c-0.684,0.376-1.344,0.132-1.747-0.847c-0.111-0.244-0.151-0.522-0.191-0.842
		c-0.035-0.32-0.051-0.679,0.012-1.054c0.055-0.376,0.119-0.792,0.282-1.198c0.145-0.414,0.328-0.845,0.592-1.254
		c2.018-3.319,4.949-5.792,8.343-7.177c3.466-1.403,7.161-1.253,10.04-0.256c2.889,0.998,5.458,2.705,7.495,4.9
		c2.055,2.215,3.453,4.893,4.189,7.66c0.374,1.384,0.606,3.155,0.587,4.873c-0.011,1.72-0.261,3.381-0.612,4.615
		c-0.349,1.237-0.769,2.052-1.066,2.168c-0.151,0.058-0.278-0.057-0.374-0.38c-0.09-0.323-0.161-0.854-0.218-1.632
		c-0.293-3.11-1.097-5.171-2.071-7.16c-0.497-0.993-1.051-1.972-1.736-3.018c-0.166-0.265-0.348-0.53-0.542-0.797
		c-0.183-0.276-0.396-0.542-0.607-0.824c-0.205-0.29-0.45-0.545-0.678-0.842c-0.26-0.27-0.498-0.578-0.793-0.859
		c-1.126-1.172-2.552-2.262-4.087-3.038c-1.533-0.789-3.161-1.225-4.602-1.358c-1.457-0.116-2.657,0.071-3.509,0.305
		c-0.213,0.062-0.405,0.118-0.572,0.167c-0.164,0.063-0.304,0.117-0.418,0.161C126.565,187.253,126.441,187.3,126.441,187.3z"/>
	<path style="fill:#231815;" d="M41.714,231.447c-2.342-2.85-4.046-4.897-5.101-6.472c-1.074-1.552-1.521-2.606-1.459-3.245
		c0.054-0.631,0.589-0.807,1.392-0.511c0.794,0.301,1.9,1.036,2.901,2.315c1.044,1.238,2.034,2.51,3.069,3.723
		c0.981,1.255,1.999,2.458,2.911,3.696c0.961,1.204,1.785,2.456,2.615,3.637c0.753,1.226,1.521,2.382,2.079,3.556
		c2.358,4.624,4.227,9.547,5.036,14.681c0.096,0.642,0.213,1.36,0.284,2.125c0.06,0.767,0.111,1.571,0.152,2.367
		c0.045,0.796,0.008,1.596-0.003,2.339c-0.013,0.744-0.051,1.439-0.136,2.045c-0.292,2.422-0.721,3.353-1.212,0.282
		c-0.11-0.77-0.266-1.474-0.427-2.135c-0.159-0.66-0.302-1.279-0.468-1.868c-0.183-0.584-0.359-1.145-0.532-1.7
		c-0.172-0.552-0.342-1.096-0.55-1.64c-0.394-1.092-0.764-2.222-1.245-3.495c-0.435-1.286-0.984-2.712-1.599-4.434
		c-1.258-3.44-3.045-7.335-4.681-10.282c-0.847-1.454-1.561-2.727-2.14-3.586C42.043,231.966,41.714,231.447,41.714,231.447z"/>
	<path style="fill:#231815;" d="M196.322,275.795c2.456-4.269,4.193-7.387,5.583-9.481c1.36-2.104,2.34-3.198,3.016-3.47
		c0.664-0.277,0.973,0.25,0.865,1.329c-0.117,1.072-0.594,2.727-1.674,4.556c-1.042,1.842-2.084,3.684-3.112,5.503
		c-1.071,1.793-2.076,3.597-3.154,5.298c-0.521,0.862-1.038,1.712-1.589,2.52c-0.542,0.815-1.075,1.616-1.596,2.401
		c-1.118,1.515-2.145,3.008-3.268,4.285c-4.364,5.206-9.227,10.042-14.775,13.969c-0.696,0.485-1.471,1.042-2.319,1.579
		c-0.856,0.528-1.758,1.072-2.658,1.602c-0.897,0.534-1.837,0.992-2.7,1.442c-0.435,0.218-0.857,0.428-1.259,0.629
		c-0.406,0.192-0.803,0.355-1.169,0.511c-2.938,1.229-4.23,1.431-0.838-0.93c0.423-0.299,0.836-0.575,1.219-0.866
		c0.38-0.296,0.746-0.582,1.102-0.859c0.706-0.56,1.373-1.08,1.995-1.605c0.609-0.539,1.195-1.057,1.773-1.567
		c0.578-0.509,1.147-1.011,1.7-1.552c1.12-1.064,2.298-2.13,3.596-3.404c1.333-1.233,2.781-2.675,4.546-4.374
		c3.512-3.42,7.333-7.691,10.115-11.236c1.359-1.794,2.556-3.332,3.329-4.479C195.848,276.465,196.322,275.795,196.322,275.795z"/>
	<path style="fill:#231815;" d="M56.874,253.931c-1.185,1.012-2.076,2.166-2.708,3.264c-0.154,0.277-0.299,0.548-0.433,0.812
		c-0.118,0.272-0.226,0.536-0.326,0.792c-0.214,0.506-0.323,1.004-0.433,1.449c-0.374,1.809-0.101,2.979,0.354,3.291
		c0.236,0.16,0.539,0.116,0.896-0.135c0.357-0.251,0.753-0.715,1.263-1.355c0.499-0.644,1.103-1.468,1.903-2.393
		c0.799-0.927,1.808-1.941,3.174-2.919c2.821-1.945,6.257-2.885,9.913-3.269c3.666-0.372,7.557-0.233,11.675,0.309
		c4.12,0.551,8.483,1.501,13.17,2.943c4.681,1.454,9.699,3.389,15.056,6.067c2.676,1.343,5.312,2.78,7.852,4.333
		c2.531,1.556,5.014,3.201,7.193,5.059c4.379,3.861,8.355,8.018,12.012,12.034c3.649,4.034,7.006,7.942,10.127,11.459
		c3.116,3.521,6.001,6.646,8.556,9.222c2.487,2.527,4.673,4.014,6.092,4.596c1.421,0.588,2.076,0.286,1.72-0.828
		c-0.178-0.557-0.608-1.316-1.322-2.268c-0.697-0.975-1.686-2.134-2.948-3.547c-2.543-2.804-6.207-6.578-11.318-11.441
		c-5.479-5.204-9.229-9.403-14.078-14.378c-0.611-0.618-1.236-1.252-1.88-1.904c-0.659-0.639-1.337-1.297-2.04-1.977
		c-0.701-0.682-1.462-1.354-2.233-2.069c-0.384-0.354-0.782-0.717-1.227-1.091c-0.436-0.365-0.885-0.724-1.349-1.079
		c-3.712-2.805-8.263-5.53-14.039-8.356c-4.619-2.24-9.377-4.283-14.176-6.036c-4.799-1.749-9.644-3.207-14.438-4.176
		c-4.79-0.957-9.551-1.442-14.079-1.009c-2.26,0.21-4.456,0.693-6.495,1.442C60.275,251.545,58.416,252.628,56.874,253.931z"/>
	<path style="fill:#231815;" d="M18.716,279.953c2.324-6.565,5.127-11.947,7.866-16.315c0.342-0.547,0.656-1.095,1.005-1.606
		c0.352-0.508,0.697-1.006,1.035-1.492c0.689-0.963,1.305-1.912,1.98-2.755c0.675-0.842,1.318-1.643,1.93-2.407
		c0.312-0.376,0.6-0.755,0.912-1.097c0.314-0.342,0.619-0.675,0.917-0.999c2.338-2.623,4.431-4.401,5.987-5.7
		c1.64-1.221,2.792-1.925,3.507-2.201c1.428-0.55,1.12,0.608-0.526,2.812c-1.666,2.191-4.505,5.598-7.978,9.924
		c-3.454,4.347-6.481,9.057-8.913,13.986c-2.447,4.922-4.373,10.015-5.813,15.088c-0.174,0.636-0.348,1.269-0.521,1.901
		l-0.259,0.945l-0.212,0.953c-0.276,1.269-0.55,2.528-0.821,3.777c-0.208,1.26-0.414,2.509-0.619,3.746
		c-0.116,0.616-0.182,1.236-0.249,1.853c-0.07,0.616-0.139,1.229-0.209,1.839c-0.066,0.609-0.147,1.215-0.201,1.819
		c-0.038,0.605-0.075,1.207-0.112,1.805c-0.039,0.598-0.077,1.193-0.115,1.783c-0.02,0.295-0.039,0.59-0.059,0.883
		c-0.004,0.294-0.008,0.587-0.012,0.879c-0.019,1.168-0.037,2.32-0.055,3.457c-0.011,1.136,0.027,2.223,0.106,3.257
		c0.153,2.071,0.563,4.001,1.39,5.557c0.846,1.531,2.118,2.746,3.718,3.531c1.611,0.787,3.562,1.121,5.568,1.175
		c2.015,0.045,4.105-0.198,6.169-0.648c2.077-0.443,4.07-1.11,6.172-1.901c0.519-0.192,1.044-0.369,1.558-0.572l1.535-0.628
		l1.537-0.626c0.513-0.21,1.007-0.456,1.512-0.68c4.026-1.822,7.953-3.889,11.635-6.332c3.695-2.416,8.108-5.786,11.909-9.736
		c0.903-1.023,1.847-2.016,2.715-3.044c0.416-0.528,0.829-1.052,1.237-1.57c0.4-0.524,0.841-1.014,1.183-1.558
		c0.362-0.531,0.719-1.054,1.069-1.566c0.341-0.518,0.724-1.002,1.003-1.525c0.603-1.03,1.175-2.008,1.708-2.917
		c1.965-3.741,2.979-6.579,3.424-6.976c0.203-0.204,0.212,0.184-0.031,1.324c-0.121,0.57-0.305,1.327-0.559,2.292
		c-0.282,0.955-0.732,2.082-1.233,3.442c-2.187,5.374-4.891,9.582-7.71,13.193c-2.84,3.605-5.823,6.64-9.155,9.487
		c-3.35,2.827-7.091,5.418-11.62,7.935c-1.12,0.655-2.321,1.237-3.564,1.85c-1.231,0.638-2.553,1.189-3.918,1.788
		c-0.342,0.149-0.687,0.299-1.035,0.45c-0.354,0.136-0.712,0.274-1.073,0.413c-0.724,0.276-1.461,0.558-2.213,0.845
		c-1.537,0.564-3.219,1.085-4.992,1.484c-1.782,0.392-3.644,0.675-5.579,0.771c-1.933,0.089-3.949,0.011-5.992-0.46
		c-2.032-0.461-4.109-1.323-5.879-2.716c-0.454-0.327-0.838-0.747-1.253-1.124c-0.212-0.186-0.389-0.402-0.564-0.621l-0.528-0.652
		c-0.696-0.878-1.235-1.872-1.66-2.867c-0.847-2.006-1.202-4.049-1.37-5.974c-0.161-1.937-0.145-3.763-0.069-5.53
		c0.03-0.888,0.059-1.767,0.088-2.638c0.023-0.87,0.135-1.725,0.198-2.573c0.075-0.847,0.148-1.682,0.221-2.506
		c0.084-0.822,0.221-1.625,0.327-2.419c0.113-0.792,0.224-1.571,0.333-2.334c0.108-0.764,0.282-1.501,0.416-2.228
		c0.299-1.448,0.519-2.845,0.877-4.133c0.327-1.294,0.635-2.513,0.921-3.645c0.343-1.117,0.659-2.149,0.947-3.086
		c0.144-0.468,0.281-0.912,0.41-1.332c0.132-0.418,0.286-0.801,0.413-1.163c0.264-0.722,0.488-1.339,0.671-1.842
		C18.517,280.498,18.716,279.953,18.716,279.953z"/>
	<path style="fill:#231815;" d="M163.604,199.146c2.041,1.386,3.789,3.222,5.803,4.447c1.001,0.595,2.09,1.114,3.311,1.332
		c1.226,0.233,2.572,0.131,4.194-0.236c3.207-0.872,8.603-1.934,14.056-2.563c5.453-0.63,10.955-0.811,14.28-0.696
		c3.31,0.036,12.199-0.025,21.847,1.815c1.198,0.244,2.428,0.435,3.637,0.731c1.212,0.292,2.429,0.586,3.642,0.879
		c2.399,0.685,4.796,1.353,7.046,2.186c0.566,0.199,1.127,0.396,1.682,0.591c0.555,0.197,1.087,0.432,1.621,0.644
		c1.062,0.437,2.1,0.853,3.089,1.283c0.973,0.465,1.91,0.912,2.803,1.339c0.444,0.218,0.88,0.425,1.297,0.64
		c0.41,0.228,0.809,0.45,1.195,0.665c0.773,0.427,1.58,0.872,2.415,1.334c0.835,0.461,1.672,0.988,2.551,1.494
		c1.772,0.991,3.552,2.176,5.423,3.336c3.664,2.438,7.464,5.14,10.938,8.059c6.98,5.802,12.693,12.313,15.375,16.63
		c1.892,3.027,3.503,5.083,4.75,6.339c1.266,1.239,2.249,1.618,2.742,1.265c0.493-0.353,0.493-1.447-0.203-3.148
		c-0.35-0.848-0.852-1.862-1.632-2.944c-0.381-0.547-0.812-1.124-1.295-1.727c-0.241-0.302-0.496-0.61-0.763-0.924
		c-0.277-0.307-0.577-0.614-0.885-0.928c-0.514-0.523-1.07-1.111-1.661-1.756c-0.299-0.32-0.593-0.665-0.918-1.004
		c-0.325-0.339-0.661-0.689-1.008-1.049c-0.68-0.727-1.398-1.497-2.147-2.298c-0.77-0.78-1.571-1.592-2.396-2.428
		c-3.319-3.316-7.117-6.905-11.02-10.089c-3.904-3.177-7.804-6.068-11.088-8.253c-0.802-0.576-1.594-1.059-2.317-1.527
		c-0.722-0.471-1.386-0.903-1.983-1.292c-1.193-0.783-2.151-1.337-2.72-1.745c-0.58-0.387-1.664-1.102-3.213-1.89
		c-0.771-0.402-1.642-0.856-2.594-1.352c-0.962-0.478-2.031-0.944-3.158-1.465c-4.526-2.034-10.316-4.156-16.235-5.701
		c-5.913-1.561-11.922-2.61-16.715-3.119c-1.194-0.175-2.319-0.24-3.342-0.342c-1.025-0.097-1.951-0.185-2.761-0.261
		c-1.621-0.102-2.774-0.201-3.302-0.298c-2.109-0.402-7.062-0.358-12.267,0.019c-5.217,0.317-10.639,1.193-13.922,1.229
		c-1.631,0.069-3.354,0.207-4.996,0.462c-1.634,0.286-3.209,0.605-4.571,0.933C165.489,198.505,163.604,199.146,163.604,199.146z"/>
	<path style="fill:#231815;" d="M108.717,305.291c-2.302-2.73-4.601-5.142-6.852-7.267c-2.262-2.113-4.438-3.979-6.519-5.612
		c-4.165-3.263-7.893-5.648-10.996-7.522c-1.546-0.952-2.966-1.722-4.203-2.444c-1.261-0.67-2.332-1.316-3.275-1.81
		c-1.861-1.051-3.098-1.762-3.717-2.306c-1.245-1.072-0.06-1.32,2.95-0.701c0.743,0.177,1.598,0.41,2.552,0.698
		c0.947,0.309,1.983,0.698,3.109,1.137c2.216,0.953,4.777,2.152,7.426,3.818c5.331,3.276,10.324,7.069,14.848,11.264
		c2.245,2.113,4.41,4.29,6.402,6.588c1.989,2.298,3.874,4.658,5.587,7.049c3.467,4.761,6.519,9.537,9.623,13.881
		c1.533,2.195,3.115,4.238,4.679,6.198c0.405,0.475,0.806,0.946,1.205,1.415l0.594,0.701l0.616,0.664
		c0.409,0.442,0.814,0.881,1.217,1.317c0.414,0.422,0.839,0.821,1.251,1.229c0.808,0.838,1.706,1.555,2.572,2.316
		c0.423,0.394,0.907,0.699,1.357,1.053c0.462,0.335,0.904,0.705,1.383,1.013l1.441,0.917c0.241,0.151,0.477,0.312,0.722,0.456
		l0.752,0.396l1.501,0.798l1.564,0.675l0.781,0.34l0.806,0.281l1.614,0.56c0.548,0.159,1.103,0.295,1.654,0.445l0.827,0.223
		c0.277,0.071,0.562,0.112,0.842,0.17l1.688,0.327c0.566,0.094,1.14,0.147,1.71,0.225c1.137,0.179,2.295,0.196,3.445,0.282
		c4.622,0.167,9.295-0.387,13.849-1.469c4.553-1.141,8.964-2.784,13.193-4.961c2.12-1.07,4.449-2.402,6.856-3.898
		c2.394-1.516,4.845-3.227,7.231-5.014c4.769-3.58,9.233-7.5,12.666-10.532c3.426-3.041,5.837-5.181,6.404-5.381
		c0.552-0.213-0.715,1.524-4.894,6.005c-4.2,4.464-7.895,8.174-11.522,11.427c-3.624,3.251-7.137,6.1-11.055,8.694
		c-0.491,0.322-0.985,0.645-1.482,0.97c-0.499,0.322-1.019,0.619-1.534,0.932c-1.025,0.638-2.109,1.212-3.213,1.811
		c-0.545,0.31-1.13,0.572-1.709,0.857c-0.585,0.274-1.166,0.579-1.778,0.837c-1.224,0.512-2.473,1.065-3.81,1.516
		c-1.317,0.506-2.721,0.899-4.168,1.335c-1.467,0.362-2.982,0.767-4.593,1.032c-3.208,0.582-6.732,0.947-10.596,0.832
		c-3.861-0.116-7.904-0.723-11.841-1.986c-3.936-1.245-7.747-3.202-11.075-5.649c-3.343-2.441-6.223-5.327-8.709-8.267
		c-2.491-2.945-4.611-5.947-6.497-8.775c-1.887-2.828-3.565-5.483-5.073-7.836c-1.51-2.35-2.851-4.407-4.005-6.072
		c-1.142-1.679-2.109-2.956-2.759-3.846C109.093,305.752,108.717,305.291,108.717,305.291z"/>
	<path style="fill:#231815;" d="M190.6,335.803c1.418,4.042,1.829,9.291,7.111,9.854c2.629,0.274,6.96,0.679,11.282,0.963
		c4.323,0.292,8.643,0.508,11.261,0.61c2.62,0.111,9.57-0.024,17.218-0.316c7.651-0.277,16-0.743,21.497-0.788
		c5.498-0.027,12.918-0.671,19.941-1.544c3.513-0.454,6.927-0.936,9.968-1.427c3.042-0.492,5.708-0.935,7.749-1.239
		c1.432-0.18,2.673-0.526,3.701-0.886c1.032-0.379,1.86-0.848,2.47-1.262c1.242-0.96,1.598-1.781,1.302-2.289
		c-0.299-0.513-1.217-0.716-2.572-0.496c-1.387,0.16-3.244,0.744-5.695,1.73c-4.057,1.763-12.19,3.183-19.765,3.783
		c-7.583,0.634-14.622,0.591-16.706,0.368c-1.044-0.126-3.868-0.148-7.565-0.196c-3.697-0.052-8.267-0.11-12.801-0.258
		c-9.07-0.272-17.989-0.874-19.521-1.306c-1.535-0.409-5.145-0.65-8.935-1.037c-3.788-0.391-7.757-0.923-9.991-1.791
		c-2.238-0.849-4.731-1.454-6.659-1.859C191.967,336.005,190.6,335.803,190.6,335.803z"/>
	<path style="fill:#231815;" d="M65.142,258.799c0.533-0.191,1.041-0.35,1.516-0.485c0.477-0.129,0.941-0.162,1.36-0.216
		c0.211-0.022,0.412-0.039,0.606-0.052c0.195,0.001,0.383,0.018,0.56,0.031c0.355,0.03,0.676,0.073,0.96,0.126
		c0.285,0.042,0.534,0.142,0.749,0.238c0.215,0.097,0.397,0.197,0.548,0.299c0.302,0.205,0.48,0.417,0.559,0.623
		c0.158,0.41-0.069,0.794-0.492,1.041c-0.429,0.263-1.043,0.304-1.827,0.286c-0.787-0.101-1.578,0.042-2.347,0.176
		c-0.378,0.111-0.751,0.228-1.118,0.348c-0.37,0.104-0.706,0.312-1.049,0.464c-0.17,0.082-0.338,0.163-0.505,0.244
		c-0.164,0.087-0.317,0.195-0.473,0.29c-0.309,0.194-0.611,0.385-0.909,0.571c-0.55,0.443-1.121,0.784-1.595,1.201
		c-1.99,1.539-3.633,3.476-4.93,5.66c-0.155,0.277-0.37,0.577-0.557,0.911c-0.171,0.34-0.363,0.698-0.565,1.059
		c-0.208,0.361-0.33,0.745-0.507,1.102c-0.086,0.182-0.168,0.358-0.247,0.525c-0.073,0.17-0.123,0.335-0.185,0.49
		c-0.476,1.233-0.921,1.852-0.997,0.015c-0.005-0.229-0.029-0.452-0.023-0.665c0.012-0.214,0.023-0.42,0.035-0.62
		c0.024-0.402,0.023-0.788,0.055-1.156c0.051-0.366,0.099-0.719,0.146-1.066c0.044-0.353,0.094-0.704,0.197-1.043
		c0.09-0.344,0.187-0.696,0.296-1.062c0.098-0.374,0.286-0.719,0.454-1.111c0.33-0.786,0.856-1.59,1.548-2.5
		c0.377-0.428,0.753-0.893,1.181-1.317c0.447-0.406,0.882-0.837,1.354-1.214c0.488-0.359,0.958-0.729,1.44-1.045
		c0.497-0.292,0.976-0.574,1.425-0.838c0.948-0.438,1.755-0.823,2.375-0.993C64.783,258.915,65.142,258.799,65.142,258.799z"/>
	<path style="fill:#231815;" d="M65.676,266.397c1.756-1.133,3.325-1.442,4.382-1.435c1.076,0.036,1.679,0.39,1.905,0.743
		c0.23,0.366,0.112,0.789-0.212,1.121c-0.327,0.345-0.864,0.529-1.573,0.654c-0.726,0.06-1.412,0.328-2.078,0.59
		c-0.32,0.165-0.635,0.337-0.943,0.511c-0.314,0.161-0.582,0.403-0.865,0.599c-0.281,0.201-0.55,0.408-0.79,0.647
		c-0.246,0.225-0.488,0.447-0.724,0.664c-0.426,0.486-0.885,0.885-1.254,1.327c-1.573,1.679-2.793,3.639-3.758,5.761
		c-0.115,0.268-0.28,0.564-0.421,0.887c-0.128,0.325-0.273,0.67-0.428,1.019c-0.159,0.348-0.249,0.708-0.385,1.05
		c-0.066,0.172-0.13,0.34-0.191,0.499c-0.056,0.161-0.094,0.316-0.143,0.462c-0.374,1.164-0.766,1.763-0.993,0.095
		c-0.025-0.208-0.064-0.409-0.078-0.604c-0.011-0.195-0.021-0.385-0.031-0.568c-0.019-0.368-0.057-0.72-0.068-1.058
		c0.004-0.34,0.008-0.665,0.012-0.987c0-0.326,0.005-0.651,0.056-0.971c0.078-0.648,0.163-1.332,0.412-2.067
		c0.203-0.754,0.574-1.551,1.085-2.466c1.047-1.826,2.747-3.624,4.276-4.763c0.788-0.543,1.459-1.012,1.989-1.268
		C65.371,266.56,65.676,266.397,65.676,266.397z"/>
	<path style="fill:#231815;" d="M71.719,277.881c2.168-3.36,4.996-0.178,3.584,0.731c-1.412,0.909-1.992,2.621-2.9,3.563
		c-0.907,0.941-1.815,1.882-3.001,2.556c-1.185,0.674-4.112,1.483-3.256,0.039c0.857-1.444,0.756-2.451,2.117-3.863
		C69.626,279.494,71.719,277.881,71.719,277.881z"/>
	<path style="fill:#231815;" d="M82.22,287.819c-1.371,0.117-2.334,0.053-3.056-0.196c-0.716-0.235-1.18-0.638-1.407-1.106
		c-0.227-0.462-0.205-0.97,0.062-1.36c0.265-0.385,0.777-0.679,1.45-0.61c1.338,0.106,2.644,0.029,3.918,0.015
		c0.638-0.028,1.258,0.002,1.86,0.021c0.593,0.059,1.172,0.104,1.69,0.257c2.078,0.541,4.13,1.371,5.759,2.813
		c0.834,0.693,1.82,2.044,2.205,3.04c0.39,1.008,0.285,1.593-0.742,0.987c-1.04-0.598-1.893-0.802-2.753-1.03
		c-0.864-0.226-1.738-0.469-2.966-0.99c-1.232-0.518-2.71-1.044-3.913-1.366c-0.603-0.144-1.126-0.286-1.504-0.35
		C82.444,287.866,82.22,287.819,82.22,287.819z"/>
	<path style="fill:#231815;" d="M88.281,305.657c-3.421-3.165-5.536-5.835-6.836-7.797c-1.282-1.981-1.722-3.293-1.652-3.965
		c0.075-0.676,0.679-0.73,1.541-0.24c0.868,0.486,1.965,1.54,3.137,3.023c1.145,1.512,2.416,2.911,3.686,4.28
		c1.313,1.324,2.62,2.624,3.972,3.797c1.319,1.212,2.689,2.287,3.963,3.359c0.654,0.514,1.293,1.018,1.916,1.508
		c0.616,0.499,1.217,0.982,1.814,1.431c4.703,3.693,9.703,6.93,14.99,9.691c0.664,0.337,1.396,0.762,2.187,1.163
		c0.798,0.384,1.634,0.798,2.467,1.222c0.832,0.429,1.693,0.764,2.486,1.146c0.399,0.188,0.786,0.37,1.154,0.543
		c0.374,0.159,0.729,0.31,1.06,0.45c2.648,1.142,3.723,1.919-0.106,1.241c-0.477-0.089-0.943-0.155-1.385-0.249
		c-0.441-0.101-0.867-0.197-1.281-0.291c-0.828-0.189-1.616-0.341-2.366-0.519c-0.746-0.199-1.461-0.391-2.168-0.58
		c-0.712-0.185-1.415-0.372-2.107-0.622c-0.698-0.242-1.408-0.487-2.15-0.743c-0.746-0.253-1.48-0.612-2.283-0.957
		c-0.798-0.358-1.651-0.732-2.524-1.229c-0.875-0.491-1.845-0.981-2.834-1.622c-4.029-2.465-8.317-5.909-11.455-8.825
		c-0.774-0.74-1.494-1.429-2.141-2.046c-0.646-0.617-1.179-1.2-1.64-1.665c-0.455-0.471-0.818-0.846-1.067-1.103
		C88.408,305.803,88.281,305.657,88.281,305.657z"/>
	<path style="fill:#231815;" d="M319.577,267.368c-20.964-2.548-18.367-7.399-9.778-5.481c8.591,1.919,17.418,2.435,24.353,3.596
		c6.936,1.161,13.872,2.322,20.729,3.951c6.858,1.628,20.411,5.821,11.666,4.837c-8.746-0.984-12.375-0.63-22.774-2.37
		C333.369,270.159,319.577,267.368,319.577,267.368z"/>
	<path style="fill:#231815;" d="M325.809,335.144c-1.789,0.107-3.462,0.188-5.018,0.243c-1.556,0.043-2.998-0.037-4.327-0.077
		c-0.664-0.032-1.3-0.062-1.91-0.091c-0.608-0.053-1.187-0.126-1.741-0.191c-1.106-0.135-2.104-0.278-2.999-0.427
		c-0.897-0.133-1.684-0.334-2.375-0.527c-0.691-0.191-1.285-0.38-1.788-0.566c-1.006-0.371-1.647-0.727-1.973-1.048
		c-0.653-0.643-0.053-1.154,1.405-1.393c1.463-0.258,3.77-0.138,6.652,0.125c2.876,0.374,5.78,0.401,8.64,0.431
		c1.431-0.049,2.852-0.112,4.257-0.181l1.051-0.055c0.349-0.036,0.696-0.071,1.043-0.106c0.692-0.072,1.381-0.144,2.066-0.216
		c0.683-0.073,1.362-0.146,2.036-0.219c0.673-0.076,1.336-0.201,1.996-0.299c1.316-0.206,2.61-0.41,3.877-0.608
		c1.258-0.246,2.489-0.488,3.689-0.723c0.6-0.117,1.195-0.214,1.777-0.336c0.58-0.129,1.152-0.257,1.716-0.382l3.384-0.729
		l3.349-0.876c2.248-0.534,4.431-1.288,6.649-1.934c1.11-0.321,2.184-0.746,3.282-1.107l1.64-0.56
		c0.549-0.182,1.097-0.366,1.632-0.584c2.148-0.85,4.347-1.594,6.467-2.529c1.066-0.453,2.294-0.911,3.558-1.454
		c1.254-0.561,2.58-1.141,3.908-1.709c0.671-0.271,1.313-0.592,1.951-0.895c0.642-0.301,1.273-0.598,1.884-0.885
		c0.617-0.282,1.214-0.555,1.783-0.814c0.566-0.266,1.089-0.543,1.589-0.782c3.978-1.94,5.83-2.464,1.023,1.028
		c-0.604,0.431-1.171,0.87-1.741,1.258c-0.574,0.385-1.128,0.757-1.666,1.118c-1.077,0.721-2.074,1.43-3.055,2.075
		c-0.995,0.625-1.951,1.226-2.895,1.819c-0.473,0.298-0.943,0.594-1.414,0.89c-0.47,0.298-0.964,0.553-1.45,0.832
		c-0.984,0.543-1.983,1.095-3.029,1.673c-0.263,0.142-0.529,0.285-0.798,0.43c-0.275,0.131-0.554,0.264-0.837,0.4
		c-0.568,0.266-1.151,0.539-1.753,0.821c-2.398,1.16-5.201,2.234-8.599,3.417c-1.72,0.529-3.5,1.121-5.333,1.628
		c-1.845,0.462-3.707,0.977-5.572,1.389c-1.875,0.371-3.723,0.779-5.522,1.088c-1.805,0.272-3.545,0.533-5.174,0.778
		c-1.638,0.166-3.164,0.321-4.533,0.46c-0.683,0.074-1.327,0.131-1.93,0.153c-0.601,0.031-1.156,0.061-1.661,0.087
		C327.004,335.084,325.809,335.144,325.809,335.144z"/>
	<path style="fill:#231815;" d="M370.913,253.931c-0.026,3.294,0.75,6.552,1.582,9.559c0.833,3.011,1.719,5.769,1.955,8.158
		c0.258,2.351-0.878,2.503-2.265,1.565c-1.382-0.938-2.894-2.98-3.259-4.488c-0.774-3.013-1.953-8.436-2.737-12.684
		c-0.189-1.065-0.69-3.673-1.197-7.1c-0.252-1.716-0.512-3.629-0.69-5.713c-0.083-1.068-0.138-2.117-0.153-3.193
		c-0.026-1.075-0.006-2.17,0.037-3.268c0.106-2.197,0.362-4.414,0.842-6.509c0.482-2.094,1.18-4.059,2.014-5.731
		c0.827-1.678,1.791-3.045,2.618-4.066c0.837-1.015,1.539-1.683,1.908-2.041c0.193-0.17,0.468-0.412,0.816-0.718
		c0.356-0.295,0.801-0.63,1.314-1.012c1.044-0.736,2.411-1.575,4.048-2.34c1.635-0.768,3.538-1.457,5.598-1.972
		c2.07-0.511,4.242-0.891,6.596-0.946c2.267-0.048,4.46,0.081,6.57,0.253c2.107,0.177,4.132,0.374,5.986,0.578
		c3.712,0.394,6.764,0.733,8.469,0.754c6.816,0.11,8.573,4.564,5.491,4.541c-1.546-0.01-5.326-0.494-8.944-0.944
		c-3.619-0.458-7.077-0.848-7.978-0.93c-0.451-0.045-1.98-0.327-4.088-0.633c-0.528-0.082-1.091-0.158-1.682-0.227
		c-0.593-0.078-1.212-0.148-1.85-0.199c-1.287-0.129-2.622-0.179-3.986-0.105c-2.758,0.168-5.587,0.775-7.86,1.658
		c-2.291,0.85-3.989,1.982-4.771,2.692c-0.771,0.73-1.929,1.745-3.073,3.108c-1.144,1.357-2.276,3.06-3.084,4.956
		c-1.701,3.771-2.155,8.077-2.234,10.487c-0.045,1.214,0.132,2.737,0.464,4.346c0.337,1.592,0.865,3.273,1.39,4.872
		C369.829,249.837,370.92,252.702,370.913,253.931z"/>
	<path style="fill:#231815;" d="M425.89,218.597c-2.56,0.432-4.478,0.217-5.75-0.189c-1.277-0.426-1.926-1.059-2.12-1.633
		c-0.195-0.582,0.056-1.14,0.577-1.503c0.525-0.37,1.313-0.508,2.286-0.37c1.952,0.323,3.944,0.135,5.771-0.255
		c0.919-0.164,1.794-0.438,2.634-0.64c0.831-0.26,1.634-0.444,2.384-0.65c3.025-0.735,5.935-1.779,8.934-2.79
		c1.518-0.465,3.844-1.203,5.436-1.599c1.578-0.398,2.479-0.313,0.9,1.106c-0.39,0.361-0.762,0.682-1.112,0.988
		c-0.348,0.315-0.674,0.611-0.988,0.896c-0.648,0.542-1.224,1.1-1.874,1.593c-0.646,0.5-1.326,1.014-2.167,1.486
		c-0.828,0.501-1.816,0.958-3.032,1.423c-2.442,0.918-5.427,1.572-7.787,1.857c-1.185,0.121-2.203,0.224-2.934,0.237
		C426.321,218.58,425.89,218.597,425.89,218.597z"/>
	<path style="fill:#231815;" d="M406.785,281.229c0.598,4.397,0.456,8.347-0.125,11.642c-0.584,3.305-1.603,5.974-2.702,7.999
		c-1.104,2.032-2.303,3.405-3.268,4.315c-0.511,0.437-0.929,0.791-1.323,1.021c-0.393,0.23-0.714,0.374-0.968,0.444
		c-1.018,0.268-0.958-0.612-0.212-2.095c0.723-1.518,2.008-3.779,3.248-6.868c1.268-3.087,1.833-6.496,1.945-9.86
		c0.097-3.371-0.312-6.719-0.944-9.97c-1.27-6.497-3.307-12.601-4.456-18.323c-0.577-2.846-1.15-5.938-0.724-9.284
		c0.22-1.661,0.739-3.375,1.631-4.904c0.873-1.536,2.095-2.822,3.424-3.846c2.691-2.045,5.776-3.103,8.825-3.637
		c3.103-0.518,6.042-0.452,8.898-0.419c2.843,0.038,6.318,0.173,9.543-0.474c1.595-0.352,3.165-0.907,4.528-1.655
		c1.365-0.744,2.534-1.651,3.41-2.596c0.884-0.941,1.453-1.919,1.825-2.681c0.094-0.194,0.179-0.371,0.255-0.529
		c0.068-0.164,0.128-0.31,0.179-0.435c0.109-0.252,0.203-0.424,0.278-0.498c0.15-0.148,0.229,0.1,0.202,0.889
		c-0.074,0.766-0.322,2.119-1.369,3.777c-1.054,1.643-2.392,2.867-3.737,3.854c-1.36,0.975-2.765,1.696-4.177,2.249
		c-2.864,1.084-5.575,1.459-8.311,1.746c-2.73,0.279-5.5,0.363-8.461,0.756c-1.465,0.195-2.959,0.495-4.506,1.017
		c-0.772,0.253-1.547,0.565-2.305,0.949c-0.764,0.375-1.508,0.826-2.191,1.37c-0.687,0.54-1.303,1.157-1.808,1.848
		c-0.496,0.698-0.88,1.463-1.143,2.313c-0.526,1.703-0.548,3.73-0.297,5.818c0.246,2.079,0.725,4.281,1.161,6.38
		c0.468,2.117,0.921,4.158,1.344,6.068c0.865,3.846,1.523,7.247,1.867,9.695c0.183,1.222,0.289,2.206,0.362,2.879
		C406.751,280.863,406.785,281.229,406.785,281.229z"/>
	<path style="fill:#231815;" d="M311.47,248.743c-12.043-2.947-17.056-5.922-17.91-7.358c-0.844-1.482,2.432-1.592,7.211,0.184
		c4.789,1.78,9.725,3.114,14.448,4.208c2.357,0.569,4.672,1.036,6.88,1.529c2.218,0.452,4.33,0.934,6.319,1.378
		c7.943,1.845,15.933,3.433,23.915,5.192c3.985,0.912,9.973,2.333,13.717,3.38c3.742,1.041,5.218,1.813,0.083,1.443
		c-5.132-0.384-8.75-0.549-12.616-0.852c-3.865-0.307-7.981-0.759-14.061-1.94c-6.082-1.185-13.107-2.902-18.579-4.409
		c-2.732-0.77-5.09-1.435-6.754-1.951C312.457,249.042,311.47,248.743,311.47,248.743z"/>
	<path style="fill:#231815;" d="M428.873,278.038c-3.604,0.146-6.656-0.395-9.148-1.06c-2.498-0.675-4.466-1.485-6.032-2.223
		c-3.122-1.497-4.641-2.745-5.084-3.519c-0.436-0.782,0.237-1.134,1.643-1.007c1.409,0.118,3.538,0.723,6.075,1.7
		c2.54,0.972,5.146,1.723,7.738,2.1c2.59,0.369,5.157,0.361,7.532-0.086c0.599-0.09,1.167-0.281,1.742-0.411
		c0.563-0.175,1.111-0.378,1.655-0.566c1.069-0.432,2.111-0.966,3.149-1.54c2.074-1.153,4.151-2.454,6.409-3.402
		c2.276-0.971,4.777-1.531,7.2-1.731c2.44-0.214,4.83-0.058,7.146,0.226c4.631,0.573,8.987,1.815,13.206,2.642
		c2.122,0.407,4.78,0.865,7.421,0.953c2.638,0.117,5.256-0.187,7.229-0.764c0.991-0.275,1.818-0.599,2.451-0.829
		c0.614-0.261,1.052-0.403,1.231-0.377c0.179,0.027,0.099,0.225-0.324,0.646c-0.215,0.204-0.498,0.494-0.922,0.77
		c-0.211,0.143-0.444,0.3-0.702,0.474c-0.26,0.17-0.566,0.314-0.891,0.49c-1.314,0.673-2.603,1.155-3.84,1.492
		c-1.235,0.367-2.421,0.569-3.565,0.756c-2.289,0.316-4.415,0.391-6.592,0.325c-2.164-0.065-4.433-0.308-6.881-0.687
		c-2.46-0.362-5.176-0.871-8.347-1.24c-3.168-0.368-6.548-0.44-9.61,0.334c-3.015,0.724-5.906,2.499-8.799,3.89
		c-1.439,0.693-2.886,1.309-4.254,1.683c-0.68,0.191-1.316,0.383-1.924,0.479c-0.605,0.11-1.16,0.24-1.672,0.277
		c-0.509,0.054-0.967,0.103-1.367,0.146c-0.399,0.013-0.741,0.025-1.019,0.034C429.173,278.031,428.873,278.038,428.873,278.038z"/>
	<path style="fill:#231815;" d="M428.408,309.422c-7.687,1.443-13.382,1.935-17.338,2.018c-3.961,0.061-6.193-0.312-7.046-0.789
		c-0.854-0.486-0.335-1.115,1.194-1.666c1.529-0.559,4.071-0.997,7.28-1.259c3.216-0.216,6.412-0.629,9.562-1.064
		c3.143-0.49,6.24-1.012,9.238-1.63c3.005-0.57,5.905-1.261,8.697-1.857c2.778-0.668,5.451-1.234,7.955-1.822
		c10.046-2.238,19.98-4.904,29.924-7.624c4.99-1.306,12.47-3.349,17.212-4.531c4.735-1.192,6.784-1.346,0.81,1.212
		c-2.992,1.274-5.536,2.358-7.893,3.362c-2.373,0.968-4.539,1.927-6.819,2.811c-2.277,0.893-4.635,1.811-7.381,2.724
		c-2.735,0.951-5.857,1.89-9.627,2.934c-7.549,2.068-16.48,3.999-23.538,5.254c-3.535,0.6-6.585,1.122-8.764,1.42
		C429.697,309.233,428.408,309.422,428.408,309.422z"/>
	<path style="fill:#231815;" d="M489.474,284.677c-8.77,3.301-9.204-1.092-5.352-1.77c3.851-0.679,7.38-2.498,10.375-3.344
		c2.995-0.847,5.991-1.695,9.093-2.161c3.102-0.467,9.521-0.639,5.886,0.799c-3.636,1.439-4.92,2.623-9.411,3.893
		C495.571,283.363,489.474,284.677,489.474,284.677z"/>
	<path style="fill:#231815;" d="M492.913,277.942c-2.398,0.689-4.257,0.694-5.51,0.474c-1.261-0.241-1.938-0.724-2.175-1.183
		c-0.237-0.468-0.046-0.95,0.419-1.292c0.469-0.351,1.208-0.517,2.149-0.5c0.946,0.061,1.887-0.054,2.809-0.187
		c0.915-0.184,1.812-0.394,2.659-0.694c0.857-0.257,1.654-0.626,2.43-0.918c0.755-0.355,1.497-0.631,2.176-0.94
		c2.76-1.142,5.345-2.611,7.941-4.17c1.328-0.738,3.312-1.952,4.662-2.711c1.336-0.76,2.143-0.925,0.943,0.723
		c-0.292,0.418-0.582,0.79-0.856,1.142c-0.269,0.36-0.523,0.698-0.766,1.023c-0.518,0.622-0.962,1.249-1.496,1.82
		c-0.527,0.578-1.082,1.178-1.801,1.763c-0.697,0.614-1.559,1.208-2.632,1.854c-2.16,1.279-4.893,2.362-7.096,2.97
		c-1.11,0.28-2.064,0.523-2.758,0.629C493.32,277.869,492.913,277.942,492.913,277.942z"/>
	<path style="fill:#231815;" d="M431.899,227.808c-7.321,3.852-8.564-1.257-5.201-2.052c3.364-0.795,6.215-2.915,8.769-3.905
		c2.555-0.989,5.109-1.979,7.835-2.526c2.725-0.548,8.518-0.757,5.497,0.922c-3.021,1.679-3.958,3.057-7.788,4.541
		C437.18,226.272,431.899,227.808,431.899,227.808z"/>
	<path style="fill:#231815;" d="M152.806,198.057c-4.199-1.345-5.922-2.546-6.145-3.466c-0.23-0.887,1.107-1.372,2.871-0.599
		c3.493,1.527,7.238,2.466,9.979,3.88c2.73,1.392,5.371,2.99,7.712,4.98c1.16,0.992,2.732,2.669,3.577,3.87l-0.548,0.331
		c0.143-1.483,0.445-2.136,0.963-0.314l0.037,0.122l0.501,1.678l-1.588-1.021c-1.531-0.985-2.699-1.553-3.94-2.163
		c-1.238-0.614-2.532-1.292-4.392-2.401c-1.883-1.13-4.11-2.403-5.904-3.333C154.141,198.685,152.806,198.057,152.806,198.057z"/>
	<path style="fill:#231815;" d="M150.858,258.803c-0.828,0.57-1.701,0.988-2.515,1.269c-0.814,0.283-1.588,0.451-2.299,0.55
		c-1.426,0.194-2.599,0.12-3.53-0.025c-1.863-0.311-2.801-0.884-3.122-1.368c-0.319-0.491-0.009-0.927,0.711-1.193
		c0.723-0.271,1.843-0.371,3.199-0.31c1.358,0.059,2.699-0.098,3.912-0.501c1.203-0.392,2.258-1.058,3.089-1.875
		c0.829-0.813,1.404-1.764,1.662-2.683c0.268-0.922,0.245-1.798,0.08-2.616c-0.359-1.649-1.631-3.234-3.231-4.324
		c-0.801-0.55-1.688-0.988-2.606-1.278c-0.947-0.298-1.989-0.488-3.048-0.591c-1.063-0.11-2.444-0.146-3.852-0.101
		c-1.407,0.044-2.832,0.163-3.948,0.215c-2.231,0.121-3.224-0.093-0.444-1.074c2.794-0.955,4.813-1.67,7.158-2.04
		c1.172-0.173,2.432-0.264,3.89-0.094c0.71,0.093,1.54,0.232,2.365,0.533c0.424,0.127,0.832,0.328,1.269,0.515
		c0.417,0.224,0.861,0.441,1.284,0.734c1.727,1.103,3.337,2.796,4.265,4.92c0.957,2.118,0.902,4.695,0.093,6.532
		c-0.782,1.869-1.999,3.062-2.882,3.78c-0.447,0.364-0.827,0.614-1.09,0.779C151.008,258.728,150.858,258.803,150.858,258.803z"/>
	<path style="fill:#231815;" d="M319.299,315.302L319.299,315.302c0.223-2.664,0.471-5.415,1.744-7.765
		c1.274-2.351,3.862-4.207,6.499-3.769c2.74,0.455,4.573,3.153,5.291,5.836c0.719,2.682,0.659,5.526,1.376,8.209
		c0.76,2.847,2.397,5.577,2.127,8.511c-0.356,3.875-4.08,6.752-7.909,7.451C314.354,336.342,318.499,324.856,319.299,315.302z"/>
	<path style="fill:#231815;" d="M350.108,311.99L350.108,311.99c0.217-1.722,0.523-3.616,1.858-4.724
		c1.438-1.194,3.669-1.008,5.236,0.01c1.567,1.018,2.583,2.692,3.363,4.39c1.961,4.27,2.708,9.413,0.595,13.61
		c-1.809,3.596-8.125,7.546-11.694,4.02C346.338,326.208,349.629,315.801,350.108,311.99z"/>
	<path style="fill:#231815;" d="M210.881,275.672c0.447,2.125-0.072,4.321-0.59,6.43c-0.502,2.048-1.377,4.472-3.448,4.875
		c-1.672,0.325-3.271-0.898-4.974-0.94c-1.682-0.041-3.147,1.052-4.708,1.679c-1.561,0.628-3.775,0.54-4.429-1.01
		c-0.491-1.164,0.194-2.462,0.856-3.537c2.06-3.343,5.476-12.248,9.045-13.942C206.3,267.487,210.233,272.428,210.881,275.672z"/>
	<path style="fill:#231815;" d="M193.02,298.984c0.249,1.741-0.188,3.572-1.196,5.013c-0.889,1.272-2.189,2.223-3.613,2.84
		c-3.951,1.713-8.924,0.696-11.885-2.432c-0.355-0.375-0.704-0.849-0.619-1.359c0.067-0.401,0.386-0.705,0.687-0.978
		c2.457-2.228,7.538-8.947,10.673-9.688C190.114,291.661,192.279,296.019,193.02,298.984z"/>
	<path style="fill:#231815;" d="M46.785,261.415c1.43-4.096,1.785-8.562,1.019-12.832c-0.25-1.397-0.873-3.027-2.27-3.282
		c-1.269-0.233-2.373,0.824-3.229,1.788c-2.73,3.071-6.853,5.795-4.654,10.072C38.261,258.346,45.797,264.244,46.785,261.415z"/>
	<path style="fill:#231815;" d="M37.165,268.266L37.165,268.266c-0.471,0.946-1.439,1.553-1.986,2.457
		c-0.767,1.266-0.6,2.908-1.249,4.238c-0.994,2.039-3.851,2.736-5.868,1.698c-2.017-1.038-3.115-3.428-3.01-5.695
		c0.138-2.972,3.006-8.074,6.153-8.867C34.15,261.357,38.88,264.815,37.165,268.266z"/>
	<path style="fill:#231815;" d="M216.986,218.828c3.066,0.172,4.786-4.25,7.857-4.321c1.485-0.034,3.118,0.973,4.342,0.131
		c0.879-0.605,0.986-1.929,0.526-2.891c-0.46-0.963-1.336-1.648-2.183-2.297c-3.805-2.919-7.777-5.917-12.463-6.935l-0.001-0.001
		c-1.803-0.391-8.557-1.202-9.356,1.467c-0.559,1.867,1.789,2.007,2.707,3.137c1.862,2.291,2.945,3.204,4.302,6.009
		C213.736,215.229,213.838,218.651,216.986,218.828z"/>
	<path style="fill:#231815;" d="M251.635,224.561c1.963-0.151,3.86-0.8,5.821-0.974c1.988-0.177,4.68-0.375,4.982-2.348
		c0.194-1.266-0.878-2.347-1.903-3.115c-2.893-2.167-6.182-3.76-9.576-5.002c-1.294-0.473-2.664-0.904-4.027-0.704l-0.002,0.001
		C241.098,213.275,245.97,224.996,251.635,224.561z"/>
	<path style="fill:#231815;" d="M282.571,243.443L282.571,243.443c0.963,0.14,1.991,0.271,2.871-0.143
		c2.246-1.055,1.705-4.471,0.293-6.511c-2.328-3.364-8.595-8.477-12.324-4.208C267.978,238.8,278.106,242.794,282.571,243.443z"/>
	<path style="fill:#231815;" d="M238.662,223.725L238.662,223.725c0.934,0.841,1.805,2.081,1.387,3.267
		c-0.456,1.294-2.166,1.647-3.508,1.362c-2.958-0.626-9.104,0.419-8.928-3.711C227.854,218.937,236.206,221.514,238.662,223.725z"/>
	<path style="fill:#231815;" d="M62.091,196.867c-6.406-0.458-3.203-17.388,2.288-16.473c2.97,0.495,3.962,4.103,3.598,7.818
		C67.55,192.578,65.25,197.092,62.091,196.867z"/>
	<path style="fill:#231815;" d="M124.495,212.607c-5.735,0.956-3.466-15.167,0.433-16.899c3.9-1.733,6.067-0.433,6.067,5.633
		C130.995,207.408,129.695,211.74,124.495,212.607z"/>
	<path style="fill:#231815;" d="M55.079,224.229c-4.835-1.611-3.373-7.119-0.749-6.37c1.311,0.375,2.061,2.155,2.201,3.747
		C56.671,223.198,56.203,224.603,55.079,224.229z"/>
	<path style="fill:#231815;" d="M72.316,231.349c-3.446-0.246-0.375-5.246,3.373-4.871c2.428,0.243,2.496,2.374,0.815,3.742
		C75.59,230.962,74.162,231.481,72.316,231.349z"/>
</g>
</svg>
