<?xml version="1.0" encoding="iso-8859-1"?>
<!-- Generator: Adobe Illustrator 21.1.0, SVG Export Plug-In . SVG Version: 6.00 Build 0)  -->
<svg version="1.1" id="_x38_" xmlns="http://www.w3.org/2000/svg" xmlns:xlink="http://www.w3.org/1999/xlink" x="0px" y="0px"
	 viewBox="0 0 512 512" style="enable-background:new 0 0 512 512;" xml:space="preserve">
<g>
	<path style="fill:#FFFFFF;" d="M294.395,121.954c6.512-5.582-0.465-22.791-3.721-32.094c-3.256-9.303-12.559-26.513-8.372-39.536
		c4.186-13.024,14.419-29.303,19.535-27.908c5.116,1.395,6.512,5.582,8.838,13.489c2.326,7.907,7.907,19.536,9.768,25.117
		c1.861,5.582,3.721,8.837,3.721,2.791c0-6.047-0.465-25.582,13.489-39.536C351.606,10.323,363.7,12.183,363.7,12.183
		s9.768,37.676,7.442,53.025c-2.326,15.349-8.372,30.699-13.024,36.28c-4.651,5.582-10.698,16.745-10.698,16.745
		s29.303,19.536,38.141,33.49c8.837,13.954,14.884,36.745,15.349,40.467c0.465,3.721-6.512,6.977-6.512,6.977
		s-6.977,0.465-10.233-0.465c-3.256-0.93-7.907-2.326-10.233-1.86c-2.326,0.465-2.791,1.86-2.791,1.86s13.024,19.536,19.536,29.769
		c6.512,10.233,28.838,54.886,13.954,80.468c-2.791,7.907,2.791,12.559,6.047,18.14c3.256,5.582,41.862,64.188,48.839,98.608
		c6.977,34.42,3.721,48.839,1.861,53.955c-1.861,5.116-11.163,9.768-11.163,9.768s-9.768,6.047-20.931,6.977
		c-11.163,0.93-41.862,0.465-47.443,0.93c-5.582,0.465-11.163-0.465-17.21,0.465c-6.047,0.93-23.722,11.628-40.932,8.372
		c-17.21-3.256-33.955-13.954-46.978-17.21c-13.024-3.256-23.257-3.721-29.769,1.395c-6.512,5.116-11.163,7.442-16.28,0
		c-5.117-7.442-6.512-72.096,9.303-108.376c15.815-36.28,26.513-62.793,27.908-66.514c1.395-3.721,8.837-17.675,8.837-17.675
		s-1.861-14.884-4.186-17.675c-2.326-2.791-13.024-3.256-18.605-2.791c-5.582,0.465-11.628,0.93-11.628,0.93
		s17.675-20.001,13.954-33.024c0,0,5.582,0,11.163-2.791c5.582-2.791,13.489-15.349,17.21-19.536
		c3.721-4.186,13.954-16.745,13.954-16.745s0.93-6.047-1.395-6.512c-2.326-0.465-32.559-1.86-31.629-4.651
		c0.93-2.791,6.977-14.884,7.442-17.21c0.465-2.326-1.395-4.651-1.395-4.651s-11.628-11.628-9.303-22.792
		c2.326-11.163,17.21-21.396,20.931-23.722C286.953,124.28,294.395,121.954,294.395,121.954z"/>
	<path style="fill:#FFFFFF;" d="M371.625,197.992c0.399-0.418,1.099-0.909,2.308-1.151c2.326-0.465,6.977,0.93,10.233,1.86
		c3.256,0.931,10.233,0.465,10.233,0.465s6.977-3.256,6.512-6.977c-0.465-3.721-6.512-26.512-15.349-40.466
		c-8-12.632-32.771-29.837-37.392-32.983c-2.645,3.253-4.891,6.087-5.4,6.936c-1.396,2.325-7.907,13.954-7.907,13.954
		s12.093,24.187,13.954,32.559c1.86,8.373,3.256,25.118,3.256,25.118s10.233-3.721,16.28-0.93
		C369.487,196.9,370.566,197.444,371.625,197.992z"/>
	<path style="fill:#FFFFFF;" d="M280.906,251.261c-3.967-5.372-2.326-16.28,3.721-20.001c6.047-3.721,24.652-6.977,34.42,5.582
		c3.256,4.186,1.861,9.768,3.256,6.512c1.395-3.256,1.86-8.838,6.512-12.093c4.651-3.256,32.559-8.372,40.466,6.977
		c7.907,15.349,5.117,25.117,5.117,25.117s1.861,3.721,1.395,6.977c-0.465,3.256-4.651,6.977-4.651,6.977s5.116,6.512,1.861,12.094
		c-3.256,5.582-7.442,7.442-7.442,7.442l-3.721,8.372c0,0-5.582,7.442-16.745,3.721c-3.721,2.326-5.582,4.186-5.582,4.186
		s12.559,6.512,20.466,7.907c7.907,1.395,20.931,1.861,28.373-0.93c7.442-2.791,14.419-8.372,14.419-8.372
		s18.605,37.211,25.117,44.653c6.512,7.442,27.908,54.421,31.629,69.305c3.721,14.884,6.047,42.327,4.186,51.165
		c-1.861,8.837-13.489,12.559-13.489,12.559s-21.396,9.768-38.606,8.372c-17.21-1.395-26.047-1.861-29.768-0.465
		c-3.721,1.395-10.233,0.465-12.093,0.465c-1.861,0-8.372,0.465-13.024,2.326c-4.651,1.861-20.001,8.372-28.838,6.512
		c-8.838-1.861-22.326-4.186-30.699-8.837c-8.372-4.651-31.629-11.628-36.28-10.698c-4.651,0.93-14.419,3.721-17.21,6.512
		c-2.791,2.791-13.954,2.791-18.605-15.349c-4.651-18.14,6.977-66.514,8.837-75.817c1.861-9.303,25.582-72.096,28.373-76.747
		c2.791-4.651,15.349-31.164,15.349-31.164L280.906,251.261z"/>
	<path style="fill:#FFCEBB;" d="M284.876,297.337c-7.341,0.404-19.597-1.306-21.339-12.194c-1.742-10.887,9.581-14.807,9.581-14.807
		s-0.871-13.065,10.452-18.29c11.323-5.226,14.371-4.355,17.855-0.436s4.79,6.097,4.79,6.097l2.177-0.436
		c0,0-2.177-10.016,5.226-12.194c7.403-2.177,16.548-0.871,22.21,6.532c6.532-3.048,18.29-2.613,22.21,2.613
		c3.919,5.226,2.177,8.71,2.177,8.71s1.495-5.647,7.839-2.613c6.344,3.034,11.402,11.767,3.088,16.988
		c0.396,2.609,3.88,12.625-0.04,16.544s-7.403,4.79-7.403,4.79s-1.441,13.344-18.605,10.294c0.098,1.905-11.009,5.819-15.799,0.593
		c-2.177,7.839-10.452,13.936-18.726,12.629c-8.274-1.306-9.145-7.403-9.145-7.403s-12.194,6.532-18.726,6.968
		c-6.532,0.435-12.629-7.839-6.968-15.678C281.392,298.208,284.876,297.337,284.876,297.337z"/>
	<path style="fill:#65D69D;" d="M61.47,115.303c-11.097-3.357-15.678-11.323-13.065-13.936c2.613-2.613,22.21-6.097,23.952-6.532
		c1.742-0.436,5.661-3.919,10.016-7.839c4.355-3.919,12.629-8.71,15.242-8.274s6.968,10.887,6.968,10.887s15.678,3.484,18.291,3.484
		s10.016-6.968,13.065-11.323c3.048-4.355,6.968-9.581,13.5-4.79c6.532,4.79,15.242,17.42,17.855,20.468
		c2.613,3.048,14.371,12.194,16.548,17.855c2.177,5.661,33.531,52.697,37.016,58.791c3.486,6.094,15.191,91.473,6.532,107.566
		c-8.658,16.093-30.484,48.775-30.484,48.775s-8.274,106.695-5.226,119.759s4.79,22.21,13.936,28.742
		c9.145,6.532,13.936,10.452,10.452,10.452c-3.484,0-11.323-1.307-16.113-4.355c-4.79-3.048,3.484,9.145,15.678,12.194
		c12.194,3.048-13.5,4.355-26.129-5.226c12.258,9.416,22.645,14.807,15.242,14.807s-26.129-8.71-32.662-20.468
		c-6.532-11.758-8.71-20.468-7.839-23.516c0.871-3.048,0.871-66.63-4.79-78.388c-5.661-11.758-19.597-14.371-19.597-14.371
		s-10.016,54.871-6.968,63.581c3.048,8.71,3.919,34.404-0.436,42.678c-4.355,8.274-30.484,30.92-42.678,32.662
		c-12.194,1.742,1.307-6.968,7.839-11.323c6.532-4.355-18.726,5.226-31.791,4.355c-13.065-0.871,17.419-8.274,23.516-10.887
		c6.097-2.613-17.42,2.177-22.645,1.742c-5.226-0.435,0-6.532,7.839-8.274c7.839-1.742,20.567-5.856,26.565-11.323
		c5.998-5.466,7.839-17.855,9.581-27.436c1.742-9.581,1.307-27,1.307-27S71.922,240.723,69.745,228.965
		c-2.177-11.758,15.242-44.42,15.242-44.42l11.758-22.21l-5.661-29.178L61.47,115.303z"/>
	<path style="fill:#FFFFFF;" d="M253.956,230.272c-3.434-12.629-14.807-29.614-18.726-36.581
		c-3.919-6.968-26.129-37.452-27.436-38.759c-1.306-1.307-4.355-0.871-6.968,0.871l-55.742,26.129c0,0-41.807,35.71-44.855,35.275
		c-3.048-0.436-10.016-23.516-9.145-26.129c0.871-2.613,1.742-26.129,1.742-26.129s-4.355,3.919-8.274,8.71
		c-3.919,4.79-13.935,23.516-16.548,27.871c-2.613,4.354-9.581,25.694-10.887,48.339c-1.306,22.645,14.371,54.436,14.371,54.436
		s1.306,3.049-1.742,13.935c-3.048,10.887-6.097,26.565-2.613,31.355c3.484,4.791,4.791-4.79,8.274-10.452
		c-2.177,12.194,12.629,56.178,20.903,70.985c8.274,14.807,13.065,42.678,13.065,44.855c0,2.177-2.613,4.79-1.307,6.967
		c1.307,2.178,24.823,12.194,27.871,6.532c3.048-5.661,4.355-27,4.355-34.403c0-7.404-3.484-26.565-3.919-31.791
		c-0.435-5.226,3.484-15.242,6.968-18.726c3.484-3.484,4.355,2.178,7.403,10.017c3.048,7.839,8.274,33.097,8.274,39.194
		c0,6.097,3.919,30.919,5.661,33.097c1.742,2.178,14.371,3.484,21.339,3.049c6.968-0.436,9.581-4.355,9.581-4.355
		s-4.355-17.855-3.484-28.307c0.871-10.452,8.274-70.549,8.274-70.549s1.742,3.049,7.403,3.484
		c9.145-8.274,11.758-54.871,11.758-54.871s-2.178-13.5-1.307-14.371c0.871-0.871,24.823-22.21,30.919-31.355
		C255.262,259.449,257.39,242.901,253.956,230.272z M176.221,315.736c-4.899,0.98-23.19,6.532-29.069,9.798
		c-5.879,3.266-7.186,1.96-7.512-1.306s6.859-10.778,3.266-8.492c-3.593,2.286-6.206,4.246-6.206,1.307
		c0-2.94,6.206-9.145,4.899-8.492c-1.306,0.653-5.552,2.94-4.246-0.653c1.306-3.593,7.186-12.411,14.044-16.004
		c6.859-3.593,22.863-4.573,25.803-5.226c5.879,0,7.512,17.637,7.512,21.557C184.714,312.143,181.121,314.756,176.221,315.736z"/>
	<path style="fill:#FFFFFF;" d="M95.438,123.141c4.355,2.613,25.258,9.145,33.968,9.145s14.371-2.613,18.291-0.436
		c3.919,2.177-5.226,12.194-0.436,16.984c4.79,4.79,10.452,13.065,6.968,14.807c-3.484,1.742-35.71,20.903-40.065,25.694
		c-4.355,4.79-7.403,0.871-9.581-3.484c-2.177-4.355-11.758-21.339-12.194-22.645c-0.436-1.306-2.613-16.113-6.968-22.21
		c-4.355-6.097-8.71-13.936-13.5-17.42c-4.79-3.484-6.532-6.968-4.79-6.532C68.874,117.48,95.438,123.141,95.438,123.141z"/>
	<path style="fill:#FFFFFF;" d="M171.213,158.852c4.79-2.178,18.726-3.919,23.516-3.484c4.79,0.435,6.532,0.435,2.613,2.613
		c-3.919,2.177-54.871,40.065-65.323,50.952c-10.452,10.887-20.468,24.823-20.468,24.823l-15.242,24.823
		c0,0-11.323-27.871-8.71-56.613c0-23.081,4.79-38.758,4.79-38.758s5.226,8.274,6.532,11.323c1.306,3.048,8.274,13.936,9.581,15.678
		c1.306,1.742,7.839-1.742,11.758-6.532c3.919-4.79,27-16.549,30.484-18.29C154.229,163.642,171.213,158.852,171.213,158.852z"/>
	<path style="fill:#DBDCDC;" d="M116.777,189.771c0,1.307,2.177,4.79-1.742,9.145c-3.919,4.355-5.661,11.758-5.661,11.758
		l2.177,23.081l-15.242,24.823l-7.403-22.645c0,0,10.016-23.081,10.452-26.129c0.435-3.048,1.306-7.839-0.436-9.145
		c-1.742-1.306-4.79-2.613-2.613-6.097c2.177-3.484,8.274-8.71,8.274-8.71s1.742,1.307,5.226,1.742
		C113.293,188.029,116.777,189.771,116.777,189.771z"/>
	<path style="fill:#FFFFFF;" d="M187.326,279.917c0.949,1.087,9.581,21.774,6.532,30.92c-3.048,0.435-8.274,5.661-8.71,0.871
		c-0.436-4.79-3.691-21.781-5.661-25.694c-1.971-3.913-3.919-4.79-1.742-5.226C179.923,280.353,187.326,279.917,187.326,279.917z"/>
	<path style="fill:#FFFFFF;" d="M193.423,272.949c3.484-0.436,11.323-8.71,12.629-8.71c1.306,0,4.79-1.306,7.403-5.226
		c2.613-3.919,4.355-8.71-2.613-12.194c-6.968-3.484-10.887-0.871-15.242,3.484c-4.355,4.355-6.097,11.758-6.097,16.549
		C189.504,271.643,193.423,272.949,193.423,272.949z"/>
	<path style="fill:#FFFFFF;" d="M272.999,177.77c-0.465,2.326-6.512,14.419-7.442,17.21c-0.93,2.791,29.303,4.186,31.629,4.652
		c0.596,0.119,0.976,0.608,1.215,1.265l0.646-0.335c0,0-5.217-8.499-13.489-13.954c-2.671-1.761-7.547-6.318-12.954-11.721
		C272.948,175.716,273.206,176.737,272.999,177.77z"/>
	<path style="fill:#E0AD96;" d="M300.335,282.095c-0.98-4.246-3.593-7.512-3.593-7.512l-4.573-3.593c0,0,8.165-3.266,10.778-0.98
		c2.613,2.286,0.98,3.593,0.653,4.899C303.275,276.216,302.622,282.095,300.335,282.095z"/>
	<path style="fill:#E0AD96;" d="M311.114,293.853c2.613,4.573,13.4,6.878,17.637,3.266c-11.432-1.306-12.738-4.573-13.065-7.186
		C315.36,287.32,311.114,293.853,311.114,293.853z"/>
	<path style="fill:#E0AD96;" d="M348.021,270.99c2.94,0.98,3.593,9.145,0,12.085c-3.593,2.939,0-6.532-3.919-8.492
		C342.142,272.623,348.021,270.99,348.021,270.99z"/>
	<path style="fill:#E0AD96;" d="M289.231,296.466c1.633,0,6.859-1.633,6.859-1.633s-4.246,4.899-2.613,7.839
		c1.633,2.94,6.859,7.839,6.859,7.839s-5.879,1.96-10.778-1.96C284.658,304.631,289.231,296.466,289.231,296.466z"/>
	<path style="fill:#E0AD96;" d="M324.505,305.938c-1.74,1.216-10.452,4.899-14.371,4.899s-3.593,2.613,1.306,3.266
		C316.34,314.756,324.019,314.702,324.505,305.938z"/>
	<path style="fill:#E0AD96;" d="M339.529,293.526c2.613,2.286,10.778,1.96,10.778,1.96l-4.899-5.879L339.529,293.526z"/>
	<path style="fill:#E0AD96;" d="M350.634,303.651c0,0,2.286-5.879,1.306-8.165c-0.98-2.286,8.165,3.266,8.165,3.266
		S356.187,303.651,350.634,303.651z"/>
	<path style="fill:#E0AD96;" d="M365.005,285.361c0,0,5.552,0,7.186-1.633c-1.96-5.226-1.96-5.226-1.96-5.226l-2.94,1.306
		L365.005,285.361z"/>
	<g>
		<path style="fill:#231815;" d="M65.799,98.958c1.583-0.286,11.074-2.986,8.417-5.703c-1.65-1.688-9.92,0.593-11.802,0.913
			c-5.025,0.853-10.667,1.845-14.739,5.154c-1.697,1.379-4.601,4.755-3.817,6.971c0.801,2.261,4.751,4.598,6.516,5.654
			c4.431,2.651,9.469,4.245,14.42,5.603c10.962,3.007,22.08,5.056,32.873,8.68c10.64,3.573,21.51,6.477,32.734,7.373
			c4.913,0.392,10.338,0.838,15.207-0.152c0.881-0.179,4.215-0.795,4.287-2.061c0.077-1.36-2.398-1.624-3.325-1.779
			c-9.185-1.529-18.721,0.101-27.97-1.136c-9.935-1.329-19.025-5.335-28.622-7.934c-11.654-3.157-24.386-4.308-35.058-10.345
			c-1.82-1.03-6.852-3.411-5.73-5.781c1-2.112,5.073-3.059,7.058-3.584C59.389,100.001,62.612,99.568,65.799,98.958z"/>
		<path style="fill:#231815;" d="M72.777,122.162c6.631,6.921,12.5,14.914,16.374,23.714c1.868,4.243,3.31,8.779,3.554,13.436
			c0.031,0.592-0.794,9.164-1.598,8.625c-0.178-0.119-0.131-3.224-0.175-3.517c-0.227-1.499-0.573-2.994-0.92-4.469
			c-0.932-3.956-2.056-7.875-3.709-11.596c-2.391-5.38-6.048-9.758-9.087-14.722c-3.033-4.953-7.165-9.149-11.536-12.937
			c-0.965-0.836-4.483-2.98-1.948-3.104C66.506,117.455,70.554,120.666,72.777,122.162z"/>
		<path style="fill:#231815;" d="M78.909,86.982c4.832-3.837,10.808-10.869,17.66-10.41c3.138,0.21,4.77,2.88,5.946,5.556
			c0.365,0.83,3.361,9.665,2.462,9.828c-0.545,0.099-3.12-4.05-3.492-4.648c-1.192-1.913-1.923-4.944-3.673-6.369
			c-2.962-2.411-7.839,2.447-10.33,4.031c-3.75,2.386-6.694,6.479-10.813,8.236c-2.193,0.935-2.265,0.325-1.065-1.422
			C76.706,90.181,77.869,88.631,78.909,86.982z"/>
		<path style="fill:#231815;" d="M136.169,78.813c-3.531,3.59-7.078,8.659-11.728,10.753c-2.138,0.963-2.595,1.814-2.213,4.288
			c0.399,2.59,2.478,4.113,4.853,2.324c1.444-1.088,2.549-3.654,3.58-5.152c1.609-2.337,3.12-4.741,4.693-7.102
			c2.071-3.107,6.153-7.666,10.279-7.542c4.384,0.132,8.532,7.783,10.79,10.895c2.335,3.218,4.559,6.509,6.833,9.768
			c0.378,0.543,0.736,1.449,1.356,1.759c2.392,1.197,4.692-1.955,2.933-3.804c-1.624-1.707-3.467-3.055-5.01-4.956
			c-3.971-4.893-7.525-11.089-12.621-14.909C144.999,71.448,139.861,75.393,136.169,78.813z"/>
		<path style="fill:#231815;" d="M183.745,110.964c1.893,5.054,5.314,9.841,8.036,14.466c4.302,7.309,8.716,14.552,13.196,21.753
			c2.91,4.677,5.775,9.401,8.833,13.983c3.363,5.04,7.546,9.426,11.003,14.366c0.875,1.251,2.616,4.592-0.469,4.656
			c-1.711,0.036-2.923-2.784-3.724-4.065c-2.639-4.214-5.19-8.483-7.852-12.683c-7.098-11.203-14.699-22.096-21.821-33.291
			c-2.994-4.706-5.956-9.434-8.946-14.143c-0.79-1.245-1.829-2.523-2.461-3.855C177.747,108.369,182.446,107.551,183.745,110.964z"
			/>
		<path style="fill:#231815;" d="M75.189,189.324c-2.163,5.47-3.539,11.189-5.336,16.781c-1.742,5.423-4.219,10.561-5.906,15.997
			c-3.858,12.428-4.886,25.659-4.628,38.619c0.266,13.38,4.634,25.016,10.901,36.681c1.406,2.616,3.198,5.215,3.69,8.194
			c0.532,3.224-0.301,6.468-1.314,9.515c-1.957,5.889-4.669,11.474-6.025,17.563c-1.23,5.525-0.462,10.448-0.099,15.979
			c0.106,1.622,0.174,3.706-1.543,2.011c-1.627-1.607-1.883-5.48-2.009-7.611c-0.283-4.787,0.475-9.663,1.729-14.267
			c1.702-6.247,5.002-12.168,6.095-18.557c1.014-5.927-3.134-10.807-5.647-15.865c-1.959-3.944-3.464-7.967-4.88-12.128
			c-4.018-11.805-5.11-24.376-4.81-36.795c0.274-11.351,2.62-23.129,5.976-33.944c1.847-5.952,3.886-12.206,7.098-17.578
			c1.421-2.377,3.456-6.346,5.847-7.88C76.839,184.429,75.788,187.831,75.189,189.324z"/>
		<path style="fill:#231815;" d="M245.231,203.85c6.018,10.586,10.282,22.212,11.905,34.307c1.652,12.311-1.299,23.47-8.04,33.88
			c-6.637,10.249-15.738,18.889-25.591,26.016c-4.378,3.167-8.96,6.053-13.726,8.599c-3.571,1.907-8.67,5.275-12.77,5.534
			c0.917-0.058,2.841-1.564,3.689-2.06c2.434-1.422,4.784-2.994,7.118-4.572c3.706-2.504,7.358-5.092,10.917-7.803
			c10.099-7.693,19.762-16.242,26.757-26.946c6.366-9.741,8.705-19.589,7.615-31.083c-0.977-10.3-3.87-20.079-8.592-29.29
			c-2.939-5.735-6.385-11.214-10.266-16.358c-0.56-0.742-9.517-11.156-9.038-11.644C227.003,180.602,243.721,201.656,245.231,203.85
			z"/>
		<path style="fill:#231815;" d="M168.563,288.87c-7.298,0.448-14.702,1.967-20.546,6.612c-2.64,2.099-4.817,4.668-6.828,7.361
			c-0.557,0.746-4.704,5.457-4.639,6.126c-0.096-0.995,0.891-3.164,1.209-4.097c1.119-3.283,3.072-6.252,5.427-8.777
			c4.212-4.519,9.725-8.204,15.901-9.134c2.569-0.387,5.158-0.704,7.742-0.96c2.666-0.263,6.284-0.952,8.938-0.207
			c0.969,0.272,1.696,0.138,0.931,0.926c-0.635,0.654-3.446,0.864-4.269,1.08C171.135,288.141,169.85,288.508,168.563,288.87z"/>
		<path style="fill:#231815;" d="M198.452,218.337c2.335,3.902,4.822,7.721,6.41,12.01c0.639,1.727,3.227,9.586,0.804,11.056
			c-0.361,0.219-3.043-6.57-3.127-6.83c-1.105-3.4-3.126-6.066-4.58-9.223c-1.203-2.611-3.379-5.084-4.236-7.791
			C192.441,213.51,196.995,217.372,198.452,218.337z"/>
		<path style="fill:#231815;" d="M154.309,303.79c-3.876,0.459-7.598,2.325-10.658,4.678c-1.488,1.145-2.855,2.43-4.148,3.79
			c-0.603,0.634-1.848,2.659-2.741,2.76c-0.446,0.05,1.37-4.94,1.622-5.301c1.766-2.528,4.523-4.523,7.052-6.23
			c1.479-0.998,13.713-4.465,13.345-1.89C158.698,302.172,154.863,303.452,154.309,303.79z"/>
		<path style="fill:#231815;" d="M157.488,312.035c-3.652,0.715-7.48,1.478-10.795,3.24c-1.512,0.803-2.748,1.805-3.838,3.124
			c-0.651,0.788-1.921,3.808-2.904,4.106c0.018-0.006-0.131-2.491-0.112-2.687c0.141-1.479,0.689-2.756,1.597-3.92
			c1.914-2.454,5.274-4.42,8.207-5.403c1.737-0.582,11.989-2.74,12.159-1.368C161.887,309.809,158.136,311.624,157.488,312.035z"/>
		<path style="fill:#231815;" d="M177.13,318.027c-6.163,2.277-12.571,3.458-18.984,4.772c-2.744,0.563-5.658,1.092-8.175,2.378
			c-0.524,0.268-5.139,4.087-4.709,4.364c-0.521-0.336,0.916-3.676,1.185-4.116c1.038-1.698,2.722-2.772,4.503-3.545
			c4.183-1.817,8.938-2.387,13.311-3.619c2.735-0.771,5.556-1.008,8.284-1.828c2.253-0.677,4.415-1.604,6.605-2.456
			c0.876-0.341,2.92-1.52,3.929-1.143C183.53,313.004,177.878,317.52,177.13,318.027z"/>
		<path style="fill:#231815;" d="M79.456,353.353c-0.257-3.017-0.576-6.053-1.204-9.018c-0.228-1.078-0.625-4.419-1.868-4.973
			c-3.339-1.49-3.278,10.245-3.239,12.01c0.288,13.011,4.695,25.034,10.452,36.541c5.735,11.465,11.112,22.901,15.913,34.793
			c4.708,11.66,11.378,26.862,6.362,39.429c-4.992,12.507-20.071,15.998-31.492,19.886c-1.318,0.449-13.886,5.211-11.567,7.785
			c1.8,1.999,11.809-2.058,13.714-2.629c11.479-3.442,24.227-8.492,30.571-19.368c5.142-8.816,4.064-19.379,1.462-28.813
			C100.537,409.911,82.161,383.9,79.456,353.353z"/>
		<path style="fill:#231815;" d="M97.112,489.08c-8.32,3.251-16.708,6.276-25.454,8.182c-3.854,0.84-7.781,1.476-11.72,1.724
			c-0.494,0.031-4.544,0.551-4.847-0.129c0.021,0.047,7.74-2.499,8.139-2.602c5.788-1.489,11.614-2.538,17.255-4.58
			c3.546-1.283,7.173-2.218,10.718-3.496c0.72-0.26,13.446-5.445,13.557-4.546C104.909,484.847,98.302,488.281,97.112,489.08z"/>
		<path style="fill:#231815;" d="M102.234,496.731c-6.518,3.556-13.093,6.999-20.091,9.528c-3.164,1.143-6.417,2.136-9.724,2.771
			c-0.226,0.043-3.787,0.544-3.739,0.342c0.26-1.105,5.825-3.208,6.724-3.587c4.506-1.9,9.117-3.388,13.434-5.732
			c2.285-1.24,18.806-9.3,18.94-8.894C108.094,492.121,103.081,495.933,102.234,496.731z"/>
		<path style="fill:#231815;" d="M139.688,409.636c-0.044,22.626,6.502,45.339-4.962,66.483
			c-5.157,9.512-13.447,16.914-22.564,22.542c-4.212,2.6-8.61,4.906-13.098,6.989c-1.82,0.845-3.653,1.663-5.507,2.431
			c-0.809,0.336-2.759,1.489-3.721,1.356c0.272,0.037,1.807-1.09,2.131-1.28c1.999-1.171,3.926-2.468,5.873-3.721
			c4.514-2.905,9.058-5.775,13.439-8.879c8.931-6.328,16.916-13.74,21.539-23.847c8.002-17.495,4.292-37.835,3.283-56.344
			c-0.33-6.06-0.392-12.23,0.705-18.223c0.444-2.428,1.078-4.835,1.984-7.129c0.545-1.38,1.9-5.396,3.511-5.824
			c0.304-0.081-1.211,4.352-1.254,4.487c-0.791,2.463-1.264,5.029-1.52,7.599C139.088,400.689,139.182,405.235,139.688,409.636z"/>
		<path style="fill:#231815;" d="M202.686,363.795c-2.689,7.93-3.182,16.981-3.832,25.264c-0.882,11.24-2.666,22.06-4.402,33.193
			c-2.936,18.826-3.279,39.807,11.839,53.772c2.694,2.488,5.735,4.41,8.649,6.602c0.904,0.68,2.828,1.793,2.568,3.196
			c-0.27,1.455-1.507,1.451-2.619,1.166c-2.513-0.644-5.229-3.403-7.097-5.051c-3.868-3.413-7.28-7.388-9.888-11.849
			c-10.933-18.699-7.374-40.404-4.161-60.681c1.866-11.78,1.726-23.706,3.166-35.539c0.523-4.295,0.947-8.863,2.135-13.045
			c0.367-1.292,1.188-4.347,3.195-3.401C204.107,358.302,203.134,362.415,202.686,363.795z"/>
		<path style="fill:#231815;" d="M187.116,264.754c0.49-10.911,8.382-23.494,20.909-21.002c4.772,0.949,9.575,4.839,9.531,10.076
			c-0.024,2.766-1.459,5.221-3.69,6.826c-0.533,0.383-5.128,2.326-5.116,1.813c0.001-0.056,2.855-2.126,3.01-2.286
			c1.059-1.094,1.99-2.342,2.409-3.825c0.973-3.445-1.108-6.717-4.212-8.215c-6.398-3.087-12.792,1.467-16.256,6.674
			c-3.438,5.167-3.255,11.949-1.984,17.78c0.53,2.434,0.582,4.488-1.441,1.207C188.617,271.113,187.513,267.887,187.116,264.754z"/>
		<path style="fill:#231815;" d="M107.157,316.701c8.833,13.905,25.729,22.194,40.992,26.667c7.916,2.32,16.038,3.814,24.18,5.089
			c7.889,1.235,16.055,1.765,23.785,3.804c3.498,0.923,7.348,2.385,9.433,5.546c0.912,1.382,2.535,8.959-1.284,6.674
			c-1.169-0.699-1.105-2.857-1.614-3.948c-0.71-1.523-1.931-2.623-3.332-3.512c-3.782-2.399-8.546-3.288-12.868-4.156
			c-18.234-3.662-36.6-4.458-53.882-12.104c-8.855-3.917-17.031-9.328-23.872-16.197c-2.12-2.128-4.901-4.646-6.365-7.315
			C99.73,312.502,105.207,313.503,107.157,316.701z"/>
		<path style="fill:#231815;" d="M156.766,408.582c3.876,21.64,3.916,44.191,10.835,65.217c3.107,9.441,7.823,18.298,15.038,25.25
			c3.309,3.189,7.041,5.926,11.031,8.2c2.019,1.151,4.087,2.154,6.173,3.172c0.158,0.077,2.696,1.613,2.859,1.533
			c-0.613,0.302-3.499-1.006-4.164-1.2c-2.114-0.619-4.231-1.32-6.26-2.183c-4.412-1.877-8.564-4.462-12.159-7.638
			c-8.394-7.417-13.414-17.834-16.767-28.342c-5.909-18.519-6.263-37.549-9.169-56.569c-0.908-5.943-2.035-11.861-3.482-17.698
			c-0.332-1.34-4.703-13.493-3.813-14.106C148.131,383.366,156.129,406.327,156.766,408.582z"/>
		<path style="fill:#231815;" d="M188.619,490.772c3.457,4.412,8.178,8.076,13.143,10.644c0.968,0.501,12.83,4.836,12.908,4.561
			c-0.087,0.307-3.334,0.616-3.775,0.648c-1.854,0.134-3.685-0.173-5.463-0.685c-3.945-1.134-7.86-3.161-11.276-5.415
			c-2.255-1.488-3.999-3.639-5.841-5.605c-1.275-1.36-6.181-5.823-5.354-8.187C183.044,486.492,187.919,490.301,188.619,490.772z"/>
		<path style="fill:#231815;" d="M197.705,482.138c5.382,4.724,12.199,7.766,18.816,10.321c1.027,0.397,16.228,6.036,16.254,5.99
			c-0.651,1.135-9.267-0.759-9.995-0.945c-5.148-1.312-10.233-3.284-15.141-5.303c-3.194-1.314-5.972-3.405-8.766-5.418
			c-0.428-0.308-10.042-8.547-8.253-9.234C191.424,477.24,196.588,481.511,197.705,482.138z"/>
		<path style="fill:#231815;" d="M283.875,128.887c-7.006,4.113-13.496,9.895-17.588,16.976c-1.875,3.244-3.45,7.13-3.118,10.953
			c0.342,3.938,2.941,7.461,5.359,10.424c5.133,6.29,11.389,11.618,17.331,17.115c2.713,2.509,5.416,5.037,7.971,7.709
			c0.72,0.753,5.046,6.774,5.364,6.753c-0.667,0.045-3.882-3.383-4.503-3.858c-1.842-1.408-3.714-2.777-5.563-4.176
			c-4.211-3.186-8.302-6.516-12.229-10.047c-7.962-7.157-19.324-16.447-17.427-28.408c1.437-9.062,8.634-16.265,15.507-21.787
			c4.354-3.499,9.13-6.544,14.364-8.543c2.339-0.893,4.773-1.59,7.267-1.871c0.445-0.05,5.802,0.077,5.382,0.607
			c-0.48,0.737-3.453,0.765-4.222,0.955c-2.011,0.497-3.962,1.26-5.829,2.154C289.089,125.206,286.363,126.935,283.875,128.887z"/>
		<path style="fill:#231815;" d="M320.78,98.836c2.315-20.699-2.8-41.8,4.448-61.867c3.32-9.193,8.638-17.607,15.615-24.462
			c3.252-3.195,6.824-6.081,10.662-8.543c0.797-0.511,7.523-3.486,7.601-3.964c-0.092,0.561-2.363,1.685-2.795,2.015
			c-1.967,1.501-3.822,3.161-5.649,4.827c-2.879,2.626-5.625,5.396-8.177,8.342c-6.836,7.892-12.304,16.808-15.069,26.941
			c-2.528,9.264-1.963,18.258-2.104,27.707c-0.123,8.247,0.017,16.514-0.422,24.753c-0.285,5.335-0.925,10.683-2.329,15.848
			c-0.315,1.159-3.678,12.319-5.461,11.765c-0.22-0.068,2.532-10.322,2.701-11.301C320.484,106.941,320.84,102.855,320.78,98.836z"
			/>
		<path style="fill:#231815;" d="M374.012,39.973c0.086,9.983,0.227,20.032-1.364,29.921c-1.564,9.719-5.001,19.028-9.643,27.686
			c-4.567,8.52-10.243,16.397-16.012,24.132c-1.019,1.366-12.281,17.588-13.124,17.174c-0.444-0.218,9.415-17.027,10.539-18.758
			c5.84-8.997,12.23-17.607,16.89-27.315c6.857-14.284,9.153-30.468,9.049-46.189c-0.037-5.62-0.268-11.237-0.255-16.857
			c0.006-2.655,0.048-5.318,0.242-7.967c0.04-0.542,0.685-5.237,1.002-4.997c0.958,0.728,0.611,4.206,0.7,5.309
			c0.195,2.392,0.448,4.78,0.714,7.166C373.148,32.845,373.587,36.408,374.012,39.973z"/>
		<path style="fill:#231815;" d="M284.561,33.028c-5.099,15.291-0.982,31.265,4.224,45.872c2.592,7.274,5.418,14.526,7.134,22.072
			c0.78,3.429,1.374,6.958,1.265,10.486c-0.048,1.554-0.212,3.112-0.646,4.61c-0.093,0.32-1.565,3.315-1.604,3.248
			c-0.223-0.387,0.746-5.01,0.698-5.699c-0.134-1.909-0.509-3.806-0.945-5.666c-1.145-4.888-2.778-9.681-4.413-14.422
			c-3.533-10.244-8.147-20.229-10.681-30.792c-1.886-7.859-1.518-16.56-0.132-24.485c0.849-4.857,2.293-9.647,4.895-13.869
			c0.695-1.128,6.584-9.162,8.594-7.645c-0.173-0.13-5.275,7.11-5.708,7.984C285.933,27.361,285.185,30.167,284.561,33.028z"/>
		<path style="fill:#231815;" d="M309.291,16.399c3.121,5.288,6.028,10.6,7.63,16.575c0.141,0.525,2.31,14.193,0.406,13.895
			c-0.143-0.022-1.003-2.51-1.123-2.812c-0.908-2.282-1.363-4.576-1.92-6.961c-1.004-4.3-3.118-7.784-4.711-11.791
			c-1.47-3.698-4.021-6.788-5.529-10.423c-0.777-1.873-1.131-3.139,1.207-1.711C306.685,14.048,307.978,15.351,309.291,16.399z"/>
		<path style="fill:#231815;" d="M340.572,146.571c3.764,8.278,7.283,16.719,9.389,25.591c0.981,4.132,1.679,8.377,1.697,12.634
			c0.007,1.589-0.066,3.191-0.292,4.765c-0.085,0.587-1.036,3.216-0.932,3.388c-0.432-0.711-0.408-2.559-0.595-3.397
			c-0.577-2.587-1.147-5.167-1.592-7.781c-1.024-6.011-2.41-11.909-4.768-17.551c-1.534-3.671-2.552-7.485-4.092-11.152
			c-0.331-0.788-6.887-14.004-5.7-14.335C334.97,138.375,339.716,145.5,340.572,146.571z"/>
		<path style="fill:#231815;" d="M193.103,163.347c1.231-0.775,9.026-5.493,7.741-7.868c-0.921-1.701-5.388,0.699-6.406,1.18
			c-10.199,4.825-19.302,12.444-27.902,19.633c-17.217,14.392-34.627,29.204-49.269,46.266
			c-7.326,8.537-14.113,17.812-18.859,28.057c-1.668,3.6-4.307,8.758-3.466,12.887c1.065,5.228,5.122-4.803,5.74-6.217
			c3.941-9.029,7.96-18.136,13.753-26.158c5.986-8.289,13.272-15.636,20.565-22.766
			C152.619,191.134,172.247,176.421,193.103,163.347z"/>
		<path style="fill:#231815;" d="M89.456,204.583c-1.297,11.413,0.454,23.182,2.614,34.381c1.049,5.438,2.283,10.838,3.579,16.222
			c0.253,1.05,2.821,8.751,1.986,9.458c-0.007,0.006-4.969-9.749-5.177-10.305c-2.848-7.619-4.296-15.88-5.773-23.859
			c-1.077-5.821-1.443-11.248-1.366-17.164c0.054-4.188,0.152-8.394,0.832-12.534c0.272-1.653,1.265-9.038,3.447-9.335
			c0.38-0.052-0.275,6.123-0.296,6.682C89.224,200.266,89.226,202.454,89.456,204.583z"/>
		<path style="fill:#231815;" d="M100.965,173.011c1.591,4.678,3.764,8.947,6.761,12.869c1.441,1.886,2.235,3-1.05,2.255
			c-2.447-0.555-3.915-2.966-5.246-4.888c-1.885-2.722-2.363-4.509-3.451-7.53c-0.226-0.627-2.242-4.762-0.713-5.366
			C98.05,170.04,100.425,172.564,100.965,173.011z"/>
		<path style="fill:#231815;" d="M117.011,184.848c-0.976,0.848-5.057,5.006-2.762,6.251c1.627,0.883,6.046-3.528,7.155-4.407
			c3.45-2.737,6.907-5.478,10.459-8.081c11.044-8.092,23.316-13.908,36.463-17.716c6.477-1.877,13.167-3.296,19.905-3.774
			c2.031-0.144,5.739,0.41,7.434-0.89c2.633-2.018-2.29-2.799-3.74-2.941c-6.496-0.635-12.999,1.941-19.128,3.736
			c-5.333,1.562-10.661,3.098-15.845,5.117C143.107,167.536,128.247,174.99,117.011,184.848z"/>
		<path style="fill:#231815;" d="M364.759,155.72c4.314,6.927,8.241,14.255,10.151,22.246c0.899,3.763,1.294,7.595,0.879,11.45
			c-0.192,1.781-0.557,3.639-1.216,5.315c-0.202,0.514-1.651,2.551-1.602,2.792c-0.346-1.703,0.471-4.308,0.479-6.159
			c0.012-2.862-0.084-5.771-0.517-8.603c-0.711-4.657-2.295-8.974-4.401-13.162c-1.65-3.282-2.864-6.645-4.791-9.81
			c-0.361-0.594-6.709-10.241-5.971-10.516C358.927,148.843,363.877,154.825,364.759,155.72z"/>
		<path style="fill:#231815;" d="M355.509,119.712c-1.307-0.9-5.236-3.2-6.884-1.764c-2.033,1.771,2.346,4.889,3.555,5.854
			c5.428,4.338,11.202,8.211,16.44,12.794c10.233,8.953,19.492,20.153,23.242,33.415c1.93,6.826,2.748,13.918,4.741,20.727
			c0.553,1.89,1.375,5.36,3.356,6.346c3.38,1.684,2.085-4.043,1.733-5.632c-1.326-5.969-3.721-11.634-5.443-17.488
			c-1.869-6.353-3.654-12.662-7.233-18.31c-4.47-7.056-10.161-13.547-15.748-19.732C367.912,129.995,362.107,124.26,355.509,119.712
			z"/>
		<path style="fill:#231815;" d="M352.622,195.301c4.377-1.24,9.334-1.838,13.608,0.124c0.435,0.2,4.061,2.106,3.659,3.137
			c-0.23,0.588-3.193,0.305-3.74,0.238c-3.391-0.412-6.324-0.735-9.687-0.525c-1.45,0.091-4.231,1.827-5.538,1.085
			C349.256,198.414,351.69,196.303,352.622,195.301z"/>
		<path style="fill:#231815;" d="M386.47,198.708c4.124,0.824,7.892-2.16,11.835-1.651c3.384,0.437-1.214,3.431-2.657,4.011
			c-2.863,1.151-4.695,1.808-7.689,1.509c-1.141-0.114-4.365,0.017-4.514-1.739C383.351,199.717,385.573,199.287,386.47,198.708z"/>
		<path style="fill:#231815;" d="M273.346,181.134c0.543-1.586-0.317-3.586-2.187-3.113c-1.628,0.412-2.249,2.764-2.753,4.123
			c-1.364,3.68-2.63,7.416-3.939,11.117c-0.978,2.765-0.994,2.599,1.812,3.527c3.971,1.313,8.158,1.817,12.121,3.155
			c1.221,0.412,3.517,1.892,4.789,1.205c1.919-1.036,0.408-2.938-0.833-3.705c-3.046-1.883-7.783-1.078-11.246-1.888
			c-0.68-0.159-3.948-0.53-4.305-1.142c-0.228-0.391,0.097-0.476,0.096-0.933c-0.004-1.594,2.215-4.203,2.989-5.514
			C271.188,185.771,272.521,183.561,273.346,181.134z"/>
		<path style="fill:#231815;" d="M273.34,156.52c3.273,0.867,9.409,0.15,11.567,3.405c1.86,2.806-4.173,1.372-5.574,1.256
			c-2.569-0.212-4.482-0.066-7.008-1.037C268.7,158.75,271.403,157.643,273.34,156.52z"/>
		<path style="fill:#231815;" d="M250.178,150.417c-5.687-4.383-11.614-7.233-18.525-9.01c-1.415-0.364-13.07-2.834-12.538-4.349
			c0.042,0.879,6.71,0.964,7.768,1.148c5.631,0.982,12.195,2.128,17.139,5.164c4.009,2.462,8.72,5.353,11.819,8.894
			c0.643,0.735,1.412,1.246,0.563,1.516C255.462,154.079,251.149,150.909,250.178,150.417z"/>
		<path style="fill:#231815;" d="M241.953,158.503c-6.27-2.304-12.915-3.526-19.512-4.444c-0.874-0.122-14.096-2.17-14.136-2.082
			c0.356-0.781,6.745-0.653,7.358-0.642c4.776,0.083,9.591,0.865,14.316,1.524c3.016,0.421,5.783,1.32,8.68,2.221
			c2.215,0.689,9.569,2.008,10.646,4.629C249.208,159.471,242.927,158.665,241.953,158.503z"/>
		<path style="fill:#231815;" d="M244.646,168.648c-5.787-0.428-11.687,0.101-17.422,0.882c-1.076,0.147-13.854,2.142-13.833,2.506
			c-0.063-1.106,6.451-3.21,7.079-3.384c4.128-1.146,8.514-1.654,12.755-2.222c2.703-0.362,5.368-0.184,8.088-0.128
			c2.059,0.042,8.672-0.633,10.157,1.418C251.368,167.578,245.527,168.52,244.646,168.648z"/>
		<path style="fill:#231815;" d="M291.402,287.953c-4.928-0.658-8.831-2.597-9.25-8.167c-0.394-5.243,2.384-10.831,6.239-14.271
			c7.551-6.737,22.872-5.543,24.801,6.081c0.506,3.049-0.69,11.336-4.574,12.446c-2.271,0.649-2.225-1.35-1.416-2.721
			c0.937-1.588,2.314-2.795,3.088-4.54c2.376-5.361-0.137-10.862-5.584-12.806c-5.184-1.851-11.45-0.227-15.266,3.672
			c-3.268,3.339-6.995,10.972-3.387,15.262c2.001,2.38,4.271,0.988,6.704,1.594C295.703,285.235,293.934,288.185,291.402,287.953z"
			/>
		<path style="fill:#231815;" d="M279.603,269.622c-9.737-0.275-20.381,13.213-13.027,21.557c7.047,7.996,18.598,4.324,27.203,1.742
			c1.249-0.375,3.415-1.33,4.013,0.393c0.7,2.016-2.088,2.264-3.417,2.571c-5.473,1.266-11.209,2.135-16.84,1.855
			c-8.84-0.44-18.068-6.635-15.364-16.773c1.431-5.366,5.798-9.815,10.6-12.384c2.022-1.082,5.356-2.722,7.782-2.434
			C283.668,266.518,282.301,269.645,279.603,269.622z"/>
		<path style="fill:#231815;" d="M270.613,265.78c2.559-10.501,12.313-18.533,23.368-18.248c4.872,0.126,8.742,2.769,11.368,6.78
			c1.233,1.883,2.542,4.237,2.939,6.494c0.265,1.505-0.633,4.443-2.522,2.402c-1.233-1.333-1.151-5.292-1.861-7.015
			c-0.863-2.091-2.196-4.112-4.164-5.314c-4.061-2.482-9.347-1.304-13.511,0.305c-4.751,1.835-8.857,5.461-11.063,10.096
			c-0.864,1.816-0.56,3.811-1.213,5.497C273.129,268.905,270.002,268.303,270.613,265.78z"/>
		<path style="fill:#231815;" d="M306.757,254.686c4.186,0.961,7.608,0.44,11.101,3.648c3.165,2.906,4.868,7.285,4.99,11.533
			c0.104,3.608-0.967,7.204-3.256,10.026c-0.849,1.046-9.379,6.967-8.534,2.269c0.279-1.548,1.381-1.194,2.663-1.44
			c2.126-0.408,3.975-1.331,5.31-3.086c2.682-3.524,2.298-8.92,0.596-12.777c-1.67-3.786-4.946-6.659-9.171-7.032
			c-1.104-0.098-3.596,0.689-4.531,0.182C304.563,257.272,304.963,254.556,306.757,254.686z"/>
		<path style="fill:#231815;" d="M297.757,279.068c0.853-5.713-6.251-4.448-8.723-6.267c2.641-6.833,19.983-7.286,16.724,1.616
			c-0.428,1.169-1.676,2.177-2.775,0.708c-0.94-1.258,0.635-2.808-0.109-4.307c-1.011-2.037-3.976-1.742-5.749-1.349
			c-0.213,0.047-4.341,1.273-3.378,2.144c3.129-0.417,5.568,2.565,6.71,5.195c0.414,0.952,1.39,3.036,0.076,3.759
			C299.938,280.895,297.595,279.98,297.757,279.068z"/>
		<path style="fill:#231815;" d="M317.874,284.904c-3.494,4.62-6.353,10.541-12.839,11.456c-2.774,0.391-5.326-0.823-7.288-2.741
			c-0.524-0.513-1.839-1.667-1.928-2.471c-0.12-1.084,0.832-2.311,2.221-1.766c1.565,0.614,1.689,3.849,3.571,4.841
			c2.674,1.409,5.918-0.637,7.915-2.385c2.079-1.821,3.716-4.134,4.784-6.675c0.334-0.794,0.279-1.677,1.062-2.043
			C316.11,282.773,318.741,283.833,317.874,284.904z"/>
		<path style="fill:#231815;" d="M321.309,255.568c8.232-10.237,30.056-2.073,27.94,11.522c-0.964,6.194-7.954,10.52-13.526,12.167
			c-4.313,1.275-12.501-0.062-12.065-6.163c0.402-5.623,11.653-8.856,12.329-2.094c0.11,1.097-0.245,2.077-1.592,1.855
			c-1.096-0.181-1.3-1.594-2.134-2.141c-1.945-1.276-4.977-0.407-6.067,1.66c-1.286,2.436,1.158,4.474,3.243,5.346
			c2.881,1.205,6.139-0.065,8.764-1.41c5.548-2.842,11.38-8.095,7.944-14.82c-2.917-5.708-11.192-9.27-17.354-7.466
			c-2.524,0.739-3.746,2.166-5.151,4.195C321.376,261.488,319.082,258.04,321.309,255.568z"/>
		<path style="fill:#231815;" d="M306.236,254.889c-0.098-4.065,0.351-7.086,4.129-9.471c3.555-2.244,8.115-2.864,12.243-2.536
			c3.801,0.302,7.681,1.555,10.945,3.534c1.266,0.767,3.476,2.133,4.091,3.624c0.482,1.168,0.353,2.746-1.517,2.479
			c-1.138-0.163-1.577-1.713-2.235-2.568c-1.253-1.629-2.938-2.966-4.822-3.792c-3.583-1.572-7.984-1.662-11.768-0.881
			c-3.083,0.637-7.477,2.242-8.184,5.767c-0.251,1.253,0.939,3.189,0.412,4.216C308.911,256.463,306.332,256.512,306.236,254.889z"
			/>
		<path style="fill:#231815;" d="M339.156,249.531c3.958-0.747,6.984-2.015,11.138-1.032c4.031,0.954,7.99,3.501,9.897,7.28
			c1.904,3.771,1.007,7.707-1.453,10.984c-0.89,1.185-5.9,7.013-6.868,3.315c-0.567-2.166,5.078-4.066,6.377-5.89
			c2.586-3.632,0.723-7.99-2.458-10.55c-3.34-2.688-8.048-3.671-12.164-2.448c-1.076,0.319-3.275,2.038-4.341,1.686
			C337.964,252.439,337.629,249.934,339.156,249.531z"/>
		<path style="fill:#231815;" d="M348.094,284.823c-2.052,9.606-14.607,13.233-23.103,12.35c-4.005-0.416-9.206-2.056-10.087-6.588
			c-0.415-2.138,0.374-4.125,1.612-5.848c0.451-0.627,3.334-2.671,3.424-3.034c-0.807,3.291-4.828,6.241-1.77,9.879
			c3.225,3.836,10.583,3.102,14.818,1.926c3.752-1.042,8.389-2.68,10.708-5.99c1.456-2.078,1.827-4.572,1.577-7.056
			c-0.05-0.493-1.204-5.466-0.746-5.514C346.868,274.701,348.158,283.4,348.094,284.823z"/>
		<path style="fill:#231815;" d="M296.35,304.285c3.572,5.83,14.241,4.729,19.614,2.986c3.451-1.119,6.575-2.962,9.228-5.436
			c0.786-0.733,5.19-4.802,5.062-5.846c0.503,4.09-4.586,9.261-7.488,11.165c-4.321,2.835-9.458,4.353-14.596,4.697
			c-3.936,0.263-8.283-1.004-11.557-3.223c-2.067-1.402-3.813-3.438-3.943-6.041c-0.074-1.474,0.4-2.991,1.291-4.165
			c0.137-0.18,1.691-2.129,2.06-1.522c0.354,0.583-1.166,3.431-1.116,4.356C294.928,301.689,295.635,304.54,296.35,304.285z"/>
		<path style="fill:#231815;" d="M287.264,299.6c-8.251-0.582-19.855,14.015-10.185,19.611c7.903,4.574,19.407-2.867,25.181-7.84
			c1.014-0.874,2.371-2.599,3.733-1.454c1.445,1.215-0.105,2.43-1.142,3.258c-3.884,3.101-8.745,5.179-13.36,6.909
			c-4.419,1.657-9.777,3.27-14.4,1.45c-4.859-1.914-6.944-7.277-5.477-12.13c1.596-5.279,6.335-9.681,11.284-11.877
			c1.432-0.635,4.186-1.855,5.801-1.354C291.389,297.008,289.438,299.659,287.264,299.6z"/>
		<path style="fill:#231815;" d="M302.489,311.021c-2.314,3.651,1.601,7.697,4.65,9.071c4.213,1.899,9.447,1.714,13.512-0.49
			c1.683-0.912,3.095-2.164,4.064-3.834c0.932-1.607,0.842-3.403,1.521-5.02c0.428-1.018,1.374-2.497,2.772-1.118
			c0.936,0.924-0.063,2.778-0.517,3.777c-3.737,8.223-13.583,12.203-22.028,8.987c-4.01-1.527-7.275-4.8-7.499-9.252
			c-0.052-1.035-0.081-3.446,0.771-4.222C300.939,307.823,303.541,309.371,302.489,311.021z"/>
		<path style="fill:#231815;" d="M327.931,305.888c0.974,4.689,6.747,5.833,10.703,5.148c4.631-0.801,9.583-3.889,11.656-8.217
			c2.071-4.324-0.043-7.513-3.501-10.065c-0.984-0.726-3.237-2.621-0.799-3.554c1.26-0.483,2.781,1.307,3.561,2.154
			c7.787,8.47,0.042,19.03-9.267,21.723c-4.704,1.361-10.124,0.794-13.536-3.033c-0.783-0.878-2.696-3.092-2.355-4.413
			C324.816,303.99,327.653,304.148,327.931,305.888z"/>
		<path style="fill:#231815;" d="M358.813,270.947c3.462,0.123,6.905-1.973,8.857,2.422c1.712,3.854-0.127,8.814-2.122,12.21
			c-1.197,2.038-12.846,14.038-13.788,9.011c-0.452-2.409,5.439-2.936,7.079-4.028c3.105-2.066,5.218-5.638,6.329-9.133
			c0.84-2.641,1.906-8.607-2.492-8.262c-1.126,0.089-2.913,1.571-3.97,1.077C357.576,273.717,357.326,271.188,358.813,270.947z"/>
		<path style="fill:#231815;" d="M358.814,261.77c1.55-1.368,2.224-2.877,4.359-3.604c2.003-0.682,4.129-0.407,6.068,0.364
			c3.667,1.458,6.829,4.877,7.671,8.764c0.783,3.611-0.847,6.777-3.296,9.354c-1.151,1.212-5.32,5.611-6.608,2.845
			c-1.138-2.442,5.299-4.064,6.686-5.697c2.531-2.98,1.709-7.023-0.727-9.814c-2.121-2.431-6.71-5.116-9.76-2.695
			c-0.897,0.712-1.242,2.657-2.271,3.003C359.697,264.708,357.781,262.982,358.814,261.77z"/>
		<path style="fill:#231815;" d="M373.279,279.605c0.863,3.499,2.41,6.174,1.233,9.952c-1.245,3.995-4.702,7.052-8.516,8.555
			c-3.512,1.384-7.716,1.591-11.242,0.12c-1.15-0.48-7.657-5.939-2.998-5.848c1.229,0.024,1.22,0.881,1.881,1.729
			c1.321,1.693,2.815,2.911,4.996,3.298c3.79,0.672,8.095-1.283,10.733-3.934c2.692-2.706,3.723-6.407,2.235-10.002
			c-0.372-0.898-1.867-2.523-1.611-3.476C370.325,278.746,372.788,278.187,373.279,279.605z"/>
		<path style="fill:#231815;" d="M365.206,297.868c-0.199,5.603-2.79,10.727-8.341,12.771c-2.76,1.016-5.887,0.949-8.773,0.703
			c-0.729-0.062-2.286,0.011-2.899-0.5c-0.82-0.683-0.981-2.21,0.383-2.778c1.368-0.569,4.333,1.557,5.996,1.665
			c2.711,0.176,5.593-1.072,7.546-2.911c1.86-1.753,3.104-4.251,3.04-6.836c-0.022-0.88-0.522-1.77,0.006-2.46
			C362.668,296.865,365.372,296.49,365.206,297.868z"/>
		<path style="fill:#231815;" d="M290.978,215.628c-6.174,6.58-9.725,15.206-15.707,21.968c-2.631,2.974-5.849,5.93-9.796,6.952
			c-1.236,0.32-2.528,0.458-3.798,0.301c-0.192-0.024-4.813-1.4-4.288-1.949c0.06-0.063,2.738,0.29,2.962,0.271
			c1.131-0.096,2.261-0.421,3.31-0.841c2.567-1.028,4.906-2.868,6.85-4.803c3.489-3.473,5.986-7.74,8.408-11.98
			c2.028-3.549,4.788-6.81,7.297-10.043c1.709-2.202,3.577-4.568,6.091-5.9c0.436-0.231,5.959-1.586,5.176-0.033
			c-0.361,0.717-3.262,1.598-4.04,2.405C292.43,213.029,291.648,214.336,290.978,215.628z"/>
		<path style="fill:#231815;" d="M394.503,231.659c6.516,14.146,12.325,28.98,15.005,44.382c1.299,7.467,1.985,15.406,0.223,22.856
			c-0.738,3.119-1.918,6.132-3.87,8.699c-0.818,1.076-1.741,2.092-2.815,2.919c-0.245,0.188-3.014,1.662-3.013,1.624
			c0.007-0.384,1.827-1.638,2.137-1.986c0.825-0.927,1.479-1.991,2.047-3.089c0.819-1.582,1.398-3.269,1.843-4.99
			c1.258-4.862,1.448-10.021,1.176-15.013c-0.558-10.253-3.446-20.073-6.933-29.663c-2.309-6.349-4.082-12.728-6.826-18.939
			c-2.079-4.707-4.367-9.325-6.706-13.907c-0.473-0.927-4.108-6.544-3.473-7.459C383.707,216.504,393.632,230.29,394.503,231.659z"
			/>
		<path style="fill:#231815;" d="M382.139,323.494c-8.55,0.7-17.093,0.018-25.416-2.068c-3.853-0.966-7.649-2.198-11.295-3.778
			c-0.68-0.295-5.979-3.546-6.176-3.484c0.82-0.257,2.887,0.339,3.773,0.433c2.897,0.307,5.68,0.98,8.479,1.766
			c6.585,1.849,12.982,2.199,19.663,3.188c5.143,0.761,10.055,0.232,15.204-0.306c1.046-0.109,4.803-0.824,4.362,0.662
			c-0.22,0.741-3.786,1.753-4.479,2.037C384.893,322.503,383.523,323.004,382.139,323.494z"/>
		<path style="fill:#231815;" d="M276.939,245.889c0.438-2.348-0.008-4.717,0.628-7.107c0.723-2.715,2.138-5.195,4.18-7.134
			c4.297-4.078,10.58-5.374,16.338-5.189c5.442,0.175,11.224,1.792,15.94,4.522c1.9,1.101,4.185,2.598,5.323,4.551
			c1.056,1.814,0.434,4.468-1.92,2.818c-1.399-0.98-2.29-3.521-3.703-4.756c-2.022-1.767-4.534-3.136-7.093-3.94
			c-5.497-1.727-12.103-1.805-17.507,0.248c-5.159,1.96-8.828,6.102-9.123,11.758c-0.082,1.565,0.956,4.115,0.421,5.454
			C279.59,249.197,276.912,247.864,276.939,245.889z"/>
		<path style="fill:#231815;" d="M324.633,233.188c4.396-2.989,8.266-5.693,13.563-6.953c5.841-1.389,12.073-1.211,17.773,0.718
			c5.112,1.73,9.793,5.012,13.236,9.159c1.156,1.393,3.365,3.85,3.361,5.816c-0.003,1.626-1.242,2.708-2.72,1.318
			c-1.082-1.018-1.698-4.298-2.473-5.589c-1.245-2.073-2.883-3.927-4.811-5.389c-4.587-3.476-10.894-4.892-16.558-4.717
			c-5.474,0.169-10.995,1.766-15.499,4.937c-1.15,0.809-3.504,4.043-4.94,4.256C323.468,237.054,323.117,234.189,324.633,233.188z"
			/>
		<path style="fill:#231815;" d="M268.321,319.535c-2.257,6.553-2.253,13.732-4.299,20.366c-1.809,5.868-5.269,10.858-8.133,16.224
			c-6.869,12.868-12.413,26.509-17,40.345c-4.524,13.647-7.432,27.651-9.427,41.878c-1.876,13.382-3.597,27.873-0.676,41.235
			c0.606,2.772,1.579,5.449,3.094,7.86c1.149,1.829,4.253,3.904,4.673,5.964c0.705,3.463-3.845,1.461-5.258,0.433
			c-2.557-1.86-4.065-4.658-5.198-7.532c-5.078-12.884-4.074-28.136-2.683-41.618c1.117-10.819,3.698-21.017,5.972-31.59
			c2.704-12.574,4.796-26.012,9.59-38.005c4.365-10.921,8.774-21.842,12.957-32.847c2.642-6.953,4.682-14.524,8.881-20.736
			c1.057-1.564,4.396-7.23,6.598-7.178C269.643,314.387,268.719,318.206,268.321,319.535z"/>
		<path style="fill:#231815;" d="M285.904,491.124c-9.057-3.799-19.098-7.537-29.085-5.999c-3.733,0.575-8.252,1.809-10.991,4.547
			c-1.205,1.204-2.622,3.116-2.471,4.942c0.208,2.517,2.543,3.52,4.756,2.593c2.197-0.921,3.407-3.124,5.057-4.67
			c1.417-1.328,3.151-2.124,5.012-2.664c4.978-1.444,10.396-0.846,15.397,0.155c8.381,1.679,15.603,5.523,23.247,9.157
			c9.902,4.707,20.526,8.299,31.593,8.451c9.353,0.129,18.466-2.292,27.055-5.846c2.018-0.835,16.957-5.773,13.74-10.114
			c-1.789-2.414-5.907,1.526-7.407,2.543c-3.87,2.623-8.161,4.706-12.519,6.382c-10.857,4.176-22.382,5.128-33.73,2.452
			C305.035,500.571,295.795,495.249,285.904,491.124z"/>
		<path style="fill:#231815;" d="M417.03,331.222c-1.374-2.618-2.843-5.211-4.558-7.623c-0.782-1.101-2.262-3.632-3.72-4.001
			c-3.84-0.972,0.373,9.171,1.022,10.702c4.903,11.567,12.163,22.102,19.106,32.509c7.086,10.621,13.935,21.343,19.193,33.009
			c5.472,12.141,8.688,25.375,11.332,38.385c2.614,12.867,4.85,26.79,2.562,39.874c-0.514,2.939-1.337,5.818-2.364,8.617
			c-0.6,1.635-2.52,4.502-2.436,6.264c0.124,2.609,2.743,0.685,3.968-0.416c1.986-1.786,3.396-4.25,4.426-6.681
			c4.648-10.971,2.389-23.781,0.094-35.008c-2.36-11.546-5.058-23.078-8.339-34.398C448.917,383.474,430.84,357.789,417.03,331.222z
			"/>
		<path style="fill:#231815;" d="M373.191,499.519c11.04-6.514,22.271-4.245,34.417-3.304c11.605,0.9,24.278,0.373,34.587-5.614
			c2.343-1.361,4.336-3.306,6.684-4.616c1.598-0.891,4.278-0.799,3.591,1.737c-0.404,1.491-3.572,2.849-4.793,3.522
			c-2.887,1.592-5.932,2.848-9.067,3.86c-12.468,4.024-25.098,4.408-38.052,3.326c-6.309-0.527-12.991-1.102-19.057,1.13
			c-1.445,0.532-2.813,1.183-4.096,2.036c-0.992,0.66-2.056,1.983-3.143,2.412C371.037,505.283,370.484,500.833,373.191,499.519z"/>
		<path style="fill:#231815;" d="M98.941,196.87c0.589-2.475,1.928-4.555,2.743-6.925c0.616-1.792,0.6-2.73-1.408-1.865
			c-4.037,1.739-6.654,8.571-5.51,12.556c0.822,2.863,4.168,4.286,3.542,7.651c-0.509,2.737-2.515,5.873-3.531,8.476
			c-1.07,2.739-2.092,5.498-3.059,8.275c-1.57,4.511-3.887,9.89-3.472,14.753c0.364,4.269,1.907,8.75,3.327,12.757
			c1.12,3.161,3.791,10.315,7.369,5.256c2.941-4.159,5.141-9.001,7.316-13.587c2.284-4.814,5.306-10.306,5.11-15.757
			c-0.216-5.988-0.126-12.111,0.944-18.032c0.803-4.444,3.954-8.015,4.432-12.639c0.133-1.29,0.479-3.894-1.311-2.847
			c-1.279,0.748-2.204,3.832-2.787,5.032c-1.767,3.638-3.597,6.406-4.114,10.469c-0.7,5.496-0.512,11.301,0.024,16.804
			c0.548,5.622-2.08,10.779-4.446,15.77c-1.233,2.601-2.534,5.17-3.898,7.705c-0.696,1.293-2.003,5.078-3.309,5.725
			c-2.305,1.142-4.726-9.785-5.197-11.737c-0.653-2.706-1.288-5.309-0.699-8.071c0.724-3.397,2.04-6.698,3.328-9.911
			c2.257-5.631,5.334-10.954,7.535-16.584c0.707-1.808,0.708-3.647,0.181-5.558C101.223,201.585,98.025,200.247,98.941,196.87z"/>
		<path style="fill:#231815;" d="M141.443,136.578c-0.936-0.083-3.602,0.114-3.277,1.689c0.307,1.489,3.602,1.551,4.684,1.628
			c4.45,0.316,9.9-0.356,13.674-2.921c2.775-1.886,5.065-5.962,3.033-9.155c-2.316-3.641-8.651-3.614-12.392-3.411
			c-1.44,0.078-4.192-0.024-5.286,1.043c-1.314,1.281-0.495,1.758,0.839,2.092c3.839,0.961,7.9-1.738,11.918-0.674
			c4.656,1.233,4.886,6.099,0.914,8.57C151.59,137.903,145.811,136.928,141.443,136.578z"/>
		<path style="fill:#231815;" d="M112.337,92.449c-1.081-0.143-4.997-0.747-5.046-2.476c-0.036-1.265,6.269,0.514,7.332,0.598
			c0.977,0.077,14.772,1.226,14.452,1.825c-0.499,0.936-6.857,1.043-7.87,1.06C118.24,93.505,115.217,93.158,112.337,92.449z"/>
		<path style="fill:#231815;" d="M91.956,316.616c-4.443,2.374-8.288,6.204-11.26,10.223c-1.465,1.981-2.801,4.129-3.658,6.452
			c-0.489,1.324-0.401,4.616-1.129,5.613c-0.111,0.151-1.798-3.579-1.835-3.78c-0.466-2.542,0.523-4.988,1.682-7.197
			c1.827-3.484,4.376-7.609,7.501-10.027c2.903-2.246,6.427-4.926,9.942-5.993c0.782-0.237,3.449-1.053,3.468,0.327
			C96.673,312.736,92.445,316.02,91.956,316.616z"/>
		<path style="fill:#231815;" d="M80.822,115.185c-3.174-1.443-4.266-5.27-1.507-4.517C82.076,111.421,83.581,116.44,80.822,115.185
			z"/>
		<path style="fill:#231815;" d="M94.121,117.443c-2.998-0.272,1.256-4.768,3.765-4.266
			C100.396,113.679,96.882,117.694,94.121,117.443z"/>
		<path style="fill:#231815;" d="M220.563,303.767c1.001,2.619,2.495,5.185,3.01,7.966c0.489,2.642-0.334,5.062-0.847,7.624
			c-1.051,5.247-1.672,10.586-2.333,15.892c-1.399,11.215-2.361,22.85-8.38,32.737c-1.347,2.213-2.171,4.17-4.953,3.377
			c-1.343-0.383-4.969-2.737-2.411-3.729c2.14-0.83,2.626,1.823,4.411-0.191c1.788-2.017,2.787-5.513,3.649-8.029
			c1.45-4.233,2.614-8.775,3.523-13.159c1.168-5.63,0.122-11.448,0.545-17.121c0.382-5.132,0.917-10.18,0.684-15.358
			c-0.118-2.61-0.694-5.323-0.294-7.922C217.486,303.776,219.014,299.816,220.563,303.767z"/>
		<path style="fill:#231815;" d="M306.676,155.839c-4.565-2.441-6.558-16.692,1.544-15.102
			C312.607,141.599,314.24,160.075,306.676,155.839z"/>
		<path style="fill:#231815;" d="M139.042,106.653c-6.051-2.094-3.051-18.875,2.859-14.902
			C147.125,95.262,142.136,109.181,139.042,106.653z"/>
		<path style="fill:#231815;" d="M89.856,100.629c-4.492-3.609-4.671-11.586,2.078-12.969
			C93.618,91.822,93.588,103.955,89.856,100.629z"/>
		<path style="fill:#231815;" d="M112.052,462.047c3.547,3.707,9.698,4.885,14.441,6.136c1.33,0.351,8.733,1.402,9.338,3.052
			c0.226,0.616-6.278,1.065-6.57,1.038c-3.846-0.363-8.639-1.255-12.295-2.591c-2.993-1.094-7.464-3.969-9.015-6.76
			c-0.453-0.815-1.621-4.355,0.327-4.07c0.296,0.044,0.898,1.433,1.155,1.691C110.156,461.267,111.078,461.746,112.052,462.047z"/>
		<path style="fill:#231815;" d="M169.614,466.684c4.442,1.04,9.198,0.908,13.712,0.52c2.264-0.195,4.508-0.53,6.758-0.838
			c0.978-0.134,4.213-1.055,5.104-0.371c0.009,0.007-2.582,2.303-3.063,2.598c-1.739,1.067-3.689,1.439-5.668,1.795
			c-3.464,0.624-7.452,1.574-10.958,1.084c-3.129-0.437-6.869-0.679-9.751-1.973c-1.315-0.59-2.62-1.221-1.163-2.142
			C165.602,466.713,168.281,466.935,169.614,466.684z"/>
		<path style="fill:#231815;" d="M198.628,273.033c-4.777,2.648-9.073,6.122-14.295,7.921c-2.13,0.734-4.546,1.381-6.816,1.147
			c-1.993-0.205-1.662-0.46-2.205-2.378c0.107-0.004,1.521-0.43,1.729-0.318c0.211,0.114-1.051,1.696-1.065,1.71
			c-0.565-1.594,8.523-4.046,10.051-4.925c1.956-1.125,3.55-2.546,5.584-3.492c2.328-1.081,7.139-5.626,9.846-4.715
			C203.281,268.598,199.326,272.069,198.628,273.033z"/>
		<path style="fill:#231815;" d="M192.372,285.341c2.071,5.209,3.542,10.755,3.777,16.376c0.085,2.022,0.264,11.313-2.667,12.277
			c0.273-0.09-0.096-8.899-0.099-9.386c-0.023-3.883-1.082-7.263-1.837-10.991c-0.735-3.624-1.969-6.741-3.302-10.207
			c-0.439-1.142-1.145-2.289,0.031-2.405C189.147,280.918,191.771,284.631,192.372,285.341z"/>
		<path style="fill:#231815;" d="M181.914,288.19c2.322,5.75,4.007,12.109,4.345,18.32c0.099,1.828-0.818,4.113,0.872,5.155
			c1.223,0.754,5.512-1.253,5.433-1.334c0.149,0.154-0.897,1.791-0.996,1.916c-0.966,1.227-2.34,1.915-3.911,1.936
			c-2.724,0.036-4.537-1.885-4.195-4.556c-0.024-4.032-1.48-9.191-2.288-13.749c-0.409-2.309-1.182-4.54-2.114-6.686
			c-0.634-1.459-2.865-4.097-2.913-5.707C176.121,282.602,181.376,287.445,181.914,288.19z"/>
		<path style="fill:#231815;" d="M246.879,276.031c1.399,0.088,16.827-1.964,16.582,0.025c-0.312,2.539-10.247,3.849-12.364,3.853
			c-1.586,0.003-6.23,0.574-7.255-0.914C242.774,277.444,245.763,276.773,246.879,276.031z"/>
		<path style="fill:#231815;" d="M373.131,291.778c2.296,0.428,8.318-1.451,9.801,1.09c1.22,2.091-2.783,2.238-4.231,2.475
			c-2.183,0.357-3.897,0.968-6.163,0.122C369.499,294.329,371.789,293.078,373.131,291.778z"/>
		<path style="fill:#231815;" d="M319.839,176.929c0.942,2.108,8.214,5.845,7.37,8.327c-0.51,1.5-7.626-3.542-8.293-4.286
			c-0.737-0.823-2.507-3.121-2.16-4.355C317.291,174.719,318.653,176.551,319.839,176.929z"/>
		<path style="fill:#231815;" d="M335.189,180.914c1.381,1.94,8.63,4.825,8.516,7.318c-0.076,1.669-7.896-2.255-8.648-2.865
			c-0.879-0.714-3.101-3.042-2.982-4.128C332.287,179.316,333.843,180.682,335.189,180.914z"/>
		<path style="fill:#231815;" d="M326.322,61.246c1.588-2.562,3.677-4.479,6.756-3.258c2.491,0.987,3.985,2.382,4.834,4.772
			c0.641,1.803,1.873,4.149,4.137,2.146c1.959-1.733,0.029-4.894,1.312-6.956c1.713-2.752,2.913-0.936,4.275,0.325
			c1.844,1.707,3.645,0.381,5.753-0.417c6.848-2.594,11.623,5.691,14.374,10.728c4.145-9.505,4.802-20.474,4.452-30.706
			c-0.345-10.088-1.835-20.308-4.883-29.951c-0.818-2.59-1.893-6.263-4.685-7.389c-3.21-1.295-7.042,1.353-9.546,3.049
			c-8.38,5.675-16.503,12.694-21.584,21.559C325.921,34.911,319.913,50.617,326.322,61.246z"/>
		<path style="fill:#231815;" d="M283.411,68.021c2.237-2.24,3.496-5.646,6.258-7.339c1.34-0.821,2.878-1.339,3.442-0.107
			c0.379,0.828-0.024,2.294,0.242,3.245c0.857,3.056,2.903,1.748,4.703,0.143c2.658-2.371,10.291-12.764,10.87-3.682
			c3.135-3.543,7.606-0.099,10.465-2.728c3.117-2.867-0.213-8.268-1.21-11.326c-2.861-8.779-4.287-18.036-8.897-26.182
			c-4.053-7.163-10.908-11.043-17.751-4.737c-7.995,7.369-8.071,17.12-9.765,27.08C280.477,49.988,279.348,61.052,283.411,68.021z"
			/>
		<path style="fill:#231815;" d="M374.339,249.738c-0.483,1.206,0.561,3.558,0.752,4.818c0.258,1.702,0.285,3.338,0.219,5.049
			c-0.031,0.813,0.399,4.119-0.236,4.721c-0.67,0.635-2.563-0.675-2.706-1.43c-0.162-0.853,1.239-2.958,1.17-4.224
			c-0.096-1.737-0.641-3.526-1.215-5.157c-0.195-0.554-1.406-2.513-1.209-3.082C371.446,249.473,374.448,249.449,374.339,249.738z"
			/>
	</g>
</g>
</svg>
