<?xml version="1.0" encoding="iso-8859-1"?>
<!-- Generator: Adobe Illustrator 22.1.0, SVG Export Plug-In . SVG Version: 6.00 Build 0)  -->
<svg version="1.1" id="_x31_1" xmlns="http://www.w3.org/2000/svg" xmlns:xlink="http://www.w3.org/1999/xlink" x="0px" y="0px"
	 viewBox="0 0 512 512" style="enable-background:new 0 0 512 512;" xml:space="preserve">
<g>
	<g>
		<path style="fill:#231815;" d="M412.931,317.052c-1.169,0.023-1.981,0.709-2.533-0.42c-0.563-1.122-1.646-2.534-3.349-3.799
			c-1.702-1.248-4.342-3.806-7.212-5.487c-1.418-0.854-2.967-1.953-4.399-2.987c-0.724-0.506-1.418-0.991-2.039-1.425
			c-0.637-0.411-1.199-0.774-1.641-1.059c-0.9-0.546-2.714-1.324-4.651-2.064c-1.95-0.711-4.014-1.403-5.4-1.953
			c-2.772-1.131-0.602-1.126,0.942-0.672c0.762,0.238,2.88,0.9,4.981,1.693c2.093,0.808,4.175,1.72,4.993,2.078
			c0.829,0.336,2.676,1.147,4.476,2.116c0.904,0.477,1.803,0.98,2.561,1.459c0.772,0.459,1.407,0.887,1.802,1.186
			c1.613,1.147,3.845,2.986,5.58,4.813c0.432,0.459,1.052,1.06,1.688,1.756c0.655,0.677,1.347,1.426,1.965,2.137
			c0.638,0.693,1.179,1.365,1.582,1.846C412.679,316.751,412.931,317.052,412.931,317.052z"/>
		<path style="fill:#231815;" d="M409.885,322.595c-0.641-0.512-1.148-0.854-1.375-1.578c-0.288-0.877-0.23-0.482-0.942-1.407
			c-0.358-0.457-3.279-3.417-6.763-6.122c-3.45-2.755-7.561-5.014-9.063-5.651c-1.471-0.715-3.251-1.311-4.953-1.79
			c-0.855-0.226-1.7-0.389-2.473-0.56c-0.782-0.12-1.5-0.23-2.112-0.323c-2.45-0.209-2.64-0.885-1.276-0.768
			c0.339,0.029,0.826,0.05,1.383,0.067c0.553,0.056,1.174,0.119,1.783,0.181c1.216,0.149,2.38,0.379,2.853,0.506
			c0.465,0.155,2.039,0.565,3.529,1.15c1.494,0.568,2.931,1.22,3.272,1.416c0.356,0.165,3.687,1.881,6.748,4.066
			c3.096,2.133,5.929,4.638,6.352,4.901c0.838,0.54,2.256,1.969,2.931,2.333c1.049,0.54,0.982,1.629,0.851,2.727
			C410.57,322.239,410.282,322.912,409.885,322.595z"/>
		<path style="fill:#231815;" d="M446.905,348.524c-7.679-2.012-13.174-3.816-16.948-5.15c-3.771-1.346-5.818-2.24-6.533-2.724
			c-1.431-0.975,2.522-0.316,8.777,1.756c12.515,4.11,25.349,7.283,35.677,8.822c2.58,0.395,5.169,0.655,7.743,0.747
			c0.648,0.06,1.279-0.005,1.917-0.012c0.633-0.034,1.284-0.006,1.902-0.088l1.847-0.276c0.615-0.064,1.242-0.3,1.862-0.439
			c4.978-1.315,9.684-3.604,13.941-6.543c2.118-1.486,4.645-3.539,6.88-5.851c2.252-2.297,4.191-4.842,5.557-6.893
			c1.369-2.051,2.157-3.603,2.412-3.804c0.115-0.107,0.067,0.109-0.186,0.73c-0.254,0.621-0.689,1.66-1.51,3.11
			c-3.306,5.788-6.531,9.314-10.302,12.633c-1.913,1.641-4.042,3.167-6.632,4.666c-2.596,1.48-5.687,2.913-9.603,3.988
			c-0.491,0.13-0.986,0.262-1.486,0.395c-0.526,0.083-1.057,0.166-1.591,0.249c-0.534,0.063-1.078,0.2-1.612,0.2
			c-0.536,0.017-1.075,0.034-1.615,0.05c-1.087,0.068-2.158-0.011-3.234-0.071l-1.613-0.093l-1.592-0.183
			c-2.127-0.205-4.192-0.589-6.196-0.91c-1.983-0.407-3.908-0.747-5.679-1.178c-1.78-0.398-3.433-0.789-4.904-1.175
			c-1.477-0.368-2.778-0.707-3.853-1.009C448.176,348.889,446.905,348.524,446.905,348.524z"/>
		<path style="fill:#231815;" d="M507.644,331.007c-0.871,0.286-1.506,0.57-2.323,0.299c-0.995-0.329-0.592-0.102-1.897-0.08
			c-0.646-0.01-5.229,0.779-10.184,0.675c-4.965-0.045-10.077-1.294-11.823-1.779c-1.749-0.505-3.805-0.909-5.68-1.869
			c-0.926-0.485-1.778-1.115-2.396-1.912c-0.615-0.78-0.962-1.653-1.104-2.436c-0.13-0.791-0.005-1.436,0.179-1.848
			c0.183-0.419,0.402-0.618,0.537-0.678c0.287-0.103,0.233,0.262,0.062,0.952c-0.08,0.352-0.099,0.882,0.039,1.452
			c0.14,0.57,0.421,1.171,0.804,1.674c0.752,1.026,1.868,1.579,2.299,1.823c0.423,0.278,1.991,0.908,3.671,1.304
			c1.662,0.44,3.312,0.788,3.722,0.879c0.406,0.09,4.332,0.968,8.338,1.021c4.004,0.101,8.011-0.583,8.515-0.737
			c1.014-0.326,3.154-0.592,3.885-1.004c1.11-0.601,2.038,0.147,2.993,0.994C507.71,330.116,508.183,330.829,507.644,331.007z"/>
		<path style="fill:#231815;" d="M464.389,321.627c0.417,0.084,0.839,0.177,1.247,0.276c1.149,0.28,4.43,1.066,4.97,1.418
			c0.732,0.479,1.948,0.614,2.125-0.676c0.145-1.056-1.06-1.319-1.682-1.113c-0.407,0.135-3.953-0.315-5.111-0.423
			c-0.611-0.057-1.181-0.144-1.559-0.259c-0.14-0.052-1.879-0.42-3.761-0.821c0.336-0.212,0.997-0.628,1.738-1.095
			c1.011-0.657,2.126-1.409,2.989-2.07c1.459-1.121,2.2-1.873,2.681-2.306c0.477-0.441,0.662-0.608,0.851-0.768
			c0.747-0.667-0.32-2.233-1.092-0.893c-0.191,0.322-0.327,0.563-0.709,1.025c-0.391,0.451-1.002,1.15-2.306,2.21
			c-0.798,0.647-1.854,1.388-2.84,2.05c-1.418,0.933-2.704,1.779-3.426,2.254C462.217,321.187,463.971,321.542,464.389,321.627z"/>
		<path style="fill:#231815;" d="M460.08,313.219c3.231-1.1,4.813-1.303,5.324-0.986c0.501,0.297-0.144,1.068-1.565,1.448
			c-2.82,0.757-5.564,1.825-7.882,2.25c-2.306,0.429-4.646,0.728-6.995,0.68c-2.372,0.01-6.966-0.892-4.083-1.038
			c2.868-0.202,3.984-0.636,7.362-1.009c1.69-0.205,3.656-0.503,5.193-0.795C458.969,313.475,460.08,313.219,460.08,313.219z"/>
		<path style="fill:#231815;" d="M439.853,319.503c-0.556,0.073-0.978,0.2-1.362-0.345c-0.47-0.665-0.302-0.3-1.036-0.626
			c-0.363-0.159-3.097-0.625-5.98-1.061c-1.431-0.208-2.891-0.326-4.101-0.209c-1.211,0.127-2.259,0.348-2.779,0.45
			c-2.105,0.435-4.78,1.397-6.09,2.116c-0.672,0.35-0.925,0.394-1.207,0.341c-0.262-0.034-0.364-0.326,0.001-0.654
			c0.671-0.662,2.895-1.883,3.529-2.056c0.312-0.095,1.332-0.445,2.348-0.738c1.016-0.297,2.026-0.553,2.283-0.598
			c0.139-0.02,0.772-0.177,1.787-0.324c1.008-0.14,2.307-0.161,3.567-0.083c2.512,0.175,4.929,0.396,5.276,0.311
			c0.665-0.151,1.958,0.099,2.475-0.158c0.786-0.39,1.116,0.773,1.425,2.047C440.125,318.486,440.198,319.459,439.853,319.503z"/>
		<path style="fill:#231815;" d="M423.72,342.11c-0.193,0.003-0.379,0.003-0.557-0.01c-0.143-0.015-0.271-0.04-0.393-0.087
			c-0.253-0.091-0.427-0.27-0.48-0.617c-0.135-0.836-0.147-0.401-0.571-0.971c-0.105-0.141-0.599-0.552-1.241-1.144
			c-0.636-0.597-1.413-1.383-2.156-2.247c-0.741-0.867-1.454-1.796-1.953-2.753c-0.262-0.555-0.356-0.926-0.49-1.277
			c-0.125-0.348-0.228-0.631-0.297-0.825c-0.283-0.778-0.664-1.66-0.929-2.577c-0.255-0.912-0.447-1.885-0.175-2.761
			c0.128-0.434,0.419-0.733,0.654-0.866c0.266-0.117,0.464-0.106,0.584-0.038c0.232,0.147,0.245,0.468,0.045,0.664
			c-0.219,0.237-0.28,0.844-0.129,1.384c0.137,0.546,0.372,1.044,0.42,1.264c0.039,0.22,0.289,0.933,0.597,1.626
			c0.318,0.699,0.631,1.387,0.709,1.559c0.018,0.045,0.076,0.184,0.162,0.395c0.045,0.106,0.096,0.23,0.154,0.369
			c0.057,0.097,0.095,0.194,0.171,0.317c0.3,0.497,0.857,1.167,1.466,1.781c1.22,1.256,2.674,2.256,2.92,2.272
			c0.5,0.086,1.163,0.629,1.572,0.443c0.298-0.16,0.341,0.08,0.282,0.494c-0.036,0.44-0.155,1.107-0.111,1.816
			C423.993,340.967,424.206,342.098,423.72,342.11z"/>
		<path style="fill:#231815;" d="M467.14,335.084c6.725-4.523,6.938-2.908,4.005-1.233c-2.933,1.675-5.652,3.693-7.941,5.124
			c-2.289,1.432-4.579,2.863-6.939,4.181c-2.361,1.317-7.224,3.722-4.435,1.819c2.79-1.904,3.793-2.848,7.225-4.995
			C462.49,337.833,467.14,335.084,467.14,335.084z"/>
		<path style="fill:#231815;" d="M458.048,330.685c5.511-3.935,5.851-2.387,3.42-0.954c-2.432,1.433-4.642,3.205-6.528,4.441
			c-1.886,1.237-3.772,2.473-5.732,3.597c-1.96,1.124-6.027,3.145-3.744,1.487c2.283-1.658,3.08-2.502,5.908-4.357
			C454.201,333.046,458.048,330.685,458.048,330.685z"/>
		<path style="fill:#231815;" d="M437.908,336.392c-5.965,4.116-6.25,2.541-3.633,1.035c2.618-1.507,5.019-3.355,7.055-4.65
			c2.037-1.297,4.073-2.593,6.182-3.775c2.109-1.183,6.47-3.319,3.997-1.586c-2.473,1.733-3.348,2.61-6.401,4.553
			C442.053,333.913,437.908,336.392,437.908,336.392z"/>
		<path style="fill:#231815;" d="M174.598,130.579c-1.615,0.64-3.041,1.691-4.323,2.741c-1.279,1.041-2.517,2.113-3.65,3.135
			c-2.271,2.038-4.104,3.892-5.192,4.749c-1.093,0.852-2.231,2.146-2.811,3.37c-0.582,1.227-0.604,2.35,0.385,2.852
			c1.609,0.798,3.858-2.29,4.644-3.997c0.363-0.868,2.209-3.494,4.652-6.043c1.211-1.272,2.559-2.556,3.833-3.607
			c1.272-1.049,2.575-1.745,3.572-1.984c0.989-0.261,2.055-0.316,3.053-0.075c1,0.225,1.919,0.76,2.58,1.46
			c1.396,1.401,1.252,3.39,0.9,4.804c-0.367,1.419-0.053,2.772,0.573,3.13c0.307,0.177,0.677,0.109,1.027-0.33
			c0.34-0.44,0.705-1.254,0.804-2.667c0.09-1.407-0.041-2.727-0.476-3.865c-0.463-1.19-1.195-2.071-2.072-2.76
			c-0.879-0.69-1.937-1.192-3.208-1.425C177.617,129.856,176.129,129.968,174.598,130.579z"/>
		<path style="fill:#231815;" d="M191.034,143.593c-6.993,1.424-6.786-1.878-3.81-1.933c2.978-0.054,5.851-0.99,8.206-1.269
			c2.354-0.278,4.708-0.558,7.097-0.542c2.389,0.015,7.236,0.635,4.328,1.276c-2.907,0.642-4.016,1.37-7.546,1.787
			C195.778,143.33,191.034,143.593,191.034,143.593z"/>
		<path style="fill:#231815;" d="M216.983,131.07c-0.35-0.248-0.755-0.431-1.186-0.526c-0.417-0.1-0.928-0.088-1.235-0.04
			c-0.705,0.057-1.407,0.19-2.093,0.364c-1.371,0.356-2.662,0.933-3.769,1.62c-2.24,1.358-3.73,3.089-4.552,3.981
			c-0.853,0.873-1.551,2.319-1.613,3.539c-0.049,0.605,0.067,1.141,0.308,1.504c0.234,0.364,0.585,0.549,1.072,0.531
			c0.813-0.039,1.252-0.745,1.623-1.534c0.383-0.79,0.673-1.742,0.831-2.43c0.055-0.351,0.369-1.058,0.949-1.913
			c0.596-0.839,1.498-1.795,2.629-2.572c1.124-0.783,2.468-1.374,3.751-1.643c0.317-0.09,0.637-0.106,0.941-0.152
			c0.322-0.048,0.565-0.058,0.806-0.014c0.479,0.087,0.859,0.353,1.082,0.634c0.228,0.281,0.383,0.623,0.429,0.981
			c0.03,0.182,0.021,0.348,0.003,0.551l-0.062,0.71c-0.066,0.951-0.059,1.917,0.017,2.849c0.147,1.866,0.581,3.577,0.979,4.851
			c0.394,1.296,1.443,1.902,2.027,1.744c0.612-0.169,0.75-0.975-0.141-2.662c-0.869-1.721-1.211-3.077-1.38-4.524
			c-0.079-0.726-0.104-1.481-0.066-2.339c0.012-0.226,0.025-0.459,0.038-0.699c0.021-0.323-0.028-0.662-0.113-0.999
			C218.067,132.214,217.653,131.539,216.983,131.07z"/>
		<path style="fill:#231815;" d="M213.544,167c4.047-1.032,8.34-2.142,12.493-3.678c2.086-0.732,4.11-1.638,6.07-2.578
			c1.932-1.002,3.807-2.049,5.489-3.264c0.422-0.302,0.849-0.587,1.254-0.895c0.396-0.321,0.787-0.639,1.173-0.953
			c0.795-0.604,1.476-1.305,2.173-1.946c0.714-0.627,1.283-1.356,1.901-1.996c0.605-0.626,1.183-1.376,1.651-2.133
			c0.471-0.766,0.871-1.602,1.044-2.593c0.069-0.505,0.086-1.044-0.046-1.594c-0.134-0.539-0.384-1.072-0.718-1.464
			c-0.645-0.84-1.591-1.269-2.308-1.452c-0.74-0.194-1.352-0.229-1.866-0.256c-1.048-0.032-1.901,0.004-2.893,0.029
			c-0.968,0.031-1.961,0.08-2.95,0.146c-1.977,0.132-3.938,0.334-5.649,0.61c-3.421,0.551-5.841,1.393-5.391,2.55
			c0.728,1.894,11.468,1.06,16.344,0.069c0.542-0.112,1.521-0.262,2.136-0.05c0.279,0.102,0.526,0.286,0.612,0.602
			c0.112,0.335,0.014,1.005-0.313,1.713c-0.322,0.717-0.79,1.46-1.423,2.213c-0.63,0.754-1.251,1.581-2.017,2.32
			c-1.439,1.571-3.218,2.999-5.115,4.349c-1.912,1.338-4.03,2.473-6.167,3.499c-2.156,0.992-4.353,1.833-6.475,2.55
			c-4.254,1.413-8.187,2.365-11.026,3.023c-5.678,1.31-11.95,2.699-17.576,5.014c-2.807,1.15-5.433,2.545-7.674,4.142
			c-2.235,1.601-4.123,3.344-5.517,5.061c-0.723,0.836-1.249,1.741-1.725,2.544c-0.403,0.85-0.719,1.632-0.941,2.312
			c-0.34,1.414-0.361,2.388-0.107,2.725c0.253,0.338,0.78,0.053,1.526-1.029c0.741-1.086,1.797-2.921,3.69-5.451
			c1.932-2.512,4.075-4.289,6.214-5.705c2.152-1.409,4.31-2.487,6.624-3.397C200.668,170.178,205.841,168.899,213.544,167z"/>
		<path style="fill:#231815;" d="M175.185,183.241c-0.11,0.296-0.368,1.081-0.559,1.868c-0.197,0.789-0.291,1.575-0.327,1.891
			c-0.037,0.312-0.128,1.545,0.233,2.636c0.31,1.013,1.192,1.785,1.367,1.976c0.171,0.218,0.563,0.517,0.986,0.69
			c0.419,0.193,0.848,0.25,1.037,0.256c0.389,0.044,0.962-0.07,1.298-0.291c0.164-0.113,0.448-0.297,0.645-0.566
			c0.205-0.255,0.355-0.54,0.404-0.645c0.129-0.194,0.253-1.331,0.384-1.859c0.085-0.249,0.197-0.967,0.556-1.835
			c0.335-0.835,0.953-1.676,1.487-2.074c0.501-0.414,1.181-0.667,1.657-0.657c0.482,0.007,0.705,0.18,0.578,0.416
			c-0.227,0.494-0.371,0.631-0.443,1.026c-0.03,0.194-0.097,0.183-0.239,0.159c-0.134-0.012-0.362-0.031-0.547,0.189
			c-0.38,0.372-1.06,1.366-1.076,2.312c-0.04,0.976-0.472,1.688-0.816,2.235c-0.168,0.275-0.489,0.637-0.833,0.95
			c-0.343,0.319-0.697,0.569-0.895,0.811c-0.203,0.243-0.587,0.503-1,0.62c-0.405,0.144-0.812,0.16-1.042,0.217
			c-0.234,0.082-0.876,0.071-1.537-0.077c-0.665-0.139-1.326-0.429-1.733-0.522c-0.421-0.072-0.995-0.659-1.357-1.35
			c-0.372-0.683-0.511-1.477-0.563-1.754c-0.143-0.581-0.519,0.046-0.127-0.586c0.412-0.61,0.657-0.765,0.644-1.145
			c-0.018-0.186-0.129-0.849-0.143-1.526c-0.016-0.674,0.053-1.346,0.159-1.486c0.203-0.285,0.026-0.562,0.209-0.736
			c0.183-0.172,0.322-0.182,0.32-0.582c0.007-0.398,0.068-0.204-0.002-0.747c-0.068-0.546-0.22-0.141,0.05-0.85
			C174.24,181.498,175.672,181.964,175.185,183.241z"/>
		<path style="fill:#231815;" d="M125.285,181.9c0.309-0.639,1.181-2.273,2.054-3.927c0.922-1.625,1.84-3.275,2.276-3.906
			c0.205-0.323,0.702-1.108,1.345-2.12c0.676-0.99,1.48-2.224,2.338-3.413c1.701-2.391,3.55-4.655,4.072-5.141
			c0.536-0.475,1.373-1.386,2.162-2.278c0.804-0.879,1.578-1.725,1.936-2.116c0.7-0.795,1.864-1.961,2.671-2.818
			c0.834-0.829,2.755-2.736,3.203-3.118c0.43-0.398,2.143-2.544,3.059-3.297c0.852-0.817,4.792-4.219,6.517-5.476
			c1.73-1.244,3.283-2.33,3.453-1.45c0.177,0.88,0.009,1.25,0.078,1.955c0.071,0.704-0.873,0.368-1.888,1.338
			c-0.493,0.501-1.291,1.171-2.152,1.92c-0.861,0.75-1.745,1.631-2.469,2.469c-1.402,1.725-2.891,2.451-3.954,3.172
			c-0.533,0.355-1.373,0.765-2.166,1.235c-0.782,0.48-1.535,1.002-1.919,1.521c-0.768,1.036-2.509,2.581-2.993,3.398
			c-0.235,0.414-0.993,1.408-1.747,2.475c-0.726,1.093-1.442,2.26-1.649,2.98c-0.195,0.731-1.101,1.797-2.06,2.797
			c-0.922,1.025-1.894,1.989-2.238,2.451c-0.662,0.941,0.601,0.569-0.66,0.942c-1.263,0.379-1.803,0.438-2.268,1.107
			c-0.23,0.336-0.831,1.648-1.447,2.921c-0.595,1.287-1.168,2.56-1.44,2.802c-0.543,0.487-0.404,1.102-0.811,1.401
			c-0.405,0.302-0.641,0.303-0.86,1.11c-0.212,0.808-0.243,0.397-0.364,1.514c-0.118,1.112,0.309,0.295-0.437,1.723
			C126.187,185.49,123.865,184.622,125.285,181.9z"/>
		<path style="fill:#231815;" d="M225.197,165.334c0.855,1.33,2.259,2.276,1.382,2.71c-0.862,0.455-1.754,1.457-1.943,3.041
			c-0.2,1.551-1.372,3.926-1.501,6.365c-0.154,2.381-1.614,5.284-2.006,6.805c-0.207,0.746-0.237,2.189-0.204,3.704
			c0.012,1.515,0.069,3.1-0.14,4.189c-0.438,2.191-1.447,0.701-1.473-0.49c-0.012-0.293-0.034-0.849-0.044-1.538
			c-0.021-0.689-0.048-1.512-0.041-2.341c-0.023-1.658,0.033-3.339-0.001-4.008c-0.05-0.67-0.091-2.179-0.016-3.714
			c0.073-1.534,0.269-3.089,0.469-3.807c0.377-1.436,1.063-3.516,2.035-5.176c0.464-0.837,1.251-2.309,1.996-3.54
			C224.465,166.309,225.197,165.334,225.197,165.334z"/>
		<path style="fill:#231815;" d="M200.881,298.155c0.418-0.491,2.059-2.676,2.51-3.206c0.458-0.527,3.314-4.195,3.841-4.588
			c0.538-0.386,1.547-1.63,1.847-2.005c0.3-0.375,0.765-0.959,1.098-1.376c0.328-0.42,1.083-1.385,1.247-1.595
			c0.164-0.21,0.644-1.384,0.96-1.809c0.326-0.422,1.576-2.401,2.121-3.181c0.553-0.777,1.032-1.474,1.492-0.964
			c0.459,0.511,0.504,0.738,0.823,1.156c0.317,0.419-0.381,0.26-0.618,0.882c-0.238,0.624-0.991,1.673-1.336,2.693
			c-0.344,1.023-1.07,1.425-1.562,1.793c-0.492,0.371-1.678,0.808-1.912,1.373c-0.232,0.569-1.033,1.303-1.171,1.742
			c-0.138,0.439-1.191,2.005-1.218,2.819c-0.022,0.82-1.811,1.922-2.156,2.332c-0.345,0.411,0.477,0.471-0.345,0.411
			c-0.822-0.061-1.181-0.154-1.423,0.133c-0.24,0.289-1.191,2.432-1.527,2.569c-0.336,0.137-0.22,0.517-0.486,0.572
			c-0.266,0.055-0.428-0.012-0.544,0.382s-0.139,0.163-0.197,0.746c-0.058,0.585,0.22,0.258-0.267,0.829
			C201.572,300.434,199.978,299.214,200.881,298.155z"/>
		<path style="fill:#231815;" d="M227.149,213.126c-2.306-5.376-4.092-9.326-5.049-12.19c-0.985-2.856-1.235-4.568-1.108-5.275
			c0.283-1.409,1.997,1.054,3.835,5.601c1.833,4.57,3.989,9.048,5.687,13.514c0.848,2.231,1.596,4.457,2.119,6.667
			c0.527,2.228,0.84,4.338,1.044,6.355c0.795,8.05,0.058,16.282-2.331,23.973c-0.582,1.926-1.45,4.281-2.444,6.543
			c-0.992,2.262-2.105,4.427-3.052,6.038c-0.941,1.614-1.705,2.681-1.948,2.801c-0.254,0.114,0.029-0.708,0.978-2.968
			c1.86-4.54,2.756-7.864,3.596-11.416c0.793-3.559,1.574-7.359,2.104-13.117c0.528-5.744,0.204-12.583-0.84-17.736
			c-0.533-2.572-1.206-4.771-1.728-6.323C227.488,214.041,227.149,213.126,227.149,213.126z"/>
		<path style="fill:#231815;" d="M283.068,274.088c-0.828-0.85-2.995-3.074-5.179-5.314c-2.169-2.254-4.338-4.539-5.2-5.485
			c-0.852-0.955-4.207-4.562-7.46-8.223c-3.26-3.656-6.445-7.346-7.11-8.331c-1.352-1.954-5.166-6.46-6.306-7.816
			c-1.135-1.36-2.901-3.476-4.162-4.986c-1.25-1.521-4.124-5.019-4.749-5.779c-0.615-0.768-3.878-3.954-5.096-5.507
			c-1.246-1.524-6.795-8.203-8.91-11.085c-2.141-2.846-3.948-5.514-2.761-5.591c1.194-0.101,1.746,0.233,2.716,0.265
			c0.966,0.029,0.683,1.429,2.298,3.164c1.59,1.742,4.464,5.469,7.167,8.079c2.717,2.598,4.021,5.064,5.184,6.9
			c1.147,1.844,2.843,5.533,4.416,7.038c1.572,1.504,3.894,4.682,5.098,5.723c1.208,1.037,5.844,6.117,7.974,7.389
			c2.11,1.286,6.092,7.435,7.401,8.899c1.298,1.47,0.903-0.537,1.298,1.47c0.394,2.01,0.402,2.794,1.323,3.816
			c0.461,0.51,2.256,2.133,4.021,3.745c1.775,1.605,3.506,3.21,3.808,3.733c0.607,1.043,1.527,1.259,1.872,2.01
			c0.347,0.749,0.293,1.069,1.42,1.897c1.129,0.823,0.528,0.583,2.125,1.5c1.594,0.917,0.51-0.215,2.407,1.764
			C288.557,275.336,286.621,277.793,283.068,274.088z"/>
		<path style="fill:#231815;" d="M415.693,321.706c-3.296-0.861-17.277-4.362-20.835-5.291c-3.557-0.929-27.403-7.006-30.649-8.005
			c-3.248-1-11.457-3.144-13.92-3.787c-2.463-0.643-6.295-1.644-9.031-2.359c-2.737-0.715-9.031-2.359-10.399-2.716
			c-1.368-0.357-7.736-1.718-10.472-2.433c-2.737-0.715-14.815-3.718-19.74-5.005c-4.926-1.286-9.305-2.43-8.336-2.781
			c0.968-0.352,1.826-0.278,2.758-0.488c0.931-0.21,2.152,0.713,5.473,1.429c3.321,0.717,9.889,2.432,15.162,3.507
			c5.273,1.075,9.031,2.36,12.004,3.287c2.973,0.927,8.299,2.923,11.346,3.568c3.047,0.644,8.483,2.215,10.709,2.646
			c2.227,0.43,11.841,2.79,15.236,3.223c3.395,0.434,13.373,3.644,16.109,4.359c2.736,0.715,0.421-0.494,2.736,0.715
			c2.315,1.209,3.062,1.706,4.978,2.206c1.916,0.501,13.557,2.938,15.162,3.507c1.605,0.571,2.773,0.573,3.832,1.001
			c1.058,0.427,1.294,0.64,3.247,1c1.953,0.358,1.095,0.286,3.631,0.646s0.348-0.211,4.179,0.789
			C422.703,321.724,422.807,323.565,415.693,321.706z"/>
		<path style="fill:#231815;" d="M271.323,283.916c-1.755-0.448-9.183-2.34-11.078-2.823c-1.888-0.506-14.565-3.758-16.269-4.367
			c-1.705-0.609-6.063-1.778-7.37-2.129c-1.307-0.352-3.341-0.897-4.794-1.287c-1.453-0.39-4.794-1.286-5.52-1.482
			c-0.726-0.194-4.145-0.81-5.597-1.2c-1.458-0.37-7.874-2-10.498-2.667c-2.615-0.702-4.939-1.325-4.348-1.772
			c0.592-0.447,1.067-0.47,1.619-0.775c0.552-0.306,1.123,0.452,2.905,0.779c1.782,0.328,5.267,1.263,8.104,1.722
			c2.837,0.458,4.793,1.286,6.351,1.856c1.559,0.57,4.309,1.913,5.946,2.201c1.636,0.288,4.502,1.208,5.702,1.379
			c1.2,0.17,6.322,1.394,8.179,1.438c1.857,0.045,7.078,2.052,8.53,2.442c1.452,0.39,0.297-0.525,1.452,0.39
			c1.155,0.915,1.515,1.314,2.532,1.587c1.017,0.274,7.269,1.346,8.102,1.721c0.834,0.375,1.49,0.249,2.033,0.546
			c0.544,0.297,0.651,0.477,1.705,0.609c1.055,0.131,0.581,0.155,1.964,0.224c1.382,0.068,0.221-0.244,2.254,0.302
			C275.26,283.157,275.099,284.93,271.323,283.916z"/>
		<path style="fill:#231815;" d="M200.009,264.783c-1.322-0.326-6.916-1.703-8.343-2.054c-1.42-0.376-10.965-2.747-12.239-3.236
			c-1.274-0.488-4.553-1.354-5.536-1.614c-0.983-0.261-2.513-0.665-3.606-0.954c-1.093-0.289-3.606-0.953-4.153-1.097
			c-0.546-0.144-3.135-0.526-4.227-0.815c-1.093-0.288-5.939-1.419-7.906-1.938c-1.967-0.52-3.716-0.983-3.237-1.46
			c0.478-0.479,0.843-0.533,1.284-0.87c0.44-0.337,0.836,0.372,2.185,0.578c1.349,0.205,3.971,0.898,6.122,1.164
			c2.151,0.266,3.605,0.953,4.77,1.412c1.165,0.459,3.201,1.602,4.44,1.778c1.239,0.177,3.388,0.895,4.299,0.986
			c0.911,0.089,4.773,0.959,6.195,0.881c1.423-0.077,5.317,1.556,6.409,1.846c1.093,0.288,0.257-0.537,1.093,0.288
			c0.835,0.826,1.089,1.194,1.854,1.397c0.765,0.202,5.502,0.85,6.121,1.164c0.619,0.315,1.13,0.147,1.53,0.404
			c0.4,0.257,0.472,0.427,1.274,0.488c0.802,0.061,0.437,0.116,1.494,0.093c1.057-0.023,0.183-0.254,1.713,0.15
			C203.073,263.779,202.85,265.533,200.009,264.783z"/>
		<path style="fill:#231815;" d="M114.052,241.879c-2.741-0.727-14.339-3.805-17.298-4.59c-2.952-0.81-22.747-6.084-25.433-6.972
			c-2.686-0.888-9.498-2.755-11.542-3.316c-2.044-0.56-5.223-1.432-7.494-2.054s-7.494-2.054-8.629-2.366
			c-1.135-0.311-6.437-1.461-8.708-2.084c-2.276-0.602-12.293-3.256-16.39-4.341c-4.088-1.12-7.721-2.117-6.88-2.492
			c0.84-0.376,1.562-0.329,2.363-0.565c0.801-0.235,1.777,0.639,4.541,1.245c2.765,0.606,8.214,2.1,12.607,3.001
			c4.394,0.901,7.493,2.054,9.951,2.88c2.458,0.825,6.841,2.632,9.378,3.177c2.537,0.544,7.039,1.93,8.895,2.286
			c1.856,0.357,9.842,2.396,12.685,2.72c2.842,0.325,11.086,3.191,13.357,3.813c2.27,0.622,0.383-0.502,2.27,0.622
			c1.887,1.123,2.49,1.592,4.08,2.027c1.59,0.436,11.282,2.487,12.606,3.001c1.323,0.515,2.309,0.482,3.179,0.872
			c0.87,0.389,1.057,0.592,2.686,0.887c1.629,0.295,0.908,0.249,3.03,0.528c2.121,0.278,0.305-0.22,3.484,0.652
			C119.968,241.682,119.956,243.498,114.052,241.879z"/>
		<path style="fill:#231815;" d="M413.28,327.631c-3.204-0.81-16.761-4.238-20.22-5.113c-3.452-0.899-26.594-6.772-29.743-7.743
			c-3.15-0.971-11.117-3.045-13.507-3.667c-2.39-0.622-6.108-1.59-8.764-2.281c-2.656-0.692-8.763-2.281-10.092-2.627
			c-1.327-0.346-7.511-1.654-10.167-2.346c-2.661-0.671-14.37-3.627-19.159-4.836c-4.781-1.245-9.03-2.351-8.08-2.708
			c0.95-0.357,1.785-0.29,2.697-0.505c0.911-0.216,2.086,0.693,5.311,1.382c3.225,0.689,9.597,2.348,14.717,3.378
			c5.12,1.031,8.762,2.281,11.645,3.183c2.882,0.901,8.042,2.848,11.001,3.467c2.959,0.619,8.231,2.144,10.393,2.555
			c2.161,0.411,11.492,2.69,14.789,3.095c3.296,0.405,12.972,3.528,15.628,4.219c2.655,0.692,0.412-0.497,2.655,0.692
			c2.242,1.188,2.966,1.678,4.825,2.161c1.859,0.484,13.157,2.822,14.714,3.378c1.557,0.557,2.691,0.55,3.717,0.968
			c1.026,0.418,1.255,0.628,3.15,0.971c1.895,0.342,1.062,0.276,3.524,0.615c2.462,0.339,0.338-0.214,4.055,0.754
			C420.086,327.59,420.185,329.428,413.28,327.631z"/>
		<path style="fill:#231815;" d="M269.038,289.875c-3.33-0.857-17.42-4.482-21.015-5.407c-3.59-0.94-27.645-7.152-30.915-8.193
			c-3.274-1.022-11.546-3.252-14.027-3.929c-2.48-0.677-6.337-1.729-9.092-2.481c-2.752-0.762-9.083-2.518-10.459-2.898
			c-1.377-0.379-7.779-1.882-10.527-2.663c-0.685-0.192-1.952-0.546-3.545-0.991c-1.606-0.425-3.497-1.042-5.475-1.373
			c-2.004-0.382-4.117-0.704-6.052-1.051c-1.936-0.344-3.686-0.73-4.96-1.081c-0.62-0.165-1.308-0.368-1.857-0.546
			c-0.556-0.174-1.113-0.324-1.657-0.47c-1.086-0.288-2.106-0.563-2.936-0.861c-1.674-0.596-2.513-1.243-1.969-1.293
			c1.059-0.149,1.897-0.021,2.836-0.201c0.465-0.092,0.99,0.09,1.836,0.381c0.832,0.276,2.037,0.723,3.66,1.15
			c1.647,0.401,4.134,0.911,6.917,1.334c1.397,0.22,2.856,0.449,4.303,0.677c0.733,0.129,1.463,0.258,2.18,0.384
			c0.699,0.162,1.384,0.321,2.05,0.476c5.315,1.226,9.075,2.586,12.057,3.582c2.982,0.988,8.326,3.086,11.394,3.776
			c3.066,0.696,8.535,2.344,10.778,2.799c2.241,0.461,11.927,2.924,15.351,3.378c3.42,0.466,13.48,3.739,16.241,4.469
			c2.76,0.73,0.425-0.492,2.76,0.73c2.335,1.221,3.088,1.723,5.021,2.233c1.932,0.511,13.677,3.005,15.296,3.584
			c1.619,0.579,2.798,0.588,3.865,1.021c1.067,0.434,1.305,0.648,3.275,1.018c1.97,0.371,1.104,0.293,3.664,0.668
			c2.559,0.378,0.351-0.209,4.215,0.818C276.111,289.941,276.21,291.783,269.038,289.875z"/>
		<path style="fill:#231815;" d="M116.827,249.185c-2.881-0.772-15.072-4.037-18.183-4.87c-3.102-0.862-23.938-6.362-26.77-7.276
			c-2.831-0.917-10.005-2.858-12.157-3.44c-2.152-0.583-5.5-1.49-7.891-2.138c-2.391-0.65-7.889-2.145-9.085-2.469
			c-1.195-0.326-6.77-1.542-9.159-2.2c-2.391-0.649-12.939-3.411-17.236-4.61c-4.296-1.203-8.113-2.275-7.239-2.636
			c0.874-0.362,1.629-0.302,2.463-0.523c0.834-0.222,1.869,0.675,4.77,1.337c2.903,0.657,8.63,2.248,13.245,3.214
			c4.615,0.964,7.882,2.164,10.472,3.021c2.589,0.859,7.217,2.723,9.885,3.296c2.668,0.573,7.412,2.009,9.363,2.387
			c1.951,0.377,10.358,2.5,13.342,2.852c2.984,0.353,11.679,3.315,14.07,3.965c2.39,0.65,0.392-0.5,2.39,0.651
			c1.998,1.15,2.638,1.626,4.312,2.082c1.673,0.453,11.863,2.641,13.256,3.18c1.395,0.534,2.427,0.518,3.343,0.923
			c0.916,0.406,1.116,0.612,2.826,0.934c1.71,0.323,0.955,0.262,3.182,0.581c2.227,0.317,0.317-0.215,3.659,0.718
			C123.026,249.095,123.028,250.916,116.827,249.185z"/>
		<path style="fill:#231815;" d="M125.052,191.053c-1.469-2.892-2.2-6.676-7.018-6.903c-4.817-0.225-15.617-0.328-20.059-0.89
			c-0.14-0.013-0.295-0.028-0.464-0.044c-0.198-0.016-0.412-0.033-0.641-0.05c-0.568-0.044-1.095-0.038-1.68-0.022
			c-1.155,0.037-2.441,0.151-3.862,0.335c-1.42,0.186-2.968,0.437-4.62,0.784c-0.828,0.18-1.678,0.373-2.568,0.627
			c-0.892,0.25-1.792,0.525-2.905,1.06c-2.172,1.109-3.728,2.953-4.689,4.909c-0.964,1.965-1.386,4.052-1.413,6.065
			c-0.021,1.971,0.302,3.795,0.713,5.394c0.413,1.602,0.905,3.006,1.337,4.217c0.111,0.3,0.224,0.607,0.34,0.92
			c0.128,0.317,0.287,0.655,0.436,0.99c0.316,0.666,0.594,1.393,1.013,2.044c0.756,1.366,1.688,2.693,2.706,3.988
			c2.059,2.575,4.534,4.917,7.007,7.018c4.97,4.182,9.802,7.689,12.257,10.19c3.445,3.459,5.512,4.494,6.126,3.874
			c0.57-0.584-0.575-3.053-4.608-5.689c-1.672-1.083-3.974-2.737-6.541-4.666c-2.56-1.934-5.368-4.175-7.881-6.572
			c-2.519-2.385-4.709-4.96-6.13-7.286c-1.436-2.319-2.135-4.301-2.382-5.209c-0.2-0.922-1.189-3.334-1.587-6.625
			c-0.184-1.639-0.152-3.503,0.424-5.319c0.549-1.81,1.634-3.578,3.201-4.681c0.778-0.57,1.638-0.877,2.609-1.123
			c0.952-0.242,1.917-0.429,2.864-0.575c1.892-0.297,3.704-0.459,5.296-0.545c1.588-0.081,2.987-0.08,3.978,0.04
			c0.985,0.134,1.838,0.299,2.166,0.386c1.406,0.388,4.744,0.66,8.232,0.864c3.491,0.215,7.135,0.442,9.221,0.978
			c2.088,0.528,4.386,0.871,6.143,1.121C123.83,190.906,125.052,191.053,125.052,191.053z"/>
		<path style="fill:#231815;" d="M135.901,237.615c-0.293-0.157-0.868-0.343-1.506-0.72c-0.648-0.359-1.416-0.784-2.186-1.211
			c-1.474-0.967-2.944-1.993-3.453-2.515c-0.551-0.462-2.674-2.314-4.358-4.49c-0.45-0.524-0.863-1.068-1.235-1.597
			c-0.377-0.527-0.735-1.027-1.055-1.474c-0.599-0.913-1.043-1.621-1.185-1.916c-0.564-1.187-2.289-3.903-2.809-4.708
			c-0.513-0.819-1.348-2.048-1.932-2.94c-0.601-0.877-2-2.877-2.326-3.294c-0.34-0.41-2.053-2.16-2.762-2.935
			c-0.353-0.39-1.259-1.487-2.337-2.567c-1.087-1.072-2.194-2.264-2.906-2.891c-1.368-1.306-2.582-2.469-1.866-2.792
			c0.72-0.32,1.076-0.232,1.682-0.409c0.608-0.175,0.502,0.731,1.564,1.494c0.266,0.192,0.584,0.448,0.937,0.743
			c0.335,0.315,0.707,0.666,1.098,1.033c0.77,0.745,1.674,1.499,2.464,2.185c0.805,0.672,1.387,1.364,1.844,2.011
			c0.453,0.651,0.74,1.29,1.037,1.815c0.609,1.049,1.26,3.23,2.081,4.095c0.829,0.867,1.854,2.77,2.475,3.391
			c0.62,0.623,2.791,3.701,3.95,4.458c1.141,0.77,2.75,4.369,3.475,5.132c0.657,0.81,0.622-0.39,0.656,0.809
			c0.072,1.174,0.049,1.654,0.558,2.201c0.138,0.127,0.43,0.433,0.883,0.732c0.443,0.303,0.981,0.672,1.516,1.039
			c1.073,0.716,2.211,1.28,2.4,1.56c0.397,0.543,0.985,0.408,1.242,0.786c0.267,0.368,0.27,0.581,0.999,0.798
			c0.73,0.202,0.35,0.249,1.377,0.319c1.015,0.071,0.256-0.283,1.575,0.331C139.091,236.692,138.523,238.836,135.901,237.615z"/>
		<path style="fill:#231815;" d="M139.925,253.867c0.27,0.193,1.132,0.494,2.055,0.461c0.925,0,1.81-0.355,2.15-0.494
			c0.357-0.126,1.648-0.826,2.309-2.109c0.724-1.251,0.817-2.771,0.882-3.124c0.077-0.36,0.104-1.014,0.002-1.636
			c-0.094-0.623-0.266-1.209-0.368-1.471c-0.175-0.536-0.559-1.317-0.894-1.85c-0.311-0.549-1.258-1.649-1.499-1.856
			c-0.218-0.247-1.509-0.939-2.039-1.234c-0.259-0.168-0.999-0.558-1.839-0.848c-0.837-0.304-1.769-0.459-2.304-0.532
			c-1.074-0.159-2.031-0.075-1.886-0.677c0.164-0.586,0.367-0.736,0.579-1.178c0.224-0.44,0.569,0.143,1.416,0.1
			c0.873-0.056,2.54,0.357,3.905,0.722c1.389,0.367,2.101,1.245,2.598,1.867c0.547,0.631,1.057,2.045,1.585,2.576
			c0.597,0.524,1.104,1.844,1.411,2.322c0.162,0.238,0.49,0.933,0.741,1.713c0.262,0.777,0.431,1.636,0.634,2.103
			c0.217,0.461,0.089,1.442-0.268,2.322c-0.343,0.893-0.932,1.625-1.134,1.95c-0.448,0.633,0.439,0.414-0.458,0.632
			c-0.913,0.173-1.239,0.05-1.617,0.357c-0.18,0.153-0.797,0.757-1.579,1.168c-0.768,0.422-1.659,0.631-1.883,0.553
			c-0.436-0.11-0.743,0.143-1.03-0.021c-0.278-0.199-0.316-0.311-0.837-0.306c-0.543,0.007-0.265-0.074-1.016-0.056
			c-0.374-0.034-0.434,0.014-0.514,0.012c-0.082,0.001-0.194-0.054-0.657-0.405c-0.453-0.388-0.335-0.922,0.044-1.152
			C138.813,253.528,139.326,253.515,139.925,253.867z"/>
		<path style="fill:#231815;" d="M134.076,255.798c0.297-0.113,1.456-1.34,1.733-1.682c0.154-0.15,0.693-0.794,1.209-1.454
			c0.51-0.665,0.998-1.335,1.165-1.461c0.358-0.245,0.889-1.097,1.017-1.355c0.142-0.254,0.338-0.66,0.421-0.919l0.062-0.222
			c0.016-0.072,0.041-0.15,0.037-0.269c0.016-0.212-0.009-0.411-0.012-0.481c-0.003-0.158-0.421-0.713-0.54-0.939
			c-0.054-0.121-0.234-0.442-0.497-0.725c-0.257-0.289-0.577-0.527-0.758-0.658c-0.361-0.27-0.727-0.393-0.447-0.916
			c0.3-0.505,0.459-0.595,0.756-0.942c0.306-0.329,0.221,0.264,0.67,0.402c0.484,0.146,1.165,0.801,1.803,1.339
			c0.666,0.559,0.584,1.291,0.526,1.745c-0.02,0.236-0.158,0.577-0.296,0.876c-0.133,0.303-0.262,0.564-0.243,0.786
			c0.06,0.467-0.396,1.068-0.402,1.384c0.003,0.329-0.532,1.483-0.435,2.086c0.113,0.628-1.181,1.359-1.413,1.622
			c-0.232,0.277,0.425,0.403-0.233,0.278c-0.653-0.128-0.942-0.247-1.106-0.063c-0.136,0.189-0.773,1.663-1.052,1.705
			c-0.257,0.037-0.182,0.349-0.387,0.335c-0.208-0.02-0.313-0.104-0.434,0.161c-0.127,0.271-0.11,0.085-0.231,0.525
			c-0.181,0.436,0.135,0.276-0.431,0.57c-0.376,0.142-0.656-0.237-0.696-0.68c-0.029-0.221-0.025-0.455-0.005-0.638
			c0.011-0.091,0.025-0.169,0.052-0.226L134.076,255.798z"/>
		<path style="fill:#231815;" d="M127.87,254.909c0.095-0.129,0.317-0.507,0.479-0.962c0.164-0.449,0.292-0.927,0.35-1.122
			c0.068-0.188,0.252-0.953,0.383-1.733c0.138-0.779,0.219-1.566,0.314-1.75c0.191-0.368,0.248-1.338,0.251-1.628
			c0.006-0.29,0.008-0.741-0.004-1.062c-0.004-0.322-0.061-1.053-0.082-1.209c-0.017-0.163-0.4-0.834-0.473-1.113
			c-0.032-0.145-0.152-0.539-0.326-0.897c-0.169-0.369-0.384-0.674-0.49-0.816c-0.221-0.29-0.347-0.303-0.068-0.832
			c0.324-0.482,0.495-0.554,0.853-0.844c0.365-0.259,0.192,0.315,0.575,0.57c0.431,0.285,0.829,1.11,1.286,1.707
			c0.482,0.616,0.27,1.196,0.183,1.595c-0.088,0.418-0.606,1.145-0.449,1.503c0.17,0.369,0.025,1.052,0.165,1.325
			c0.148,0.275,0.228,1.48,0.611,1.948c0.4,0.477-0.378,1.699-0.459,2.029c-0.072,0.344,0.564,0.157-0.072,0.345
			c-0.641,0.182-0.95,0.202-1.006,0.432c-0.036,0.213,0.067,1.781-0.193,1.929c-0.212,0.134-0.017,0.386-0.211,0.452
			c-0.193,0.063-0.334,0.02-0.334,0.307c-0.003,0.295-0.062,0.117-0.015,0.562c0.03,0.46,0.222,0.208-0.158,0.662
			C128.458,256.784,127.506,255.329,127.87,254.909z"/>
		<path style="fill:#231815;" d="M122.552,250.54c-0.289-0.137-1.028-0.53-1.699-1.029c-0.665-0.503-1.257-1.086-1.474-1.339
			c-0.231-0.243-1.072-1.213-1.751-2.248c-0.694-1.03-1.282-2.078-1.365-2.365c-0.166-0.585-0.867-1.821-1.096-2.163
			c-0.218-0.359-0.581-0.899-0.851-1.274c-0.263-0.383-0.924-1.204-1.084-1.365c-0.151-0.182-1.073-0.72-1.406-0.978
			c-0.162-0.144-0.642-0.474-1.171-0.755c-0.534-0.275-1.119-0.456-1.455-0.551c-0.671-0.186-1.291-0.188-1.156-0.776
			c0.156-0.571,0.313-0.704,0.512-1.125c0.215-0.428,0.396,0.19,1.02,0.182c0.65,0.007,1.81,0.494,2.784,0.852
			c1.002,0.355,1.345,1.111,1.628,1.6c0.292,0.515,0.48,1.627,0.899,1.967c0.447,0.338,0.87,1.229,1.194,1.481
			c0.348,0.246,1.32,1.658,1.979,1.929c0.659,0.283,1.044,2.065,1.315,2.444c0.258,0.384,0.508-0.289,0.26,0.382
			c-0.246,0.678-0.386,0.967-0.187,1.236c0.101,0.134,0.575,0.512,1.056,0.84c0.476,0.337,0.953,0.62,1.011,0.761
			c0.11,0.299,0.441,0.179,0.495,0.401c0.058,0.223,0.007,0.387,0.364,0.437c0.35,0.042,0.154,0.116,0.652,0.054
			c0.488-0.082,0.17-0.222,0.71,0.025C124.25,249.365,123.844,251.137,122.552,250.54z"/>
		<path style="fill:#231815;" d="M276.638,284.618c0.289,0.25,1.035,0.946,1.55,1.823c0.533,0.865,0.819,1.864,0.882,2.277
			c0.04,0.205,0.125,0.707,0.138,1.368c0.001,0.66-0.1,1.484-0.385,2.265c-0.276,0.784-0.73,1.488-1.163,1.985
			c-0.441,0.492-0.841,0.799-1.015,0.889c-0.348,0.184-0.916,0.535-1.504,0.789c-0.588,0.25-1.175,0.437-1.454,0.491
			c-0.549,0.148-1.441,0.241-2.081,0.177c-0.319-0.016-0.845-0.098-1.319-0.232c-0.473-0.141-0.885-0.326-1.025-0.403
			c-0.147-0.064-0.577-0.213-1.022-0.447c-0.448-0.225-0.899-0.546-1.118-0.791c-0.237-0.227-0.838-0.888-1.308-1.726
			c-0.482-0.831-0.782-1.845-0.84-2.455c-0.174-1.223,0.108-2.334,0.628-2.01c0.549,0.289,0.673,0.472,1.087,0.667
			c0.436,0.178-0.188,0.395,0.008,1.02c0.187,0.585,0.551,1.798,1.346,2.389c0.735,0.578,1.016,1.162,1.386,1.601
			c0.182,0.204,0.421,0.557,0.746,0.84c0.319,0.283,0.714,0.5,1.021,0.468c0.593-0.019,1.672,0.053,2.064-0.203
			c0.192-0.112,0.724-0.32,1.199-0.661c0.478-0.339,0.87-0.803,0.948-1.145c0.073-0.35,0.493-0.67,0.871-1.061
			c0.383-0.38,0.705-0.834,0.783-1.055c0.123-0.452-0.554-0.188,0.12-0.45c0.651-0.303,0.964-0.48,0.98-0.862
			c0.008-0.195-0.14-0.879-0.419-1.475c-0.267-0.604-0.609-1.121-0.621-1.286c0.001-0.355-0.375-0.38-0.35-0.633
			c0.01-0.249,0.091-0.386-0.248-0.592c-0.357-0.172-0.131-0.182-0.667-0.292c-0.518-0.086-0.224,0.169-0.737-0.241
			c-0.263-0.167-0.213-0.655,0.042-1.012C275.402,284.29,275.985,284.07,276.638,284.618z"/>
		<path style="fill:#231815;" d="M278.301,299.031c0.754,0.219,1.69,0.192,2.531-0.131c0.83-0.332,1.635-1.001,2.21-1.851
			c0.579-0.855,0.961-1.887,1.135-2.929c0.181-1.038,0.125-2.107-0.028-3.137c-0.335-2.057-0.9-3.543-1.143-4.464
			c-0.272-0.917-0.272-1.275-0.08-0.986c0.186,0.291,0.644,0.611,1.246,1.29c0.586,0.678,1.366,1.737,1.791,3.539
			c0.412,1.79,0.409,3.53,0.092,4.962c-0.298,1.436-0.85,2.573-1.35,3.376c-0.522,0.795-0.785,0.954-1.413,1.362
			c-0.336,0.184-0.744,0.446-1.473,0.72c-0.719,0.27-1.731,0.537-3.141,0.438c-1.411-0.123-2.46-0.698-3.104-1.283
			c-0.656-0.592-0.9-1.197-0.985-1.568c-0.119-0.78,0.254-0.746,0.673-0.28c0.453,0.477,1.249,0.838,1.898,0.929
			C277.813,299.125,278.301,299.031,278.301,299.031z"/>
		<path style="fill:#231815;" d="M285.628,300.108c0.182-0.071,0.634-0.316,1.045-0.623c0.41-0.311,0.784-0.664,0.932-0.812
			c0.161-0.131,0.716-0.723,1.125-1.403c0.43-0.669,0.696-1.403,0.825-1.559c0.284-0.309,0.468-1.273,0.461-1.566
			c0.031-0.289,0.021-0.746-0.003-1.071c-0.021-0.325-0.148-1.068-0.209-1.221c-0.027-0.172-0.546-0.779-0.674-1.055
			c-0.068-0.142-0.281-0.513-0.555-0.871c-0.266-0.367-0.606-0.699-0.787-0.903c-0.373-0.397-0.756-0.688-0.323-1.095
			c0.441-0.393,0.618-0.433,0.993-0.69c0.385-0.254,0.138,0.314,0.563,0.533c0.432,0.239,1.016,0.967,1.63,1.502
			c0.63,0.548,0.578,1.226,0.565,1.678c0.006,0.479-0.396,1.33-0.22,1.704c0.212,0.395,0.076,1.155,0.195,1.461
			c0.066,0.156,0.104,0.572,0.133,1.029c0.023,0.455,0.03,0.948,0.158,1.256c0.126,0.306-0.101,0.789-0.406,1.195
			c-0.314,0.406-0.696,0.727-0.808,0.895c-0.236,0.327,0.451,0.377-0.239,0.327c-0.678-0.06-0.977-0.189-1.14,0.013
			c-0.086,0.093-0.281,0.524-0.545,0.922c-0.259,0.399-0.581,0.761-0.72,0.763c-0.266,0.012-0.248,0.331-0.457,0.288
			c-0.208-0.046-0.303-0.152-0.473,0.095c-0.177,0.249-0.126,0.076-0.328,0.481c-0.218,0.403,0.083,0.296-0.452,0.494
			C285.339,302.065,284.875,300.391,285.628,300.108z"/>
		<path style="fill:#231815;" d="M322.495,211.391c5.331,5.522,10.959,12.913,15.695,21.23c4.748,8.297,8.625,17.532,10.574,26.367
			c1.97,8.838,1.59,15.327,0.854,18.966c-0.318,1.839-0.751,2.985-0.915,3.535c-0.184,0.547-0.204,0.482-0.05-0.171
			c0.13-0.661,0.37-1.471,0.458-2.563c0.056-0.542,0.119-1.146,0.189-1.823c0.027-0.678,0.058-1.431,0.091-2.266
			c0.059-3.335-0.238-8.019-1.633-14.536c-1.423-6.518-3.6-12.157-5.671-16.825c-2.12-4.658-4.19-8.349-5.811-11.003
			c-1.632-2.652-2.097-3.408-3.378-5.489c-0.669-1.021-1.511-2.398-2.967-4.396c-1.44-2.007-3.441-4.684-6.581-8.133
			c-6.324-6.875-10.963-10.011-13.03-11.501c-2.106-1.46-1.64-1.424,0.724-0.111c2.328,1.36,5.278,3.437,7.541,5.305
			c1.142,0.921,2.115,1.78,2.803,2.408C322.087,211,322.495,211.391,322.495,211.391z"/>
		<path style="fill:#231815;" d="M349.335,221.512c4.144,4.942,8.444,11.482,11.786,18.814c3.406,7.303,5.635,15.435,6.632,22.944
			c0.953,7.524,0.671,12.865,0.302,15.951c-0.349,3.1-0.526,4.022-0.444,2.897c0.061-1.129,0.141-2.828,0.142-5.642
			c-0.047-1.407-0.104-3.094-0.172-5.132c-0.084-1.014-0.175-2.117-0.274-3.316c-0.055-0.599-0.074-1.225-0.159-1.87
			c-0.088-0.644-0.181-1.314-0.276-2.01c-0.301-2.796-0.907-5.399-1.402-7.851c-0.306-1.214-0.642-2.378-0.945-3.504
			c-0.155-0.562-0.307-1.114-0.456-1.655c-0.182-0.531-0.36-1.05-0.535-1.559c-0.351-1.016-0.687-1.989-1.007-2.914
			c-0.333-0.92-0.722-1.766-1.051-2.577c-0.34-0.808-0.659-1.566-0.956-2.275c-0.323-0.696-0.653-1.329-0.941-1.916
			c-0.584-1.172-0.949-1.929-1.274-2.628c-0.357-0.682-0.682-1.302-1.159-2.212c-0.481-0.908-1.068-2.132-2.193-3.882
			c-1.065-1.783-2.601-4.137-5.036-7.214c-0.619-0.76-1.207-1.483-1.765-2.167c-0.561-0.681-1.154-1.27-1.678-1.858
			c-0.531-0.582-1.029-1.129-1.497-1.643c-0.498-0.484-0.962-0.935-1.396-1.357c-1.696-1.729-3.021-2.805-3.813-3.542
			c-1.591-1.466-1.207-1.37,0.597,0.003c0.901,0.684,1.978,1.457,2.968,2.37c1.002,0.896,2.094,1.742,2.939,2.639
			c0.878,0.866,1.654,1.632,2.211,2.182c0.287,0.268,0.478,0.517,0.628,0.675C349.256,221.424,349.335,221.512,349.335,221.512z"/>
		<path style="fill:#231815;" d="M248.963,341.057c0.226-1.026,0.816-3.7,1.333-6.351c0.501-2.659,0.91-5.331,1.017-6.416
			c0.177-1.08,0.609-5.276,0.314-9.382c-0.038-1.03-0.229-2.037-0.322-3.007c-0.119-0.966-0.358-1.858-0.497-2.671
			c-0.124-0.819-0.384-1.5-0.518-2.067c-0.15-0.563-0.253-0.99-0.293-1.237c-0.068-0.497-0.325-1.125-0.568-1.852
			c-0.258-0.721-0.531-1.532-0.945-2.262c-0.385-0.744-0.762-1.474-1.086-2.101c-0.382-0.609-0.701-1.118-0.902-1.439
			c-0.792-1.297-2.185-3.179-3.238-4.464c-0.558-0.611-1.442-1.657-2.371-2.503c-0.438-0.451-0.907-0.828-1.287-1.147
			c-0.382-0.316-0.673-0.576-0.84-0.695c-0.167-0.12-0.503-0.323-0.93-0.574c-0.214-0.124-0.451-0.262-0.702-0.407
			c-0.262-0.127-0.539-0.262-0.821-0.398c-0.558-0.281-1.142-0.561-1.699-0.785c-0.553-0.229-1.027-0.479-1.41-0.636
			c-0.744-0.345-2.782-1.22-5.117-1.902c-2.313-0.72-4.867-1.336-6.351-1.712c-2.965-0.757-5.656-1.335-4.928-2.208
			c0.724-0.862,1.285-0.988,1.961-1.603c0.679-0.614,1.295,0.548,3.373,0.814c2.087,0.264,6.115,1.337,9.446,2.11
			c3.361,0.766,5.44,2.472,6.945,3.761c0.753,0.665,1.723,1.709,2.585,2.805c0.456,0.522,0.867,1.077,1.271,1.564
			c0.411,0.478,0.811,0.893,1.167,1.217c0.365,0.316,0.782,0.722,1.2,1.181c0.388,0.484,0.802,1,1.205,1.502
			c0.765,1.035,1.464,2.037,1.947,2.554c0.239,0.261,0.635,0.772,1.124,1.416c0.499,0.635,0.985,1.488,1.552,2.32
			c0.267,0.425,0.584,0.836,0.821,1.273c0.247,0.436,0.488,0.861,0.714,1.262c0.458,0.801,0.951,1.478,1.256,1.953
			c0.335,0.464,0.652,1.245,0.94,2.177c0.289,0.933,0.397,2.047,0.554,3.129c0.204,2.186,0.136,4.314,0.14,5.207
			c0.069,1.788,1.017,0.16,0.064,1.791c-1.054,1.603-1.527,2.08-1.613,3.291c-0.044,0.603,0.048,2.738-0.049,4.863
			c-0.046,1.06-0.14,2.111-0.221,2.965c-0.11,0.846-0.225,1.49-0.338,1.733c-0.445,0.975-0.123,1.753-0.515,2.379
			c-0.395,0.623-0.677,0.733-0.711,1.969c-0.033,1.234-0.16,0.676-0.021,2.295c0.143,1.614,0.44,0.285-0.053,2.592
			c-0.195,1.117-1.044,1.666-1.764,1.406C249.078,344.522,248.462,343.296,248.963,341.057z"/>
		<path style="fill:#231815;" d="M304.631,293.287c-0.168-0.232-0.685-0.775-1.199-1.325c-0.534-0.53-1.072-1.063-1.291-1.28
			c-0.211-0.223-1.07-1.037-1.963-1.801c-0.889-0.77-1.812-1.486-1.989-1.721c-0.359-0.465-1.519-1.298-1.879-1.528
			c-0.349-0.247-0.92-0.589-1.318-0.848c-0.409-0.242-1.348-0.801-1.563-0.903c-0.212-0.114-1.305-0.371-1.732-0.563
			c-0.414-0.235-2.375-0.914-3.164-1.205c-0.793-0.285-1.503-0.53-1.188-1.04c0.318-0.508,0.503-0.598,0.784-0.964
			c0.283-0.365,0.324,0.269,0.928,0.326c0.604,0.075,1.702,0.509,2.68,0.638c0.98,0.139,1.489,0.705,1.895,1.096
			c0.423,0.378,0.985,1.369,1.516,1.518c0.541,0.145,1.285,0.799,1.692,0.892c0.202,0.05,0.677,0.289,1.198,0.514
			c0.51,0.24,1.063,0.471,1.438,0.477c0.37,0.011,0.827,0.429,1.237,0.875c0.396,0.464,0.74,0.956,0.928,1.119
			c0.365,0.337,0.431-0.398,0.364,0.339c-0.07,0.734-0.169,1.043,0.08,1.275c0.123,0.117,0.642,0.438,1.153,0.772
			c0.501,0.341,0.977,0.709,1.025,0.865c0.093,0.312,0.434,0.274,0.453,0.518c0.017,0.246-0.064,0.376,0.27,0.544
			c0.332,0.17,0.132,0.142,0.633,0.307c0.504,0.167,0.259-0.144,0.689,0.403C306.745,293.139,305.387,294.249,304.631,293.287z"/>
		<path style="fill:#231815;" d="M179.418,311.313c2.709-1.591,5.252-2.891,7.976-3.599c2.715-0.691,5.631-0.876,8.934-0.014
			c2.088,0.598,4.752,1.341,7.626,2.521c2.872,1.174,5.962,2.717,8.924,4.646c2.966,1.919,5.791,4.23,8.225,6.717
			c2.443,2.481,4.501,5.119,6.168,7.568c1.655,2.457,3.389,5.582,4.768,9.061c1.385,3.473,2.408,7.293,2.895,10.969
			c0.097,0.922,0.193,1.829,0.286,2.716c0.042,0.892,0.083,1.763,0.122,2.608c-0.014,1.694-0.045,3.282-0.141,4.673
			c-0.167,2.795-0.166,4.931-0.076,6.057c0.08,1.126,0.293,2.181,0.577,3.11c0.32,0.913,0.686,1.706,1.096,2.319
			c0.782,1.259,1.585,1.877,1.583,2.58c0.002,0.345-0.168,0.519-0.5,0.529c-0.316-0.008-0.861-0.106-1.385-0.483
			c-1.132-0.663-2.294-2.273-2.75-3.905c-0.278-0.799-0.865-3.301-0.856-6.527c-0.019-1.61,0.061-3.397,0.122-5.243
			c0.033-0.925,0.003-1.833,0.01-2.776c-0.023-0.938-0.11-1.889-0.159-2.842c-0.348-3.809-1.255-7.581-2.26-10.583
			c-0.976-3.018-2.075-5.248-2.413-6.26c-0.359-1.004-1.308-2.764-2.686-4.762c-1.414-1.972-3.279-4.15-5.314-6.059
			c-2.035-1.915-4.256-3.498-6.065-4.701c-1.837-1.173-3.283-1.943-3.784-2.333c-0.494-0.4-1.259-0.804-2.131-1.291
			c-0.881-0.466-1.924-0.906-2.991-1.347c-2.163-0.818-4.489-1.49-6.134-1.835c-1.63-0.413-3.938-0.69-6.288-0.768
			c-2.357-0.029-4.753,0.163-6.579,0.57c-0.892,0.143-2.009,0.357-3.215,0.439c-1.19,0.186-2.477,0.266-3.646,0.469
			C176.864,313.887,177.924,312.228,179.418,311.313z"/>
		<path style="fill:#231815;" d="M159.133,304.79c-0.484,0.365-0.96,0.676-1.389,1.021c-0.423,0.342-0.833,0.671-1.228,0.99
			c-0.803,0.592-1.482,1.215-2.148,1.739c-0.676,0.51-1.27,1.022-1.849,1.478c-0.584,0.442-1.134,0.859-1.659,1.258
			c-0.524,0.397-1.035,0.758-1.537,1.097c-0.489,0.355-0.962,0.697-1.426,1.033c-0.952,0.651-1.806,1.345-2.676,2.089
			c-0.851,0.759-2.874,2.682-5.414,5.303c-2.559,2.6-5.642,5.91-9.035,9.047c-3.375,3.096-7.421,5.665-11.217,7.317
			c-3.793,1.682-7.3,2.426-9.49,2.638c-2.348,0.259-6.077,0.58-10.299,0.039c-1.049-0.167-2.143-0.266-3.227-0.551
			c-0.544-0.123-1.095-0.248-1.65-0.372c-0.543-0.168-1.09-0.337-1.64-0.507l-0.826-0.253l-0.806-0.322l-1.615-0.647
			c-1.142-0.497-2.336-0.977-3.515-1.378c-4.748-1.598-9.399-2.358-12.962-3.112c-1.723-0.375-3.489-0.723-4.804-0.823
			c-1.335-0.126-2.323-0.108-2.84-0.104c-1.033,0.025-2.751,0.086-4.815,0.537c-1.029,0.236-2.143,0.566-3.266,1.062
			c-1.119,0.504-2.239,1.17-3.262,1.992c-2.076,1.635-3.564,3.937-4.461,6.013c-0.893,2.094-1.287,3.969-1.519,5.186
			c-0.502,2.451-0.536,5.43-0.203,7.28c0.361,1.854,0.908,2.583,1.736,0.803c0.808-1.761,1.07-4.341,1.48-6.915
			c0.407-2.565,1.018-5.139,1.896-6.764c0.213-0.402,0.697-1.38,1.709-2.526c1.006-1.14,2.593-2.408,4.767-3.213
			c2.159-0.825,4.839-1.17,7.655-1.014c1.416,0.081,2.836,0.28,4.299,0.603c1.484,0.293,2.986,0.591,4.487,0.888
			c2.993,0.582,5.957,1.203,8.672,2.035c1.357,0.414,2.654,0.874,3.859,1.387c0.637,0.24,1.259,0.475,1.863,0.703
			c0.303,0.113,0.602,0.224,0.896,0.334c0.302,0.086,0.599,0.17,0.891,0.253c0.585,0.162,1.149,0.318,1.691,0.468
			c0.543,0.141,1.078,0.214,1.579,0.315c0.502,0.092,0.979,0.18,1.427,0.263c0.453,0.046,0.878,0.088,1.271,0.127
			c1.57,0.186,2.648,0.15,3.055,0.114c0.408-0.045,1.34,0.009,2.67-0.073c1.331-0.021,3.057-0.159,5.037-0.425
			c3.953-0.555,8.921-1.883,13.534-4.179c1.138-0.598,2.299-1.166,3.373-1.861c1.11-0.636,2.139-1.371,3.148-2.088
			c1.014-0.707,1.916-1.516,2.826-2.237c0.852-0.766,1.669-1.501,2.441-2.195c3.041-2.819,5.247-5.039,5.977-5.897
			c1.449-1.709,5.216-4.378,9.107-6.517c0.976-0.525,1.938-1.056,2.891-1.49c0.934-0.478,1.854-0.861,2.693-1.226
			c1.682-0.721,3.077-1.259,3.946-1.735c1.716-1.016,3.187-1.941,4.349-2.832c0.571-0.485,1.078-0.841,1.462-1.24
			c0.386-0.387,0.657-0.76,0.779-1.086c0.471-1.3,0.94-4.658-1.171-3.556c-0.51,0.288-1.12,0.459-1.727,0.68
			c-0.607,0.221-1.23,0.397-1.796,0.535c-0.571,0.12-1.061,0.266-1.416,0.365C159.351,304.736,159.133,304.79,159.133,304.79z"/>
		<path style="fill:#231815;" d="M36.542,323.021c1.758-1.982,3.932-3.762,6.281-5.201c2.363-1.431,4.905-2.408,7.381-2.834
			c4.973-0.915,9.244,0.358,11.421,1.091c2.164,0.777,5.009,1.594,7.398,1.727c2.392,0.15,4.16-0.429,3.991-1.654
			c-0.132-1.013-1.83-1.645-3.899-2.237c-2.067-0.572-4.608-1.054-6.298-1.109c-0.843-0.02-2.703-0.295-5.207-0.463
			c-2.526-0.158-5.702-0.012-8.833,0.895c-1.568,0.432-3.107,1.062-4.557,1.796c-1.443,0.754-2.783,1.612-4.007,2.506
			c-2.444,1.794-4.353,3.737-5.652,5.197c-2.631,2.908-4.842,6.638-6.377,10.337c-1.534,3.698-2.589,7.289-3.049,10.177
			c-0.242,1.439-0.1,2.752,0.219,3.682c0.323,0.936,0.799,1.485,1.187,1.576c0.397,0.091,0.715-0.255,0.886-1.091
			c0.187-0.843,0.234-2.178,0.384-4.265c0.159-2.092,0.542-3.901,0.977-5.561c0.444-1.669,0.95-3.168,1.557-4.678
			c0.624-1.503,1.361-3.01,2.329-4.641C33.646,326.645,34.857,324.892,36.542,323.021z"/>
		<path style="fill:#231815;" d="M104.557,289.822c0.267,2.253,0.026,4.1-0.616,5.892c-0.31,0.895-0.797,1.759-1.386,2.884
			c-0.269,0.559-0.578,1.118-0.915,1.703c-0.162,0.3-0.328,0.608-0.499,0.925c-0.188,0.309-0.381,0.628-0.58,0.957
			c-0.38,0.676-0.774,1.241-1.151,1.736c-0.366,0.504-0.703,0.946-1.053,1.307c-0.339,0.371-0.651,0.698-0.944,0.994
			c-0.304,0.285-0.603,0.524-0.883,0.756c-0.284,0.227-0.554,0.442-0.822,0.656c-0.284,0.194-0.567,0.386-0.862,0.588
			c-0.29,0.205-0.593,0.419-0.922,0.651c-0.339,0.217-0.7,0.455-1.095,0.73c-0.777,0.57-1.385,0.868-1.854,1.16
			c-0.472,0.288-0.868,0.465-1.314,0.649c-0.886,0.361-1.974,0.81-4.57,1.399c-2.6,0.517-2.599,0.451-2.4,0.493
			c0.099,0.011,0.249,0.028,0.149,0.106c-0.099,0.086-0.452,0.226-1.376,0.41c-0.917,0.221-1.697,0.396-2.351,0.602
			c-0.651,0.226-1.184,0.408-1.603,0.589c-0.838,0.367-1.222,0.701-1.222,0.701c0.666,0.358,1.358,0.717,2.074,1.072
			c0.715,0.343,1.449,0.625,2.212,0.935c3.021-0.698,5.914-1.804,8.588-3.253c0,0,0.495-0.16,1.252-0.503
			c0.382-0.167,0.836-0.365,1.337-0.584c0.486-0.252,1.019-0.528,1.575-0.816c2.211-1.19,4.588-2.96,5.802-4.133
			c0.606-0.587,1.287-1.248,1.997-1.937c0.677-0.723,1.432-1.44,2.07-2.227c0.327-0.386,0.665-0.759,0.966-1.14
			c0.29-0.392,0.57-0.772,0.837-1.132c0.554-0.72,0.926-1.409,1.239-1.963c0.286-0.544,0.652-1.306,0.911-2.303
			c0.262-0.975,0.418-2.089,0.434-3.227c0.039-2.293-0.481-4.594-0.856-6.622c-0.392-2.037-1.212-2.656-1.725-2.224
			C104.461,286.092,104.259,287.582,104.557,289.822z"/>
		<path style="fill:#231815;" d="M34.2,347.294c0.803-2.767,1.907-5.777,3.196-8.219c1.254-2.463,2.707-4.304,3.598-5.084
			c0.885-0.799,1.937-1.744,2.737-2.513c0.404-0.381,0.73-0.752,0.931-1.076c0.191-0.338,0.237-0.674,0.029-0.963
			c-0.324-0.472-1.448-0.266-2.548,0.434c-1.112,0.681-2.068,1.836-2.527,2.634c-0.491,0.79-2.219,3.427-3.514,6.541
			c-1.343,3.096-2.388,6.583-2.994,8.541c-1.266,3.914-2.093,8.719-2.318,11.747c-0.136,1.529,0.493,2.69,0.956,2.733
			c0.479,0.031,0.659-0.634,0.59-2.91c-0.049-2.291,0.15-3.951,0.421-5.679C33.045,351.749,33.453,349.93,34.2,347.294z"/>
		<path style="fill:#231815;" d="M40.18,364.798c-0.161-0.453-0.368-1.66-0.602-2.881c-0.137-1.223-0.287-2.465-0.256-2.966
			c-0.004-0.251-0.014-0.861-0.026-1.648c0.041-0.782,0.061-1.745,0.141-2.699c0.166-1.907,0.504-3.775,0.673-4.21
			c0.344-0.869,0.83-3.097,1.028-3.753c0.167-0.665,0.443-1.693,0.679-2.415c0.202-0.733,0.772-2.387,0.905-2.744
			c0.103-0.363,0.416-2.124,0.7-2.84c0.145-0.357,0.535-1.32,0.954-2.355c0.233-0.512,0.473-1.041,0.691-1.522
			c0.232-0.477,0.469-0.896,0.639-1.203c0.694-1.228,1.451-2.275,1.897-1.661c0.472,0.611,0.501,0.9,0.837,1.386
			c0.352,0.488-0.495,0.369-0.769,1.241c-0.288,0.845-1.116,2.402-1.337,3.828c-0.248,1.402-0.927,2.217-1.403,2.904
			c-0.441,0.688-1.643,1.849-1.7,2.697c-0.075,0.833-0.671,2.207-0.628,2.834c0,0.615-0.396,3.185,0,4.143
			c0.202,0.48-0.011,1.34-0.241,2.186c-0.213,0.845-0.5,1.675-0.537,2.038c-0.045,0.724,0.722,0.129-0.045,0.723
			c-0.768,0.603-1.146,0.817-1.179,1.337c-0.017,0.261,0.179,1.18,0.335,2.07c0.175,0.891,0.412,1.746,0.326,1.974
			c-0.159,0.46,0.243,0.707,0.115,1.014c-0.135,0.312-0.303,0.416-0.042,0.893c0.268,0.47,0.028,0.3,0.524,0.859
			c0.519,0.54,0.375-0.012,0.624,0.942C42.725,365.894,40.708,366.808,40.18,364.798z"/>
		<path style="fill:#231815;" d="M272.053,376.296c-3.961,1.291-8.426,2.469-12.374,2.964c-0.982,0.174-1.938,0.192-2.835,0.269
			c-0.449,0.03-0.884,0.059-1.305,0.086c-0.42-0.007-0.825-0.015-1.212-0.022c-0.774-0.02-1.478-0.043-2.095-0.078
			c-0.613-0.087-1.14-0.175-1.564-0.263c-0.849-0.172-1.801-0.294-2.729-0.509c-0.467-0.087-0.934-0.161-1.391-0.214
			c-0.23-0.023-0.455-0.045-0.675-0.066c-0.217-0.034-0.43-0.067-0.635-0.099c-1.641-0.222-2.98-0.045-3.121,0.912
			c-0.116,0.784,1.194,1.563,2.892,2.173c1.723,0.448,3.802,0.729,5.113,0.503c1.311-0.074,5.825-0.248,10.574-1.243
			c4.763-0.943,9.737-2.587,12.562-3.421c5.662-1.674,12.152-4.216,16.24-5.37c2.032-0.602,3.387-1.616,3.446-2.28
			c0.074-0.625-1.25-0.896-4.44,0.411C282.186,372.691,279.587,373.788,272.053,376.296z"/>
		<path style="fill:#231815;" d="M305.69,352.723c-0.483-0.14-1.786-0.264-3.091-0.391c-1.312-0.039-2.631-0.102-3.168-0.051
			c-0.268,0.011-0.918,0.036-1.756,0.07c-0.833,0.11-1.862,0.179-2.872,0.363c-2.03,0.323-4.007,0.874-4.504,0.942
			c-0.494,0.084-1.344,0.295-2.15,0.551c-0.793,0.292-1.556,0.573-1.909,0.704c-0.695,0.287-1.763,0.768-2.525,1.111
			c-0.747,0.378-2.473,1.234-2.825,1.467c-0.182,0.102-0.659,0.455-1.178,0.831c-0.516,0.382-1.056,0.821-1.413,1.037
			c-0.74,0.395-3.677,2.627-4.879,3.532c-1.191,0.924-2.247,1.751-2.416,1.14c-0.166-0.612-0.056-0.883-0.125-1.385
			c-0.068-0.503,0.631-0.306,1.35-1.053c0.738-0.73,2.394-1.945,3.604-3.085c1.215-1.14,2.405-1.538,3.302-1.875
			c0.45-0.17,1.121-0.339,1.768-0.535c0.656-0.183,1.3-0.373,1.685-0.652c0.761-0.586,2.41-1.098,2.973-1.524
			c0.291-0.195,1.128-0.586,1.999-1.034c0.878-0.427,1.815-0.848,2.253-1.222c0.438-0.371,1.508-0.57,2.548-0.738
			c1.055-0.114,2.093-0.131,2.521-0.211c0.866-0.11,0.012-0.594,0.868-0.1c0.849,0.501,1.119,0.767,1.714,0.706
			c0.297-0.025,1.332-0.188,2.376-0.349c1.041-0.107,2.089-0.143,2.342-0.064c0.505,0.156,0.873-0.052,1.203,0.126
			c0.327,0.189,0.389,0.344,1.007,0.276c0.619-0.054,0.344,0.014,1.156-0.11c0.82-0.126,0.14-0.27,1.338-0.018
			C308.1,351.439,307.782,353.163,305.69,352.723z"/>
		<path style="fill:#231815;" d="M282.972,349.878c-0.3-0.043-0.852-0.079-1.531-0.04c-0.679,0.052-1.483,0.176-2.273,0.405
			c-1.587,0.449-3.072,1.263-3.66,1.608c-0.291,0.178-1.012,0.594-1.864,1.248c-0.866,0.649-1.882,1.532-2.878,2.456
			c-1.972,1.861-4.011,3.785-4.597,4.15c-0.565,0.385-1.509,1.118-2.476,1.764c-0.966,0.659-1.973,1.191-2.442,1.419
			c-0.932,0.473-2.471,1.042-3.63,1.264c-0.573,0.129-1.541,0.268-2.452,0.285c-0.911,0.004-1.752-0.105-2.047-0.178
			c-0.294-0.056-1.149-0.146-2.045-0.472c-0.87-0.302-1.866-0.859-2.306-1.356c-0.488-0.433-1.65-1.82-2.152-3.622
			c-0.255-0.893-0.357-1.86-0.331-2.751c0.074-0.891,0.236-1.703,0.502-2.271c0.456-1.153,1.327-2.1,2.067-2.5
			c0.755-0.372,1.211-0.399,1.142-0.048c-0.089,0.724-0.333,0.955-0.296,1.52c0.028,0.279-0.163,0.316-0.403,0.501
			c-0.119,0.09-0.286,0.183-0.433,0.344c-0.123,0.177-0.302,0.371-0.378,0.667c-0.208,0.559-0.385,1.463-0.311,2.455
			c0.069,0.99,0.423,2.051,0.976,2.796c0.547,0.746,1.048,1.289,1.522,1.744c0.464,0.432,1.011,0.807,1.488,1.068
			c0.485,0.255,1.206,0.653,2.021,0.855c0.805,0.214,1.675,0.291,2.258,0.125c1.171-0.24,3.282-0.808,4.003-1.341
			c0.363-0.245,1.378-0.822,2.303-1.606c0.94-0.774,1.825-1.702,2.173-2.29c0.69-1.134,4.032-3.544,4.891-4.298
			c0.845-0.746-0.306-0.518,0.848-0.745c1.154-0.219,1.595-0.187,2.21-0.664c0.31-0.231,1.324-1.159,2.478-1.91
			c1.137-0.773,2.417-1.329,2.768-1.356c0.693-0.067,1.073-0.447,1.558-0.4c0.486,0.074,0.603,0.173,1.386-0.036
			c0.801-0.175,0.444-0.054,1.51-0.296c0.544-0.117,0.588-0.16,0.697-0.187c0.108-0.002,0.299-0.035,1.132,0.187
			c0.845,0.227,1.118,0.838,0.841,1.19C284.952,349.948,284.25,350.06,282.972,349.878z"/>
		<path style="fill:#231815;" d="M112.939,297.244c-0.542-1.29-3.208-6.623-3.851-8.01c-0.315-0.694-1.598-3.331-2.789-6.022
			c-1.204-2.68-2.242-5.469-2.344-6.219c-0.342-1.467-1.019-4.998-1.109-6.091c-0.073-0.538-0.157-1.227-0.198-1.935
			c-0.066-0.706-0.093-1.43-0.102-2.033c-0.033-0.602-0.007-1.597,0.016-2.517c0.045-0.918,0.119-1.759,0.136-2.06
			c0.036-0.299,0.03-1.148,0.055-2.078c0.056-0.925,0.116-1.937,0.264-2.529c0.124-0.595,0.432-2.213,0.945-3.911
			c0.473-1.709,1.19-3.473,1.641-4.479c0.943-1.999,1.977-3.676,2.456-2.958c0.503,0.717,0.503,1.12,0.85,1.71
			c0.343,0.578-0.625,0.706-1.056,2.042c-0.419,1.322-1.454,3.89-1.622,6.085c-0.197,2.165-0.824,3.628-1.197,4.851
			c-0.38,1.195-1.323,3.467-1.122,4.765c0.185,1.274,0.115,3.604,0.456,4.502c0.078,0.223,0.179,0.639,0.302,1.156
			c0.147,0.51,0.324,1.12,0.504,1.743c0.22,0.612,0.444,1.237,0.685,1.768c0.258,0.52,0.506,0.955,0.762,1.23
			c0.479,0.544,0.906,1.857,1.306,3.184c0.404,1.326,0.765,2.658,0.996,3.191c0.47,1.066,0.77-0.212,0.47,1.065
			c-0.297,1.28-0.507,1.764-0.171,2.511c0.336,0.749,3.112,4.889,3.225,5.613c0.115,0.721,0.667,0.986,0.682,1.495
			c0.014,0.51-0.115,0.695,0.4,1.365c0.515,0.671,0.194,0.426,0.982,1.235c0.785,0.814,0.413-0.053,1.067,1.466
			C116.226,298.913,114.132,300.013,112.939,297.244z"/>
		<path style="fill:#231815;" d="M10.111,220.165c1.07-0.187,2.3-0.945,3.018-2.072c0.744-1.101,0.926-2.545,0.777-3.811
			c-0.149-1.276-0.512-2.16-0.724-2.717c-0.227-0.549-0.268-0.804-0.109-0.646c0.152,0.159,0.511,0.271,0.974,0.663
			c0.45,0.384,1.053,1.075,1.298,2.279c0.497,2.403-0.239,4.435-0.858,5.471c-0.307,0.529-0.472,0.626-0.85,0.908
			c-0.404,0.239-0.985,0.776-2.622,1.383c-1.684,0.552-2.785,0.149-3.171-0.128c-0.407-0.299-0.252-0.525,0.175-0.539
			c0.437-0.023,0.999-0.178,1.408-0.382C9.841,220.373,10.111,220.165,10.111,220.165z"/>
		<path style="fill:#231815;" d="M0.794,217.673c-0.507-0.748-0.888-1.729-0.773-2.863c0.15-1.118,0.757-2.091,1.583-2.807
			c0.824-0.715,1.835-1.153,2.869-1.348c1.054-0.201,2.086-0.091,2.982,0.136c1.8,0.493,2.791,1.251,3.366,1.69
			c0.564,0.462,0.684,0.702,0.454,0.595c-0.232-0.105-0.649-0.118-1.295-0.217c-0.648-0.092-1.51-0.294-2.674-0.572
			c-1.178-0.27-2.237-0.212-3.04,0.1c-0.813,0.299-1.354,0.766-1.632,1.142c-0.268,0.385-0.369,0.449-0.598,0.72
			c-0.106,0.131-0.256,0.346-0.343,0.663c-0.084,0.3-0.115,0.803,0.215,1.43c0.341,0.616,0.767,0.99,1.114,1.211
			c0.35,0.23,0.651,0.302,0.876,0.388c0.452,0.111,0.55,0.363-0.015,0.568c-0.548,0.178-1.417,0.123-2.042-0.178
			C1.204,218.056,0.794,217.673,0.794,217.673z"/>
		<path style="fill:#231815;" d="M7.135,216.899c0.759-0.172,1.595-0.777,2.075-1.596c0.498-0.803,0.633-1.81,0.592-2.72
			c-0.041-0.915-0.197-1.592-0.275-2.04c-0.088-0.443-0.069-0.665,0.038-0.536c0.101,0.128,0.39,0.208,0.75,0.507
			c0.35,0.292,0.806,0.829,0.949,1.751c0.29,1.829-0.217,3.361-0.635,4.199c-0.208,0.423-0.338,0.498-0.629,0.714
			c-0.311,0.189-0.747,0.596-1.956,1.148c-1.248,0.518-2.112,0.259-2.422,0.029c-0.328-0.243-0.223-0.488,0.087-0.557
			c0.318-0.076,0.712-0.276,0.983-0.49C6.967,217.096,7.135,216.899,7.135,216.899z"/>
		<path style="fill:#231815;" d="M177.25,148.869c3.937,0.12,9.086,5.793,6.777,5.992c-2.309,0.197-1.799-2.194-7.616-3.26
			C172.238,150.837,174.558,148.786,177.25,148.869z"/>
		<path style="fill:#231815;" d="M208.366,148.654c0.713-2.318,2.674-6.598,4.992-6.954c2.318-0.357,1.426,1.783,0,2.853
			c-1.426,1.069-2.675,3.566-3.566,4.635C208.901,150.259,208.366,148.654,208.366,148.654z"/>
		<path style="fill:#231815;" d="M202.839,163.987c-3.806,0.716-4.168-1.826-2.139-1.961c0.668-0.045,1.29,0.027,1.808,0.166
			C204.062,162.611,204.684,163.64,202.839,163.987z"/>
		<path style="fill:#231815;" d="M211.04,161.847c-1.101-0.244-0.178-3.387,1.605-3.387c0.892,0,0.892,0.936,0.468,1.827
			C212.69,161.179,211.843,162.026,211.04,161.847z"/>
		<path style="fill:#231815;" d="M248.489,261.359c-0.377-0.377-2.115-1.812-2.542-2.194c-0.409-0.406-3.389-2.821-3.709-3.262
			c-0.309-0.454-1.331-1.299-1.641-1.548c-0.309-0.248-0.792-0.636-1.136-0.913c-0.348-0.272-1.149-0.896-1.322-1.033
			c-0.176-0.134-1.158-0.52-1.512-0.78c-0.348-0.271-2.001-1.294-2.647-1.75c-0.648-0.455-1.225-0.858-0.785-1.264
			c0.442-0.405,0.634-0.448,0.995-0.731c0.361-0.283,0.209,0.325,0.732,0.512c0.521,0.192,1.392,0.815,2.25,1.086
			c0.858,0.273,1.187,0.883,1.487,1.3c0.305,0.413,0.65,1.422,1.124,1.61c0.477,0.187,1.08,0.86,1.449,0.97
			c0.371,0.109,1.667,0.991,2.361,1.005c0.697,0.012,1.574,1.542,1.906,1.838c0.335,0.298,0.421-0.408,0.335,0.298
			c-0.087,0.706-0.184,1.011,0.048,1.218c0.231,0.204,2.006,1.042,2.1,1.337c0.096,0.288,0.425,0.199,0.455,0.429
			c0.029,0.229-0.04,0.365,0.287,0.475c0.327,0.11,0.13,0.121,0.621,0.191c0.492,0.07,0.235-0.18,0.685,0.258
			C250.481,260.849,249.309,262.157,248.489,261.359z"/>
		<path style="fill:#231815;" d="M263.254,279.311c-0.334-0.429-1.884-2.131-2.255-2.583c-0.361-0.462-2.973-3.388-3.213-3.892
			c-0.236-0.508-1.111-1.541-1.375-1.848c-0.264-0.308-0.676-0.787-0.969-1.129c-0.296-0.34-0.976-1.122-1.124-1.293
			c-0.149-0.169-1.051-0.757-1.351-1.092c-0.296-0.341-1.727-1.718-2.272-2.319c-0.545-0.599-1.03-1.132-0.508-1.426
			c0.523-0.295,0.722-0.293,1.137-0.489c0.416-0.195,0.136,0.367,0.61,0.67c0.473,0.305,1.201,1.112,1.992,1.562
			c0.791,0.451,0.994,1.121,1.212,1.592c0.22,0.471,0.374,1.538,0.81,1.818c0.437,0.28,0.916,1.062,1.263,1.243
			c0.347,0.179,1.484,1.293,2.17,1.428c0.687,0.135,1.313,1.802,1.6,2.151c0.288,0.351,0.48-0.336,0.288,0.351
			c-0.193,0.687-0.333,0.976-0.132,1.221c0.201,0.243,1.851,1.353,1.907,1.659c0.057,0.303,0.397,0.263,0.396,0.495
			c-0.001,0.233-0.087,0.359,0.225,0.516c0.311,0.157,0.113,0.142,0.595,0.279c0.482,0.139,0.258-0.145,0.651,0.353
			C265.305,279.077,263.98,280.229,263.254,279.311z"/>
		<path style="fill:#231815;" d="M294.326,362.103c-2.294,0.415-4.809,1.014-6.981,1.601c-2.173,0.585-4.015,1.131-5.016,1.304
			c-2.026,0.305-4.725,1.702-3.833,3.103c0.358,0.575,1.205,0.57,2.088,0.307c0.895-0.24,1.834-0.742,2.395-1.166
			c0.549-0.446,2.695-1.486,5.162-2.365c2.461-0.89,5.243-1.57,6.84-1.755c3.185-0.432,6.969-0.714,9.3-0.64
			c2.306,0.096,3.538-2.256-0.255-1.771c-1.884,0.264-3.207,0.472-4.617,0.638C298.002,361.548,296.506,361.7,294.326,362.103z"/>
		<path style="fill:#231815;" d="M109.45,187.737c-2.826,3.532,2.473,6.006,2.473,6.006s2.826,7.417,6.712,3.532
			c3.886-3.886,3.533-8.125,0.707-9.185C116.515,187.031,109.45,187.737,109.45,187.737z"/>
		<path style="fill:#231815;" d="M101.08,186.702c-0.108,3.861-0.108,9.16-5.76,7.393c-5.652-1.767-2.473-3.18-5.299-5.299
			C87.195,186.677,101.08,186.702,101.08,186.702z"/>
		<path style="fill:#231815;" d="M134.104,307.04c-6.13-1.167-6.714,2.336-12.261,2.628c-5.547,0.292-6.715,2.628-2.044,5.547
			c4.671,2.92,9.342,5.548,13.137,4.963c3.795-0.584,2.336,2.044,7.007-0.291c4.671-2.335,7.298-2.92,6.131-6.715
			C144.906,309.376,134.104,307.04,134.104,307.04z"/>
		<path style="fill:#231815;" d="M108.706,328.644c-0.876-3.211,0.876-4.087,4.087-4.087c3.211,0,7.882,1.752,11.969,1.46
			c4.087-0.291,7.59,0.292,4.963,4.087c-2.627,3.796-5.547,4.379-9.634,3.504c-4.087-0.876-4.671,0.876-7.882-1.168
			C108.998,330.396,108.706,328.644,108.706,328.644z"/>
		<path style="fill:#231815;" d="M222.827,286.299c-3.614,3.614-3.213,7.63-6.827,12.047c-3.614,4.418-2.008,8.032,2.811,6.827
			c4.819-1.205,2.811-4.016,7.63-6.024c4.819-2.008,7.63,0.402,7.63-5.221C234.071,288.307,222.827,286.299,222.827,286.299z"/>
		<path style="fill:#231815;" d="M241.3,296.74c-3.614,1.607-6.024,6.024-8.031,9.638c-2.008,3.614,0.803,6.425,4.819,4.015
			c4.016-2.409,6.355-1.436,8.434-4.417C248.599,302.996,241.3,296.74,241.3,296.74z"/>
		<path style="fill:#231815;" d="M242.907,225.661c-4.016,7.63-6.024,10.04-6.827,6.425s-1.205-12.047-1.205-12.047L242.907,225.661
			z"/>
		<path style="fill:#231815;" d="M246.923,232.889c-2.41,3.614-3.213,7.229,0,8.433c3.213,1.204,6.425,6.425,8.031,4.015
			c1.607-2.409,0-5.622,0-5.622L246.923,232.889z"/>
		<path style="fill:#231815;" d="M108.381,253.785c6.416,1.166,3.734,7.841,3.734,7.841s-3.734,12.695-6.721,7.095
			C102.406,263.12,104.273,253.038,108.381,253.785z"/>
		<path style="fill:#231815;" d="M125.183,210.845c-2.24-2.987,1.493-4.853,2.987-6.72c1.493-1.867,2.987,1.493,2.614,3.733
			c-0.373,2.24-0.747,7.094-3.734,7.841C124.063,216.447,125.183,210.845,125.183,210.845z"/>
		<path style="fill:#231815;" d="M131.904,183.589c-1.493-1.494,0-5.227,4.107-7.095c4.107-1.867,3.361,0,2.614,2.241
			c-0.747,2.24-2.24,7.094-4.854,7.468C131.157,186.576,131.904,183.589,131.904,183.589z"/>
	</g>
</g>
</svg>
