<?xml version="1.0" encoding="iso-8859-1"?>
<!-- Generator: Adobe Illustrator 21.1.0, SVG Export Plug-In . SVG Version: 6.00 Build 0)  -->
<svg version="1.1" id="_x36_" xmlns="http://www.w3.org/2000/svg" xmlns:xlink="http://www.w3.org/1999/xlink" x="0px" y="0px"
	 viewBox="0 0 512 512" style="enable-background:new 0 0 512 512;" xml:space="preserve">
<g>
	<path style="fill:#65D69D;" d="M344.038,190.309c-12.596-1.866-33.59-11.197-19.594-15.395c13.996-4.199,20.994-8.864,20.994-8.864
		s-1.4-13.996,0.466-20.061c1.866-6.065,6.065-4.199,9.797-0.467s9.797,5.132,17.262,4.665c7.464-0.467,13.996-0.467,15.395-4.665
		c1.4-4.199,7.465-20.994,16.328-14.929c8.864,6.065,23.793,14.462,34.99,25.659c11.197,11.197,27.525,28.925,31.257,32.19
		c3.732,3.266,27.525,27.525,32.657,49.919s3.732,27.059,3.732,27.059s6.065,36.389-9.331,54.584
		c9.331,15.395,10.264,34.523-19.594,43.387c-25.192,6.531-48.052,0.933-57.849,0c-9.797-0.933-28.458,6.531-34.056,12.13
		c-4.665,4.199,1.4-7.931,2.333-9.331c0.933-1.4-15.395,8.397-24.26,8.864c-8.864,0.467,7.465-6.998,7.465-6.998
		s-22.393,7.931-27.059,7.931c-4.665,0,7.931-6.065,16.795-15.862c-26.592,4.665-45.72,0-57.383-9.331
		c-11.663-9.331-12.596-34.523,3.732-41.521c16.329-6.998,22.393-6.998,24.259-6.998c1.866,0-0.933-3.266-8.397-6.065
		c-7.464-2.799-20.061-13.063-10.264-19.128c9.797-6.065,27.059-15.862,30.324-21.46c3.266-5.598,10.73-19.128,10.73-19.128
		s17.728-27.992,18.195-35.456C373.429,193.575,344.038,190.309,344.038,190.309z"/>
	<path style="fill:#FFFFFF;" d="M414.95,178.179c6.998-3.732,12.13-5.598,8.397,2.799c-3.732,8.398-12.596,22.393-0.466,27.059
		s28.925,43.387,17.728,58.316c-1.4-0.466-28.925,0-28.925,0l-34.99,27.525c0,0-18.194-16.795-21.927-23.793
		c-3.732-6.998-1.83-29.016,3.266-42.454c5.095-13.438,7.931-22.86,4.665-27.059c-3.266-4.199-10.73-6.531-16.328-8.398
		c-5.598-1.866,4.199-1.399,10.73-1.399s32.19-3.732,36.856-5.132C398.621,184.244,414.95,178.179,414.95,178.179z"/>
	<path style="fill:#FFF000;" d="M362.699,273.818c1.4-3.732,14.462-38.722,59.249-27.059c4.665,10.73,9.331,20.061,9.331,20.061
		s-8.303,0.646-9.331,8.397c2.799-0.467,5.273-0.445,3.266,1.4c-2.008,1.844-6.531,9.797-3.266,7.931
		c3.266-1.866,6.531-1.866,6.531-1.866s-8.397,8.398-2.799,6.531c5.598-1.866,12.13-1.4,13.529-0.467
		c1.4,0.933,1.866,6.531,1.866,6.531s-27.992,2.333-37.322,11.663c-9.331,9.331-14.462,18.661-14.462,18.661l-6.065-4.665
		L362.699,273.818z"/>
	<path style="fill:#E73828;" d="M298.318,259.355l13.063,17.728c0,0,9.797-5.598,13.529-2.799s-2.333,5.598-3.266,6.065
		c-0.933,0.466,7.931-2.333,7.931,4.199c-0.933-0.467-2.799-0.467-2.799-0.467s5.05,3.842,2.799,5.598
		c-2.251,1.757-0.467,2.799-0.467,2.799s11.197,15.862,13.529,19.594c2.333,3.732,8.397,2.333,8.397,2.333
		s28.458,6.998,33.59,10.264c5.132,3.266-9.33-22.393-9.33-22.393l-14.462-26.126c0,0-14.929-13.063-30.324-17.261
		C315.113,254.69,297.385,256.556,298.318,259.355z"/>
	<path style="fill:#65D69D;" d="M125.703,317.204c8.397-1.4,15.862-11.663,29.391-12.13c13.529-0.466,27.525,3.732,33.123,3.266
		c5.598-0.467,17.262-5.132,19.594-6.531c2.333-1.4,4.199-1.4,5.132-4.199c0.933-2.799,0-6.531,5.132-4.199
		c5.132,2.333,10.264,2.799,11.663,3.266c1.4,0.466,11.663,0,19.128-0.467c7.464-0.466,19.594-2.799,22.393,0.467
		c2.799,3.266-2.799,12.596-11.197,15.395c-8.398,2.799-7.465,13.996-6.065,13.529c1.4-0.466,6.531-4.199,11.663-2.333
		c5.132,1.866,2.799,8.397,2.799,8.397s5.598,1.4,8.864,8.864c3.266,7.464,4.199,11.663-8.864,16.328
		c-13.063,4.665-38.255,3.732-42.454,3.266c-4.199-0.467-60.649,10.73-69.046,10.264c-8.397-0.467-16.795-0.467-16.795-0.467
		s-15.862,11.197-58.782,4.665c-42.92-6.531-52.699,2.238-57.849,4.665c-5.151,2.427-15.585,1.949-17.262,1.4
		c-1.677-0.549,2.799-1.4,4.199-2.333c1.4-0.933-9.797-1.866-5.132-3.266c4.665-1.4,0.337-2.276,4.199-3.732
		c3.862-1.456-0.674,0.82,3.862-1.456c4.536-2.276,6.868-2.276,11.067-6.941c4.199-4.665,9.331-10.73,13.996-10.73
		s23.894,5.661,34.99,4.665c11.096-0.996,22.393-3.266,29.391-6.531c6.998-3.266,7.931-6.998,7.931-6.998s-8.398,5.598-27.992,2.799
		c-19.594-2.799-33.59-20.061-27.525-36.389c6.065-16.329,4.199-20.061,4.199-20.061s-0.466-2.333-14.929-4.665
		c-14.462-2.333-11.197-6.998-7.931-5.598s-5.598-7.931-2.799-6.531c2.799,1.4,13.996,4.199,13.996,4.199l-5.132-4.665
		c0,0,9.331,3.266,17.728,2.799c8.397-0.467,14.929-2.799,15.862,8.397c0.933,11.197-2.333,18.195-1.866,22.86
		c0.466,4.665-2.799,20.994,16.328,20.061c19.128-0.933,22.86-6.998,22.86-6.998L125.703,317.204z"/>
	<path style="fill:#FFFFFF;" d="M141.098,366.967c-3.749-1.534,15.862-5.909,38.566-7.776c22.704-1.866,46.342-1.244,43.854,2.177
		c-2.488,3.421-20.527,9.02-30.791,10.264c-10.264,1.244-33.901-0.622-41.365-0.933
		C143.897,370.389,141.098,366.967,141.098,366.967z"/>
	<path style="fill:#FFFFFF;" d="M242.49,316.272c-4.043,1.244-4.976,4.354-0.933,5.598c4.043,1.244,0.622,10.264,4.354,11.819
		c3.732,1.555,4.354,0.311,4.665-3.11c0.311-3.421,3.421-7.464,7.464-11.197c4.043-3.732,6.531-10.264,6.531-10.264
		s-9.33,5.909-15.24,6.531C243.423,316.272,242.49,316.272,242.49,316.272z"/>
	<g>
		<path style="fill:#231815;" d="M384.764,147.029c-2.605,3.799,1.654,4.053,3.774,1.863c2.229-2.303,2.267-6.34,3.114-9.228
			c0.831-2.834,2.653-8.07,6.068-8.929c4.601-1.157,5.204,4.496,8.599,4.818c3.283,0.312,1.821-2.968,0.486-4.505
			c-2.043-2.351-6.231-3.365-9.128-2.525C390.733,130.536,388.532,141.623,384.764,147.029z"/>
		<path style="fill:#231815;" d="M344.522,148.803c0.099,1.401,1.474,7.197-0.993,6.428c-2.466-0.769-1.359-9.527-0.329-11.313
			c1.787-3.097,5.222-4.051,8.569-3.071c2.08,0.609,5.843,5.769,6.496,5.857C353.866,146.111,345.073,138.903,344.522,148.803z"/>
		<path style="fill:#231815;" d="M336.841,173.966c1.534-0.561,10.15-4.129,9.25-7.134c-0.201-0.65-25.383,7.321-26.959,10.4
			c-5.967,11.659,19.808,13.783,25.761,13.997c14.383,0.517,29.237-0.416,43.387-3.092c7.321-1.385,14.465-3.477,21.385-6.238
			c3.702-1.477,12.34-3.86,14.419-7.617c1.735-3.135-1.267-1.692-3.774-0.885c-5.199,1.671-10.155,4.307-15.18,6.425
			c-11.378,4.795-22.561,7.404-34.831,8.492c-12.488,1.107-26.188,2.552-38.364-1.122c-2.599-0.784-10.288-3.424-9.772-7.444
			C322.501,177.12,334.51,174.848,336.841,173.966z"/>
		<path style="fill:#231815;" d="M426.555,168.9c-0.887,0.309-4.278,2.534-5.367,2.281c-1.161-0.179,4.716-4.166,5.948-4.187
			c1.865-0.032,3.127,0.221,4.259,1.796c2.332,3.242-3.387,13.57-7.381,11.305c0.821,0.466,4.854-5.421,5.044-5.904
			C429.52,173.016,429.433,166.132,426.555,168.9z"/>
		<path style="fill:#231815;" d="M353.355,196.013c-2.5-0.655-9.304-1.409-10.777-3.893c-0.52-0.933,9.768,1.191,10.957,1.537
			c4.35,1.268,8.774,2.641,10.71,7.104c1.895,4.369,0.647,9.275-1.115,13.432c-0.724,1.708-3.129,8.635-4.656,9.48
			c0.502-0.42,1.499-7.225,1.875-8.494c1.048-3.54,2.424-7.357,1.802-11.105C361.35,199.26,357.76,197.488,353.355,196.013z"/>
		<path style="fill:#231815;" d="M417.944,136.277c3.134,1.109,6.162,4.814,8.974,6.897c5.8,4.296,11.138,9.019,15.997,14.366
			c2.66,2.927,23.277,25.194,22.724,25.945c-1.531,2.077-20.704-19.898-22.965-22.321c-5.115-5.482-10.752-10.71-17.284-14.462
			c-1.771-1.017-6.006-1.939-7.303-3.381C417.31,142.456,416.048,135.609,417.944,136.277z"/>
		<path style="fill:#231815;" d="M405.306,154.42c-7.22-1.319-8.251-15.376-1.327-11.087c2.141,1.326,3.288,4.922,3.716,7.219
			c0.069,0.369,0.738,4.569,0.099,4.862C406.227,156.133,407.077,154.746,405.306,154.42z"/>
		<path style="fill:#231815;" d="M356.557,163.611c-4.305-1.951-11.864-15.9-3.583-12.881c2.319,0.846,4.678,4.853,5.492,7.03
			C359.981,161.808,358.992,161.046,356.557,163.611z"/>
		<path style="fill:#231815;" d="M310.112,257.415c-2.133,0.085-12.432,3.214-14.244,2.09c-4.118-2.557,12.356-5.514,14.169-5.558
			c8.425-0.201,16.673,1.452,24.548,4.402c3.68,1.379,19.093,7.34,18.959,12.482c0.224-2.207-19.214-8.053-21.677-8.86
			C324.83,259.667,317.545,257.75,310.112,257.415z"/>
		<path style="fill:#231815;" d="M362.464,268.348c-0.615,1.128-2.549,5.778-0.452,6.175c1.361,0.258,3.284-4.201,3.871-5.132
			c3.214-5.089,6.637-10.181,11.155-14.227c5.581-4.998,12.657-7.905,19.986-9.185c7.592-1.326,14.21,0.46,21.62,0.677
			c7.116,0.209,0.508-3.112-3.054-3.764c-6.283-1.15-13.197,0.128-19.388,1.408C382.575,247.115,369.273,256.021,362.464,268.348z"
			/>
		<path style="fill:#231815;" d="M437.072,265.302c0.295-0.039,7.726-0.989,7.447,0.473c-0.31,1.626-11.48,1.944-13.207,2.447
			c-2.905,0.845-11.793,5.728-8.105,10.239C416.071,269.733,431.785,265.641,437.072,265.302z"/>
		<path style="fill:#231815;" d="M485.959,209.334c-2.312-4.597-5.917-8.406-9.596-11.935c-1.275-1.223-11.01-8.506-8.786-10.196
			c5.696-4.331,19.937,15.333,22.056,18.377c6.186,8.888,11.138,19.199,14.528,29.461c2.79,8.443,7.135,19.507,3.675,28.258
			c-4.124,10.427-15.542,16.181-25.678,19.101c-5.832,1.68-25.659,7.451-30.869,2.233c-3.586-3.592,3.318-2.677,5.881-2.729
			c5.651-0.115,11.277-0.526,16.85-1.499c8.738-1.526,17.903-3.725,24.865-9.544c10.145-8.479,6.909-19.084,3.899-30.316
			c-1.499-5.592-3.329-10.991-6.287-15.985C493.361,219.268,488.822,214.753,485.959,209.334z"/>
		<path style="fill:#231815;" d="M491.473,312.682c11.997,4.424,17.449,15.378,15.357,27.789
			c-2.109,12.512-13.322,19.942-24.434,24.121c-12.972,4.879-27.187,5.774-40.845,3.903c-5.292-0.725-10.471-1.936-15.636-3.275
			c-2.372-0.615-13.744-3.803-5.717-4.123c3.983-0.159,9.514,2.514,13.433,3.311c7.232,1.472,14.593,2.201,21.976,2.075
			c9.963-0.17,19.941-1.329,28.927-5.903c9.858-5.018,19.088-13.435,17.776-25.369c-0.617-5.616-3.257-10.464-6.876-14.691
			C494.23,319.113,484.47,310.345,491.473,312.682z"/>
		<path style="fill:#231815;" d="M331.29,300.303c-1.004-1.258-3.823-4.693-2.262-6.335c1.445-1.521,4.264,4.135,4.504,4.47
			c1.145,1.601,11.189,16.069,11.941,15.889C339.917,315.662,333.268,303.772,331.29,300.303z"/>
		<path style="fill:#231815;" d="M357.345,316.292c-2.137-0.186-8.027,0.347-9.956-1.275c-0.465-0.332,7.782-0.68,9.046-0.561
			c4.621,0.437,9.087,1.204,13.516,2.619c0.853,0.272,17.23,7.032,16.505,8.132C386.326,325.407,359.682,316.634,357.345,316.292z"
			/>
		<path style="fill:#231815;" d="M415.879,299.839c-5.858,2.001-11.495,5.023-16.327,8.905c-3.837,3.083-11.504,9.15-11.679,14.563
			c-0.248,7.662,5.406-0.846,6.802-3.39c2.766-5.038,5.969-9.184,10.74-12.571c5.137-3.648,10.91-5.809,17.016-7.182
			c5.068-1.139,14.26-0.283,18.641-2.921c6.737-4.057-4.559-2.261-6.749-1.813C428.139,296.695,421.858,297.761,415.879,299.839z"/>
		<path style="fill:#231815;" d="M365.181,276.97c-1.979-4.853-4.496-1.629-3.596,2.134c0.927,3.875,4.112,7.415,6.207,10.734
			c3.253,5.153,5.906,10.597,8.407,16.149c1.077,2.39,3.562,12.547,6.16,13.919c5.881,3.104-3.05-13.018-3.983-14.949
			C373.881,295.655,369.106,286.542,365.181,276.97z"/>
		<path style="fill:#231815;" d="M318.936,306.008c-20.279,3.309-28.813,29.894-13.375,44.042c6.282,5.757,15.45,6.932,23.562,7.92
			c9.86,1.202,19.861,2.322,29.803,2.333c0.3,0.597-13.252,2.133-14.142,2.159c-5.668,0.168-11.3-0.24-16.897-1.105
			c-10.175-1.573-19.945-3.767-26.732-12.155c-6.927-8.561-8.849-20.176-4.713-30.351c2.338-5.751,6.8-11.764,12.512-14.518
			c0.935-0.451,14.057-2.261,12.249,0.91C320.916,305.746,319.483,306.024,318.936,306.008z"/>
		<path style="fill:#231815;" d="M354.137,232.519c0.165-0.658,2.391-9.325,4.383-8.712c2.592,0.798-1.731,10.043-2.171,12.05
			c-0.464,2.117-1.672,26.053-2.148,26.089c-1.052,0.078-2.798-11.256-2.884-12.449C350.9,243.696,352.203,237.956,354.137,232.519z
			"/>
		<path style="fill:#231815;" d="M348.468,245.768c0.318-0.954,1.614-6.544,3.168-5.649c2.044,1.178-2.239,9.468-3.013,10.84
			c-1.589,2.819-3.678,5.444-5.996,7.697c-0.633,0.615-5.012,3.637-5.01,3.627C338.13,257.053,346.031,250.505,348.468,245.768z"/>
		<path style="fill:#231815;" d="M464.894,227.152c-0.934-0.739-9.493-5.751-8.345-7.663c1.956-3.257,11.641,5.822,12.943,7.029
			c4.144,3.84,7.633,8.572,9.781,13.827c1.203,2.945,2.066,6.079,1.902,9.292c-0.026,0.505-1.94,6.57-2.15,5.921
			c-0.703-2.174-0.126-4.966-0.849-7.324c-0.637-2.078-1.738-4.12-2.707-6.046C472.698,236.682,469.304,231.491,464.894,227.152z"/>
		<path style="fill:#231815;" d="M471.861,259.22c0.402-0.218,7.111-4.579,8.055-3.664c1.981,1.921-8.03,6.284-9.548,6.953
			c-6.822,3.007-17.169,4.952-23.672,2.545c1.282,0.677-2.569,0.124,0.335-0.615C455.294,262.337,463.782,262.601,471.861,259.22z"
			/>
		<path style="fill:#231815;" d="M507.847,273.374c-0.301-1.858-3.852-12.695-2.233-14.472c2.84-3.116,5.582,13.241,5.816,15.064
			c1.012,7.882,0.681,15.771-1.041,23.54c-0.848,3.829-4.817,19.614-9.965,20.125c2.534-0.251,5.507-19.573,5.992-22.292
			C507.708,288.096,508.371,280.726,507.847,273.374z"/>
		<path style="fill:#231815;" d="M421.767,332.385c7.387-1.444,14.718-3.427,21.632-6.433c0.712-0.31,7.453-4.288,8.166-3.283
			c3.646,5.136-23.381,12.473-25.613,12.97c-11.463,2.551-23.841,3.284-34.826,7.601c-11.264,4.427-19.85,12.978-28.96,20.614
			c-4.904,4.111-15.754,14.665-22.884,14.063c0.721,0.145,5.785-4.141,6.721-4.825c3.423-2.501,6.558-5.33,9.59-8.285
			c6.345-6.185,12.254-12.785,19.358-18.14C388.936,336.127,405.061,334.978,421.767,332.385z"/>
		<path style="fill:#231815;" d="M372.212,366.06c1.229-0.97,4.508-3.72,6.38-2.903c-0.433-0.201-10.175,8.27-11.722,9.339
			c-2.319,1.604-4.793,3.171-7.572,3.841c-0.572,0.138-4.608,0.077-4.73,0.163c2.361-1.662,5.859-2.397,8.436-4.043
			C366.156,370.443,369.11,368.147,372.212,366.06z"/>
		<path style="fill:#231815;" d="M386.749,365.911c0.66-0.716,4.224-5.057,5.631-4.166c1.06,0.671-8.794,9.658-9.546,10.251
			c-2.276,1.797-4.782,3.493-7.597,4.302c-1.101,0.317-5.072-0.071-5.528,0.205c2.814-1.701,6.303-2.37,9.193-4.321
			C381.68,370.306,384.268,368.163,386.749,365.911z"/>
		<path style="fill:#231815;" d="M415.382,362.558c1.103-0.171,12.145,0.44,11.61,0.923c-1.788,1.614-7.959,0.368-10.143,0.626
			c-4.508,0.534-9.043,1.817-13.326,3.307c-4.471,1.555-16.747,5.775-18.902,10.626
			C389.147,367.853,405.568,363.677,415.382,362.558z"/>
		<path style="fill:#231815;" d="M423.3,252.355c-0.47-0.871-2.464-4.796-1.041-5.869c0.671-0.502,8.121,17.85,8.492,19.198
			c0.102,0.369-1.499,0.343-1.325-0.758c0.279-1.763,1.658,0.56,1.315,1.207c-0.081,0.153-0.945-0.93-1.159-1.112
			c-0.814-0.4,1.745-0.036,1.024,0.032C428.484,265.96,424.257,254.671,423.3,252.355z"/>
		<path style="fill:#231815;" d="M341.195,185.555c-4.474-2.237-1.646-5.346,0.822-4.112
			C344.484,182.677,343.662,186.789,341.195,185.555z"/>
		<path style="fill:#231815;" d="M358.07,184.275c-2.016,0-1.513-4.032,2.52-3.528C364.621,181.251,361.598,184.275,358.07,184.275z
			"/>
		<path style="fill:#231815;" d="M366.741,148.684c-1.621-0.939-1.755,2.261,0.828,3.082c1.638,0.52,9.882-1.205,10.972-2.061
			c3.265-2.564,0.433-1.986-2.328-1.277C372.793,149.306,370.281,150.342,366.741,148.684z"/>
		<path style="fill:#231815;" d="M476.007,193.347c1.811,2.077,5.329,4.623,5.954,7.419c0.997,4.459-1.343,3.596-4.81,4.605
			c-3.711,1.08-12.934,8.867-16.552,5.31C454.957,205.135,470.261,192.15,476.007,193.347z"/>
		<path style="fill:#231815;" d="M490.117,211.491c8.521,8.69,0.363,11.627-7.816,12.052
			C467.888,224.293,487.343,214.364,490.117,211.491z"/>
		<path style="fill:#231815;" d="M460.886,306.243c-2.669-0.292-15.855,1.034-11.564,5.507c2.253,2.349,13.423,0.766,16.846,1.157
			c2.566,0.293,13.891,2.578,10.11-2.754c-2.449-3.454-10.777-2.732-14.384-4.415"/>
		<path style="fill:#231815;" d="M491.127,315.819c-3.651-0.44-17.15,2.388-17.209,7.372c3.482,0.426,6.891-0.049,10.365-0.207
			c2.731-0.124,6.77,0.71,9.369-0.156C498.844,321.097,494.168,318.021,491.127,315.819z"/>
		<path style="fill:#231815;" d="M300.785,266.582c-1.225-0.895-4.632-3.299-3.111-4.929c1.246-1.336,6.473,3.814,7.445,4.711
			c2.287,2.112,4.479,4.623,5.932,7.397c0.159,0.303,2.158,5.491,1.492,5.362C308.531,278.343,303.451,269.455,300.785,266.582z"/>
		<path style="fill:#231815;" d="M309.992,283.884c2.477,6.811,9.244,10.676,15.046,14.196c1.254,0.761,6.401,4.826,7.89,3.547
			c2.242-1.925-5.574-4.869-7.15-5.584c-5.081-2.304-14.248-6.644-14.871-13.256c-0.653-6.924,14.254-10.69,14.541-8.588
			C324.714,268.831,307.177,275.358,309.992,283.884z"/>
		<path style="fill:#231815;" d="M319.545,283.324c0-0.001-1.481,3.179-2.313,2.216c-3.073-3.624,9.841-9.142,10.837-5.709
			C328.005,279.609,320.479,282.635,319.545,283.324z"/>
		<path style="fill:#231815;" d="M323.944,287.371c-0.148,0.148-2.037,1.653-2.498,0.705c-1.625-3.144,8.785-5.219,8.461-2.965
			C329.844,285.551,324.513,287.135,323.944,287.371z"/>
		<path style="fill:#231815;" d="M327.325,291.436c-0.871,1.165-2.301,0.204-1.305-1.156c0.92-1.257,4.19-2.164,5.036-0.371
			C331.349,290.532,327.732,291.374,327.325,291.436z"/>
		<path style="fill:#231815;" d="M435.351,262.381c2.541,1.705,0.32,1.912-0.871,1.636c-1.395-0.323-4.501-3.233-4.642-4.777
			C429.734,258.094,435.088,262.057,435.351,262.381z"/>
		<path style="fill:#231815;" d="M428.372,275.498c0.474-0.17,3.17-0.87,3.601,0.302c0.45,1.223-3.638,1.6-3.542,1.548
			c-1.344,0.739-6.075,5.917-7.51,5.622C419.419,282.659,426.735,275.853,428.372,275.498z"/>
		<path style="fill:#231815;" d="M432.406,279.547c0.548-0.216,3.113-1.03,3.716,0.037c-0.186-0.333-11.42,6.812-12.899,5.988
			C421.954,284.866,431.415,279.778,432.406,279.547z"/>
		<path style="fill:#231815;" d="M443.384,285.779c1.341-0.747,4.951-3.139,6.664-2.014c1.57,1.166-13.516,5.3-14.843,5.411
			c-1.814,0.151-10.676,0.285-11.309,2.744C425.631,285.186,438.926,287.815,443.384,285.779z"/>
		<path style="fill:#231815;" d="M438.599,290.376c-0.995-2.72,3.89,0.477,3.186,3.653
			C441.453,295.528,437.346,290.667,438.599,290.376z"/>
		<path style="fill:#231815;" d="M355.089,332.072c-1.288-0.349-21.572-7.049-21.306-7.602c1.035-2.15,17.334,4.663,19.424,5.271
			c8.124,2.365,16.72,3.102,25.153,3.442c7.791,0.315,14.82-0.693,22.219-3.039c5.656-1.793,15.748-5.439,21.142-0.823
			c-6.359-6.128-25.044,4.77-32.052,5.685C378.593,336.452,365.815,335.188,355.089,332.072z"/>
		<path style="fill:#231815;" d="M240.352,294.005c-1.036-0.078-5.421-0.792-6.218,0.5c-1.089,1.58,12.731,2.549,14.048,2.511
			c5.474-0.157,16.171-3.583,21.134-1.298c7.083,3.261-4.957,12.577-8.572,14.537c-3.52,1.908-7.339,3.303-11.233,4.22
			c-1.581,0.372-6.884,0.304-7.822,1.747c-1.258,1.937,10.855-0.026,10.882-0.036c6.077-2.065,12.879-5.892,16.939-10.967
			c4.903-6.129,4.035-10.86-4.093-10.864C257.046,294.352,248.717,294.68,240.352,294.005z"/>
		<path style="fill:#231815;" d="M229.758,297.761c3.843,0.866,1.325-1.987,0.333-2.795c-1.392-1.134-5.217-1.307-6.945-1.812
			c-4.366-1.276-6.888-2.311-10.285,1.394c-0.794,0.865-4.054,4.527-1.489,5.219c1.882,0.508,3.011-4.601,4.014-5.413
			C219.793,290.784,225.375,296.675,229.758,297.761z"/>
		<path style="fill:#231815;" d="M137.35,365.434c16.09,0.091,30.842,7.649,47.39,5.966c15.307-1.557,28.195-7.249,42.417-12.646
			c0.789,0.795-15.139,10.265-16.429,10.817c-7.696,3.291-16.489,3.814-24.738,4.489c-10.262,0.839-20.602,0.325-30.807-1.013
			c-5.113-0.671-11.331-1.081-15.999-3.531C137.751,368.763,132.936,365.406,137.35,365.434z"/>
		<path style="fill:#231815;" d="M151.695,366.974c-5.695-0.132-8.721-0.314-14.086,2.2c-6.512,3.051-13.331,4.942-20.451,5.887
			c-12.773,1.696-25.497,0.696-38.234-0.825c-13.731-1.639-27.395-3.626-41.153-0.957c-6.735,1.306-12.753,4.628-19.324,6.492
			c-2.774,0.787-5.721,1.524-8.633,1.356c-0.726-0.042-4.834-1.28-5.219-1.023c-2.004,1.061,3.71,3.447,4.212,3.543
			c3.01,0.576,6.765-1.02,9.576-1.966c6.178-2.08,12.057-5.233,18.458-6.559c12.155-2.517,24.372-0.801,36.466,1.014
			C98.282,379.882,130.531,384.979,151.695,366.974z"/>
		<path style="fill:#231815;" d="M123.54,329.851c-4.916,8.056-17.184,17.934-25.908,21.091c-9.474,3.428-21.812,4.195-31.778,3.211
			c-10.351-1.022-23.649-6.884-33.223-0.563c-3.771,2.489-6.129,6.435-9.052,9.767c-1.299,1.481-9.056,6.504-9.017,7.799
			c0.111,3.655,7.592-2.339,7.928-2.687c1.819-1.877,3.254-4.238,4.835-6.305c4.06-5.308,7.937-9.306,15.005-8.888
			c7.437,0.439,14.36,3.957,21.678,5.055c6.82,1.023,13.941-0.832,20.539-2.467c4.921-1.22,10.127-2.29,14.871-4.02
			c5.711-2.082,9.506-6.187,14.476-9.369c4.336-2.776,10.747-3.509,13.69-8.099c0.609-0.95,2.672-6.343,0.39-7.217
			C127.064,326.808,124.488,329.414,123.54,329.851z"/>
		<path style="fill:#231815;" d="M265.39,356.484c2.684-1.023,5.177-2.34,7.608-3.858c1.41-0.88,4.219-3.91,4.372-1.148
			c0.264,4.781-12.265,8.301-15.596,9.17c-7.627,1.99-15.759,2.12-23.563,1.291c-2.562-0.272-12.316-0.724-13.83-3.224
			c0.827,1.366,15.416,0.086,17.71,0.071C249.901,358.735,257.831,358.702,265.39,356.484z"/>
		<path style="fill:#231815;" d="M111.315,324.121c-9.538,1.393-18.285,7.899-27.94,2.251c-9.463-5.535-10.557-16.876-9.252-26.622
			c1.23-9.19,5.478-23.372-7.896-24.511c-4.979-0.424-9.884,1.325-14.892,0.947c-1.404-0.106-12.815-2.715-11.224-4.546
			c2.01-2.313,11.798,1.682,14.8,1.725c6.091,0.088,13.074-2.243,18.638,1.417c10.182,6.696,1.475,22.59,1.195,32.065
			c-0.37,12.522,10.519,23.006,22.823,17.998c3.903-1.588,10.842-9.139,15.454-6.396c1.3,0.773,2.574,3.132,1.714,4.497
			C114.642,323.091,111.905,323.629,111.315,324.121z"/>
		<path style="fill:#231815;" d="M44.895,276.064c0.985,0.051,1.873,0.35,2.663,0.896c0.75,0.927-4.985-0.371-5.427-0.566
			c-1.636-0.719-4.284-2.082-5.016-3.888C37.401,273.212,43.637,275.565,44.895,276.064z"/>
		<path style="fill:#231815;" d="M43.678,279.475c-0.479-0.032,5.292,0.571,4.323,1.337c-2.05,1.62-16.954-1.645-17.479-4.406
			C30.715,277.423,42.243,279.213,43.678,279.475z"/>
		<path style="fill:#231815;" d="M37.894,285.03c-1.119-0.292-4.298-0.995-4.853-2.393c0.124,0.352,19.998,5.281,21.109,4.11
			C51.665,289.366,40.676,285.953,37.894,285.03z"/>
		<path style="fill:#231815;" d="M52.833,310.272c0.263-1.729,6.765-17.659,6.876-17.572c3.748,2.953-3.192,13.978-3.869,17.303
			c-1.301,6.39-0.703,13.848,2.3,19.7c2.717,5.294,7.488,9.207,12.781,11.748c1.958,0.94,14.01,6.012,15.977,4.507
			c-2.791,2.135-12.179-0.26-15.405-1.211c-4.207-1.24-8.046-3.299-11.24-6.334C52.583,331.121,50.761,320.334,52.833,310.272z"/>
		<path style="fill:#231815;" d="M253.664,326.109c-0.333,0.989-0.357,4.509-1.268,4.739c-2.199,0.554-0.167-5.901-0.065-6.166
			c0.744-1.923,10.48-11.952,10.642-11.203C263.448,315.67,254.872,323.742,253.664,326.109z"/>
		<path style="fill:#231815;" d="M223.502,306.747c-2.836-1.268-4.175-8.026,0.294-6.105c2.874,1.236,3.631,10.139-1.806,5.601"/>
		<path style="fill:#231815;" d="M195.443,306.326c-0.775,0.257-3.468,1.399-4.592,0.955c-0.998-0.342,17.665-7.469,17.676-7.401
			C209.101,303.447,197.552,305.902,195.443,306.326z"/>
		<path style="fill:#231815;" d="M137.683,312.327c-3.256,1.931-6.66,3.974-10.264,5.21c-0.767,0.263-7.98,1.619-7.222,0.284
			c0.864-1.52,4.486-2.224,5.903-2.827c3.516-1.495,6.765-3.316,10.104-5.159c5.314-2.933,10.358-5.34,16.434-6.133
			c7.401-0.966,14.875-0.019,22.119,1.583c2.783,0.616,5.514,1.584,8.298,2.152c2.11,0.431,6.117-0.652,7.761,0.091
			c-0.118-0.042-3.956,1.811-4.621,1.902c-1.615,0.221-3.254-0.207-4.847-0.379c-4.865-0.525-9.714-1.194-14.586-1.651
			C156.285,306.416,147.098,307.49,137.683,312.327z"/>
		<path style="fill:#231815;" d="M259.268,324.315c-1.39,0.568-4.873,2.117-5.516,0.065c-0.601-1.916,6.53-3.562,7.802-3.675
			c2.874-0.255,6.339,0.561,7.787,3.369c0.553,1.072,0.975,7.557-1.743,7.241c0.703,0.082-1.076-5.261-1.481-5.683
			C264.401,323.846,261.55,323.879,259.268,324.315z"/>
		<path style="fill:#231815;" d="M259.613,335.515c-4.518,0.039-8.853-1.971-13.082-2.092c-5.172-0.148-2.844,2.179,0.787,2.801
			c3.976,0.68,11.489,1.607,15.217,0.509c6.334-1.864-0.144-6.822-0.88-6.043C259.228,333.297,269.222,335.511,259.613,335.515z"/>
		<path style="fill:#231815;" d="M273.946,338.18c-0.501-0.352-4.352-3.469-2.646-4.591c1.748-1.15,4.077,1.837,5.204,2.915
			c2.39,2.287,4.134,4.24,4.046,7.844c-0.031,1.259-1.034,6.462-2.896,6.695C279.281,350.84,275.171,339.368,273.946,338.18z"/>
		<path style="fill:#231815;" d="M12.118,375.711c0.99-0.527,1.977-0.605,2.961-0.233c0.131,0.132-9.214,3.482-11.551,2.073
			C4.35,378.047,10.733,375.954,12.118,375.711z"/>
		<path style="fill:#231815;" d="M13.399,369.866c0.48-0.209,3.445-1.697,4.405-1.254c0.365,0.159-6.951,3.505-7.707,3.726
			c-1.62,0.472-8.816,2.556-10.097,0.658C0.732,374.081,11.968,370.33,13.399,369.866z"/>
		<path style="fill:#231815;" d="M15.837,365.732c1.019-0.591,2.029-0.672,3.031-0.241c0.21,0.251-9.368,3.996-11.554,2.766
			C8.188,368.748,14.498,366.093,15.837,365.732z"/>
		<path style="fill:#231815;" d="M263.281,300.488c-1.702,0.943-2.611,0.508-2.726-1.308c0.326-0.178,3.792-0.729,3.59,0.815
			C263.857,300.16,263.569,300.324,263.281,300.488z"/>
		<path style="fill:#231815;" d="M239.534,339.378c-1.471,2.027-6.206,9.728-9.902,7.283c-1.811-1.198-0.161-6.46,0.395-7.976
			c1.272-3.462,2.448-5.022,6.58-4.125c1.973,0.428,2.67,0.519,3.614,2.238C240.723,337.714,238.325,340.928,239.534,339.378z"/>
		<path style="fill:#231815;" d="M244.696,346.262c-0.769-7.417,2.475-12.089,9.619-8.898
			C253.4,339.103,246.788,351.543,244.696,346.262z"/>
		<path style="fill:#231815;" d="M133.186,371.73c-3.382,0.07-14.595-14.219-14.111-4.206
			C119.52,376.716,127.485,374.045,133.186,371.73z"/>
		<path style="fill:#231815;" d="M115.29,376.893c-4.871-1.738-5.259-9.182-11.306-8.914
			C103.031,374.963,108.961,378.186,115.29,376.893z"/>
		<path style="fill:#231815;" d="M104.62,343.853c-3.517-1.224-4.328-11.328,1.09-8.348
			C110.931,338.377,111.266,344.134,104.62,343.853z"/>
		<path style="fill:#231815;" d="M90.509,344.541c-3.412-0.271-0.99-7.374,1.04-8.232c1.086,1.458,5.251,5.534,5.078,7.553
			C96.383,346.73,90.358,346.754,90.509,344.541z"/>
	</g>
</g>
</svg>
