<?xml version="1.0" encoding="iso-8859-1"?>
<!-- Generator: Adobe Illustrator 22.1.0, SVG Export Plug-In . SVG Version: 6.00 Build 0)  -->
<svg version="1.1" id="_x38_" xmlns="http://www.w3.org/2000/svg" xmlns:xlink="http://www.w3.org/1999/xlink" x="0px" y="0px"
	 viewBox="0 0 512 512" style="enable-background:new 0 0 512 512;" xml:space="preserve">
<g>
	<g>
		<path style="fill:#65D69D;" d="M92.056,292.716c-11.019-3.353-22.037-12.935-34.972-23.953
			c-12.935-11.018-9.102-15.809-0.479-25.391c8.623-9.581,46.949-40.721,50.781-44.074c3.833-3.353,11.977-4.312,13.414-7.186
			c1.437-2.874,12.935-25.87,21.079-37.846c8.144-11.977,23.953-22.037,23.953-22.037s-0.479-18.684,6.707-26.349
			c7.186-7.665,14.372-8.144,17.247-4.791s8.144,12.935,9.102,14.372c0.958,1.437,0.958-0.958,11.977-6.228
			c11.019-5.27,29.223-10.539,28.265-11.019c-0.958-0.479,0-16.288,8.623-24.912c8.623-8.623,14.851-0.958,17.247,4.312
			c2.395,5.27,3.387,12.935,3.387,12.935s21.525-9.581,28.232-9.581c6.707,0,5.749,6.707,1.437,12.935
			c-4.312,6.228-6.228,9.581-18.205,16.288c-11.977,6.707-18.205,15.809-18.684,21.558c-0.479,5.749,7.665,17.726,11.977,19.642
			c4.312,1.916,4.791,11.019,4.791,11.019l1.916,8.144c0,0,18.205,7.186,22.516,12.935c4.312,5.749,10.539,13.414,14.851,19.642
			c4.312,6.228,11.498,24.432,14.372,33.056c2.874,8.623,6.707,17.725,6.707,17.725s8.144-22.995,11.498-29.223
			c3.353-6.228,0-5.749,0.958-12.456c0.958-6.707-3.353-16.767-4.791-24.432c-1.437-7.665,3.353-9.102,6.228-4.791
			c2.874,4.312,4.312,8.623,4.312,8.623s-7.665-19.163-3.833-19.642c3.833-0.479,12.456,4.791,12.935,6.228
			c0.479,1.437,0.479-6.228,4.312-6.228c3.832,0,7.186,10.54,11.498,18.684c4.312,8.144-0.958,20.6-0.958,22.516
			c0,1.916-1.437,17.247-1.437,17.247s-0.958,13.414-7.665,28.265c-6.707,14.851-15.33,22.037-20.6,24.432
			c-5.27,2.395-15.33,5.27-25.391,4.312c-10.06-0.958-18.684-2.874-26.828-5.749c-8.144-2.874-11.498,2.874-11.977,6.228
			c-0.479,3.353-7.186,19.642-5.27,19.642c1.916,0,19.163-7.186,34.014,3.833c14.851,11.018,17.246,21.079,19.642,31.618
			c2.395,10.539,0.479,33.056,9.102,41.679s9.581,12.935,25.87,14.372s21.558,3.353,19.163,5.27
			c-2.395,1.916-10.539,4.312-16.288,5.27c-5.749,0.958,6.699,5.854,16.045,4.364c9.346-1.49,6.951,4.259,2.16,6.654
			c-4.791,2.395-22.037-1.916-22.037-1.916s7.665,4.312,14.372,5.749c6.707,1.437,8.144,3.353,3.833,5.749
			c-4.312,2.395-17.246,2.395-17.246,2.395s-28.744-2.395-43.595-12.456c-14.851-10.06-24.432-24.432-32.098-36.409
			c-7.665-11.977-10.539-20.6-15.33-23.953c-4.791-3.353-10.06-6.707-12.935-6.707c-2.874,0-4.312,1.437,0.958,7.665
			c5.27,6.228,11.018,22.037,6.707,35.93c-4.312,13.893-11.498,39.763-15.33,50.781c-3.833,11.019-2.395,22.995,4.312,28.265
			c6.707,5.27,11.498,10.539,20.6,11.498c9.102,0.958,5.749,5.749,1.437,6.228c-4.312,0.479-24.432-4.312-24.432-4.791
			c0-0.479,15.33,11.019,25.87,11.977c10.539,0.958-0.479,6.707-3.353,7.186s-28.744-5.27-33.535-8.144
			c-4.791-2.874,22.037,8.623,18.205,10.539c-3.833,1.916-13.414,4.312-27.786-4.791c-14.372-9.102-18.205-9.581-21.558-23.953
			c-3.354-14.372-0.479-16.767,0.958-32.098s7.665-17.725,0.479-33.056c-7.186-15.33-9.102-24.911-13.893-28.744
			c-4.791-3.833-4.791-3.354-6.228-2.874c-1.437,0.479-24.912,17.725-59.884,3.833c-34.972-13.893-43.116-42.637-48.386-58.925
			C85.828,313.315,92.056,292.716,92.056,292.716z"/>
		<path style="fill:#ED7342;" d="M276.888,112.818c-2.733,7.105-3.279,29.511,1.64,34.43c10.384,0,15.849-1.093,15.849,2.186
			c0,3.279-3.826,6.012-13.116,10.384s-36.07,18.581-47,21.86c-10.93,3.279-34.977,15.849-46.453,20.767
			c-11.477,4.919-3.826-4.919,2.186-19.128c6.012-14.209,29.511-33.337,39.895-40.988c10.384-7.651,32.79-21.314,35.523-22.953
			C268.144,117.736,274.702,107.899,276.888,112.818z"/>
		<path style="fill:#FFFFFF;" d="M184.379,202.705c1.332,3.995,5.327,7.102,4.883,13.317c-0.444,6.215-13.317,22.639-10.21,25.746
			c3.107,3.107,76.351,28.41,76.351,28.41s20.863-39.507,17.312-47.497c-3.551-7.99-3.551-28.41,0.444-40.395
			c3.995-11.985,11.985-22.195,11.985-22.195l-32.849,14.649c0,0-29.741,9.766-32.405,10.654
			c-2.663,0.888-19.088,11.098-20.863,11.985C197.252,198.266,184.379,202.705,184.379,202.705z"/>
		<path style="fill:#CC9E6A;" d="M96.647,292.184c-0.182,1.997-6.485,10.977-7.154,17.06c-1.359,12.354,3.45,26.342,10.456,40.723
			c10.456,21.462,28.991,33.65,39.535,38.562c10.544,4.912,26.503,7.114,35.858,4.912c9.355-2.201,26.965-11.006,41.273-19.261
			s14.858-14.858,22.563-23.663c7.704-8.805,12.107-16.509,14.858-19.261c2.752-2.752,22.012-20.912,29.717-24.764
			c7.704-3.852,13.208-14.308,13.208-14.308s1.101-26.965-1.651-36.321c-2.752-9.355-17.06-22.563-21.462-25.865
			c-4.402-3.302-13.758-16.509-22.563-19.811c-8.805-3.302-16.509-6.604-24.764-4.403c-8.255,2.201-20.362,8.255-28.616,14.858
			c-8.255,6.604-13.758,11.557-18.711,14.308c-4.953,2.752-28.066,2.201-39.622,7.154c-11.557,4.953-21.462,11.006-25.314,14.859
			c-3.852,3.852,22.563,14.858,30.817,18.16c8.255,3.302,17.61,1.101,26.965,1.101s11.557,0.55,12.657,2.752
			c1.101,2.201-11.006,6.053-8.255,6.604c2.752,0.55,8.255,2.752,20.362,10.456c12.107,7.704,10.456,8.255,5.503,8.805
			c-4.953,0.55-13.207-0.55-11.557,0c1.651,0.55,12.107,2.752,9.355,4.953c-2.751,2.201-13.758,3.302-13.758,3.302
			s7.154,2.752,2.752,4.403c-4.402,1.651-4.953,3.302-15.959,2.751c-11.006-0.55-16.509-2.751-20.912-9.906
			c-4.403-7.154-8.255-8.255-8.255-8.255l-11.006-2.752L96.647,292.184z"/>
		<path style="fill:#40210F;" d="M154.128,314.245c4.687,1.677-2.449,9.307,6.356,18.662c8.805,9.355,15.409,9.906,26.415,5.503
			c11.006-4.402,20.362-16.509,24.764-22.563c4.403-6.053,4.403-13.207,6.053-18.711c1.651-5.503-6.053-24.214-11.006-26.965
			c-4.953-2.752-10.456-7.704-18.16-5.503c-7.704,2.201-14.308,2.752-18.711,7.154c-4.403,4.402-8.255,3.302-4.403,4.402
			c3.852,1.101,17.06,1.101,19.261,2.752c1.101,0.825-3.992,2.476-6.33,3.921c-2.339,1.445-1.924,2.683-1.924,2.683
			s0.55,1.651,5.503,3.302c4.953,1.651,16.509,9.355,20.362,11.006c3.852,1.651-2.201,4.402-6.053,4.953
			c2.201,1.101,0.55,5.503-6.604,7.154c-2.201,3.852-3.852,9.355-16.509,8.255C160.484,319.149,152.725,313.743,154.128,314.245z"/>
		<path style="fill:#888888;" d="M181.946,288.882c0,0,113.299-65.268,114.883-65.268c1.584,0,49.095-29.299,49.491-29.299
			s5.543,17.817,5.543,20.192c0,2.375-4.797,6.404-5.939,6.731c0,0-84.332,49.491-88.687,51.866
			c-4.355,2.376-52.262,28.903-52.262,28.903s-7.919-7.523-14.649-9.106S180.298,288.031,181.946,288.882z"/>
		<path style="fill:#888888;" d="M376.014,176.895c1.398-0.932,24.151-15.045,28.111-15.045s9.898,11.878,8.314,15.441
			c-1.584,3.563-2.375,5.543-4.355,6.335c-1.98,0.792-24.943,13.857-24.943,13.857s-5.147-12.274-5.939-15.045
			C376.409,179.666,374.826,177.687,376.014,176.895z"/>
		<path style="fill:#595757;" d="M407.292,158.682c4.817-2.408,32.07-28.111,32.07-28.111s5.939-6.731,8.71-6.731
			c2.772,0,11.086-1.584,12.67-0.396c1.584,1.188-1.98,28.111-3.167,30.09c-1.188,1.98-6.731,5.939-9.502,6.335
			c-2.771,0.396-33.258,20.588-34.446,19.004s-5.939-9.502-8.314-12.67C402.936,163.037,404.916,159.87,407.292,158.682z"/>
		<g>
			<path d="M163.262,126.2c1.449-5.56,2.671-12.384,6.382-19.213c0.994-1.738,2.126-3.231,3.534-4.739
				c1.42-1.46,3.159-2.789,5.167-3.626c1.99-0.867,4.155-1.174,6.16-1.153c0.512,0.024,0.964,0.035,1.517,0.098
				c0.615,0.124,1.275,0.189,1.825,0.433c1.15,0.422,2.138,1.046,2.913,1.738c3.088,2.835,4.108,5.729,4.992,8.016
				c0.81,2.325,1.171,4.201,1.372,5.604c0.376,2.807,0.109,3.725-0.154,2.768c-0.284-0.955-1.136-2.276-2.431-4.408
				c-1.352-2.036-2.934-5.304-5.947-8.429c-0.781-0.711-1.612-1.192-2.413-1.402c-0.683-0.189-1.984-0.142-2.875-0.059
				c-1.949,0.194-3.587,0.911-4.892,1.878c-2.582,1.967-4.078,4.733-4.859,6.582c-0.79,1.959-1.097,2.505-1.899,4.039
				c-0.739,1.56-2.032,4.167-3.505,10.86c-1.411,6.699-2.49,10.712-3.41,12.498c-0.896,1.791-1.529,1.371-1.467-0.636
				c0.059-2.002,0.021-4.702,0.009-6.915C163.271,127.914,163.262,126.2,163.262,126.2z"/>
			<path d="M206.704,109.916c6.051-2.126,13.974-6.872,21.43-9.121c7.485-2.226,10.996-0.943,9.854-0.719
				c-1.118,0.322-2.827,2.566-8.08,4.46c-5.276,1.943-9.236,4.21-11.469,5.683c-2.245,1.491-1.55,0.192-8.858,3.432
				c-7.376,3.209-9.674,1.547-7.722,0.296C203.8,112.685,206.704,109.916,206.704,109.916z"/>
			<path d="M236.826,90.245c1.224-4.995,3.236-11.043,7.474-16.345c2.18-2.57,5.117-5.117,9.213-5.754
				c1.006-0.146,2.047-0.117,3.052,0.033c0.955,0.214,1.89,0.411,2.783,0.849c1.795,0.788,3.306,2.095,4.365,3.5
				c2.035,2.875,2.635,5.488,3.082,7.53c0.417,2.066,0.571,3.66,0.668,4.855c0.201,2.362,0.074,3.184-0.231,2.385
				c-0.299-0.794-1.124-1.893-2.171-3.836c-1.103-1.878-2.159-4.827-4.277-7.95c-2.124-3.119-5.859-3.656-8.16-2.49
				c-2.458,1.142-4.037,3.21-4.948,4.691c-0.884,1.564-1.266,1.976-2.162,3.125c-0.805,1.193-2.416,3.144-3.848,8.713
				c-1.307,5.581-1.804,9.09-2.52,10.697c-0.66,1.619-1.34,1.355-1.538-0.398c-0.183-1.743-0.479-4.106-0.615-6.078
				C236.838,91.805,236.826,90.245,236.826,90.245z"/>
			<path d="M284.064,81.014c-9.056,1.717-14.678,5.783-14.412,7.446c0.299,1.59,4.75,0.284,17.369-1.872
				c3.105-0.491,6.376-0.969,8.618-0.827l0.748,0.05l0.447,0.133l0.112,0.022c0.101-0.275,0.098,0.654-0.192,1.641
				c-0.642,2.066-1.982,4.355-3.454,6.396c-0.728,1.039-1.547,2.035-2.354,2.916c-0.79,0.843-1.934,1.819-2.895,2.737
				c-4.061,3.706-8.518,7.342-13.829,11.076c-5.3,3.753-11.49,7.522-18.751,11.932c-7.27,4.401-14.288,9.007-20.75,13.996
				c-6.421,4.908-12.765,9.649-18.555,14.589c-5.797,4.889-11.162,10.067-15.53,15.404c-4.389,5.069-9.02,9.798-12.345,15.071
				c-3.286,5.122-4.395,9.525-4.614,12.007c-0.169,2.529,0.518,3.253,1.816,1.965c1.301-1.282,3.108-4.633,6.364-9.67
				c1.665-2.509,3.756-5.381,6.527-8.747c1.399-1.724,2.904-3.577,4.519-5.564c1.547-2.03,3.197-4.198,4.957-6.508
				c3.771-4.775,7.246-8.207,10.416-11.191c3.194-2.971,6.175-5.454,9.479-8.077c6.77-5.13,14.078-11.576,29.196-20.844
				c12.078-7.434,23.962-14.016,34.088-22.103c1.26-1.031,2.523-1.909,3.83-3.194c1.23-1.198,2.304-2.443,3.318-3.756
				c1.023-1.3,1.94-2.691,2.771-4.191c0.805-1.507,1.559-3.154,1.748-5.366c0.035-0.561,0.071-1.113-0.127-1.835
				c-0.133-0.689-0.358-1.332-0.781-1.9c-0.189-0.29-0.385-0.581-0.603-0.844c-0.257-0.225-0.532-0.442-0.813-0.649
				c-0.281-0.209-0.574-0.404-0.866-0.584l-0.793-0.297c-2.195-0.782-3.948-0.618-5.545-0.594
				C289.979,79.957,287.012,80.443,284.064,81.014z"/>
			<path d="M215.911,185.337c9.358-3.29,20.697-6.915,31.911-11.548c5.542-2.302,11.043-5.217,16.642-7.858
				c5.551-2.675,11.04-5.273,16.308-7.67c5.273-2.446,9.582-4.405,11.874-6.986l0.654-0.716l0.287-0.404
				c0.172-0.314-0.006-0.652-0.257-0.816c-0.34-0.327-2.067-0.668-3.132-0.868c-4.72-0.798-6.172-1.567-4.407-1.323
				c0.872,0.106,1.967,0.066,3.386-0.012c0.71-0.037,1.499-0.09,2.402-0.098c0.866,0.012,1.919-0.058,3.268,0.429
				c0.597,0.265,1.298,0.66,1.544,1.402c0.29,0.71,0.169,1.544-0.151,2.359c-0.201,0.399-0.405,0.807-0.612,1.226
				c-0.213,0.308-0.429,0.621-0.648,0.943c-0.441,0.648-1.006,1.269-1.609,1.862c-2.437,2.385-5.835,4.269-9.724,6.175
				c-7.811,3.775-14.832,7.243-20.759,10.279c-5.877,3.04-10.91,5.656-14.657,7.332c-7.471,3.376-4.593,1.35-27.475,9.39
				c-11.392,4.065-17.982,6.679-21.17,7.723c-3.188,1.04-3.073,0.191-0.098-1.71c2.978-1.844,7.051-4.194,10.425-5.993
				C213.303,186.695,215.911,185.337,215.911,185.337z"/>
			<path d="M278.347,119.75c-2.064,6.125-1.082,15.907,0.343,23.344c0.692,3.775,1.369,6.259,1.777,7.84
				c0.521,1.452,0.553,2.234,0.172,1.754c-0.34-0.478-1.381-0.796-2.511-1.999c-1.21-1.14-2.496-3.111-3.336-6.18
				c-1.535-6.137-2.168-11.116-2.626-14.088c-0.266-1.485-0.071-1.919,0.124-3.076c0.24-1.159,0.473-3.042,1.316-7.471
				c0.991-4.45,2.972-6.885,4.365-7.416c1.257-0.606,1.541,0.139,1.059,1.156c-0.281,0.49-0.464,1.15-0.571,1.853
				c-0.157,0.661-0.207,1.368-0.201,2.024C278.196,118.748,278.347,119.75,278.347,119.75z"/>
			<path d="M150.775,148.435c-4.309,4.12-9.068,9.448-12.676,15.689c-3.502,6.588-7.826,13.292-11.259,19.203
				c-3.484,5.953-5.489,10.277-6.693,12.914c-1.159,2.638-1.748,3.463-1.544,2.419c0.21-1.035,0.056-2.684,0.435-5.39
				c0.361-2.696,1.313-6.474,3.833-11.259c2.532-4.765,5.01-8.88,6.95-12.442c1.979-3.549,3.286-6.512,4.492-8.896
				c1.183-2.308,1.721-2.853,3.046-4.376c1.349-1.493,3.466-4.047,8.645-9.498c10.431-10.656,13.891-11.157,11.354-7.759
				C154.753,142.452,150.775,148.435,150.775,148.435z"/>
			<path d="M106.173,192.712c-3.685,9.726-8.24,10.527-11.954,13.578c-1.846,1.526-8.819,7.728-16.154,14.416
				c-3.661,3.4-7.382,6.753-10.842,9.621c-3.437,2.926-6.37,5.424-8.228,7.003c-0.941,0.763-2.588,2.152-4.442,4.211
				c-1.857,2.035-3.987,4.769-5.389,8.322c-1.452,3.546-1.893,7.795-0.979,11.783c0.994,3.846,2.759,6.771,4.259,8.917
				c1.485,2.265,8.689,10.329,18.564,15.029c9.18,4.345,18.762,7.317,20.697,7.956c5.332,1.841,9.562,2.873,10.851,3.167
				c4.129,1.05,17.656,2.83,22.202,4.296c4.611,1.406,14.412,3.859,11.948-0.518c-2.561-4.513-12.844-4.373-16.843-4.96
				c-1.011-0.123-3.839-0.467-8.018-0.976c-4.164-0.574-9.665-1.46-15.846-3.361c-2.239-0.624-11.744-4.602-20.407-9.783
				c-8.68-4.794-14.501-12.723-15.604-14.095c-1.071-1.273-2.913-3.401-4.315-6.054c-1.414-2.54-1.878-5.841-1.263-9.173
				c0.627-3.308,2.322-6.409,3.777-8.612c1.455-2.225,2.617-3.667,2.759-3.9c0.408-0.753,2.121-2.546,4.637-4.732
				c2.514-2.196,5.856-4.72,9.224-7.415c6.586-5.428,13.442-10.697,15.027-12.529c3.159-3.707,18.523-7.428,21.746-10.923
				c3.227-3.546,4.04-8.024,3.188-10.258c-0.861-2.227-4.025-7.485-4.732-5.007C109.335,191.186,106.173,192.712,106.173,192.712z"
				/>
			<path d="M112.949,255.844c3.889,3.755,9.431,7.438,15.524,10.595c6.045,3.175,12.685,5.68,18.792,7.727
				c6.158,2.004,10.484,3.411,13.069,4.253c2.588,0.883,3.372,1.42,2.387,1.301c-1.916-0.296-6.228,1.281-15.982-1.412
				c-9.662-2.792-17.118-5.982-21.483-7.892c-2.18-0.954-2.706-1.406-4.209-2.517c-1.467-1.162-4.025-2.81-9.576-7.295
				c-5.51-4.605-7.687-8.518-8.32-10.413c-0.621-1.937,0.166-2.017,1.485-0.583c1.352,1.43,3.392,3.083,5.143,4.266
				C111.523,255.069,112.949,255.844,112.949,255.844z"/>
			<path d="M112.396,258.155c1.659-3.227,4.646-5.837,7.621-7.987c2.993-2.146,6.063-3.851,8.133-4.807
				c4.138-1.887,9.71-4.492,12.841-5.423c0.766-0.21,2.384-0.923,4.572-1.544c2.165-0.634,4.847-1.131,7.539-1.409
				c5.398-0.534,10.754-0.623,12.552-0.778c1.783-0.083,5.031-0.447,8.003-0.883c2.975-0.414,5.504-1.365,6.317-1.872
				c1.618-1.048,0.618-0.396,3.895-2.431c3.173-2.251,3.895-2.703,4.827-3.453c0.89-0.839,3.877-3.647,3.877-3.647
				s1.458-1.449,3.1-2.891c1.638-1.461,3.502-2.934,4.158-3.197c3.135-1.211,2.236-1.838,3.969-2.968
				c1.754-1.109,3.389-1.556,6.912-3.744c3.534-2.174,8.657-4.276,12.424-5.156c3.706-0.969,5.885-0.821,8.837-0.865
				c2.032,0.098-1.094-0.052,2.966,0.142c2.958,0.312,4.232,0.918,4.555,1.375c0.325,0.433-0.272,0.705-1.091,0.665
				c-0.819-0.049-2.132-0.16-3.49-0.349c-1.366-0.047-2.792-0.192-3.806,0.007c-2.044,0.204-6.004,0.868-9.186,1.411
				c-3.188,0.562-4.732,1.208-6.122,2.078c-1.42,0.844-4.785,3.119-6.512,4.142c-1.748,0.994-3.029,1.877-4.132,2.51
				c-4.868,2.864-6.613,3.936-7.775,5.096c-1.136,1.188-0.671,0.47-3.374,2.921c-2.641,2.509-3.647,3.831-5.557,5.396
				c-1.917,1.556-2.798,2.499-4.232,3.392c-1.414,0.886-2.883,1.9-4.534,2.441c-1.621,0.631-5.368,1.514-7.391,1.925
				c-1.97,0.521-8.636,0.985-10.242,0.691c-1.624-0.206-2.455-0.467-5.652,0.192c-3.165,0.711-2.736,0.942-5.057,1.205
				c-2.289,0.322-3.129-0.004-4.637,0.361c-1.467,0.33-4.486,1.257-5.844,2.362c-1.316,1.09-2.706,1.924-4.892,2.889
				c-2.186,0.963-3.363,1.245-4.43,1.775c-1.083,0.523-2.475,2.135-3.815,2.903c-1.349,0.791-3.241,2.841-5.063,4
				c-1.538,0.914-3.718,2.212-6.122,3.644c-1.041,0.497-2.384,1.529-3.413,2.183C112.135,261.114,111.423,260.746,112.396,258.155z"
				/>
			<path d="M245.341,209.481c2.298,0.853,3.567,0.918,6.255,1.986c2.6,1.258,3.138,2.678,6.03,4.837
				c1.5,1.013,2.635,1.866,3.519,2.314c0.867,0.473,1.387,0.66,1.387,0.66l-2.458-3.428c0,0-0.449-0.432-1.147-0.97
				c-0.698-0.541-1.627-1.211-2.546-1.712c-0.926-0.486-1.641-1.091-2.49-1.81c-0.834-0.733-1.881-1.467-3.528-1.955
				c-1.609-0.562-2.99-0.8-4.167-1.084c-1.162-0.324-2.174-0.555-3.135-0.967C241.112,206.536,240.79,207.935,245.341,209.481z"/>
			<path d="M264.225,218.673c1.13,1.82-0.083,2.452,1.659,4.148c1.763,1.68,3.833,4.179,5.149,5.192
				c1.216,1.103,4.463,4.781,4.463,4.781s1.316-0.43-1.201-3.182c-2.508-2.742-1.973-2.116-3.827-3.78
				c-0.923-0.831-1.766-1.863-2.384-2.693c-0.612-0.799-1.071-1.394-1.071-1.394L264.225,218.673z"/>
			<path d="M165.388,392.745c-9.434-0.537-19.242-3.339-28.161-7.86c-9.068-4.324-17.038-10.261-23.429-16.883
				c-12.933-13.108-18.57-28.751-19.203-36.111c-0.674-7.886-0.728-18.116-0.355-25.772c0.177-3.846,0.512-7.005,0.757-9.059
				c0.083-0.481,0.127-0.948,0.142-1.389c0.05-0.367,0.089-0.683,0.08-1.017c-0.018-0.655-0.151-1.241-0.662-1.514
				c-0.414-0.222-1.136-0.075-2.147,0.563c-0.766,0.642-1.801,1.755-2.484,3.128c-1.517,2.77-2.505,6.601-3.031,10.718
				c-1.08,8.253-0.302,17.73,1.1,23.663c0.387,1.479,0.787,3.919,1.958,7.133c1.165,2.966,2.591,6.623,4.714,10.521
				c4.111,7.843,10.623,16.806,19.123,24.365c8.391,7.725,18.863,13.565,28.785,17.476c5.001,1.909,9.922,3.252,14.459,4.096
				c4.543,0.849,8.701,1.054,12.176,1.109c6.974,0.073,14.261-1.304,21.158-3.791c6.971-2.427,13.27-6.314,19.321-9.803
				c6.019-3.661,11.809-7.278,16.843-11.253c2.481-2.036,4.871-4.052,6.776-6.433c1.952-2.319,3.366-4.918,4.466-7.142
				c2.109-4.399,4.226-7.778,6.098-10.465c1.757-2.696,2.895-4.631,2.765-5.548c-0.098-0.889-1.349-0.639-4.04,1.358
				c-0.686,0.473-1.39,1.171-2.206,1.955c-0.828,0.771-1.709,1.711-2.603,2.885c-1.863,2.206-3.685,5.644-5.149,9.116
				c-1.473,3.391-3.354,5.918-5.743,8.238c-1.118,1.174-2.399,2.196-3.546,3.261c-1.254,0.988-2.478,1.951-3.676,2.895
				c-4.963,3.632-9.76,6.773-14.844,9.801c-5.087,3.11-10.23,6.078-16.612,8.336C181.885,391.622,174.367,393.097,165.388,392.745z"
				/>
			<path d="M286.832,162.587c-5.622,5.465-10.963,15.389-12.927,23.919c-1.032,4.268-1.298,7.383-1.523,9.304
				c-0.195,1.918-0.541,2.638-0.66,1.936c-0.077-0.699-0.828-1.628-1.417-3.404c-0.559-1.752-1.207-4.432-0.523-8.108
				c1.363-7.305,3.827-12.732,5.167-15.934c0.698-1.597,1.082-1.946,1.943-2.997c0.935-0.998,2.271-2.758,5.572-6.652
				c3.345-3.874,6.021-5.495,7.447-5.959c1.432-0.467,1.698,0.22,0.822,1.341c-0.896,1.105-1.89,2.761-2.653,4.105
				C287.376,161.517,286.832,162.587,286.832,162.587z"/>
			<path d="M286.234,170.226c8.867,4.473,17.851,13.747,24.482,21.869c6.536,8.206,7.953,12.513,6.915,11.352
				c-1.041-1.171-4.513-2.317-9.671-8.245c-5.152-5.922-9.751-10.165-12.661-12.269c-1.44-1.081-1.745-1.477-2.68-2.517
				c-0.458-0.532-1.088-1.205-2.15-2.098c-0.523-0.461-1.145-1.001-1.94-1.525c-0.778-0.566-1.701-1.183-2.833-1.74
				c-1.103-0.67-2.159-0.958-3.058-1.433c-0.932-0.26-1.745-0.624-2.475-0.809c-0.733-0.151-1.372-0.337-1.922-0.51
				c-0.547-0.077-1.006-0.18-1.378-0.297c-1.499-0.47-1.496-1.153,0.145-1.57c0.408-0.104,0.849-0.217,1.313-0.337
				c0.476-0.056,0.973-0.114,1.476-0.173c1.038-0.186,2.073-0.112,3.04-0.092c0.988-0.019,1.798,0.164,2.413,0.245
				C285.862,170.17,286.234,170.226,286.234,170.226z"/>
			<path d="M379.842,208.303c0.825-2.28,1.307-5.174,1.221-8.152c-0.05-2.983-0.586-6.048-1.059-8.917
				c-0.994-5.735-0.458-8.475-0.154-7.611c0.228,0.87,2.248,2.129,3.303,6.595c1.056,4.447,1.641,8.173,1.937,10.418
				c0.118,1.121,0.033,1.446-0.189,2.302c-0.254,0.85-0.488,2.268-1.281,5.452c-0.837,3.181-2.041,4.788-2.804,5.417
				c-0.781,0.627-1.23,0.268-1.082-0.627C380.105,211.381,379.842,208.303,379.842,208.303z"/>
			<path d="M371.83,199.864c0.399-5.591-3.114-13.239-6.651-18.782c-3.54-5.55-5.329-7.908-4.421-7.4
				c0.731,0.643,3.605,0.764,6.918,5.208c3.114,4.457,5.122,8.339,6.279,10.681c0.589,1.167,0.577,1.572,0.739,2.577
				c0.077,1.032,0.461,2.648,0.739,6.557c0.189,3.96-0.961,6.282-1.754,7.097c-0.775,0.852-1.222,0.438-1.118-0.58
				c0.166-1.016-0.012-2.415-0.213-3.484C372.07,200.648,371.83,199.864,371.83,199.864z"/>
			<path d="M361.151,208.092c-0.169-2.749-0.97-5.992-2.31-9.155c-1.322-3.176-3.082-6.311-4.626-9.273
				c-3.123-5.921-3.404-9.003-2.839-8.139c0.526,0.875,2.878,1.779,5.507,6.177c2.629,4.395,4.708,8.031,5.894,10.245
				c0.571,1.114,0.63,1.476,0.778,2.45c0.171,0.97,0.449,2.536,1.091,6.178c0.547,3.664,0.038,5.873-0.42,6.857
				c-0.476,0.991-1.032,0.807-1.239-0.191C362.65,211.202,361.151,208.092,361.151,208.092z"/>
			<path d="M349.344,217.136c-0.387-5.355-2.336-12.626-3.862-18.529c-1.535-5.859-1.786-8.589-1.272-7.815
				c0.393,0.815,2.745,1.854,4.312,6.502c1.47,4.609,2.57,8.302,3.357,10.44c0.748,2.144-0.056,1.332,0.949,7.938
				c0.94,6.604-0.736,8.087-1.343,6.261C350.871,220.1,349.344,217.136,349.344,217.136z"/>
			<path d="M300.7,284.091c5.377-5.034,8.266-6.039,9.535-3.815c0.683,1.051,1.567,2.785,2.712,3.842
				c1.133,1.062,2.354,1.726,3.218,1.02c0.447-0.383,2.286-0.061,4.889,0.447c2.629,0.371,6.078,0.957,9.698,0.83
				c7.275,0.182,14.782-2.367,16.716-3.244c0.932-0.51,4.611-1.896,8.719-5.082c4.034-3.064,8.222-8.532,11.62-14.356
				c3.401-5.826,5.835-12.169,7.151-17.257c1.346-5.093,1.707-8.883,1.535-9.775c-0.766-3.608-1.103-7.202-0.337-10.813
				c0.719-3.614,5.915-2.963,4.566-0.382c-0.654,1.263-0.801,4.476-0.985,7.681c-0.168,3.203-0.423,6.399-0.639,7.53
				c-0.13,0.556-0.819,4.206-2.449,9.204c-1.585,5.007-4.321,11.283-7.888,17.053c-1.825,2.857-3.78,5.622-5.82,8.064
				c-2.076,2.427-4.291,4.476-6.427,5.942c-4.208,3.034-7.595,4.33-7.967,4.562c-0.784,0.368-7.376,3.309-14.583,4.061
				c-1.777,0.316-3.59,0.248-5.303,0.374c-1.71-0.007-3.333-0.118-4.771-0.166c-2.86-0.349-4.951-0.605-5.545-0.679
				c-1.221,0.024-2.319,0.044-3.416,0.065c-1.085-0.08-2.191-0.169-3.448-0.319c-1.281-0.112-2.035-1.077-2.884-1.82
				c-0.852-0.763-1.86-1.196-3.679-0.844c-1.825,0.33-2.934-0.238-3.522-0.846C300.797,284.753,300.7,284.091,300.7,284.091z"/>
			<path d="M300.54,264.333c0.689,4.439,1.059,9.772,0.518,15.262c-0.509,5.476-1.881,11.107-4.208,15.808
				c-2.313,4.723-5.14,7.357-6.894,8.618c-1.842,1.223-2.555,1.315-2.049,0.775c1.014-1.176,1.94-4.268,4.995-10.623
				c2.916-6.588,3.375-12.491,3.241-15.789c-0.107-1.667,0.027-2.118,0.287-3.407c0.118-1.275,0.603-3.453-0.142-8.342
				c-0.819-4.846-1.579-7.65-1.627-9.177c-0.033-1.533,0.648-1.695,1.517-0.41c0.932,1.241,2.011,3.02,2.925,4.528
				C299.913,263.131,300.54,264.333,300.54,264.333z"/>
			<path d="M271.826,311.534c1.745-0.991,3.425-2.171,5.353-3.046c0.944-0.47,1.896-0.945,2.86-1.426
				c1.009-0.398,2.026-0.8,3.052-1.205c4.132-1.525,8.68-2.759,13.557-2.721c4.812-0.016,9.99,0.983,14.43,3.695
				c4.164,2.611,8.228,5.492,11.694,9.232c3.484,3.654,6.583,7.852,8.757,12.473c2.239,4.587,3.818,9.414,5.025,14.212
				c2.322,9.625,3.449,19.067,5.247,27.811c0.89,4.47,1.772,8.152,3.517,11.216c1.665,3.074,3.957,5.386,6.329,7.166
				c4.821,3.524,9.627,5.192,13.028,6.592c6.974,2.62,9.074,3.647,6.447,2.907c-2.608-0.815-6.684-1.257-13.255-3.296
				c-3.224-1.118-7.272-2.573-11.203-6.025c-4.052-3.264-7.216-9.136-8.482-15.91c-2.99-13.395-4.303-25.606-7.692-35.206
				c-3.159-9.701-8.521-16.211-13.01-20.161c-1.121-1.004-2.153-1.715-2.978-2.415c-0.825-0.699-1.559-1.272-2.31-1.761
				c-0.725-0.525-1.417-1.026-2.168-1.57c-0.742-0.609-1.559-1.099-2.541-1.604c-0.97-0.559-2.091-1.238-3.644-1.638
				c-1.479-0.636-3.369-0.855-5.661-1.179c-4.611-0.318-11.194,0.702-19.321,5.014c-8.092,4.371-13.643,9.446-17.707,13.431
				c-4.064,4.041-6.548,7.267-8.163,9.276c-3.105,4.12-3.342,3.095-0.722-1.788c2.721-4.79,7.231-10.674,11.499-14.963
				C268.04,314.382,271.826,311.534,271.826,311.534z"/>
			<path d="M248.991,350.595c1.411-1.06,2.724-1.504,4.108-1.394c0.642,0.016,1.201,0.16,1.751,0.442
				c0.547,0.271,0.92,0.466,1.366,0.843c1.579,1.306,2.724,2.532,5.773,3.419c1.508,0.466,3.567,1.248,5.817,2.353
				c1.121,0.55,2.304,1.167,3.44,1.844c1.177,0.683,2.011,1.289,3.179,2.215c2.15,1.727,3.984,3.531,5.309,5.393
				c1.349,1.84,2.366,3.842,3.194,5.418c0.801,1.539,2.425,4.614,4.631,8.235c2.191,3.635,4.901,8.015,8.033,12.461
				c3.117,4.45,6.645,8.964,10.254,12.921c3.605,3.962,7.261,7.373,10.307,9.922c3.07,2.514,6.897,5.275,11.342,7.522
				c4.413,2.27,9.437,4.078,14.113,5.488c9.455,2.952,18.615,4.958,24.118,6.189c7.787,1.782,11.83,0.405,11.67-0.623
				c-0.133-1.142-3.886-1.983-11.194-2.397c-6.125-0.266-17.366-2.817-27.389-6.4c-5.043-1.777-9.698-4.067-13.208-6.314
				c-3.502-2.277-5.933-4.355-7.003-5.343c-1.02-1.044-4.04-3.595-7.503-7.413c-3.499-3.783-7.408-8.828-10.854-14.129
				c-6.941-10.617-12.226-21.893-12.992-24.012c-0.382-1.047-1.171-2.761-2.47-4.733c-1.307-1.965-3.167-4.109-5.276-5.956
				c-2.011-1.859-4.516-3.681-6.722-4.961c-2.224-1.309-4.22-2.483-5.764-3.392c-1.52-0.904-3.215-1.737-5.078-2.31
				c-1.819-0.603-3.868-0.955-6.042-0.725c-0.565,0.089-1.091,0.161-1.624,0.303c-0.577,0.214-1.127,0.456-1.627,0.704
				c-1.003,0.483-1.816,1.414-2.413,2.035C249.328,349.638,248.991,350.595,248.991,350.595z"/>
			<path d="M275.93,382.074c0.568,12.717-3.176,27.326-7.151,41.846c-1.047,3.617-1.718,7.317-3.091,11.176
				c-1.272,3.647-2.52,7.171-3.552,10.724c-2.038,7.055-3.309,14.277-2.147,20.632c1.106,6.37,4.945,10.57,8.914,12.926
				c3.942,2.464,7.749,3.484,10.499,4.244c5.602,1.357,7.429,1.773,5.288,1.635c-2.115-0.251-5.365,0.129-10.724-0.93
				c-2.647-0.591-5.891-1.516-9.328-3.784c-3.413-2.199-6.918-6.206-8.331-11.793c-1.452-5.548-1.062-10.94-0.302-15.753
				c0.787-4.84,2.038-9.214,3.274-13.168c1.216-3.967,2.567-7.475,3.197-10.538c0.748-3.27,1.408-6.147,1.967-8.591
				c1.1-4.866,1.582-6.199,2.721-9.917c0.565-1.859,1.275-4.314,2.174-8.112c0.787-3.8,1.928-8.973,2.097-16.222
				c0.148-7.246-0.943-12.906-2.218-17.142c-0.565-2.153-1.304-3.898-1.896-5.389c-0.515-1.53-1.147-2.662-1.541-3.599
				c-1.627-3.737-0.739-3.617,1.792-0.058c2.422,3.567,5.267,8.788,6.512,13.466c0.748,2.295,1.106,4.407,1.482,5.908
				C275.794,381.153,275.93,382.074,275.93,382.074z"/>
			<path d="M205.09,390.401c1.709,0.311,3.171,0.565,4.362,0.834c1.071,0.389,1.934,0.727,2.703,1.139
				c1.627,0.779,2.523,2.051,4.084,4.878c1.319,2.907,3.573,8.098,4.8,13.352c1.21,5.236,1.922,10.407,1.869,12.954
				c0.086,2.549,0.423,10.956-0.098,19.242c-0.379,8.281-1.68,16.498-2.067,18.714c-0.719,4.541,0.955,10.37-0.627,13.705
				c-0.849,1.711-1.118,5.414-0.319,8.818c0.704,3.468,2.721,6.202,3.951,7.21c1.213,0.989,2.212,2.585,3.395,4.081
				c1.124,1.531,2.469,2.912,3.658,3.539c2.413,1.214,5.001,2.123,6.37,2.897c1.319,0.775,4.614,4.146,7.169,3.769
				c1.275-0.188,2.81,0.759,4.022,1.788c1.21,1.035,2.067,2.121,2.067,2.121s-2.384,1.488-4.785,0.76
				c-2.416-0.742-5.119-2.68-5.119-2.68s-3.783-2.508-5.072-2.693c-1.298-0.135-4.738-0.991-5.811-3.077
				c-0.55-0.997-2.28-2.209-3.996-3.54c-1.698-1.332-3.363-2.83-3.939-3.709c-0.606-0.85-1.73-2.748-2.458-4.711
				c-0.775-1.94-1.139-3.874-1.292-4.47c-0.148-0.59-1.15-3.237-1.618-6.332c-0.526-3.077-0.612-6.486-0.432-8.146
				c0.243-3.274,1.077-14.409,1.201-16.044c0.121-0.79,0.902-4.876,1.52-9.282c0.568-4.402,0.991-9.114,0.905-10.953
				c-0.029-1.84-0.402-6.027-1.077-10.095c-0.299-2.041-0.68-4.044-1.062-5.727c-0.316-1.698-0.66-3.061-0.837-3.843
				c-0.313-1.576-1.047-3.267-1.919-4.803c-0.784-1.584-1.677-3-2.174-4.232c-0.455-1.264-1.189-1.788-2.011-2.641
				c-0.396-0.441-0.79-0.983-1.156-1.789c-0.396-0.784-0.902-1.671-1.363-3.092c-0.532-1.332-1.059-2.36-1.372-3.419
				c-0.373-0.973-0.751-1.678-0.961-2.372C205.14,391.206,205.09,390.401,205.09,390.401z"/>
			<path d="M251.753,499.785c6.03,3.366,15.675,5.826,23.589,6.736c7.879,0.893,11.247,0.34,10.118,0.85
				c-1.124,0.235-3.437,2.418-9.919,2.066c-6.359-0.51-11.324-1.582-14.264-2.143c-2.895-0.707-1.63-0.55-9.783-4.092
				c-4.037-1.906-6.092-3.738-6.829-4.793c-0.751-1.04-0.278-1.298,0.828-0.745C247.698,498.835,251.753,499.785,251.753,499.785z"
				/>
			<path d="M265.219,490.081c3.085,2.225,7.021,4.84,11.256,5.879c0.973,0.198,2.242,0.352,3.457,0.521
				c1.207,0.177,2.416,0.355,3.614,0.531c2.387,0.355,4.667,0.701,6.799,0.804c4.253,0.207,7.414-0.235,9.307-0.235
				c1.893-0.075,2.529,0.105,1.863,0.262c-0.665,0.154-1.579,0.713-3.2,1.374c-1.618,0.623-3.978,1.466-7.548,1.494
				c-3.567-0.022-6.645-0.543-9.248-0.803c-2.594-0.319-4.708-0.346-6.548-0.714c-1.73-0.348-2.153-0.648-3.324-1.284
				c-1.142-0.676-3.034-1.736-7.068-4.405c-7.876-5.392-8.719-7.38-6.19-6.36C260.927,488.287,265.219,490.081,265.219,490.081z"/>
			<path d="M359.193,405.573c-1.982-1.564-5.915,0.772-1.89,3.957c2.109,1.531,4.572,1.902,7.145,2.092
				c2.611,0.142,5.415-0.096,8.893-0.172c6.974-0.182,13.968-1.366,18.026-2.252c3.945-0.972,1.952-6.221-5.072-2.384
				c-3.88,1.882-6.104,1.539-13.019,2.208c-2.774,0.194-5.625-0.034-8.083-0.732C362.73,407.609,360.669,406.574,359.193,405.573z"
				/>
			<path d="M357.353,415.253c-3.12-1.14-5.489,2.409-0.926,4.299c4.691,1.871,9.387,1.346,16.775,2.452
				c3.724,0.516,7.533,0.831,11.017,0.628c3.484-0.18,6.601-0.932,8.819-1.8c2.162-0.988,2.31-2.685,1.141-3.372
				c-1.23-0.73-3.111-0.413-6.699,1.497c-1.993,0.983-3.679,1.21-5.708,1.21c-2.041,0.006-4.451-0.226-8.24-0.569
				C367.441,419.024,361.384,416.707,357.353,415.253z"/>
			<path d="M151.801,306.461c1.254,1.301,2.632,2.733,4.093,4.247c0.716,0.742,1.449,1.486,2.189,2.181
				c0.379,0.355,0.716,0.642,1.056,0.89l1.254,0.821c3.457,2.091,7.636,3.16,11.466,3.543c3.842,0.389,6.619,0.186,8.316,0.139
				c1.686-0.099,2.327,0.043,1.736,0.251c-0.586,0.206-1.334,0.868-2.81,1.584c-1.464,0.695-3.715,1.47-6.992,1.337
				c-6.551-0.247-11.573-2.331-14.397-3.8c-2.887-1.604-1.499-1.618-7.521-7.673c-3.049-3.024-4.75-4.441-5.533-4.875
				c-0.379-0.189-0.763-0.343-0.81-0.561c-0.062-0.146,0.311-0.655,1.083-0.649c1.544-0.046,3.253,0.744,4.572,1.368
				C150.831,305.908,151.801,306.461,151.801,306.461z"/>
			<path d="M171.871,308.285c3.759,2.659,10.824,3.15,16.45,3.707c5.693,0.562,8.145,1.684,7.267,1.782
				c-0.869,0.027-2.588,1.662-7.11,1.527c-4.528-0.225-8.151-0.404-10.316-0.51c-1.097-0.047-1.384-0.25-2.174-0.587
				c-0.778-0.399-2.097-0.837-5.099-2.302c-3.014-1.57-4.17-3.582-4.288-4.583c-0.174-0.998,0.414-1.143,1.082-0.627
				c0.642,0.565,1.739,1.009,2.6,1.266C171.2,308.18,171.871,308.285,171.871,308.285z"/>
			<path d="M181.474,300.688c1.842,0.895,4.087,1.872,6.184,2.286c2.138,0.424,4.584,0.355,6.971,0.637
				c2.395,0.269,4.149,0.995,5.034,1.643c0.896,0.658,1.044,1.094,0.707,0.995c-0.745-0.206-2.295,0.803-5.655,0.665
				c-3.437-0.086-6.453,0.053-8.343-0.105c-1.86-0.177-1.032-0.609-5.584-2.456c-2.212-0.899-3.348-1.644-3.892-2.273
				c-0.529-0.622-0.352-1.146,0.408-1.179C178.78,300.827,181.474,300.688,181.474,300.688z"/>
			<path d="M169.023,274.479c2.041-0.101,4.38-0.402,6.687-0.756c1-0.172,2.591-0.442,3.945-0.379
				c1.375,0.047,2.697,0.203,4.137,0.768c0.674,0.271,1.52,0.686,2.298,1.635c0.447,0.606,0.71,1.307,0.642,2.146
				c-0.05,0.772-0.367,1.118-0.618,1.572c-1.038,1.059-1.792,1.119-2.366,1.25c-1.145,0.123-1.585-0.142-1.301-0.322
				c0.26-0.198,0.553-0.825,0.807-1.678l0.142-0.612l0.015-0.256c-0.003-0.044-0.257-0.074,0.189-0.006l0.127,0.03l-0.521,0.382
				c-0.05,0.021-0.248-0.073-0.526-0.169c-1.207-0.417-2.753-0.382-3.863-0.214c-0.618,0.101-0.955,0.223-1.514,0.402
				c-0.529,0.174-0.991,0.336-1.378,0.491c-1.517,0.637-1.02-0.413-5.548,0.142c-2.218,0.312-3.534,0.118-4.324-0.287
				c-0.781-0.405-0.949-1.072-0.343-1.514C166.882,276.177,169.023,274.479,169.023,274.479z"/>
			<path d="M180.72,286.26c6.217,1.591,14.406,5.034,19.934,9.721c5.483,4.707,6.146,8.115,5.406,7.366
				c-0.807-0.688-3.508-0.768-7.574-3.845c-4.129-3.054-7.929-4.677-10.209-5.264c-1.145-0.288-1.393-0.513-2.15-1.054
				c-0.772-0.46-2.047-1.377-5.374-2.217c-3.307-0.784-5.264-1.279-6.261-1.893c-0.991-0.618-0.911-1.303,0.172-1.547
				c1.074-0.293,2.543-0.618,3.809-0.899C179.735,286.421,180.72,286.26,180.72,286.26z"/>
			<path d="M282.109,230.068c-24.74,13.888-54.808,30.708-65.645,36.008c-10.833,5.298-26.478,14.335-24.145,16.148
				c1.908,1.485,17.913-7.449,24.952-12.178c7.048-4.735,50.816-30.267,68.25-39.747c4.356-2.388,8.908-4.884,13.489-7.395
				c4.563-2.569,9.071-5.284,13.418-7.922c8.68-5.301,16.799-10.18,23.193-13.477c6.365-3.327,10.931-6.277,11.292-7.382
				c0.417-1.017-3.732-0.445-13.758,5.365c-9.931,5.891-16.677,10.434-24.015,14.971
				C301.877,219.091,293.891,223.471,282.109,230.068z"/>
			<path d="M284.51,237.571c-24.737,13.885-54.811,30.73-65.482,36.33c-10.674,5.599-26.384,14.542-24.692,15.153
				c1.381,0.501,17.369-8.444,24.568-12.872c7.207-4.435,51.179-29.59,68.549-39.19c4.342-2.41,8.884-4.932,13.451-7.466
				c4.546-2.585,9.041-5.313,13.377-7.966c8.657-5.329,16.769-10.243,23.154-13.602c6.362-3.391,11.144-5.937,11.664-6.648
				c0.574-0.621-3.372,0.296-13.424,5.927c-9.979,5.723-16.763,10.209-24.115,14.725C304.275,226.576,296.281,230.98,284.51,237.571
				z"/>
			<path d="M285.528,246.025c-23.074,13.692-51.242,30.121-61.409,35.273c-10.085,5.31-25.148,13.358-23.515,14.03
				c1.346,0.575,16.68-7.539,23.456-11.789c6.938-4.111,48.104-28.501,64.255-38.07c16.237-9.454,35.517-20.497,47.58-26.938
				c12.078-6.406,17.21-11.376-1.704-0.745C315.384,228.587,307.511,233.104,285.528,246.025z"/>
			<path d="M394.872,172.831c-4.25,2.628-9.426,5.809-11.378,6.684c-1.952,0.877-4.611,2.632-3.851,3.486
				c0.621,0.699,3.374-0.983,4.495-2.007c1.121-1.025,8.529-6.021,11.564-7.766c3.031-1.785,6.572-3.87,8.784-5.173
				c2.221-1.263,2.461-3.287-0.822-0.926C400.379,169.491,398.912,170.334,394.872,172.831z"/>
			<path d="M399.175,178.637c-4.084,2.526-9.062,5.582-10.943,6.415c-1.881,0.833-4.439,2.521-3.685,3.38
				c0.615,0.702,3.265-0.914,4.336-1.908c1.073-0.994,8.189-5.807,11.105-7.481c2.916-1.712,6.323-3.713,8.453-4.964
				c2.135-1.21,2.333-3.207-0.819-0.929C404.472,175.43,403.059,176.237,399.175,178.637z"/>
			<path d="M379.677,173.284c4.043-2.356,9.423-6.267,14.45-8.602c5.025-2.327,7.512-2.181,6.758-1.851
				c-0.742,0.365-1.76,2.021-5.362,3.91c-3.605,1.908-6.279,3.803-7.76,5.016c-1.473,1.238-1.094,0.284-5.894,3.375
				c-4.756,3.141-6.412,2.691-5.223,1.519C377.834,175.487,379.677,173.284,379.677,173.284z"/>
			<path d="M207.337,301.024c1.337-0.151,2.132,0.093,2.958,0.223c0.798,0.132,1.467,0.211,2.05,0.24
				c1.204,0.065,2.064-0.098,2.78-0.413c1.44-0.629,2.339-1.868,4.146-3.067c4.957-3.255,10.558-7.621,16.893-11.265
				c3.188-1.788,10.239-5.742,18.458-10.351c4.09-2.316,8.467-4.797,12.803-7.252c2.165-1.187,4.38-2.348,6.512-3.608
				c2.159-1.245,4.141-2.691,5.948-3.939c7.435-5.106,13.696-8.945,18.535-12.087c4.85-3.136,8.378-5.397,10.975-6.622
				c5.188-2.415,11.454-9.26,23.204-14.926c5.871-2.781,10.124-5.096,12.114-6.583c1.981-1.495,1.632-2.258-1.783-1.451
				c-5.85,1.476-9.993,5.272-16.722,8.327c-3.428,1.467-13.945,8.012-24.423,14.807c-5.217,3.382-10.62,6.529-15.276,9.241
				c-4.682,2.718-8.509,4.939-10.585,6.144c-4.226,2.402-7.139,4.022-10.035,5.948c-2.901,1.9-5.353,3.839-8.905,5.82
				c-6.551,3.652-31.083,19.886-36.312,22.226c-2.632,1.148-5.956,3.123-8.598,4.896c-1.319,0.866-2.475,1.721-3.295,2.36
				C207.923,300.351,207.311,301.074,207.337,301.024z"/>
			<path d="M389.558,191.354c2.339-1.235,4.951-3.051,7.666-4.935c2.94-1.813,5.77-3.321,8.216-4.77
				c2.455-1.414,3.96-2.35,4.859-3.046c0.881-0.692,1.39-1.078,1.278-0.63c-0.127,0.404,0.154,1.221-0.213,2.511
				c-0.331,1.275-1.313,2.953-3.303,4.361c-3.975,2.755-7.196,4.627-8.648,6.149c-1.556,1.547-1.251,0.263-6.625,3.725
				c-5.359,3.451-7.684,2.227-6.385,0.847C387.694,194.187,389.558,191.354,389.558,191.354z"/>
			<path d="M412.419,150.783c1.919-1.6,3.981-3.42,6.152-5.361c0.541-0.485,1.091-0.977,1.644-1.476l1.408-1.244
				c0.538-0.466,1.085-0.963,1.632-1.387c0.541-0.444,1.112-0.775,1.556-0.807l0.627,0.001l0.225,0.04
				c-0.464-0.195-1.372-0.294-2.603,0.831l-0.929,0.773l-0.485,0.411l-0.03,0.025l0.018,0.288c0.541,1.096-1.15-1.693,1.227,2.594
				l-0.361-0.531l-1.174-1.363l0.041-0.041l0.766-0.779l1.632-1.686c1.112-1.119,2.224-2.24,3.327-3.352
				c2.239-2.202,4.51-4.313,6.785-6.215c9.124-7.707,14.604-8.328,12.986-7.417c-1.526,0.982-3.357,4.311-9.792,10.084
				c-3.233,2.909-5.974,5.723-8.234,8.189c-1.133,1.235-2.138,2.385-3.034,3.432l-0.66,0.769l-0.334,0.383l-0.192,0.212
				l-0.154,0.151l-0.322,0.24l-0.142,0.022l-0.337-0.24h0.003l0.107,0.068c-0.033,0.294,0.038,0.106-0.053-0.049l-0.16-0.038
				c-0.343,0.24-0.955,0.717-1.564,1.202c-1.263,1.013-2.934,2.421-5.196,4.475c-9.009,8.216-12.12,8.383-9.979,5.56
				C409.009,155.758,412.419,150.783,412.419,150.783z"/>
			<path d="M453.759,120.733c1.083,0.041,2.28,0.087,3.605,0.319c1.334,0.279,2.694,0.55,4.265,1.705
				c0.76,0.55,1.467,1.452,1.825,2.36c0.382,0.905,0.529,1.785,0.589,2.521c0.13,1.519,0.059,2.728,0.112,3.92
				c0.163,2.322,0.251,5.399-0.157,8.027c-0.379,2.718-0.991,5.118-1.562,7.435c-0.586,2.301-1.399,4.76-3.031,6.362
				c-1.576,1.504-2.949,1.953-3.922,2.323c-1.973,0.655-2.709,0.541-2.103,0.176c0.597-0.379,1.331-1.325,2.44-2.719
				c0.544-0.704,1.103-1.519,1.482-2.496c0.379-0.983,0.639-2.319,1.006-4.028c0.707-3.502,1.34-6.656,1.381-9.219
				c0.098-2.607-0.361-4.602-0.571-6.509c-0.213-1.708-0.068-2.156,0.021-3.159c0.021-0.484,0.041-0.935-0.198-1.273
				c-0.24-0.38-1.576-1.113-3.786-1.158c-2.251-0.062-4.333,0.022-5.986-0.248c-1.659-0.237-2.869-0.76-3.499-1.301
				c-1.233-1.13-0.541-1.562,0.71-1.405c1.334,0.136,3.126-0.328,4.62-0.788C452.555,121.102,453.759,120.733,453.759,120.733z"/>
			<path d="M419.689,172.426c4.143-2.083,8.997-4.807,14.051-7.558c5.072-2.625,9.866-5.786,14.796-8.336
				c4.892-2.539,8.796-3.583,11.12-3.846c2.336-0.26,3.102,0.027,2.325,0.256c-1.603,0.525-4.04,3.048-10.949,6.916
				c-3.487,1.964-6.536,3.978-9.189,5.673c-2.662,1.726-4.904,3.073-6.441,4.146c-3.111,2.178-2.168,0.525-12.058,5.945
				c-9.769,5.531-12.702,4.948-10.221,2.793C415.631,176.308,419.689,172.426,419.689,172.426z"/>
			<path d="M405.983,161.73c2.709,3.147,5.693,7.463,7.057,11.329c1.292,3.786,0.657,5.948,0.34,5.495
				c-0.296-0.482-2.588-0.676-3.96-3.514c-1.337-2.793-2.815-4.735-3.898-5.641c-1.124-0.819,0.133-1.079-2.325-3.967
				c-1.263-1.294-1.854-2.187-2.103-2.997c-0.228-0.81,0.047-1.434,0.757-1.349c0.707,0.043,1.706,0.155,2.585,0.302
				C405.3,161.578,405.983,161.73,405.983,161.73z"/>
			<path d="M218.608,307.216c-2.608,8.274-8.207,17.42-16.654,24.136c-4.194,3.342-8.994,6.212-14.252,7.836
				c-5.214,1.659-10.863,2.215-16.033,1.059c-5.181-1.085-9.115-3.514-11.803-5.899c-2.759-2.367-4.321-4.756-5.409-6.495
				c-1.967-3.633-2.156-4.875-1.372-3.669c0.801,1.207,2.351,2.83,5.087,5.103c2.742,2.212,6.799,5.14,13.374,6.734
				c6.657,1.533,12.98-0.106,17.724-2.224c4.818-2.165,8.234-5.001,10.549-7.172c2.257-2.27,2.954-2.832,4.788-4.556
				c0.908-0.872,2.055-2.073,3.623-4.09c1.47-2.067,3.44-4.949,5.125-9.442c3.262-9.046,2.668-14.949,2.898-17.664
				c0.118-2.767,0.855-2.549,1.635,0.327c0.695,2.849,1.337,6.839,1.215,10.152c-0.021,1.65-0.166,3.119-0.248,4.179
				C218.703,306.58,218.608,307.216,218.608,307.216z"/>
			<path d="M183.704,263.387c7.21-2.15,17.352,0.426,23.4,5.699c3.049,2.608,4.398,5.226,4.945,6.795
				c0.515,1.619,0.373,2.215,0.056,1.764c-0.719-0.929-3.2-1.801-7.231-5.06c-4.214-3.24-8.458-4.34-10.795-4.414
				c-1.183-0.062-1.473-0.166-2.342-0.521c-0.843-0.197-2.395-0.844-5.714-0.148c-3.236,0.79-5.022,1.826-6.231,1.998
				c-1.195,0.191-1.6-0.358-0.858-1.295c0.379-0.445,0.745-1.083,1.245-1.616c0.518-0.546,1.05-1.106,1.529-1.609
				C182.763,264.074,183.704,263.387,183.704,263.387z"/>
			<path d="M349.575,234.227c-1.242,3.267-2.357,7.419-4.277,11.635c-1.825,4.201-4.93,8.491-8.985,10.826
				c-0.97,0.636-1.949,1.048-2.872,1.362c-0.905,0.362-1.748,0.599-2.54,0.693c-0.781,0.13-1.479,0.219-2.091,0.278
				c-0.624-0.006-1.165-0.046-1.621-0.09c-1.828-0.186-2.357-0.555-1.757-0.664c1.177-0.382,3.567-1.89,8.284-4.8
				c2.41-1.473,4.066-3.499,5.17-5.375c1.151-1.851,1.748-3.613,2.118-4.915c0.63-2.688,1.236-1.056,3.833-9.114
				c2.484-8.263,5.371-9.057,4.948-6.573C349.41,229.923,349.575,234.227,349.575,234.227z"/>
			<path d="M412.549,144.423c0.683,1.734,2.703,3.274,3.383,4.558c0.346,0.645,0.189,1.164,0.257,1.74
				c0.044,0.504,0.296,1.005,0.139,0.982c-0.118-0.027-0.349,0.479-0.976,0.722c-0.612,0.272-1.562,0.226-2.212-0.413
				c-1.269-1.254-2.274-2.026-3.103-2.367c-0.787-0.324,0.115-0.643-1.044-2.322c-0.574-0.813-0.441-1.541-0.157-2.155
				c0.287-0.623,0.781-1.097,1.177-1.001C410.801,144.331,412.549,144.423,412.549,144.423z"/>
			<path d="M420.561,132.699c0.657,2.308,3.437,4.731,4.98,6.875c0.784,1.097,1.094,1.971,1.304,2.663
				c0.174,0.603,0.322,1.155,0.103,1.069c-0.189-0.075-0.665,0.282-1.452,0.334c-0.781,0.073-1.831-0.137-2.727-1.013
				c-1.772-1.735-3.227-3.008-4.28-3.684c-1.003-0.713-0.071-0.741-1.777-3.724c-0.819-1.551-0.686-2.845-0.189-3.508
				c0.476-0.631,1.186-0.631,1.517-0.312C418.713,132.102,420.561,132.699,420.561,132.699z"/>
			<path d="M433.317,127.994c0.633,2.042,2.174,3.991,2.612,5.249c0.358,1.261,0.195,3.154-0.062,3.033
				c-0.16-0.158-1.934,1.059-3.171-0.483c-1.085-1.464-1.943-2.52-2.671-2.995c-0.707-0.435,0.263-0.651-0.571-2.332
				c-0.79-1.411,0.523-3.181,1.298-3.011C431.551,127.624,433.317,127.994,433.317,127.994z"/>
			<path d="M423.983,172.299c0.583,1.803,2.895,3.479,3.898,5.275c0.506,0.908,0.58,1.701,0.491,2.233
				c-0.178,0.512-0.015,1.026-0.124,0.986c-0.039,0.109-2.032,1.077-3.345-0.365c-1.224-1.371-2.413-2.234-3.289-2.654
				c-0.858-0.429,0.059-0.636-1.319-2.745c-0.683-1.078-0.574-2.063-0.166-2.678c0.405-0.596,1.074-0.796,1.417-0.618
				C422.25,172.113,423.983,172.299,423.983,172.299z"/>
			<path d="M437.877,168.331c-0.006,1.596,2.135,3.555,2.993,5.112c0.447,0.81,0.444,1.455,0.426,1.984
				c-0.08,0.494,0.308,0.995,0.13,0.972c-0.118-0.007-0.37,0.5-1.115,0.664c-0.674,0.173-1.68,0.034-2.36-0.71
				c-1.366-1.461-2.478-2.495-3.348-3.082c-0.819-0.626,0.056-0.603-0.988-3.227c-0.5-1.347,0.015-2.78,0.858-3.172
				c0.766-0.315,1.248,0.358,1.458,0.509C436.283,167.885,437.877,168.331,437.877,168.331z"/>
			<path d="M453.723,159.92c0.976,2.381,4.143,4.794,5.936,7.311c1.769,2.524,1.647,4.512,1.316,4.299
				c-0.334-0.237-2.381,0.519-4.17-1.32c-1.742-1.812-3.36-3.043-4.466-3.684c-1.088-0.668-0.115-0.747-2.189-3.709
				c-1.02-1.511-1.068-2.992-0.583-3.786c0.494-0.739,1.236-0.478,1.526-0.251C451.724,159.41,453.723,159.92,453.723,159.92z"/>
			<path d="M112.271,197.281c4.448,0.807,7.681,5.256,6.063,9.704c-1.615,4.447,2.023,9.298-3.638,8.895
				c-5.661-0.404-4.484-0.742-8.896-3.234l-7.681-5.661L112.271,197.281z"/>
			<path d="M90.841,213.452c5.661,4.044,4.853,6.875,4.448,10.109c-0.405,3.234,0.943,10.152-2.83,8.491c0,0-17.411-5.233-17.6-6.66
				C74.67,223.965,90.841,213.452,90.841,213.452z"/>
			<path d="M287.264,181.73c-2.582,3.873-2.582,14.847,1.937,13.556c4.519-1.291,14.847,4.519,16.139,0.646
				c1.289-3.874-3.23-11.62-3.23-11.62S293.072,170.11,287.264,181.73z"/>
			<path d="M229.039,367.229c-3.138,8.163,10.047,8.163,13.814,4.395c3.768-3.766,12.561-5.023,15.698-5.023
				c3.141,0,3.126-7.858-1.257-11.302c-4.38-3.444-13.185-5.023-18.836,1.255C232.807,362.834,229.039,367.229,229.039,367.229z"/>
			<path d="M239.716,391.717c-6.279-4.395,1.884-8.79,7.533-12.557c5.652-3.768,8.166-5.652,15.071-3.139
				c6.906,2.511,8.163,5.65,3.768,10.674c-4.395,5.023-8.793,1.884-13.188,5.023C248.506,394.857,239.716,391.717,239.716,391.717z"
				/>
			<path d="M274.251,317.624c-1.884,5.65,5.285,3.406,5.285,3.406s4.762-4.663,9.783-7.802c5.025-3.139,10.677-6.279,6.909-6.907
				C292.46,305.694,276.762,304.438,274.251,317.624z"/>
			<path d="M236.404,131.119c-1.417,0-2.582-0.427-3.357-1.013c-1.683-1.276-1.491-3.307,2.061-3.307
				c3.138,0,3.901,1.584,3.44,2.833C238.246,130.446,237.427,131.119,236.404,131.119z"/>
			<path d="M247.956,123.902c-0.5-0.389-0.946-1.508-1.041-2.631c-0.1-1.165,0.183-2.333,1.18-2.69
				c1.961-0.699,2.103,0.42,2.103,1.82C250.197,121.803,249.215,124.883,247.956,123.902z"/>
			<path d="M195.481,118.49c0.089,0.515,1.011,1.803,2.295,3.798c0.609,1.016,1.313,2.243,1.662,3.772
				c0.379,1.513,0.275,3.268-0.349,4.821c-0.606,1.557-1.795,2.978-3.351,3.72c-0.757,0.373-1.638,0.546-2.354,0.606
				c-0.686,0.061-1.352,0.081-1.988,0.065c-2.537-0.019-4.566-0.781-5.329-1.239c-0.592-0.327-1.159-0.725-1.68-1.193
				c-0.577-0.559-0.778-0.744-1.227-1.118c-0.852-0.679-1.656-1.321-2.378-1.896c-1.52-1.187-2.688-2.786-2.866-3.639
				c-0.396-1.671,0.189-2.61,1.754-2.319c1.639,0.247,2.18,0.435,2.313,1.139c0.015,0.355,0.497,1.817,1.683,3.326
				c0.562,0.751,1.213,1.51,1.795,2.215c0.594,0.778,0.949,1.062,1.378,1.295c1.949,0.992,4.963,0.942,7.054,0.405
				c1.781-0.599,2.626-2.753,2.404-4.387c-0.186-1.609-1.292-3.04-2.274-4.215c-0.997-1.159-1.854-2.087-2.189-2.431
				c-1.402-1.434-0.266-2.217,0.855-2.83C193.83,117.761,195.297,117.693,195.481,118.49z"/>
			<path d="M247.423,101.375c0.065,0.382,0.612,1.316,1.461,2.387c0.816,1.031,2.132,2.37,3.324,2.526
				c1.035,0.248,2.304-1.066,2.739-2.073c0.429-1.001,0.228-1.908,0.133-2.301c-0.243-1.186-1.233-2.229-2.056-3.074
				c-0.846-0.847-1.591-1.644-1.721-2.048c-0.263-0.803-0.03-1.312,1.553-1.637c1.591-0.344,2.248-0.387,2.416,0.188
				c0.059,0.544,1.482,4.337,1.967,5.78c0.346,0.889,0.577,1.986,0.396,3.145c-0.172,1.152-0.733,2.252-1.426,3.103
				c-0.722,0.858-1.766,1.764-3.23,2.017c-1.455,0.257-2.762-0.22-3.67-0.692c-1.881-1.003-2.928-2.141-3.797-2.932
				c-0.837-0.81-1.369-1.341-1.6-1.491c-0.899-0.595,0.121-1.38,1.077-2.271C245.936,101.118,247.332,100.736,247.423,101.375z"/>
			<path d="M142.104,167.733c2.242-2.882,5.702-8.704,8.405-8.104c2.7,0.6,1.198,3.601,0,4.801c-1.201,1.201,0,5.402-4.504,7.503
				c-4.501,2.101-2.1,5.702-5.702,5.102C136.703,176.436,140.004,170.433,142.104,167.733z"/>
			<line x1="329.313" y1="230.034" x2="337.083" y2="251.227"/>
			<path d="M329.275,236.051c-3.437-6.311,2.209-7.749,2.733-4.787c0.526,2.962,2.535,5.38,3.351,7.604
				c0.816,2.224,1.63,4.448,1.952,6.854c0.322,2.406-0.027,7.58-1.541,4.98c-1.514-2.598-2.913-3.349-4.135-6.684
				C330.411,240.681,329.275,236.051,329.275,236.051z"/>
			<path d="M180.329,213.182c-1.195,0.321-2.585,0.565-4.152,0.324c-0.393-0.109-0.798-0.195-1.183-0.354
				c-0.376-0.213-0.748-0.444-1.112-0.686c-0.609-0.603-1.168-1.278-1.458-2.026c-1.301-2.978-1.032-5.979-0.881-8.945
				c0.42-6.035,2.768-11.888,5.04-16.828c1.171-2.509,2.535-4.692,4.182-6.029c1.588-1.288,2.759-2.011,3.395-2.823
				c0.66-0.776,0.917-1.449,1.071-1.755c0.16-0.312,0.21-0.277,0.124,0.118c-0.163,0.751-0.322,2.088-1.751,3.703
				c-0.68,0.806-1.612,1.628-2.455,2.73c-0.84,1.103-1.627,2.586-2.464,4.407c-1.621,3.697-2.966,7.142-3.706,10.1
				c-0.757,2.972-0.967,5.488-0.991,7.335c0.009,1.848-0.03,2.356-0.059,3.766c0.015,0.698,0.038,1.63,0.393,2.898
				c0.402,1.221,1.31,2.601,3.927,2.178c2.538-0.399,4.64-1.468,6.252-2.057c1.624-0.658,2.807-1.087,3.585-1.284
				c1.553-0.402,1.446,0.03,0.03,0.843c-1.402,0.843-3.295,1.979-4.841,2.907C181.708,212.62,180.329,213.182,180.329,213.182z"/>
		</g>
	</g>
	<path d="M173.723,53.142L172.79,9.21L128.719,0l6.281,43.451c0,0-7.814-4.761-12.785-0.915s1.947,14.226,14.742,11.558
		c6.068-1.913,4.594-7.209,4.594-7.209l-6.352-37.277l30.136,5.37l1.829,38.313c0,0-9.799-4.656-11.029,2.176
		c-1.23,6.832,10.396,8.405,14.04,5.824C173.819,58.709,174.486,56.286,173.723,53.142z"/>
	<path d="M363.894,88.827c0-1.343,6.912-28.544,6.912-28.544s10.95-2.086,17.664,7.762c2.686,3.133,7.162,1.79,7.162,1.79
		s-7.009,7.702-12.636,4.326c-5.706-3.424-8.815-3.001-8.815-3.001l-4.021,15.877c0,0-2.355,12.255-7.609,13.876
		c-8.305,2.562-19.695-1.79-17.904-9.4S358.075,83.456,363.894,88.827z"/>
	<path d="M56.412,125.14l8.548,25.032c0,0-12.822,0.611-14.653,9.158c-1.832,8.548,18.316,11.6,22.59-7.327l-9.769-27.475
		L56.412,125.14z"/>
</g>
</svg>
